<svg width="544" height="1733" viewBox="0 0 544 1733" fill="none" xmlns="http://www.w3.org/2000/svg">
<rect x="6.22222" y="6.22222" width="531.556" height="1720.56" rx="31.7778" fill="white"/>
<rect x="6.22222" y="6.22222" width="531.556" height="1720.56" rx="31.7778" stroke="#E5E5E5" stroke-width="11.5556"/>
<rect width="520" height="138.667" transform="translate(12 35.1111)" fill="white"/>
<rect x="12" y="35.1111" width="520" height="69.3333" fill="white"/>
<path d="M250.391 71.6195H269.48V73.5377H250.391V71.6195ZM258.711 69.1004H261.114V72.3822H258.711V69.1004ZM252.84 68.0373H267.331V69.8862H252.84V68.0373ZM252.84 61.1502H267.192V63.0222H255.244V69.0773H252.84V61.1502ZM254.551 64.5937H266.684V66.3964H254.551V64.5937ZM259.912 74.8319C264.535 74.8319 267.192 76.0337 267.192 78.2524C267.192 80.471 264.535 81.6728 259.912 81.6728C255.29 81.6728 252.632 80.471 252.632 78.2524C252.632 76.0337 255.29 74.8319 259.912 74.8319ZM259.912 76.6346C256.723 76.6346 255.059 77.1893 255.059 78.2524C255.059 79.3386 256.723 79.8702 259.912 79.8702C263.102 79.8702 264.766 79.3386 264.766 78.2524C264.766 77.1893 263.102 76.6346 259.912 76.6346ZM279.832 66.3039H284.339V68.2453H279.832V66.3039ZM279.694 71.5964H284.27V73.5377H279.694V71.5964ZM287.39 60.5724H289.724V81.6959H287.39V60.5724ZM283.114 61.0808H285.379V80.679H283.114V61.0808ZM278.376 63.1608H280.711C280.711 68.8924 278.677 73.7919 272.899 77.2124L271.512 75.5022C276.389 72.567 278.376 68.6613 278.376 63.623V63.1608ZM272.576 63.1608H279.255V65.1253H272.576V63.1608Z" fill="black"/>
<rect width="260" height="69.3333" transform="translate(12 104.444)" fill="white"/>
<path d="M127.711 130.685H130.42V149.411H127.711V130.685ZM122.19 132.626H124.859C124.859 138.349 122.918 143.041 116.265 146.256L114.87 144.113C120.249 141.524 122.19 138.127 122.19 133.112V132.626ZM115.86 132.626H123.464V134.75H115.86V132.626ZM145.444 130.685H148.154V144.092H145.444V130.685ZM147.385 135.902H150.641V138.107H147.385V135.902ZM140.227 132.08H143.098C143.098 137.176 139.984 140.675 134.403 142.293L133.27 140.149C137.861 138.895 140.227 136.388 140.227 133.415V132.08ZM134.079 132.08H141.683V134.244H134.079V132.08ZM136.041 146.944H148.781V149.087H136.041V146.944ZM136.041 142.738H138.75V147.894H136.041V142.738ZM161.054 133.031H165.584V135.053H161.054V133.031ZM161.054 136.448H165.584V138.471H161.054V136.448ZM164.997 130.685H167.687V140.291H164.997V130.685ZM155.311 141.019H167.687V146.034H158V148.4H155.331V144.092H165.018V143.081H155.311V141.019ZM155.331 147.126H168.213V149.209H155.331V147.126ZM152.803 131.454H155.473V133.638H159.032V131.454H161.661V139.785H152.803V131.454ZM155.473 135.66V137.682H159.032V135.66H155.473Z" fill="#1777E9"/>
<rect x="12" y="168" width="260" height="5.77778" fill="#1777E9"/>
<rect width="260" height="69.3333" transform="translate(272 104.444)" fill="white"/>
<path d="M376.973 131.636H389.551V136.408H378.712V139.563H377.013V135.114H387.872V132.99H376.973V131.636ZM377.013 138.734H389.976V140.109H377.013V138.734ZM374.991 141.989H391.573V143.385H374.991V141.989ZM382.412 142.515H384.071V149.209H382.412V142.515ZM406.9 130.928H408.599V144.497H406.9V130.928ZM396.85 147.409H409.145V148.784H396.85V147.409ZM396.85 143.324H398.508V148.137H396.85V143.324ZM394.666 140.149H396.142C400.085 140.149 402.249 140.068 404.817 139.623L404.999 140.978C402.35 141.423 400.126 141.504 396.142 141.504H394.666V140.149ZM394.666 132.343H403.361V133.718H396.324V140.473H394.666V132.343ZM395.778 136.186H402.856V137.54H395.778V136.186ZM420.832 133.496H425.988V134.81H420.832V133.496ZM420.832 136.833H425.988V138.147H420.832V136.833ZM425.564 130.908H427.242V140.432H425.564V130.908ZM415.473 141.342H427.242V145.67H417.151V148.481H415.513V144.416H425.584V142.677H415.473V141.342ZM415.513 147.611H427.909V148.946H415.513V147.611ZM413.107 131.737H414.765V134.366H419.719V131.737H421.357V139.724H413.107V131.737ZM414.765 135.68V138.37H419.719V135.68H414.765Z" fill="#909090"/>
<rect width="520" height="288.667" transform="translate(12 173.778)" fill="white"/>
<path d="M54.2934 222.482H57.3556V225.487C57.3556 227.027 57.1919 228.539 56.8645 230.022C56.5564 231.505 56.0845 232.901 55.449 234.211C54.8327 235.501 54.0527 236.647 53.109 237.649C52.1653 238.631 51.0675 239.411 49.8156 239.989L47.6201 236.956C48.7371 236.436 49.7097 235.761 50.5379 234.933C51.3853 234.105 52.0786 233.181 52.6179 232.16C53.1764 231.12 53.5905 230.032 53.8601 228.896C54.149 227.74 54.2934 226.604 54.2934 225.487V222.482ZM55.1312 222.482H58.1645V225.487C58.1645 226.546 58.2993 227.624 58.569 228.722C58.8579 229.801 59.2719 230.831 59.8112 231.813C60.3505 232.776 61.0342 233.643 61.8623 234.413C62.6905 235.184 63.6727 235.8 64.809 236.262L62.7001 239.324C61.429 238.766 60.3216 238.015 59.3779 237.071C58.4342 236.127 57.6445 235.039 57.009 233.807C56.3734 232.574 55.9016 231.255 55.5934 229.849C55.2853 228.424 55.1312 226.97 55.1312 225.487V222.482ZM48.689 220.807H63.7112V223.984H48.689V220.807ZM66.1956 218.264H70.0379V245.016H66.1956V218.264ZM77.4023 219.449H94.3312V222.482H77.4023V219.449ZM74.4267 229.069H98.6645V232.102H74.4267V229.069ZM92.02 219.449H95.8045V221.587C95.8045 222.723 95.7756 223.946 95.7178 225.256C95.66 226.565 95.4289 228.087 95.0245 229.82L91.1823 229.791C91.606 228.039 91.8467 226.517 91.9045 225.227C91.9815 223.936 92.02 222.723 92.02 221.587V219.449ZM77.2578 234.904H95.6889V244.727H77.2578V234.904ZM91.9334 237.909H81.0423V241.693H91.9334V237.909ZM118.422 218.236H122.264V244.987H118.422V218.236ZM121.08 228.693H125.731V231.871H121.08V228.693ZM105.278 220.98H108.86C108.86 222.829 108.793 224.581 108.658 226.238C108.542 227.894 108.301 229.473 107.936 230.976C107.57 232.478 107.021 233.932 106.289 235.338C105.576 236.724 104.633 238.082 103.458 239.411L100.453 237.216C101.474 236.079 102.302 234.933 102.938 233.778C103.573 232.622 104.064 231.419 104.411 230.167C104.758 228.915 104.989 227.576 105.104 226.151C105.22 224.707 105.278 223.127 105.278 221.413V220.98ZM101.638 220.98H106.78V224.071H101.638V220.98ZM112.644 220.98H116.256C116.256 222.906 116.188 224.774 116.053 226.584C115.938 228.376 115.697 230.109 115.331 231.784C114.965 233.441 114.436 235.049 113.742 236.609C113.049 238.15 112.115 239.642 110.94 241.087L107.936 238.978C108.956 237.687 109.775 236.387 110.391 235.078C111.007 233.768 111.479 232.41 111.807 231.004C112.134 229.599 112.356 228.106 112.471 226.527C112.587 224.947 112.644 223.233 112.644 221.384V220.98ZM109.784 220.98H114.233V224.071H109.784V220.98ZM134.02 222.482H137.082V225.487C137.082 227.027 136.918 228.539 136.591 230.022C136.283 231.505 135.811 232.901 135.176 234.211C134.559 235.501 133.779 236.647 132.836 237.649C131.892 238.631 130.794 239.411 129.542 239.989L127.347 236.956C128.464 236.436 129.436 235.761 130.264 234.933C131.112 234.105 131.805 233.181 132.344 232.16C132.903 231.12 133.317 230.032 133.587 228.896C133.876 227.74 134.02 226.604 134.02 225.487V222.482ZM134.858 222.482H137.891V225.487C137.891 226.546 138.026 227.624 138.296 228.722C138.584 229.801 138.998 230.831 139.538 231.813C140.077 232.776 140.761 233.643 141.589 234.413C142.417 235.184 143.399 235.8 144.536 236.262L142.427 239.324C141.156 238.766 140.048 238.015 139.104 237.071C138.161 236.127 137.371 235.039 136.736 233.807C136.1 232.574 135.628 231.255 135.32 229.849C135.012 228.424 134.858 226.97 134.858 225.487V222.482ZM128.416 220.807H143.438V223.984H128.416V220.807ZM145.922 218.264H149.764V245.016H145.922V218.264ZM287.624 230.831H311.804V233.864H287.624V230.831ZM297.793 226.816H301.635V232.016H297.793V226.816ZM290.542 225.602H309.06V228.607H290.542V225.602ZM290.542 219.391H308.915V222.424H294.355V227.509H290.542V219.391ZM299.613 235.193C302.502 235.193 304.774 235.627 306.431 236.493C308.087 237.341 308.915 238.554 308.915 240.133C308.915 241.693 308.087 242.897 306.431 243.744C304.774 244.611 302.502 245.044 299.613 245.044C296.724 245.044 294.451 244.611 292.795 243.744C291.158 242.897 290.34 241.693 290.34 240.133C290.34 238.554 291.158 237.341 292.795 236.493C294.451 235.627 296.724 235.193 299.613 235.193ZM299.613 238.111C298.419 238.111 297.417 238.188 296.608 238.342C295.819 238.477 295.222 238.699 294.817 239.007C294.413 239.296 294.211 239.661 294.211 240.104C294.211 240.567 294.413 240.952 294.817 241.26C295.222 241.549 295.819 241.77 296.608 241.924C297.417 242.059 298.419 242.127 299.613 242.127C300.807 242.127 301.799 242.059 302.588 241.924C303.397 241.77 304.004 241.549 304.408 241.26C304.813 240.952 305.015 240.567 305.015 240.104C305.015 239.661 304.813 239.296 304.408 239.007C304.004 238.699 303.397 238.477 302.588 238.342C301.799 238.188 300.807 238.111 299.613 238.111ZM331.36 218.264H335.202V237.707H331.36V218.264ZM334.133 225.891H338.755V229.069H334.133V225.891ZM317.955 241.462H336.155V244.553H317.955V241.462ZM317.955 235.684H321.826V242.849H317.955V235.684ZM321.595 219.969C322.963 219.969 324.195 220.258 325.293 220.836C326.391 221.413 327.257 222.213 327.893 223.233C328.548 224.254 328.875 225.429 328.875 226.758C328.875 228.067 328.548 229.242 327.893 230.282C327.257 231.303 326.391 232.112 325.293 232.709C324.195 233.287 322.963 233.576 321.595 233.576C320.228 233.576 318.995 233.287 317.897 232.709C316.8 232.112 315.933 231.303 315.297 230.282C314.662 229.242 314.344 228.067 314.344 226.758C314.344 225.429 314.662 224.254 315.297 223.233C315.933 222.213 316.8 221.413 317.897 220.836C318.995 220.258 320.228 219.969 321.595 219.969ZM321.595 223.291C320.94 223.291 320.343 223.436 319.804 223.724C319.284 223.994 318.87 224.389 318.562 224.909C318.254 225.41 318.1 226.026 318.1 226.758C318.1 227.49 318.254 228.116 318.562 228.636C318.87 229.136 319.284 229.531 319.804 229.82C320.343 230.09 320.94 230.224 321.595 230.224C322.269 230.224 322.866 230.09 323.386 229.82C323.925 229.531 324.349 229.136 324.657 228.636C324.965 228.116 325.12 227.49 325.12 226.758C325.12 226.026 324.965 225.41 324.657 224.909C324.349 224.389 323.925 223.994 323.386 223.724C322.866 223.436 322.269 223.291 321.595 223.291ZM50.6245 261.102H69.2867V269.076H54.5534V273.12H50.6534V266.187H65.3867V264.136H50.6245V261.102ZM50.6534 271.271H69.9223V274.304H50.6534V271.271ZM47.8512 276.269H72.0601V279.331H47.8512V276.269ZM57.9912 277.396H61.8045V287.044H57.9912V277.396ZM92.8 260.264H96.6423V280.024H92.8V260.264ZM78.8178 283.462H97.3356V286.553H78.8178V283.462ZM78.8178 278.32H82.66V285.398H78.8178V278.32ZM75.8712 273.264H78.1823C80.0119 273.264 81.62 273.255 83.0067 273.236C84.4126 273.197 85.7126 273.13 86.9067 273.033C88.12 272.937 89.343 272.793 90.5756 272.6L90.9512 275.576C89.68 275.768 88.4186 275.922 87.1667 276.038C85.9341 276.134 84.5956 276.201 83.1512 276.24C81.7067 276.259 80.0504 276.269 78.1823 276.269H75.8712V273.264ZM75.8712 262.287H88.7556V265.32H79.6845V273.698H75.8712V262.287ZM78.5 267.747H87.9756V270.722H78.5V267.747ZM113.107 260.611C116.15 260.611 118.519 261.006 120.213 261.796C121.927 262.585 122.784 263.721 122.784 265.204C122.784 266.668 121.927 267.795 120.213 268.584C118.519 269.374 116.15 269.769 113.107 269.769C110.044 269.769 107.656 269.374 105.942 268.584C104.247 267.795 103.4 266.668 103.4 265.204C103.4 263.721 104.247 262.585 105.942 261.796C107.656 261.006 110.044 260.611 113.107 260.611ZM113.078 263.442C111.807 263.442 110.747 263.51 109.9 263.644C109.053 263.76 108.417 263.953 107.993 264.222C107.589 264.473 107.387 264.8 107.387 265.204C107.387 265.609 107.589 265.946 107.993 266.216C108.417 266.466 109.053 266.649 109.9 266.764C110.747 266.88 111.807 266.938 113.078 266.938C114.368 266.938 115.437 266.88 116.284 266.764C117.132 266.649 117.758 266.466 118.162 266.216C118.567 265.946 118.769 265.609 118.769 265.204C118.769 264.8 118.567 264.473 118.162 264.222C117.758 263.953 117.132 263.76 116.284 263.644C115.437 263.51 114.368 263.442 113.078 263.442ZM100.973 271.011H125.182V274.044H100.973V271.011ZM103.747 275.547H122.236V282.393H107.589V284.762H103.776V279.736H118.451V278.378H103.747V275.547ZM103.776 283.924H122.958V286.842H103.776V283.924ZM135.307 284.444V280.978H139.93V267.487H136.03V264.829C137.108 264.636 138.033 264.405 138.803 264.136C139.593 263.847 140.324 263.481 140.998 263.038H144.147V280.978H148.163V284.444H135.307ZM158.501 284.849C157.056 284.849 155.785 284.435 154.687 283.607C153.609 282.759 152.761 281.507 152.145 279.851C151.548 278.176 151.249 276.105 151.249 273.64C151.249 271.194 151.548 269.162 152.145 267.544C152.761 265.907 153.609 264.684 154.687 263.876C155.785 263.067 157.056 262.662 158.501 262.662C159.964 262.662 161.235 263.076 162.314 263.904C163.392 264.713 164.23 265.927 164.827 267.544C165.444 269.162 165.752 271.194 165.752 273.64C165.752 276.105 165.444 278.176 164.827 279.851C164.23 281.507 163.392 282.759 162.314 283.607C161.235 284.435 159.964 284.849 158.501 284.849ZM158.501 281.527C159.136 281.527 159.695 281.286 160.176 280.804C160.658 280.323 161.033 279.514 161.303 278.378C161.572 277.222 161.707 275.643 161.707 273.64C161.707 271.656 161.572 270.106 161.303 268.989C161.033 267.853 160.658 267.063 160.176 266.62C159.695 266.158 159.136 265.927 158.501 265.927C157.904 265.927 157.355 266.158 156.854 266.62C156.372 267.063 155.987 267.853 155.698 268.989C155.409 270.106 155.265 271.656 155.265 273.64C155.265 275.643 155.409 277.222 155.698 278.378C155.987 279.514 156.372 280.323 156.854 280.804C157.355 281.286 157.904 281.527 158.501 281.527ZM175.541 284.849C174.096 284.849 172.825 284.435 171.727 283.607C170.649 282.759 169.801 281.507 169.185 279.851C168.588 278.176 168.289 276.105 168.289 273.64C168.289 271.194 168.588 269.162 169.185 267.544C169.801 265.907 170.649 264.684 171.727 263.876C172.825 263.067 174.096 262.662 175.541 262.662C177.004 262.662 178.275 263.076 179.354 263.904C180.432 264.713 181.27 265.927 181.867 267.544C182.483 269.162 182.792 271.194 182.792 273.64C182.792 276.105 182.483 278.176 181.867 279.851C181.27 281.507 180.432 282.759 179.354 283.607C178.275 284.435 177.004 284.849 175.541 284.849ZM175.541 281.527C176.176 281.527 176.735 281.286 177.216 280.804C177.698 280.323 178.073 279.514 178.343 278.378C178.612 277.222 178.747 275.643 178.747 273.64C178.747 271.656 178.612 270.106 178.343 268.989C178.073 267.853 177.698 267.063 177.216 266.62C176.735 266.158 176.176 265.927 175.541 265.927C174.943 265.927 174.395 266.158 173.894 266.62C173.412 267.063 173.027 267.853 172.738 268.989C172.449 270.106 172.305 271.656 172.305 273.64C172.305 275.643 172.449 277.222 172.738 278.378C173.027 279.514 173.412 280.323 173.894 280.804C174.395 281.286 174.943 281.527 175.541 281.527ZM190.183 276.211C189.181 276.211 188.286 275.941 187.496 275.402C186.706 274.863 186.09 274.083 185.647 273.062C185.204 272.041 184.983 270.819 184.983 269.393C184.983 267.968 185.204 266.755 185.647 265.753C186.09 264.752 186.706 263.991 187.496 263.471C188.286 262.932 189.181 262.662 190.183 262.662C191.223 262.662 192.128 262.932 192.898 263.471C193.688 263.991 194.304 264.752 194.747 265.753C195.19 266.755 195.412 267.968 195.412 269.393C195.412 270.819 195.19 272.041 194.747 273.062C194.304 274.083 193.688 274.863 192.898 275.402C192.128 275.941 191.223 276.211 190.183 276.211ZM190.183 273.813C190.799 273.813 191.319 273.476 191.743 272.802C192.186 272.109 192.407 270.973 192.407 269.393C192.407 267.833 192.186 266.726 191.743 266.071C191.319 265.397 190.799 265.06 190.183 265.06C189.566 265.06 189.037 265.397 188.594 266.071C188.17 266.726 187.958 267.833 187.958 269.393C187.958 270.973 188.17 272.109 188.594 272.802C189.037 273.476 189.566 273.813 190.183 273.813ZM190.876 284.849L202.518 262.662H205.032L193.418 284.849H190.876ZM205.754 284.849C204.733 284.849 203.828 284.579 203.038 284.04C202.268 283.501 201.652 282.721 201.189 281.7C200.746 280.679 200.525 279.456 200.525 278.031C200.525 276.587 200.746 275.364 201.189 274.362C201.652 273.361 202.268 272.6 203.038 272.08C203.828 271.541 204.733 271.271 205.754 271.271C206.755 271.271 207.641 271.541 208.412 272.08C209.201 272.6 209.818 273.361 210.26 274.362C210.723 275.364 210.954 276.587 210.954 278.031C210.954 279.456 210.723 280.679 210.26 281.7C209.818 282.721 209.201 283.501 208.412 284.04C207.641 284.579 206.755 284.849 205.754 284.849ZM205.754 282.422C206.37 282.422 206.89 282.085 207.314 281.411C207.738 280.718 207.949 279.591 207.949 278.031C207.949 276.433 207.738 275.316 207.314 274.68C206.89 274.025 206.37 273.698 205.754 273.698C205.118 273.698 204.589 274.025 204.165 274.68C203.741 275.316 203.529 276.433 203.529 278.031C203.529 279.591 203.741 280.718 204.165 281.411C204.589 282.085 205.118 282.422 205.754 282.422ZM220.5 269.942H222.725C224.593 269.942 226.211 269.923 227.578 269.884C228.945 269.827 230.197 269.74 231.334 269.624C232.489 269.49 233.625 269.307 234.742 269.076L235.147 272.051C233.991 272.301 232.826 272.494 231.651 272.629C230.477 272.764 229.177 272.86 227.751 272.918C226.326 272.956 224.651 272.976 222.725 272.976H220.5V269.942ZM220.5 261.622H232.489V264.627H224.342V271.647H220.5V261.622ZM236.794 260.236H240.636V273.524H236.794V260.236ZM239.596 265.291H244.189V268.411H239.596V265.291ZM222.985 274.651H240.636V282.018H226.827V285.224H223.014V279.216H236.851V277.656H222.985V274.651ZM223.014 283.693H241.416V286.727H223.014V283.693ZM252.391 261.651H255.569V264.02C255.569 265.811 255.29 267.496 254.731 269.076C254.192 270.655 253.364 272.032 252.247 273.207C251.13 274.381 249.695 275.267 247.942 275.864L245.92 272.773C247.461 272.292 248.703 271.599 249.647 270.693C250.591 269.788 251.284 268.758 251.727 267.602C252.17 266.447 252.391 265.253 252.391 264.02V261.651ZM253.171 261.651H256.291V263.847C256.291 265.021 256.494 266.158 256.898 267.256C257.302 268.334 257.948 269.297 258.834 270.144C259.719 270.973 260.865 271.618 262.271 272.08L260.278 275.084C258.641 274.507 257.293 273.669 256.234 272.571C255.194 271.473 254.423 270.183 253.922 268.7C253.422 267.198 253.171 265.58 253.171 263.847V261.651ZM264.698 260.264H268.569V275.922H264.698V260.264ZM259.498 276.616C262.329 276.616 264.563 277.078 266.2 278.002C267.837 278.907 268.656 280.169 268.656 281.787C268.656 283.443 267.837 284.724 266.2 285.629C264.563 286.553 262.329 287.016 259.498 287.016C256.667 287.016 254.433 286.553 252.796 285.629C251.159 284.724 250.34 283.443 250.34 281.787C250.34 280.169 251.159 278.907 252.796 278.002C254.433 277.078 256.667 276.616 259.498 276.616ZM259.498 279.591C258.342 279.591 257.37 279.668 256.58 279.822C255.791 279.976 255.184 280.227 254.76 280.573C254.356 280.901 254.154 281.305 254.154 281.787C254.154 282.287 254.356 282.711 254.76 283.058C255.184 283.385 255.791 283.636 256.58 283.809C257.37 283.963 258.342 284.04 259.498 284.04C260.654 284.04 261.626 283.963 262.416 283.809C263.205 283.636 263.802 283.385 264.207 283.058C264.611 282.711 264.814 282.287 264.814 281.787C264.814 281.305 264.611 280.901 264.207 280.573C263.802 280.227 263.205 279.976 262.416 279.822C261.626 279.668 260.654 279.591 259.498 279.591ZM259.816 265.118H265.276V268.238H259.816V265.118ZM291.88 260.264H295.549V276.731H291.88V260.264ZM288.645 267.111H292.891V270.202H288.645V267.111ZM286.362 260.611H289.945V276.442H286.362V260.611ZM272.611 262.836H285.611V265.782H272.611V262.836ZM279.14 266.62C280.276 266.62 281.278 266.822 282.145 267.227C283.011 267.612 283.685 268.161 284.167 268.873C284.668 269.567 284.918 270.376 284.918 271.3C284.918 272.205 284.668 273.014 284.167 273.727C283.685 274.42 283.011 274.969 282.145 275.373C281.278 275.759 280.276 275.951 279.14 275.951C278.042 275.951 277.051 275.759 276.165 275.373C275.298 274.969 274.614 274.42 274.113 273.727C273.613 273.014 273.362 272.205 273.362 271.3C273.362 270.376 273.613 269.567 274.113 268.873C274.614 268.161 275.298 267.612 276.165 267.227C277.051 266.822 278.042 266.62 279.14 266.62ZM279.14 269.364C278.447 269.364 277.879 269.528 277.436 269.856C277.012 270.183 276.8 270.664 276.8 271.3C276.8 271.916 277.012 272.398 277.436 272.744C277.879 273.072 278.447 273.236 279.14 273.236C279.833 273.236 280.402 273.072 280.845 272.744C281.288 272.398 281.509 271.916 281.509 271.3C281.509 270.664 281.288 270.183 280.845 269.856C280.402 269.528 279.833 269.364 279.14 269.364ZM277.233 260.438H281.018V264.916H277.233V260.438ZM279.198 277.569H282.087V278.089C282.087 279.341 281.865 280.544 281.422 281.7C280.999 282.836 280.344 283.838 279.458 284.704C278.572 285.571 277.426 286.226 276.02 286.669L274.229 283.867C275.404 283.52 276.348 283.048 277.06 282.451C277.792 281.835 278.331 281.151 278.678 280.4C279.025 279.649 279.198 278.879 279.198 278.089V277.569ZM280.18 277.569H282.925V278.089C282.925 278.879 283.079 279.668 283.387 280.458C283.695 281.228 284.176 281.931 284.831 282.567C285.486 283.202 286.343 283.722 287.402 284.127L285.9 286.929C284.513 286.447 283.396 285.744 282.549 284.82C281.721 283.896 281.114 282.856 280.729 281.7C280.363 280.525 280.18 279.321 280.18 278.089V277.569ZM288.847 277.569H291.591V278.089C291.591 279.225 291.399 280.39 291.013 281.584C290.628 282.759 290.022 283.819 289.193 284.762C288.365 285.706 287.268 286.428 285.9 286.929L284.369 284.127C285.428 283.684 286.285 283.135 286.94 282.48C287.595 281.806 288.076 281.084 288.385 280.313C288.693 279.543 288.847 278.801 288.847 278.089V277.569ZM289.771 277.569H292.631V278.089C292.631 278.917 292.805 279.716 293.151 280.487C293.498 281.257 294.037 281.941 294.769 282.538C295.52 283.116 296.473 283.559 297.629 283.867L295.809 286.669C294.403 286.226 293.257 285.581 292.371 284.733C291.485 283.905 290.831 282.923 290.407 281.787C289.983 280.65 289.771 279.418 289.771 278.089V277.569ZM306.64 262.084C307.969 262.084 309.153 262.479 310.193 263.269C311.253 264.039 312.071 265.147 312.649 266.591C313.246 268.016 313.545 269.701 313.545 271.647C313.545 273.611 313.246 275.316 312.649 276.76C312.071 278.185 311.253 279.293 310.193 280.082C309.153 280.853 307.969 281.238 306.64 281.238C305.311 281.238 304.127 280.853 303.087 280.082C302.047 279.293 301.228 278.185 300.631 276.76C300.034 275.316 299.736 273.611 299.736 271.647C299.736 269.701 300.034 268.016 300.631 266.591C301.228 265.147 302.047 264.039 303.087 263.269C304.127 262.479 305.311 262.084 306.64 262.084ZM306.64 265.58C306.005 265.58 305.436 265.811 304.936 266.273C304.454 266.736 304.079 267.419 303.809 268.324C303.539 269.21 303.405 270.318 303.405 271.647C303.405 272.956 303.539 274.073 303.809 274.998C304.079 275.903 304.454 276.587 304.936 277.049C305.436 277.511 306.005 277.742 306.64 277.742C307.314 277.742 307.892 277.511 308.373 277.049C308.855 276.587 309.23 275.903 309.5 274.998C309.77 274.073 309.905 272.956 309.905 271.647C309.905 270.318 309.77 269.21 309.5 268.324C309.23 267.419 308.855 266.736 308.373 266.273C307.892 265.811 307.314 265.58 306.64 265.58ZM317.936 260.207H321.778V287.044H317.936V260.207ZM312.418 269.884H319.553V272.947H312.418V269.884ZM331.222 273.842H335.065V281.324H331.222V273.842ZM340.929 273.842H344.771V281.324H340.929V273.842ZM325.907 280.776H350.145V283.896H325.907V280.776ZM337.982 261.564C339.908 261.564 341.622 261.863 343.125 262.46C344.646 263.057 345.83 263.895 346.678 264.973C347.545 266.033 347.978 267.294 347.978 268.758C347.978 270.202 347.545 271.464 346.678 272.542C345.83 273.601 344.646 274.43 343.125 275.027C341.622 275.624 339.908 275.922 337.982 275.922C336.076 275.922 334.362 275.624 332.84 275.027C331.338 274.43 330.153 273.601 329.287 272.542C328.42 271.464 327.987 270.202 327.987 268.758C327.987 267.294 328.42 266.033 329.287 264.973C330.153 263.895 331.338 263.057 332.84 262.46C334.362 261.863 336.076 261.564 337.982 261.564ZM337.982 264.54C336.75 264.54 335.662 264.713 334.718 265.06C333.793 265.387 333.071 265.859 332.551 266.476C332.031 267.092 331.771 267.853 331.771 268.758C331.771 269.624 332.031 270.376 332.551 271.011C333.071 271.627 333.793 272.109 334.718 272.456C335.662 272.783 336.75 272.947 337.982 272.947C339.234 272.947 340.322 272.783 341.247 272.456C342.19 272.109 342.913 271.627 343.413 271.011C343.933 270.376 344.193 269.624 344.193 268.758C344.193 267.853 343.933 267.092 343.413 266.476C342.913 265.859 342.19 265.387 341.247 265.06C340.322 264.713 339.234 264.54 337.982 264.54Z" fill="#2C2C2C"/>
<path d="M172.774 221.962H180.661V225.053H172.774V221.962ZM172.774 228.462H180.661V231.553H172.774V228.462ZM179.216 218.264H183.087V237.822H179.216V218.264ZM165.407 241.462H183.694V244.553H165.407V241.462ZM165.407 235.916H169.25V243.08H165.407V235.916ZM168.065 219.853C169.394 219.853 170.588 220.152 171.647 220.749C172.726 221.327 173.573 222.136 174.19 223.176C174.825 224.216 175.143 225.41 175.143 226.758C175.143 228.087 174.825 229.281 174.19 230.34C173.573 231.38 172.726 232.199 171.647 232.796C170.588 233.393 169.394 233.691 168.065 233.691C166.755 233.691 165.561 233.393 164.483 232.796C163.424 232.199 162.576 231.38 161.941 230.34C161.324 229.281 161.016 228.087 161.016 226.758C161.016 225.41 161.324 224.216 161.941 223.176C162.576 222.136 163.424 221.327 164.483 220.749C165.561 220.152 166.755 219.853 168.065 219.853ZM168.065 223.204C167.43 223.204 166.852 223.349 166.332 223.638C165.812 223.927 165.398 224.341 165.09 224.88C164.801 225.4 164.656 226.026 164.656 226.758C164.656 227.509 164.801 228.154 165.09 228.693C165.398 229.213 165.812 229.618 166.332 229.907C166.852 230.176 167.43 230.311 168.065 230.311C168.72 230.311 169.298 230.176 169.798 229.907C170.318 229.618 170.723 229.213 171.012 228.693C171.32 228.154 171.474 227.509 171.474 226.758C171.474 226.026 171.32 225.4 171.012 224.88C170.723 224.341 170.318 223.927 169.798 223.638C169.298 223.349 168.72 223.204 168.065 223.204ZM187.245 231.236H211.483V234.269H187.245V231.236ZM197.385 227.769H201.227V232.564H197.385V227.769ZM197.356 218.727H200.649V219.536C200.649 220.518 200.495 221.461 200.187 222.367C199.879 223.253 199.427 224.071 198.829 224.822C198.232 225.573 197.501 226.257 196.634 226.873C195.767 227.47 194.766 227.981 193.629 228.404C192.512 228.828 191.261 229.136 189.874 229.329L188.458 226.296C189.672 226.161 190.75 225.939 191.694 225.631C192.657 225.304 193.485 224.919 194.178 224.476C194.891 224.033 195.478 223.541 195.941 223.002C196.422 222.463 196.778 221.904 197.009 221.327C197.241 220.73 197.356 220.133 197.356 219.536V218.727ZM197.992 218.727H201.256V219.536C201.256 220.152 201.372 220.759 201.603 221.356C201.834 221.953 202.181 222.521 202.643 223.06C203.105 223.58 203.683 224.061 204.376 224.504C205.089 224.947 205.927 225.323 206.889 225.631C207.852 225.939 208.941 226.161 210.154 226.296L208.738 229.329C207.371 229.136 206.119 228.828 204.983 228.404C203.866 227.981 202.864 227.48 201.978 226.902C201.112 226.305 200.38 225.631 199.783 224.88C199.186 224.11 198.733 223.281 198.425 222.396C198.136 221.51 197.992 220.556 197.992 219.536V218.727ZM189.932 236.147H208.536V245.016H204.694V239.18H189.932V236.147ZM221.579 242.444V238.978H226.201V225.487H222.301V222.829C223.38 222.636 224.304 222.405 225.075 222.136C225.864 221.847 226.596 221.481 227.27 221.038H230.419V238.978H234.435V242.444H221.579ZM244.252 242.849C243.116 242.849 242.105 242.714 241.219 242.444C240.333 242.175 239.543 241.819 238.85 241.376C238.157 240.933 237.54 240.451 237.001 239.931L238.966 237.216C239.37 237.62 239.803 237.986 240.266 238.313C240.747 238.641 241.267 238.901 241.826 239.093C242.403 239.286 243.02 239.382 243.675 239.382C244.406 239.382 245.052 239.228 245.61 238.92C246.188 238.612 246.64 238.169 246.968 237.591C247.295 236.994 247.459 236.281 247.459 235.453C247.459 234.221 247.122 233.267 246.448 232.593C245.793 231.919 244.926 231.582 243.848 231.582C243.232 231.582 242.702 231.669 242.259 231.842C241.816 231.996 241.277 232.276 240.641 232.68L238.706 231.438L239.283 221.038H250.723V224.62H242.952L242.548 229.156C242.972 228.963 243.386 228.819 243.79 228.722C244.195 228.626 244.637 228.578 245.119 228.578C246.313 228.578 247.411 228.819 248.412 229.3C249.414 229.762 250.213 230.494 250.81 231.496C251.407 232.497 251.706 233.778 251.706 235.338C251.706 236.917 251.349 238.275 250.637 239.411C249.943 240.528 249.029 241.385 247.892 241.982C246.775 242.56 245.562 242.849 244.252 242.849ZM261.986 219.016C263.372 219.016 264.595 219.285 265.654 219.824C266.733 220.344 267.58 221.067 268.197 221.991C268.832 222.896 269.15 223.946 269.15 225.14C269.15 226.334 268.832 227.393 268.197 228.318C267.58 229.223 266.733 229.936 265.654 230.456C264.595 230.976 263.372 231.236 261.986 231.236C260.637 231.236 259.424 230.976 258.346 230.456C257.267 229.936 256.41 229.223 255.774 228.318C255.158 227.393 254.85 226.334 254.85 225.14C254.85 223.946 255.158 222.887 255.774 221.962C256.41 221.038 257.267 220.316 258.346 219.796C259.424 219.276 260.637 219.016 261.986 219.016ZM262.014 222.136C261.36 222.136 260.772 222.261 260.252 222.511C259.732 222.742 259.318 223.079 259.01 223.522C258.721 223.965 258.577 224.504 258.577 225.14C258.577 225.776 258.721 226.324 259.01 226.787C259.318 227.23 259.723 227.567 260.223 227.798C260.743 228.029 261.34 228.144 262.014 228.144C262.669 228.144 263.247 228.029 263.748 227.798C264.268 227.567 264.672 227.23 264.961 226.787C265.269 226.324 265.423 225.776 265.423 225.14C265.423 224.504 265.269 223.965 264.961 223.522C264.672 223.079 264.268 222.742 263.748 222.511C263.228 222.261 262.65 222.136 262.014 222.136ZM272.848 218.264H276.69V231.64H272.848V218.264ZM258.866 232.738H276.69V240.047H262.679V243.311H258.894V237.273H272.877V235.684H258.866V232.738ZM258.894 241.722H277.354V244.727H258.894V241.722Z" fill="#1777E9"/>
<path d="M52.8952 345.074H54.5939V349.037H52.8952V345.074ZM52.8952 338.643H54.2501V339.048C54.2501 342.243 52.1672 344.71 49.0934 345.681L48.325 344.366C51.0347 343.557 52.8952 341.515 52.8952 339.048V338.643ZM53.2187 338.643H54.5736V339.048C54.5736 341.414 56.4947 343.395 59.1843 344.184L58.4159 345.478C55.3421 344.568 53.2187 342.142 53.2187 339.048V338.643ZM48.7496 337.794H58.8001V339.149H48.7496V337.794ZM52.8952 335.529H54.5939V338.38H52.8952V335.529ZM60.883 335.387H62.5614V353.709H60.883V335.387ZM48.0014 349.947L47.7587 348.532C51.0954 348.532 55.7061 348.512 59.6899 347.905L59.8314 349.139C55.7263 349.907 51.2572 349.927 48.0014 349.947ZM68.0198 337.228H79.7892V338.623H68.0198V337.228ZM66.2807 349.745H82.8023V351.141H66.2807V349.745ZM72.6912 343.213H74.3696V350.433H72.6912V343.213ZM79.1623 337.228H80.8205V339.048C80.8205 341.313 80.8205 343.82 80.1532 347.521L78.4747 347.298C79.1623 343.8 79.1623 341.232 79.1623 339.048V337.228ZM97.8588 338.259H103.359V339.634H97.8588V338.259ZM97.8588 342.647H103.359V344.022H97.8588V342.647ZM102.753 335.428H104.431V348.936H102.753V335.428ZM92.7628 351.909H104.937V353.284H92.7628V351.909ZM92.7628 347.541H94.4413V352.516H92.7628V347.541ZM94.3806 336.581C97.0702 336.581 99.0924 338.461 99.0924 341.151C99.0924 343.84 97.0702 345.721 94.3806 345.721C91.6911 345.721 89.6688 343.84 89.6688 341.151C89.6688 338.461 91.6911 336.581 94.3806 336.581ZM94.3806 338.057C92.6011 338.057 91.2866 339.351 91.2866 341.151C91.2866 342.971 92.6011 344.265 94.3806 344.265C96.1602 344.265 97.4948 342.971 97.4948 341.151C97.4948 339.351 96.1602 338.057 94.3806 338.057ZM107.989 344.568H124.571V345.943H107.989V344.568ZM115.41 341.798H117.068V345.195H115.41V341.798ZM115.39 335.691H116.846V336.5C116.846 339.796 113.347 342.142 109.627 342.748L108.979 341.414C112.255 340.969 115.39 338.947 115.39 336.5V335.691ZM115.653 335.691H117.089V336.5C117.089 338.947 120.243 340.969 123.499 341.414L122.872 342.748C119.171 342.121 115.653 339.796 115.653 336.5V335.691ZM109.829 347.723H122.468V353.689H120.789V349.078H109.829V347.723ZM131.943 342.566H133.358C137.039 342.566 139.203 342.445 141.71 341.939L141.912 343.294C139.324 343.82 137.1 343.941 133.358 343.941H131.943V342.566ZM131.943 336.459H140.012V337.814H133.601V343.375H131.943V336.459ZM143.631 335.408H145.31V344.609H143.631V335.408ZM144.845 339.25H148.02V340.645H144.845V339.25ZM133.702 345.539H145.31V350.049H135.401V352.88H133.743V348.754H143.672V346.874H133.702V345.539ZM133.743 352.091H145.977V353.446H133.743V352.091ZM154.327 336.439H155.723V338.32C155.723 341.859 153.721 344.75 150.586 345.923L149.717 344.548C152.507 343.557 154.327 341.11 154.327 338.32V336.439ZM154.631 336.439H156.006V338.259C156.006 340.847 157.785 343.133 160.455 344.063L159.545 345.377C156.592 344.265 154.631 341.575 154.631 338.259V336.439ZM163.084 335.408H164.762V346.227H163.084V335.408ZM158.756 346.752C162.517 346.752 164.843 348.026 164.843 350.21C164.843 352.394 162.517 353.648 158.756 353.648C154.974 353.648 152.649 352.394 152.649 350.21C152.649 348.026 154.974 346.752 158.756 346.752ZM158.756 348.087C156.006 348.087 154.327 348.876 154.327 350.21C154.327 351.545 156.006 352.334 158.756 352.334C161.506 352.334 163.185 351.545 163.185 350.21C163.185 348.876 161.506 348.087 158.756 348.087ZM159.12 339.27H163.448V340.665H159.12V339.27Z" fill="#2C2C2C"/>
<path d="M449.78 354.111V352.17C454.448 347.987 457.175 344.774 457.175 342.14C457.175 340.429 456.274 339.366 454.633 339.366C453.362 339.366 452.368 340.175 451.49 341.146L449.618 339.297C451.19 337.61 452.738 336.709 455.072 336.709C458.285 336.709 460.457 338.765 460.457 341.955C460.457 345.075 457.869 348.403 454.749 351.453C455.604 351.361 456.736 351.245 457.545 351.245H461.243V354.111H449.78ZM464.313 354.111V351.361H468.011V340.545H464.891V338.442C466.624 338.118 467.78 337.679 468.889 337.009H471.408V351.361H474.621V354.111H464.313ZM483.03 335.391C486.288 335.391 488.738 337.425 488.738 340.291C488.738 343.133 486.288 345.167 483.03 345.167C479.771 345.167 477.321 343.133 477.321 340.291C477.321 337.425 479.771 335.391 483.03 335.391ZM483.03 337.887C481.458 337.887 480.279 338.765 480.279 340.291C480.279 341.816 481.458 342.694 483.03 342.694C484.601 342.694 485.757 341.816 485.757 340.291C485.757 338.765 484.601 337.887 483.03 337.887ZM491.696 334.767H494.793V345.468H491.696V334.767ZM480.51 346.346H494.793V352.216H483.561V354.805H480.557V349.997H491.742V348.726H480.51V346.346ZM480.557 353.557H495.325V355.937H480.557V353.557Z" fill="#2C2C2C"/>
<path d="M49.8012 409.202H62.339V410.577H49.8012V409.202ZM47.6779 413.307H64.2601V414.702H47.6779V413.307ZM55.059 414.055H56.7374V421.355H55.059V414.055ZM49.8012 403.984H51.4796V409.869H49.8012V403.984ZM70.9318 404.914H72.3069V406.411C72.3069 407.516 72.0912 408.554 71.6598 409.525C71.2419 410.496 70.6487 411.345 69.8803 412.073C69.1118 412.788 68.2221 413.334 67.2109 413.711L66.3414 412.376C67.0155 412.134 67.6289 411.81 68.1816 411.406C68.7478 411.001 69.2399 410.536 69.6578 410.01C70.0758 409.471 70.3926 408.898 70.6083 408.292C70.824 407.671 70.9318 407.045 70.9318 406.411V404.914ZM71.2554 404.914H72.6305V406.391C72.6305 407.173 72.8125 407.934 73.1765 408.676C73.5405 409.404 74.0595 410.058 74.7336 410.637C75.4077 411.204 76.1829 411.648 77.0592 411.972L76.2098 413.286C75.2122 412.922 74.3426 412.397 73.6012 411.709C72.8597 411.022 72.28 410.219 71.8621 409.303C71.4576 408.386 71.2554 407.415 71.2554 406.391V404.914ZM76.0683 407.826H80.1329V409.222H76.0683V407.826ZM66.8672 404.308H76.6345V405.683H66.8672V404.308ZM69.1118 414.985H81.3261V421.355H79.6476V416.36H69.1118V414.985ZM79.6476 403.054H81.3261V413.994H79.6476V403.054ZM90.2148 410.233H91.6304C92.8707 410.233 93.9559 410.219 94.8862 410.192C95.8299 410.152 96.7062 410.085 97.5151 409.99C98.3374 409.896 99.1598 409.768 99.9822 409.606L100.184 410.941C99.3351 411.116 98.4925 411.251 97.6566 411.345C96.8208 411.44 95.9175 411.507 94.9468 411.547C93.9896 411.574 92.8842 411.588 91.6304 411.588H90.2148V410.233ZM90.2148 404.106H98.2835V405.46H91.8731V411.022H90.2148V404.106ZM101.923 403.054H103.602V412.255H101.923V403.054ZM103.137 406.896H106.291V408.292H103.137V406.896ZM91.9742 413.185H103.602V417.715H93.6728V420.526H92.0348V416.421H101.944V414.54H91.9742V413.185ZM92.0348 419.737H104.249V421.112H92.0348V419.737ZM112.619 404.085H114.015V405.966C114.015 407.152 113.799 408.244 113.368 409.242C112.95 410.24 112.357 411.116 111.588 411.871C110.833 412.612 109.93 413.179 108.878 413.57L107.989 412.215C108.932 411.878 109.748 411.399 110.435 410.779C111.123 410.159 111.656 409.438 112.033 408.615C112.424 407.779 112.619 406.896 112.619 405.966V404.085ZM112.923 404.085H114.278V405.905C114.278 406.768 114.466 407.584 114.844 408.352C115.221 409.121 115.74 409.802 116.401 410.395C117.075 410.974 117.857 411.413 118.747 411.709L117.837 413.024C116.853 412.646 115.99 412.114 115.248 411.426C114.507 410.738 113.934 409.923 113.529 408.979C113.125 408.035 112.923 407.011 112.923 405.905V404.085ZM121.376 403.054H123.054V413.873H121.376V403.054ZM117.028 414.419C118.915 414.419 120.398 414.722 121.477 415.329C122.569 415.936 123.115 416.785 123.115 417.877C123.115 418.955 122.569 419.798 121.477 420.405C120.398 421.011 118.915 421.315 117.028 421.315C115.141 421.315 113.651 421.011 112.559 420.405C111.48 419.798 110.941 418.955 110.941 417.877C110.941 416.785 111.48 415.936 112.559 415.329C113.651 414.722 115.141 414.419 117.028 414.419ZM117.028 415.754C116.111 415.754 115.323 415.841 114.662 416.016C114.001 416.178 113.489 416.421 113.125 416.744C112.775 417.055 112.599 417.432 112.599 417.877C112.599 418.308 112.775 418.686 113.125 419.009C113.489 419.319 114.001 419.562 114.662 419.737C115.323 419.899 116.111 419.98 117.028 419.98C117.958 419.98 118.747 419.899 119.394 419.737C120.055 419.562 120.56 419.319 120.911 419.009C121.275 418.686 121.457 418.308 121.457 417.877C121.457 417.432 121.275 417.055 120.911 416.744C120.56 416.421 120.055 416.178 119.394 416.016C118.747 415.841 117.958 415.754 117.028 415.754ZM117.392 406.916H121.719V408.312H117.392V406.916Z" fill="#2C2C2C"/>
<path d="M437.072 421.778V419.004H440.77V408.212H437.65V406.085C438.513 405.931 439.253 405.746 439.869 405.531C440.501 405.3 441.086 405.007 441.625 404.652H444.144V419.004H447.357V421.778H437.072ZM449.803 421.778V419.813C451.359 418.427 452.684 417.14 453.778 415.954C454.887 414.767 455.735 413.666 456.32 412.649C456.906 411.617 457.199 410.661 457.199 409.783C457.199 409.228 457.098 408.743 456.898 408.327C456.698 407.911 456.405 407.595 456.02 407.38C455.65 407.148 455.188 407.033 454.633 407.033C454.017 407.033 453.447 407.21 452.923 407.564C452.415 407.903 451.945 408.312 451.513 408.789L449.618 406.964C450.419 406.101 451.236 405.454 452.068 405.022C452.915 404.575 453.917 404.352 455.072 404.352C456.151 404.352 457.091 404.575 457.892 405.022C458.708 405.454 459.34 406.062 459.787 406.848C460.234 407.634 460.457 408.558 460.457 409.621C460.457 410.654 460.195 411.709 459.671 412.788C459.163 413.851 458.477 414.914 457.615 415.977C456.752 417.04 455.796 418.088 454.749 419.12C455.196 419.058 455.673 419.012 456.182 418.981C456.705 418.935 457.168 418.912 457.568 418.912H461.266V421.778H449.803ZM468.75 422.101C467.857 422.101 467.056 421.994 466.347 421.778C465.638 421.578 465.006 421.3 464.452 420.946C463.913 420.576 463.443 420.168 463.042 419.721L464.637 417.572C465.161 418.049 465.731 418.465 466.347 418.82C466.979 419.159 467.68 419.328 468.45 419.328C469.036 419.328 469.544 419.236 469.975 419.051C470.422 418.866 470.761 418.596 470.992 418.242C471.239 417.887 471.362 417.456 471.362 416.948C471.362 416.378 471.223 415.892 470.946 415.492C470.684 415.076 470.214 414.76 469.536 414.544C468.858 414.328 467.903 414.22 466.67 414.22V411.771C467.718 411.771 468.542 411.663 469.143 411.447C469.744 411.216 470.168 410.908 470.414 410.523C470.676 410.122 470.807 409.668 470.807 409.159C470.807 408.497 470.607 407.98 470.206 407.611C469.806 407.226 469.244 407.033 468.519 407.033C467.918 407.033 467.356 407.172 466.832 407.449C466.324 407.711 465.815 408.073 465.307 408.535L463.55 406.432C464.305 405.8 465.099 405.3 465.931 404.93C466.763 404.545 467.68 404.352 468.681 404.352C469.775 404.352 470.738 404.529 471.57 404.884C472.417 405.238 473.072 405.754 473.534 406.432C473.997 407.11 474.228 407.934 474.228 408.905C474.228 409.829 473.981 410.623 473.488 411.285C472.995 411.948 472.294 412.456 471.385 412.811V412.926C472.017 413.096 472.587 413.373 473.095 413.758C473.619 414.128 474.028 414.598 474.32 415.168C474.628 415.738 474.782 416.401 474.782 417.156C474.782 418.188 474.505 419.074 473.95 419.813C473.411 420.553 472.679 421.123 471.755 421.524C470.846 421.909 469.844 422.101 468.75 422.101ZM483.03 403.035C484.139 403.035 485.117 403.25 485.965 403.682C486.827 404.098 487.505 404.676 487.998 405.415C488.507 406.139 488.761 406.979 488.761 407.934C488.761 408.89 488.507 409.737 487.998 410.476C487.505 411.201 486.827 411.771 485.965 412.187C485.117 412.603 484.139 412.811 483.03 412.811C481.951 412.811 480.98 412.603 480.118 412.187C479.255 411.771 478.569 411.201 478.061 410.476C477.568 409.737 477.321 408.89 477.321 407.934C477.321 406.979 477.568 406.132 478.061 405.392C478.569 404.652 479.255 404.075 480.118 403.659C480.98 403.243 481.951 403.035 483.03 403.035ZM483.053 405.531C482.529 405.531 482.059 405.631 481.643 405.831C481.227 406.016 480.896 406.286 480.649 406.64C480.418 406.994 480.302 407.426 480.302 407.934C480.302 408.443 480.418 408.882 480.649 409.252C480.896 409.606 481.219 409.876 481.62 410.06C482.036 410.245 482.513 410.338 483.053 410.338C483.576 410.338 484.039 410.245 484.439 410.06C484.855 409.876 485.179 409.606 485.41 409.252C485.656 408.882 485.78 408.443 485.78 407.934C485.78 407.426 485.656 406.994 485.41 406.64C485.179 406.286 484.855 406.016 484.439 405.831C484.023 405.631 483.561 405.531 483.053 405.531ZM491.719 402.434H494.793V413.134H491.719V402.434ZM480.534 414.012H494.793V419.86H483.584V422.471H480.557V417.641H491.742V416.37H480.534V414.012ZM480.557 421.2H495.325V423.604H480.557V421.2Z" fill="#2C2C2C"/>
<rect width="520" height="528.667" transform="translate(12 497.111)" fill="white"/>
<path d="M214.036 561.944V560.852C215.586 559.491 216.86 558.25 217.858 557.131C218.869 556.012 219.617 554.974 220.102 554.017C220.588 553.047 220.83 552.137 220.83 551.287C220.83 550.721 220.729 550.215 220.527 549.771C220.338 549.326 220.042 548.982 219.637 548.739C219.233 548.483 218.721 548.355 218.1 548.355C217.494 548.355 216.927 548.517 216.402 548.84C215.889 549.164 215.431 549.575 215.027 550.074L213.955 549.022C214.548 548.362 215.188 547.836 215.876 547.445C216.563 547.054 217.379 546.859 218.323 546.859C219.213 546.859 219.974 547.041 220.608 547.405C221.255 547.755 221.754 548.261 222.104 548.921C222.468 549.568 222.65 550.33 222.65 551.206C222.65 552.19 222.401 553.188 221.902 554.199C221.417 555.21 220.736 556.242 219.86 557.293C218.997 558.331 217.986 559.396 216.826 560.488C217.217 560.461 217.622 560.434 218.04 560.407C218.471 560.367 218.876 560.347 219.253 560.347H223.358V561.944H214.036ZM229.985 562.207C229.054 562.207 228.239 561.924 227.538 561.358C226.85 560.792 226.318 559.936 225.94 558.79C225.563 557.644 225.374 556.208 225.374 554.482C225.374 552.757 225.563 551.334 225.94 550.215C226.318 549.083 226.85 548.24 227.538 547.688C228.239 547.135 229.054 546.859 229.985 546.859C230.928 546.859 231.744 547.142 232.432 547.708C233.119 548.261 233.652 549.096 234.029 550.215C234.407 551.334 234.595 552.757 234.595 554.482C234.595 556.208 234.407 557.644 234.029 558.79C233.652 559.936 233.119 560.792 232.432 561.358C231.744 561.924 230.928 562.207 229.985 562.207ZM229.985 560.711C230.551 560.711 231.043 560.495 231.461 560.064C231.892 559.632 232.223 558.958 232.452 558.041C232.694 557.111 232.816 555.925 232.816 554.482C232.816 553.04 232.694 551.867 232.452 550.964C232.223 550.047 231.892 549.38 231.461 548.962C231.043 548.53 230.551 548.315 229.985 548.315C229.432 548.315 228.94 548.53 228.508 548.962C228.077 549.38 227.74 550.047 227.497 550.964C227.268 551.867 227.154 553.04 227.154 554.482C227.154 555.925 227.268 557.111 227.497 558.041C227.74 558.958 228.077 559.632 228.508 560.064C228.94 560.495 229.432 560.711 229.985 560.711ZM236.47 561.944V560.852C238.02 559.491 239.294 558.25 240.292 557.131C241.303 556.012 242.051 554.974 242.536 554.017C243.022 553.047 243.264 552.137 243.264 551.287C243.264 550.721 243.163 550.215 242.961 549.771C242.772 549.326 242.476 548.982 242.071 548.739C241.667 548.483 241.155 548.355 240.534 548.355C239.928 548.355 239.361 548.517 238.836 548.84C238.323 549.164 237.865 549.575 237.461 550.074L236.389 549.022C236.982 548.362 237.622 547.836 238.31 547.445C238.997 547.054 239.813 546.859 240.757 546.859C241.647 546.859 242.408 547.041 243.042 547.405C243.689 547.755 244.188 548.261 244.538 548.921C244.902 549.568 245.084 550.33 245.084 551.206C245.084 552.19 244.835 553.188 244.336 554.199C243.851 555.21 243.17 556.242 242.294 557.293C241.431 558.331 240.42 559.396 239.26 560.488C239.651 560.461 240.056 560.434 240.474 560.407C240.905 560.367 241.31 560.347 241.687 560.347H245.792V561.944H236.47ZM253.673 561.944V551.833C253.673 551.469 253.686 551.024 253.713 550.499C253.74 549.973 253.76 549.521 253.774 549.144H253.693C253.504 549.494 253.309 549.858 253.106 550.236C252.918 550.6 252.715 550.964 252.5 551.328L249.123 556.383H257.393V557.859H247.201V556.646L253.369 547.121H255.412V561.944H253.673ZM260.825 562.207C260.461 562.207 260.144 562.079 259.874 561.823C259.618 561.553 259.49 561.216 259.49 560.812C259.49 560.38 259.618 560.037 259.874 559.781C260.144 559.524 260.461 559.396 260.825 559.396C261.189 559.396 261.499 559.524 261.755 559.781C262.025 560.037 262.16 560.38 262.16 560.812C262.16 561.216 262.025 561.553 261.755 561.823C261.499 562.079 261.189 562.207 260.825 562.207ZM269.264 562.207C268.334 562.207 267.518 561.924 266.817 561.358C266.13 560.792 265.597 559.936 265.22 558.79C264.842 557.644 264.653 556.208 264.653 554.482C264.653 552.757 264.842 551.334 265.22 550.215C265.597 549.083 266.13 548.24 266.817 547.688C267.518 547.135 268.334 546.859 269.264 546.859C270.208 546.859 271.023 547.142 271.711 547.708C272.398 548.261 272.931 549.096 273.308 550.215C273.686 551.334 273.875 552.757 273.875 554.482C273.875 556.208 273.686 557.644 273.308 558.79C272.931 559.936 272.398 560.792 271.711 561.358C271.023 561.924 270.208 562.207 269.264 562.207ZM269.264 560.711C269.83 560.711 270.322 560.495 270.74 560.064C271.172 559.632 271.502 558.958 271.731 558.041C271.974 557.111 272.095 555.925 272.095 554.482C272.095 553.04 271.974 551.867 271.731 550.964C271.502 550.047 271.172 549.38 270.74 548.962C270.322 548.53 269.83 548.315 269.264 548.315C268.711 548.315 268.219 548.53 267.788 548.962C267.356 549.38 267.019 550.047 266.777 550.964C266.547 551.867 266.433 553.04 266.433 554.482C266.433 555.925 266.547 557.111 266.777 558.041C267.019 558.958 267.356 559.632 267.788 560.064C268.219 560.495 268.711 560.711 269.264 560.711ZM281.735 561.944V551.833C281.735 551.469 281.748 551.024 281.775 550.499C281.802 549.973 281.822 549.521 281.836 549.144H281.755C281.566 549.494 281.371 549.858 281.169 550.236C280.98 550.6 280.778 550.964 280.562 551.328L277.185 556.383H285.456V557.859H275.264V556.646L281.431 547.121H283.474V561.944H281.735Z" fill="black"/>
<path fill-rule="evenodd" clip-rule="evenodd" d="M297.667 544.778H300.556V543.333H312.111V544.778H315V543.333H317.889V547.667H294.778V543.333H297.667V544.778ZM294.778 550.555V565H317.889V550.555H294.778ZM300.556 540.444H312.111V539H315V540.444H317.889C319.484 540.444 320.778 541.738 320.778 543.333V565C320.778 566.595 319.484 567.889 317.889 567.889H294.778C293.182 567.889 291.889 566.595 291.889 565V543.333C291.889 541.738 293.182 540.444 294.778 540.444H297.667V539H300.556V540.444Z" fill="#D9D9D9"/>
<g clip-path="url(#clip0_998_4697)">
<path d="M70.1568 561.732L61.8873 553.444L70.1568 545.157L67.6109 542.611L56.7776 553.444L67.6109 564.278L70.1568 561.732Z" fill="black"/>
</g>
<g clip-path="url(#clip1_998_4697)">
<path d="M476.389 542.611L473.843 545.157L482.112 553.444L473.843 561.732L476.389 564.278L487.222 553.444L476.389 542.611Z" fill="#D9D9D9"/>
</g>
<rect width="520" height="346.667" transform="translate(12 609.778)" fill="white"/>
<path d="M154.278 644.444C154.278 647.195 153.736 649.918 152.684 652.459C151.631 655.001 150.088 657.309 148.143 659.254C146.199 661.199 143.89 662.742 141.349 663.795C138.808 664.847 136.084 665.389 133.334 665.389C130.583 665.389 127.86 664.847 125.318 663.795C122.777 662.742 120.468 661.199 118.524 659.254C116.579 657.309 115.036 655.001 113.983 652.459C112.931 649.918 112.389 647.195 112.389 644.444C112.389 641.694 112.931 638.97 113.983 636.429C115.036 633.888 116.579 631.579 118.524 629.634C120.468 627.69 122.777 626.147 125.318 625.094C127.86 624.042 130.583 623.5 133.334 623.5C136.084 623.5 138.808 624.042 141.349 625.094C143.89 626.147 146.199 627.69 148.143 629.634C150.088 631.579 151.631 633.888 152.684 636.429C153.736 638.97 154.278 641.694 154.278 644.444L154.278 644.444Z" stroke="#D9D9D9" stroke-width="4.33333"/>
<path d="M133.334 623.5C137.476 623.5 141.525 624.728 144.97 627.03C148.414 629.331 151.098 632.602 152.684 636.429C154.269 640.256 154.684 644.468 153.876 648.53C153.067 652.593 151.073 656.325 148.143 659.254C145.214 662.183 141.482 664.178 137.42 664.986C133.357 665.795 129.146 665.38 125.318 663.795C121.491 662.209 118.22 659.525 115.919 656.08C113.617 652.636 112.389 648.587 112.389 644.444" stroke="#1777E9" stroke-width="4.33333"/>
<path fill-rule="evenodd" clip-rule="evenodd" d="M130.092 648.408L141.278 637.222L142.98 638.924L130.092 651.813L123.222 644.943L124.925 643.241L130.092 648.408Z" fill="#1777E9"/>
<path d="M223.611 644.444C223.611 647.195 223.069 649.918 222.017 652.459C220.964 655.001 219.422 657.309 217.477 659.254C215.532 661.199 213.223 662.742 210.682 663.795C208.141 664.847 205.417 665.389 202.667 665.389C199.916 665.389 197.193 664.847 194.652 663.795C192.111 662.742 189.802 661.199 187.857 659.254C185.912 657.309 184.369 655.001 183.317 652.459C182.264 649.918 181.722 647.195 181.722 644.444C181.722 641.694 182.264 638.97 183.317 636.429C184.369 633.888 185.912 631.579 187.857 629.634C189.802 627.69 192.111 626.147 194.652 625.094C197.193 624.042 199.916 623.5 202.667 623.5C205.417 623.5 208.141 624.042 210.682 625.094C213.223 626.147 215.532 627.69 217.477 629.634C219.422 631.579 220.964 633.888 222.017 636.429C223.069 638.97 223.611 641.694 223.611 644.444L223.611 644.444Z" stroke="#D9D9D9" stroke-width="4.33333"/>
<path d="M202.667 623.5C206.809 623.5 210.859 624.728 214.303 627.03C217.747 629.331 220.432 632.602 222.017 636.429C223.602 640.256 224.017 644.468 223.209 648.53C222.401 652.593 220.406 656.325 217.477 659.254C214.548 662.183 210.816 664.178 206.753 664.986C202.69 665.795 198.479 665.38 194.652 663.795C190.825 662.209 187.554 659.525 185.252 656.08C182.951 652.636 181.722 648.587 181.722 644.444" stroke="#1777E9" stroke-width="4.33333"/>
<path fill-rule="evenodd" clip-rule="evenodd" d="M199.425 648.408L210.611 637.222L212.314 638.924L199.425 651.813L192.556 644.943L194.258 643.241L199.425 648.408Z" fill="#1777E9"/>
<rect x="248.889" y="621.333" width="46.2222" height="46.2222" rx="23.1111" fill="#1777E9"/>
<path fill-rule="evenodd" clip-rule="evenodd" d="M269.24 648.408L280.426 637.222L282.128 638.924L269.24 651.813L262.37 644.943L264.072 643.241L269.24 648.408Z" fill="white"/>
<rect x="318.222" y="621.333" width="46.2222" height="46.2222" rx="23.1111" fill="#1777E9"/>
<path fill-rule="evenodd" clip-rule="evenodd" d="M338.573 648.408L349.759 637.222L351.461 638.924L338.573 651.813L331.704 644.943L333.406 643.241L338.573 648.408Z" fill="white"/>
<rect x="387.556" y="621.333" width="46.2222" height="46.2222" rx="23.1111" fill="#1777E9"/>
<path fill-rule="evenodd" clip-rule="evenodd" d="M407.907 648.408L419.092 637.222L420.795 638.924L407.907 651.813L401.037 644.943L402.739 643.241L407.907 648.408Z" fill="white"/>
<path d="M500.944 644.444C500.944 647.195 500.403 649.918 499.35 652.459C498.298 655.001 496.755 657.309 494.81 659.254C492.865 661.199 490.556 662.742 488.015 663.795C485.474 664.847 482.75 665.389 480 665.389C477.25 665.389 474.526 664.847 471.985 663.795C469.444 662.742 467.135 661.199 465.19 659.254C463.245 657.309 461.702 655.001 460.65 652.459C459.597 649.918 459.056 647.195 459.056 644.444C459.056 641.694 459.597 638.97 460.65 636.429C461.702 633.888 463.245 631.579 465.19 629.634C467.135 627.69 469.444 626.147 471.985 625.094C474.526 624.042 477.25 623.5 480 623.5C482.75 623.5 485.474 624.042 488.015 625.094C490.556 626.147 492.865 627.69 494.81 629.634C496.755 631.579 498.298 633.888 499.35 636.429C500.403 638.97 500.944 641.694 500.944 644.444L500.944 644.444Z" stroke="#D9D9D9" stroke-width="4.33333"/>
<path d="M480 623.5C484.142 623.5 488.192 624.728 491.636 627.03C495.08 629.331 497.765 632.602 499.35 636.429C500.935 640.256 501.35 644.468 500.542 648.53C499.734 652.593 497.739 656.325 494.81 659.254C491.881 662.183 488.149 664.178 484.086 664.986C480.023 665.795 475.812 665.38 471.985 663.795C468.158 662.209 464.887 659.525 462.585 656.08C460.284 652.636 459.056 648.587 459.056 644.444" stroke="#1777E9" stroke-width="4.33333"/>
<path fill-rule="evenodd" clip-rule="evenodd" d="M476.759 648.408L487.944 637.222L489.647 638.924L476.759 651.813L469.889 644.943L471.591 643.241L476.759 648.408Z" fill="#1777E9"/>
<path d="M84.9445 713.778C84.9445 716.528 84.4027 719.252 83.3502 721.793C82.2976 724.334 80.7549 726.643 78.81 728.588C76.8651 730.533 74.5562 732.075 72.0151 733.128C69.474 734.18 66.7505 734.722 64 734.722C61.2496 734.722 58.526 734.18 55.9849 733.128C53.4438 732.075 51.1349 730.533 49.1901 728.588C47.2452 726.643 45.7024 724.334 44.6499 721.793C43.5973 719.252 43.0556 716.528 43.0556 713.778C43.0556 711.027 43.5973 708.304 44.6499 705.763C45.7024 703.222 47.2452 700.913 49.1901 698.968C51.1349 697.023 53.4438 695.48 55.9849 694.428C58.526 693.375 61.2496 692.833 64 692.833C66.7505 692.833 69.474 693.375 72.0151 694.428C74.5562 695.48 76.8651 697.023 78.81 698.968C80.7549 700.913 82.2976 703.222 83.3502 705.763C84.4027 708.304 84.9445 711.027 84.9445 713.778L84.9445 713.778Z" stroke="#D9D9D9" stroke-width="4.33333"/>
<path d="M64 692.833C68.1424 692.833 72.1918 694.062 75.6361 696.363C79.0804 698.664 81.7649 701.936 83.3502 705.763C84.9354 709.59 85.3502 713.801 84.542 717.864C83.7339 721.927 81.7391 725.659 78.81 728.588C75.8809 731.517 72.1489 733.512 68.0861 734.32C64.0233 735.128 59.812 734.713 55.9849 733.128C52.1578 731.543 48.8868 728.858 46.5854 725.414C44.284 721.97 43.0556 717.92 43.0556 713.778" stroke="#1777E9" stroke-width="4.33333"/>
<path fill-rule="evenodd" clip-rule="evenodd" d="M60.7586 717.741L71.9445 706.556L73.6468 708.258L60.7586 721.146L53.8889 714.276L55.5912 712.574L60.7586 717.741Z" fill="#1777E9"/>
<rect x="110.222" y="690.667" width="46.2222" height="46.2222" rx="23.1111" fill="#1777E9"/>
<path fill-rule="evenodd" clip-rule="evenodd" d="M130.573 717.741L141.759 706.556L143.461 708.258L130.573 721.146L123.704 714.276L125.406 712.574L130.573 717.741Z" fill="white"/>
<path d="M197.556 721.52C194.939 721.52 193.205 719.25 193.205 714.812C193.205 710.392 194.939 708.226 197.556 708.226C200.156 708.226 201.889 710.392 201.889 714.812C201.889 719.25 200.156 721.52 197.556 721.52ZM197.556 719.527C198.665 719.527 199.48 718.418 199.48 714.812C199.48 711.224 198.665 710.184 197.556 710.184C196.447 710.184 195.615 711.224 195.615 714.812C195.615 718.418 196.447 719.527 197.556 719.527ZM207.087 721.52C205.475 721.52 204.331 720.862 203.551 720.064L204.903 718.522C205.388 719.059 206.168 719.458 206.931 719.458C208.439 719.458 209.669 718.244 209.669 714.57C209.669 711.294 208.681 710.132 207.433 710.132C206.463 710.132 205.683 710.912 205.683 712.507C205.683 713.998 206.411 714.726 207.503 714.726C208.231 714.726 209.028 714.327 209.652 713.27L209.791 715.003C209.097 715.956 207.936 716.528 207.035 716.528C204.885 716.528 203.36 715.228 203.36 712.507C203.36 709.855 205.197 708.226 207.381 708.226C209.825 708.226 212.009 710.132 212.009 714.57C212.009 719.423 209.635 721.52 207.087 721.52Z" fill="#909090"/>
<rect x="248.889" y="690.667" width="46.2222" height="46.2222" rx="23.1111" fill="#1777E9"/>
<path fill-rule="evenodd" clip-rule="evenodd" d="M269.24 717.741L280.426 706.556L282.128 708.258L269.24 721.146L262.37 714.276L264.072 712.574L269.24 717.741Z" fill="white"/>
<rect x="318.222" y="690.667" width="46.2222" height="46.2222" rx="23.1111" fill="#1777E9"/>
<path fill-rule="evenodd" clip-rule="evenodd" d="M338.573 717.741L349.759 706.556L351.461 708.258L338.573 721.146L331.703 714.276L333.406 712.574L338.573 717.741Z" fill="white"/>
<path d="M401.847 721.278V719.215H404.62V711.103H402.28V709.526C403.58 709.283 404.447 708.954 405.279 708.451H407.168V719.215H409.577V721.278H401.847ZM411.395 721.278V719.822C414.896 716.684 416.941 714.275 416.941 712.299C416.941 711.016 416.265 710.219 415.035 710.219C414.081 710.219 413.336 710.826 412.677 711.554L411.273 710.167C412.452 708.902 413.613 708.226 415.364 708.226C417.773 708.226 419.403 709.768 419.403 712.16C419.403 714.5 417.461 716.996 415.121 719.284C415.763 719.215 416.612 719.128 417.219 719.128H419.992V721.278H411.395Z" fill="#909090"/>
<path d="M500.944 713.778C500.944 716.528 500.403 719.252 499.35 721.793C498.298 724.334 496.755 726.643 494.81 728.588C492.865 730.533 490.556 732.075 488.015 733.128C485.474 734.18 482.75 734.722 480 734.722C477.25 734.722 474.526 734.18 471.985 733.128C469.444 732.075 467.135 730.533 465.19 728.588C463.245 726.643 461.702 724.334 460.65 721.793C459.597 719.252 459.056 716.528 459.056 713.778C459.056 711.027 459.597 708.304 460.65 705.763C461.702 703.222 463.245 700.913 465.19 698.968C467.135 697.023 469.444 695.48 471.985 694.428C474.526 693.375 477.25 692.833 480 692.833C482.75 692.833 485.474 693.375 488.015 694.428C490.556 695.48 492.865 697.023 494.81 698.968C496.755 700.913 498.298 703.222 499.35 705.763C500.403 708.304 500.944 711.027 500.944 713.778L500.944 713.778Z" stroke="#D9D9D9" stroke-width="4.33333"/>
<path d="M480 692.833C484.142 692.833 488.192 694.062 491.636 696.363C495.08 698.664 497.765 701.936 499.35 705.763C500.935 709.59 501.35 713.801 500.542 717.864C499.734 721.927 497.739 725.659 494.81 728.588C491.881 731.517 488.149 733.512 484.086 734.32C480.023 735.128 475.812 734.713 471.985 733.128C468.158 731.543 464.887 728.858 462.585 725.414C460.284 721.97 459.056 717.92 459.056 713.778" stroke="#1777E9" stroke-width="4.33333"/>
<path fill-rule="evenodd" clip-rule="evenodd" d="M476.759 717.741L487.944 706.556L489.647 708.258L476.759 721.146L469.889 714.276L471.591 712.574L476.759 717.741Z" fill="#1777E9"/>
<path d="M84.9445 783.111C84.9445 785.861 84.4027 788.585 83.3502 791.126C82.2976 793.667 80.7549 795.976 78.81 797.921C76.8651 799.866 74.5562 801.409 72.0151 802.461C69.474 803.514 66.7505 804.055 64 804.055C61.2496 804.055 58.526 803.514 55.9849 802.461C53.4438 801.409 51.1349 799.866 49.1901 797.921C47.2452 795.976 45.7024 793.667 44.6499 791.126C43.5973 788.585 43.0556 785.861 43.0556 783.111C43.0556 780.361 43.5973 777.637 44.6499 775.096C45.7024 772.555 47.2452 770.246 49.1901 768.301C51.1349 766.356 53.4438 764.813 55.9849 763.761C58.526 762.708 61.2496 762.167 64 762.167C66.7505 762.167 69.474 762.708 72.0151 763.761C74.5562 764.813 76.8651 766.356 78.81 768.301C80.7549 770.246 82.2976 772.555 83.3502 775.096C84.4027 777.637 84.9445 780.361 84.9445 783.111L84.9445 783.111Z" stroke="#D9D9D9" stroke-width="4.33333"/>
<path d="M64 762.167C68.1424 762.167 72.1918 763.395 75.6361 765.696C79.0804 767.998 81.7649 771.269 83.3502 775.096C84.9354 778.923 85.3502 783.134 84.542 787.197C83.7339 791.26 81.7391 794.992 78.81 797.921C75.8809 800.85 72.1489 802.845 68.0861 803.653C64.0233 804.461 59.812 804.046 55.9849 802.461C52.1578 800.876 48.8868 798.191 46.5854 794.747C44.284 791.303 43.0556 787.253 43.0556 783.111" stroke="#1777E9" stroke-width="4.33333"/>
<path fill-rule="evenodd" clip-rule="evenodd" d="M60.7586 787.075L71.9445 775.889L73.6468 777.591L60.7586 790.479L53.8889 783.61L55.5912 781.907L60.7586 787.075Z" fill="#1777E9"/>
<rect x="110.222" y="760" width="46.2222" height="46.2222" rx="23.1111" fill="#1777E9"/>
<path fill-rule="evenodd" clip-rule="evenodd" d="M130.573 787.075L141.759 775.889L143.461 777.591L130.573 790.479L123.704 783.61L125.406 781.907L130.573 787.075Z" fill="white"/>
<rect x="179.556" y="760" width="46.2222" height="46.2222" rx="23.1111" fill="#1777E9"/>
<path fill-rule="evenodd" clip-rule="evenodd" d="M199.907 787.075L211.092 775.889L212.795 777.591L199.907 790.479L193.037 783.61L194.739 781.907L199.907 787.075Z" fill="white"/>
<path d="M263.18 790.611V788.548H265.953V780.436H263.613V778.859C264.913 778.616 265.78 778.287 266.612 777.784H268.501V788.548H270.911V790.611H263.18ZM275.207 790.611C275.449 786.174 276.177 783.314 278.639 779.916H272.867V777.784H281.377V779.327C278.396 782.967 278.015 785.602 277.789 790.611H275.207Z" fill="#909090"/>
<rect x="318.222" y="760" width="46.2222" height="46.2222" rx="23.1111" fill="#1777E9"/>
<path fill-rule="evenodd" clip-rule="evenodd" d="M338.573 787.075L349.759 775.889L351.461 777.591L338.573 790.479L331.703 783.61L333.406 781.907L338.573 787.075Z" fill="white"/>
<path d="M431.611 783.111C431.611 785.861 431.069 788.585 430.017 791.126C428.964 793.667 427.422 795.976 425.477 797.921C423.532 799.866 421.223 801.409 418.682 802.461C416.141 803.514 413.417 804.055 410.667 804.055C407.916 804.055 405.193 803.514 402.652 802.461C400.111 801.409 397.802 799.866 395.857 797.921C393.912 795.976 392.369 793.667 391.317 791.126C390.264 788.585 389.722 785.861 389.722 783.111C389.722 780.361 390.264 777.637 391.317 775.096C392.369 772.555 393.912 770.246 395.857 768.301C397.802 766.356 400.111 764.813 402.652 763.761C405.193 762.708 407.916 762.167 410.667 762.167C413.417 762.167 416.141 762.708 418.682 763.761C421.223 764.813 423.532 766.356 425.477 768.301C427.422 770.246 428.964 772.555 430.017 775.096C431.069 777.637 431.611 780.361 431.611 783.111L431.611 783.111Z" stroke="#D9D9D9" stroke-width="4.33333"/>
<path d="M410.667 762.167C414.809 762.167 418.859 763.395 422.303 765.696C425.747 767.998 428.432 771.269 430.017 775.096C431.602 778.923 432.017 783.134 431.209 787.197C430.401 791.26 428.406 794.992 425.477 797.921C422.548 800.85 418.816 802.845 414.753 803.653C410.69 804.461 406.479 804.046 402.652 802.461C398.825 800.876 395.554 798.191 393.252 794.747C390.951 791.303 389.722 787.253 389.722 783.111" stroke="#1777E9" stroke-width="4.33333"/>
<path fill-rule="evenodd" clip-rule="evenodd" d="M407.425 787.075L418.611 775.889L420.314 777.591L407.425 790.479L400.556 783.61L402.258 781.907L407.425 787.075Z" fill="#1777E9"/>
<rect x="456.889" y="760" width="46.2222" height="46.2222" rx="23.1111" fill="#1777E9"/>
<path fill-rule="evenodd" clip-rule="evenodd" d="M477.24 787.075L488.426 775.889L490.128 777.591L477.24 790.479L470.37 783.61L472.072 781.907L477.24 787.075Z" fill="white"/>
<rect x="40.8889" y="829.333" width="46.2222" height="46.2222" rx="23.1111" fill="#1777E9"/>
<path fill-rule="evenodd" clip-rule="evenodd" d="M61.2398 856.408L72.4257 845.222L74.128 846.924L61.2398 859.813L54.3701 852.943L56.0724 851.241L61.2398 856.408Z" fill="white"/>
<path d="M98.6667 852.444C98.6667 833.299 114.188 817.778 133.333 817.778V817.778C152.479 817.778 168 833.299 168 852.444V852.444C168 871.59 152.479 887.111 133.333 887.111V887.111C114.188 887.111 98.6667 871.59 98.6667 852.444V852.444Z" fill="#DFEAFF"/>
<path d="M154.278 852.444C154.278 855.195 153.736 857.918 152.684 860.459C151.631 863.001 150.088 865.309 148.143 867.254C146.199 869.199 143.89 870.742 141.349 871.795C138.808 872.847 136.084 873.389 133.334 873.389C130.583 873.389 127.86 872.847 125.318 871.795C122.777 870.742 120.468 869.199 118.524 867.254C116.579 865.309 115.036 863.001 113.983 860.459C112.931 857.918 112.389 855.195 112.389 852.444C112.389 849.694 112.931 846.97 113.983 844.429C115.036 841.888 116.579 839.579 118.524 837.634C120.468 835.69 122.777 834.147 125.318 833.094C127.86 832.042 130.583 831.5 133.334 831.5C136.084 831.5 138.808 832.042 141.349 833.094C143.89 834.147 146.199 835.69 148.143 837.634C150.088 839.579 151.631 841.888 152.684 844.429C153.736 846.97 154.278 849.694 154.278 852.444L154.278 852.444Z" stroke="#D9D9D9" stroke-width="4.33333"/>
<path d="M133.334 831.5C137.476 831.5 141.525 832.728 144.97 835.03C148.414 837.331 151.098 840.602 152.684 844.429C154.269 848.256 154.684 852.468 153.876 856.53C153.067 860.593 151.073 864.325 148.143 867.254C145.214 870.183 141.482 872.178 137.42 872.986C133.357 873.795 129.146 873.38 125.318 871.795C121.491 870.209 118.22 867.525 115.919 864.08C113.617 860.636 112.389 856.587 112.389 852.444" stroke="#1777E9" stroke-width="4.33333"/>
<path fill-rule="evenodd" clip-rule="evenodd" d="M130.092 856.408L141.278 845.222L142.98 846.924L130.092 859.813L123.222 852.943L124.925 851.241L130.092 856.408Z" fill="#1777E9"/>
<path d="M223.611 852.444C223.611 855.195 223.069 857.918 222.017 860.459C220.964 863.001 219.422 865.309 217.477 867.254C215.532 869.199 213.223 870.742 210.682 871.795C208.141 872.847 205.417 873.389 202.667 873.389C199.916 873.389 197.193 872.847 194.652 871.795C192.111 870.742 189.802 869.199 187.857 867.254C185.912 865.309 184.369 863.001 183.317 860.459C182.264 857.918 181.722 855.195 181.722 852.444C181.722 849.694 182.264 846.97 183.317 844.429C184.369 841.888 185.912 839.579 187.857 837.634C189.802 835.69 192.111 834.147 194.652 833.094C197.193 832.042 199.916 831.5 202.667 831.5C205.417 831.5 208.141 832.042 210.682 833.094C213.223 834.147 215.532 835.69 217.477 837.634C219.422 839.579 220.964 841.888 222.017 844.429C223.069 846.97 223.611 849.694 223.611 852.444L223.611 852.444Z" stroke="#D9D9D9" stroke-width="4.33333"/>
<path d="M202.667 831.5C206.809 831.5 210.859 832.728 214.303 835.03C217.747 837.331 220.432 840.602 222.017 844.429C223.602 848.256 224.017 852.468 223.209 856.53C222.401 860.593 220.406 864.325 217.477 867.254C214.548 870.183 210.816 872.178 206.753 872.986C202.69 873.795 198.479 873.38 194.652 871.795C190.825 870.209 187.554 867.525 185.252 864.08C182.951 860.636 181.722 856.587 181.722 852.444" stroke="#1777E9" stroke-width="4.33333"/>
<path fill-rule="evenodd" clip-rule="evenodd" d="M199.425 856.408L210.611 845.222L212.314 846.924L199.425 859.813L192.556 852.943L194.258 851.241L199.425 856.408Z" fill="#1777E9"/>
<path d="M263.37 859.778V858.859C267.357 855.375 269.177 852.827 269.177 850.66C269.177 849.204 268.432 848.13 266.854 848.13C265.814 848.13 264.913 848.771 264.202 849.603L263.284 848.719C264.324 847.592 265.433 846.847 267.045 846.847C269.316 846.847 270.737 848.32 270.737 850.591C270.737 853.139 268.744 855.722 265.745 858.547C266.421 858.478 267.184 858.426 267.825 858.426H271.344V859.778H263.37ZM278.098 859.778V851.128C278.098 850.487 278.15 849.464 278.202 848.806H278.116C277.804 849.43 277.457 850.071 277.11 850.695L274.216 855.028H281.288V856.276H272.552V855.236L277.838 847.072H279.589V859.778H278.098Z" fill="#2C2C2C"/>
<path d="M332.704 859.778V858.859C336.69 855.375 338.51 852.827 338.51 850.66C338.51 849.204 337.765 848.13 336.188 848.13C335.148 848.13 334.246 848.771 333.536 849.603L332.617 848.719C333.657 847.592 334.766 846.847 336.378 846.847C338.649 846.847 340.07 848.32 340.07 850.591C340.07 853.139 338.077 855.722 335.078 858.547C335.754 858.478 336.517 858.426 337.158 858.426H340.677V859.778H332.704ZM346.079 860.02C344.103 860.02 342.89 859.188 342.023 858.322L342.821 857.282C343.531 858.027 344.467 858.703 345.923 858.703C347.431 858.703 348.627 857.542 348.627 855.704C348.627 853.884 347.587 852.792 346.01 852.792C345.161 852.792 344.623 853.07 343.895 853.555L343.046 853.018L343.445 847.072H349.633V848.424H344.831L344.502 852.099C345.074 851.787 345.646 851.596 346.409 851.596C348.523 851.596 350.239 852.844 350.239 855.652C350.239 858.426 348.211 860.02 346.079 860.02Z" fill="#2C2C2C"/>
<path d="M402.037 859.778V858.859C406.024 855.375 407.844 852.827 407.844 850.66C407.844 849.204 407.098 848.13 405.521 848.13C404.481 848.13 403.58 848.771 402.869 849.603L401.95 848.719C402.99 847.592 404.1 846.847 405.712 846.847C407.982 846.847 409.404 848.32 409.404 850.591C409.404 853.139 407.41 855.722 404.412 858.547C405.088 858.478 405.85 858.426 406.492 858.426H410.01V859.778H402.037ZM416.106 860.02C413.662 860.02 411.842 857.923 411.842 853.728C411.842 848.754 414.078 846.847 416.54 846.847C417.857 846.847 418.828 847.402 419.521 848.147L418.637 849.118C418.152 848.528 417.372 848.164 416.609 848.164C414.824 848.164 413.333 849.568 413.333 853.728C413.333 856.987 414.321 858.772 416.106 858.772C417.32 858.772 418.256 857.611 418.256 855.895C418.256 854.162 417.493 853.07 415.968 853.07C415.153 853.07 414.13 853.555 413.281 854.82L413.229 853.555C414.009 852.532 415.188 851.908 416.21 851.908C418.36 851.908 419.746 853.226 419.746 855.895C419.746 858.356 418.065 860.02 416.106 860.02Z" fill="#2C2C2C"/>
<path d="M471.37 859.778V858.859C475.357 855.375 477.177 852.827 477.177 850.66C477.177 849.204 476.432 848.13 474.854 848.13C473.814 848.13 472.913 848.771 472.202 849.603L471.284 848.719C472.324 847.592 473.433 846.847 475.045 846.847C477.316 846.847 478.737 848.32 478.737 850.591C478.737 853.139 476.744 855.722 473.745 858.547C474.421 858.478 475.184 858.426 475.825 858.426H479.344V859.778H471.37ZM483.637 859.778C483.862 854.976 484.729 851.891 487.225 848.424H481.072V847.072H489.01V848.026C486.029 851.856 485.492 854.82 485.284 859.778H483.637Z" fill="#2C2C2C"/>
<path d="M55.3703 929.111V928.192C59.3569 924.708 61.1769 922.16 61.1769 919.994C61.1769 918.538 60.4316 917.463 58.8543 917.463C57.8143 917.463 56.9129 918.104 56.2023 918.936L55.2836 918.052C56.3236 916.926 57.4329 916.18 59.0449 916.18C61.3156 916.18 62.7369 917.654 62.7369 919.924C62.7369 922.472 60.7436 925.055 57.7449 927.88C58.4209 927.811 59.1836 927.759 59.8249 927.759H63.3436V929.111H55.3703ZM69.0582 929.354C66.7182 929.354 65.0022 927.932 65.0022 925.974C65.0022 924.258 66.1808 923.079 67.3422 922.455V922.386C66.4062 921.744 65.6088 920.774 65.6088 919.439C65.6088 917.515 67.1168 916.232 69.1102 916.232C71.2768 916.232 72.5942 917.619 72.5942 919.56C72.5942 920.912 71.6582 922.039 70.8955 922.628V922.715C72.0048 923.356 73.0448 924.327 73.0448 926.06C73.0448 927.915 71.4328 929.354 69.0582 929.354ZM69.9248 922.23C70.7915 921.467 71.2422 920.6 71.2422 919.647C71.2422 918.399 70.4448 917.394 69.0755 917.394C67.9142 917.394 67.0648 918.226 67.0648 919.439C67.0648 920.964 68.4342 921.64 69.9248 922.23ZM69.0928 928.158C70.5488 928.158 71.5195 927.274 71.5195 926.008C71.5195 924.31 69.9595 923.668 68.1742 922.94C67.1342 923.599 66.4235 924.604 66.4235 925.818C66.4235 927.17 67.5675 928.158 69.0928 928.158Z" fill="#2C2C2C"/>
<path d="M124.704 929.111V928.192C128.69 924.708 130.51 922.16 130.51 919.994C130.51 918.538 129.765 917.463 128.188 917.463C127.148 917.463 126.246 918.104 125.536 918.936L124.617 918.052C125.657 916.926 126.766 916.18 128.378 916.18C130.649 916.18 132.07 917.654 132.07 919.924C132.07 922.472 130.077 925.055 127.078 927.88C127.754 927.811 128.517 927.759 129.158 927.759H132.677V929.111H124.704ZM137.612 929.354C136.225 929.354 135.254 928.799 134.544 928.054L135.428 927.048C135.965 927.672 136.745 928.036 137.56 928.036C139.258 928.036 140.732 926.563 140.732 922.212C140.732 919.092 139.744 917.411 137.958 917.411C136.745 917.411 135.809 918.555 135.809 920.306C135.809 922.004 136.572 923.131 138.08 923.131C138.929 923.131 139.917 922.628 140.749 921.363L140.836 922.628C140.038 923.634 138.912 924.292 137.82 924.292C135.688 924.292 134.318 922.94 134.318 920.306C134.318 917.844 135.982 916.18 137.958 916.18C140.402 916.18 142.222 918.174 142.222 922.212C142.222 927.378 140.004 929.354 137.612 929.354Z" fill="#2C2C2C"/>
<path d="M197.833 929.354C195.84 929.354 194.609 928.522 193.777 927.603L194.574 926.563C195.32 927.343 196.273 928.036 197.729 928.036C199.237 928.036 200.312 927.118 200.312 925.662C200.312 924.136 199.289 923.131 196.36 923.131V921.9C198.977 921.9 199.861 920.86 199.861 919.474C199.861 918.26 199.046 917.463 197.729 917.463C196.706 917.463 195.805 917.983 195.094 918.711L194.245 917.688C195.198 916.822 196.325 916.18 197.781 916.18C199.913 916.18 201.473 917.342 201.473 919.37C201.473 920.912 200.572 921.935 199.22 922.42V922.49C200.71 922.854 201.924 923.98 201.924 925.731C201.924 927.984 200.104 929.354 197.833 929.354ZM207.708 929.354C205.281 929.354 203.738 927.152 203.738 922.715C203.738 918.312 205.281 916.18 207.708 916.18C210.1 916.18 211.642 918.312 211.642 922.715C211.642 927.152 210.1 929.354 207.708 929.354ZM207.708 928.071C209.146 928.071 210.117 926.459 210.117 922.715C210.117 919.023 209.146 917.446 207.708 917.446C206.252 917.446 205.264 919.023 205.264 922.715C205.264 926.459 206.252 928.071 207.708 928.071Z" fill="#2C2C2C"/>
<line x1="12" y1="990.389" x2="532" y2="990.389" stroke="#D9D9D9" stroke-width="1.44444"/>
<defs>
<clipPath id="clip0_998_4697">
<rect width="43.3333" height="43.3333" fill="white" transform="translate(42.3333 531.778)"/>
</clipPath>
<clipPath id="clip1_998_4697">
<rect width="43.3333" height="43.3333" fill="white" transform="translate(458.333 531.778)"/>
</clipPath>
</defs>
</svg>
