<svg width="282" height="551" viewBox="0 0 282 551" fill="none" xmlns="http://www.w3.org/2000/svg">
<g clip-path="url(#clip0_649_8253)">
<rect x="6" y="6.73071" width="270" height="537.923" rx="13.5" fill="white"/>
<rect width="270" height="119" transform="translate(5.99988 18.7307)" fill="white"/>
<path d="M24.5997 48.6257H37.1547V50.2457H24.5997V48.6257ZM29.8197 50.0057H31.8147V56.0507H29.8197V50.0057ZM25.5897 43.0157H28.8297V44.5907H25.5897V43.0157ZM28.1847 43.0157H30.1497V43.9007C30.1497 45.1307 30.1497 46.8557 29.4597 49.3007L27.5097 48.9857C28.1847 46.6757 28.1847 45.1007 28.1847 43.9007V43.0157ZM31.0947 43.0157H34.7247V44.5907H31.0947V43.0157ZM33.8247 43.0157H35.7897V43.9907C35.7897 45.2507 35.7897 46.9457 35.2497 49.2857L33.2997 49.0007C33.8247 46.7807 33.8247 45.2207 33.8247 43.9907V43.0157ZM43.3035 43.6457H45.0735V43.9757C45.0735 46.1807 43.2135 48.0407 39.6735 48.4457L38.9535 46.8707C41.9685 46.5407 43.3035 45.1757 43.3035 43.9757V43.6457ZM44.2785 43.6457H46.0485V43.9757C46.0485 45.1907 47.3985 46.5407 50.4135 46.8707L49.6785 48.4457C46.1535 48.0407 44.2785 46.1957 44.2785 43.9757V43.6457ZM39.5385 42.7757H49.8285V44.3357H39.5385V42.7757ZM38.3985 49.0907H50.9685V50.6807H38.3985V49.0907ZM43.8435 50.0957H45.8535V53.0207H43.8435V50.0957ZM39.8535 54.2357H49.5885V55.8257H39.8535V54.2357ZM39.8535 51.8357H41.8335V54.7907H39.8535V51.8357ZM61.7224 42.1757H63.7324V56.0657H61.7224V42.1757ZM52.4974 44.2607H60.7174V45.8357H52.4974V44.2607ZM56.6224 46.6007C58.6774 46.6007 60.1924 47.9807 60.1924 49.9157C60.1924 51.8507 58.6774 53.2307 56.6224 53.2307C54.5674 53.2307 53.0674 51.8507 53.0674 49.9157C53.0674 47.9807 54.5674 46.6007 56.6224 46.6007ZM56.6224 48.2207C55.6624 48.2207 54.9724 48.8507 54.9724 49.9157C54.9724 50.9807 55.6624 51.6107 56.6224 51.6107C57.5824 51.6107 58.2724 50.9807 58.2724 49.9157C58.2724 48.8507 57.5824 48.2207 56.6224 48.2207ZM55.6024 42.3707H57.6124V45.2357H55.6024V42.3707ZM69.3946 48.9257H81.9796V50.5007H69.3946V48.9257ZM74.7796 49.9607H76.8046V52.8857H74.7796V49.9607ZM70.8646 54.2207H80.5996V55.8257H70.8646V54.2207ZM70.8646 51.6707H72.8746V54.6257H70.8646V51.6707ZM75.6796 42.4307C78.6646 42.4307 80.6746 43.5557 80.6746 45.3107C80.6746 47.0807 78.6646 48.1907 75.6796 48.1907C72.6796 48.1907 70.6846 47.0807 70.6846 45.3107C70.6846 43.5557 72.6796 42.4307 75.6796 42.4307ZM75.6796 44.0057C73.9246 44.0057 72.8296 44.4557 72.8296 45.3107C72.8296 46.1657 73.9246 46.6007 75.6796 46.6007C77.4346 46.6007 78.5296 46.1657 78.5296 45.3107C78.5296 44.4557 77.4346 44.0057 75.6796 44.0057ZM83.2084 48.7007H95.7785V50.2907H83.2084V48.7007ZM88.5034 46.6157H90.4834V49.3157H88.5034V46.6157ZM84.7234 45.9857H94.3534V47.5607H84.7234V45.9857ZM84.7234 42.7757H94.2785V44.3357H86.7034V46.9907H84.7234V42.7757ZM89.4484 50.9807C92.4484 50.9807 94.2635 51.8957 94.2635 53.5307C94.2635 55.1657 92.4484 56.0807 89.4484 56.0807C86.4484 56.0807 84.6184 55.1657 84.6184 53.5307C84.6184 51.8957 86.4484 50.9807 89.4484 50.9807ZM89.4484 52.4807C87.5884 52.4807 86.6434 52.8257 86.6434 53.5307C86.6434 54.2507 87.5884 54.5657 89.4484 54.5657C91.3084 54.5657 92.2535 54.2507 92.2535 53.5307C92.2535 52.8257 91.3084 52.4807 89.4484 52.4807ZM105.902 42.1757H107.882V56.0657H105.902V42.1757ZM107.432 47.5907H109.892V49.2557H107.432V47.5907ZM96.9323 44.2307H105.017V45.8207H96.9323V44.2307ZM100.997 46.6007C103.022 46.6007 104.522 47.9807 104.522 49.9157C104.522 51.8507 103.022 53.2307 100.997 53.2307C98.9723 53.2307 97.4723 51.8507 97.4723 49.9157C97.4723 47.9807 98.9723 46.6007 100.997 46.6007ZM100.997 48.2207C100.052 48.2207 99.3773 48.8507 99.3773 49.9157C99.3773 50.9807 100.052 51.6107 100.997 51.6107C101.942 51.6107 102.617 50.9807 102.617 49.9157C102.617 48.8507 101.942 48.2207 100.997 48.2207ZM99.9923 42.4007H101.987V44.8307H99.9923V42.4007ZM120.361 42.1757H122.371V56.0657H120.361V42.1757ZM116.266 43.6157H118.246C118.246 47.8607 116.806 51.3407 111.871 53.7257L110.836 52.1357C114.826 50.2157 116.266 47.6957 116.266 43.9757V43.6157ZM111.571 43.6157H117.211V45.1907H111.571V43.6157Z" fill="#2C2C2C"/>
<path d="M24.4827 84.8982H33.1557V85.7697H24.4827V84.8982ZM28.2627 83.8377H29.3547V85.2972H28.2627V83.8377ZM28.2627 79.9947H29.3547V81.3702H28.2627V79.9947ZM28.2102 81.4437H29.1762V81.6117C29.1762 81.9897 29.0817 82.3327 28.8927 82.6407C28.7037 82.9487 28.4342 83.2182 28.0842 83.4492C27.7342 83.6802 27.3177 83.8657 26.8347 84.0057C26.3587 84.1457 25.8302 84.2402 25.2492 84.2892L24.9237 83.4597C25.4347 83.4177 25.8932 83.3442 26.2992 83.2392C26.7052 83.1272 27.0482 82.9907 27.3282 82.8297C27.6152 82.6617 27.8322 82.4762 27.9792 82.2732C28.1332 82.0632 28.2102 81.8427 28.2102 81.6117V81.4437ZM28.4517 81.4437H29.4177V81.6117C29.4177 81.8427 29.4912 82.0632 29.6382 82.2732C29.7922 82.4762 30.0092 82.6617 30.2892 82.8297C30.5762 82.9907 30.9192 83.1272 31.3182 83.2392C31.7242 83.3442 32.1862 83.4177 32.7042 83.4597L32.3787 84.2892C31.7977 84.2402 31.2657 84.1457 30.7827 84.0057C30.3067 83.8657 29.8937 83.6802 29.5437 83.4492C29.1937 83.2182 28.9242 82.9487 28.7352 82.6407C28.5462 82.3327 28.4517 81.9897 28.4517 81.6117V81.4437ZM25.3437 80.9082H32.2947V81.7692H25.3437V80.9082ZM28.7982 86.3682C29.8412 86.3682 30.6532 86.5082 31.2342 86.7882C31.8152 87.0612 32.1057 87.4602 32.1057 87.9852C32.1057 88.5032 31.8152 88.8987 31.2342 89.1717C30.6532 89.4447 29.8412 89.5812 28.7982 89.5812C27.7622 89.5812 26.9537 89.4447 26.3727 89.1717C25.7917 88.8987 25.5012 88.5032 25.5012 87.9852C25.5012 87.4602 25.7917 87.0612 26.3727 86.7882C26.9537 86.5082 27.7622 86.3682 28.7982 86.3682ZM28.7982 87.1977C28.0912 87.1977 27.5487 87.2642 27.1707 87.3972C26.7927 87.5232 26.6037 87.7192 26.6037 87.9852C26.6037 88.2372 26.7927 88.4297 27.1707 88.5627C27.5487 88.6957 28.0912 88.7622 28.7982 88.7622C29.5122 88.7622 30.0547 88.6957 30.4257 88.5627C30.8037 88.4297 30.9927 88.2372 30.9927 87.9852C30.9927 87.7192 30.8037 87.5232 30.4257 87.3972C30.0547 87.2642 29.5122 87.1977 28.7982 87.1977ZM36.5003 87.5022H45.1943V88.4052H36.5003V87.5022ZM40.2593 85.2552H41.3513V87.7647H40.2593V85.2552ZM40.2173 80.5932H41.1833V81.3177C41.1833 81.7237 41.1168 82.1157 40.9838 82.4937C40.8578 82.8647 40.6723 83.2112 40.4273 83.5332C40.1893 83.8552 39.9058 84.1457 39.5768 84.4047C39.2478 84.6637 38.8838 84.8842 38.4848 85.0662C38.0928 85.2482 37.6798 85.3812 37.2458 85.4652L36.7838 84.5412C37.1618 84.4782 37.5223 84.3732 37.8653 84.2262C38.2083 84.0792 38.5233 83.9007 38.8103 83.6907C39.0973 83.4807 39.3458 83.2497 39.5558 82.9977C39.7658 82.7387 39.9268 82.4692 40.0388 82.1892C40.1578 81.9022 40.2173 81.6117 40.2173 81.3177V80.5932ZM40.4273 80.5932H41.3828V81.3177C41.3828 81.6117 41.4423 81.9022 41.5613 82.1892C41.6803 82.4762 41.8448 82.7457 42.0548 82.9977C42.2648 83.2497 42.5133 83.4842 42.8003 83.7012C43.0873 83.9112 43.4023 84.0897 43.7453 84.2367C44.0883 84.3767 44.4523 84.4782 44.8373 84.5412L44.3648 85.4652C43.9308 85.3812 43.5143 85.2482 43.1153 85.0662C42.7233 84.8842 42.3628 84.6672 42.0338 84.4152C41.7048 84.1562 41.4178 83.8657 41.1728 83.5437C40.9348 83.2147 40.7493 82.8647 40.6163 82.4937C40.4903 82.1157 40.4273 81.7237 40.4273 81.3177V80.5932ZM48.1965 84.9087H49.2885V87.7017H48.1965V84.9087ZM51.7035 84.9087H52.806V87.7017H51.7035V84.9087ZM46.1595 87.5127H54.8535V88.4157H46.1595V87.5127ZM50.496 80.5512C51.175 80.5512 51.7805 80.6562 52.3125 80.8662C52.8445 81.0692 53.261 81.3597 53.562 81.7377C53.87 82.1087 54.024 82.5497 54.024 83.0607C54.024 83.5717 53.87 84.0162 53.562 84.3942C53.261 84.7652 52.8445 85.0557 52.3125 85.2657C51.7805 85.4687 51.175 85.5702 50.496 85.5702C49.817 85.5702 49.208 85.4687 48.669 85.2657C48.137 85.0557 47.717 84.7652 47.409 84.3942C47.108 84.0162 46.9575 83.5717 46.9575 83.0607C46.9575 82.5497 47.108 82.1087 47.409 81.7377C47.717 81.3597 48.137 81.0692 48.669 80.8662C49.208 80.6562 49.817 80.5512 50.496 80.5512ZM50.496 81.4122C50.013 81.4122 49.586 81.4787 49.215 81.6117C48.844 81.7447 48.5535 81.9372 48.3435 82.1892C48.1405 82.4342 48.039 82.7247 48.039 83.0607C48.039 83.3967 48.1405 83.6907 48.3435 83.9427C48.5535 84.1877 48.844 84.3802 49.215 84.5202C49.586 84.6532 50.013 84.7197 50.496 84.7197C50.979 84.7197 51.4025 84.6532 51.7665 84.5202C52.1375 84.3802 52.428 84.1877 52.638 83.9427C52.848 83.6907 52.953 83.3967 52.953 83.0607C52.953 82.7247 52.848 82.4342 52.638 82.1892C52.428 81.9372 52.1375 81.7447 51.7665 81.6117C51.4025 81.4787 50.979 81.4122 50.496 81.4122ZM58.2651 80.7927H59.1681V82.3677C59.1681 82.9487 59.1051 83.5087 58.9791 84.0477C58.8531 84.5867 58.6676 85.0907 58.4226 85.5597C58.1846 86.0287 57.8941 86.4417 57.5511 86.7987C57.2151 87.1557 56.8301 87.4392 56.3961 87.6492L55.7346 86.7462C56.1196 86.5712 56.4661 86.3332 56.7741 86.0322C57.0891 85.7242 57.3551 85.3742 57.5721 84.9822C57.7961 84.5902 57.9676 84.1702 58.0866 83.7222C58.2056 83.2742 58.2651 82.8227 58.2651 82.3677V80.7927ZM58.4646 80.7927H59.3676V82.3677C59.3676 82.8087 59.4236 83.2427 59.5356 83.6697C59.6546 84.0967 59.8226 84.4992 60.0396 84.8772C60.2566 85.2552 60.5191 85.5877 60.8271 85.8747C61.1351 86.1617 61.4746 86.3927 61.8456 86.5677L61.2051 87.4497C60.7781 87.2467 60.3966 86.9737 60.0606 86.6307C59.7246 86.2877 59.4376 85.8922 59.1996 85.4442C58.9616 84.9962 58.7796 84.5097 58.6536 83.9847C58.5276 83.4597 58.4646 82.9207 58.4646 82.3677V80.7927ZM62.6121 79.9947H63.7146V89.6127H62.6121V79.9947ZM71.8618 80.0052H72.9643V86.9457H71.8618V80.0052ZM72.6388 82.8087H74.3188V83.7117H72.6388V82.8087ZM69.2158 80.7297H70.3918C70.3918 81.5767 70.2133 82.3397 69.8563 83.0187C69.4993 83.6977 68.9848 84.2822 68.3128 84.7722C67.6478 85.2622 66.8463 85.6472 65.9083 85.9272L65.4463 85.0452C66.2443 84.8142 66.9233 84.5097 67.4833 84.1317C68.0503 83.7537 68.4808 83.3197 68.7748 82.8297C69.0688 82.3397 69.2158 81.8112 69.2158 81.2442V80.7297ZM65.8558 80.7297H69.7933V81.6222H65.8558V80.7297ZM66.8848 88.5102H73.3423V89.4027H66.8848V88.5102ZM66.8848 86.2422H67.9873V88.8987H66.8848V86.2422Z" fill="#909090"/>
<path d="M25.2747 115.731V114.306H27.7047V106.626H25.7097V105.531C26.7597 105.351 27.4797 105.081 28.1247 104.691H29.4297V114.306H31.5897V115.731H25.2747ZM36.5594 115.941C34.8344 115.941 33.7094 115.251 32.9594 114.411L33.8144 113.301C34.4594 113.961 35.2694 114.516 36.4244 114.516C37.6544 114.516 38.5094 113.826 38.5094 112.686C38.5094 111.456 37.7294 110.676 35.2544 110.676V109.386C37.4144 109.386 38.1344 108.576 38.1344 107.466C38.1344 106.491 37.5044 105.876 36.4394 105.876C35.5994 105.876 34.8794 106.281 34.2494 106.911L33.3344 105.816C34.2194 105.036 35.2394 104.496 36.5144 104.496C38.4944 104.496 39.8894 105.516 39.8894 107.331C39.8894 108.606 39.1544 109.491 37.9844 109.926V110.001C39.2594 110.331 40.2644 111.276 40.2644 112.776C40.2644 114.771 38.5994 115.941 36.5594 115.941ZM45.1291 115.941C43.3891 115.941 42.2941 115.236 41.4991 114.456L42.3391 113.331C42.9541 113.961 43.7641 114.516 44.9191 114.516C46.1641 114.516 47.0941 113.631 47.0941 112.161C47.0941 110.706 46.2541 109.866 44.9941 109.866C44.3041 109.866 43.8841 110.061 43.2391 110.481L42.3841 109.941L42.7141 104.691H48.3241V106.161H44.2291L43.9741 108.981C44.4391 108.741 44.8891 108.606 45.4891 108.606C47.3341 108.606 48.8491 109.686 48.8491 112.116C48.8491 114.546 47.0491 115.941 45.1291 115.941ZM53.7079 110.406H66.1279V111.666H53.7079V110.406ZM59.2579 111.066H60.8179V114.096H59.2579V111.066ZM55.2229 115.431H64.7479V116.706H55.2229V115.431ZM55.2229 112.956H56.7829V115.941H55.2229V112.956ZM55.3279 103.701H56.8729V105.291H62.9479V103.701H64.5079V109.251H55.3279V103.701ZM56.8729 106.491V108.006H62.9479V106.491H56.8729Z" fill="#2C2C2C"/>
<path d="M185.819 105.44H190.302V111.708H185.819V105.44ZM189.221 106.311H186.9V110.837H189.221V106.311ZM191.814 104.505H192.917V114.102H191.814V104.505ZM192.665 108.243H194.408V109.157H192.665V108.243ZM197.578 105.944H198.46V107.288C198.46 109.398 197.378 111.488 195.73 112.275L195.1 111.404C196.58 110.721 197.578 108.926 197.578 107.288V105.944ZM197.809 105.944H198.68V107.288C198.68 108.873 199.667 110.532 201.169 111.162L200.56 112.034C198.89 111.288 197.809 109.346 197.809 107.288V105.944ZM195.446 105.461H200.812V106.374H195.446V105.461ZM201.935 104.505H203.038V114.102H201.935V104.505ZM205.137 105.209H209.621V109.556H205.137V105.209ZM208.539 106.08H206.219V108.684H208.539V106.08ZM211.185 104.505H212.288V110.196H211.185V104.505ZM211.983 106.899H213.642V107.813H211.983V106.899ZM205.977 110.669H212.288V114.113H211.185V111.551H205.977V110.669ZM219.255 105.293H220.158V106.868C220.158 109.188 219.118 111.32 217.396 112.16L216.735 111.246C218.268 110.553 219.255 108.705 219.255 106.868V105.293ZM219.465 105.293H220.357V106.868C220.357 108.632 221.334 110.396 222.846 111.068L222.195 111.95C220.504 111.152 219.465 109.104 219.465 106.868V105.293ZM223.612 104.495H224.715V114.113H223.612V104.495ZM227.538 108.894H234.195V109.787H227.538V108.894ZM226.478 112.044H235.172V112.958H226.478V112.044ZM230.258 109.293H231.35V112.37H230.258V109.293ZM227.538 105.219H234.111V106.112H228.63V109.283H227.538V105.219ZM239.566 110.133H240.595V111.215H241.95V110.133H242.968V113.987H239.566V110.133ZM240.595 112.023V113.147H241.95V112.023H240.595ZM244.659 110.06H245.499V110.826C245.499 112.17 244.879 113.514 243.514 114.071L242.968 113.241C244.123 112.769 244.659 111.771 244.659 110.826V110.06ZM244.9 110.06H245.751V110.826C245.751 111.834 246.276 112.821 247.441 113.241L246.885 114.071C245.499 113.535 244.9 112.254 244.9 110.826V110.06ZM243.325 106.668H245.824V107.571H243.325V106.668ZM241.12 104.904C242.559 104.904 243.619 105.818 243.619 107.13C243.619 108.453 242.559 109.367 241.12 109.367C239.682 109.367 238.621 108.453 238.621 107.13C238.621 105.818 239.682 104.904 241.12 104.904ZM241.12 105.807C240.28 105.807 239.671 106.332 239.671 107.13C239.671 107.928 240.28 108.464 241.12 108.464C241.96 108.464 242.559 107.928 242.559 107.13C242.559 106.332 241.96 105.807 241.12 105.807ZM245.341 104.505H246.444V109.587H245.341V104.505ZM252.481 104.705C254.581 104.705 255.904 105.398 255.904 106.542C255.904 107.697 254.581 108.38 252.481 108.38C250.391 108.38 249.068 107.697 249.068 106.542C249.068 105.398 250.391 104.705 252.481 104.705ZM252.481 105.566C251.053 105.566 250.202 105.902 250.202 106.542C250.202 107.172 251.053 107.519 252.481 107.519C253.909 107.519 254.77 107.172 254.77 106.542C254.77 105.902 253.909 105.566 252.481 105.566ZM249.184 110.774H255.767V113.987H249.184V110.774ZM254.696 111.656H250.265V113.105H254.696V111.656ZM248.144 109.083H256.817V109.955H248.144V109.083Z" fill="#2C2C2C"/>
<rect width="270" height="316.5" transform="translate(5.99988 149.731)" fill="white"/>
<rect width="234" height="280.5" transform="translate(23.9997 167.731)" fill="white"/>
<path d="M23.9997 173.731C23.9997 170.417 26.686 167.731 29.9997 167.731H252C255.313 167.731 258 170.417 258 173.731V208.231C258 211.544 255.313 214.231 252 214.231H29.9997C26.686 214.231 23.9997 211.544 23.9997 208.231V173.731Z" fill="#F4F4F4"/>
<path d="M35.9997 196.821H47.9997V184.821H35.9997V196.821Z" fill="#2C2C2C"/>
<path d="M58.8597 191.729H60.1077V193.349H58.8597V191.729ZM54.5397 191.009H64.4517V192.005H54.5397V191.009ZM55.7997 186.857H63.1797V190.241H55.7997V186.857ZM61.9437 187.841H57.0357V189.257H61.9437V187.841ZM55.7157 192.905H63.2157V195.533H56.9757V196.697H55.7277V194.633H61.9797V193.853H55.7157V192.905ZM55.7277 196.409H63.5277V197.381H55.7277V196.409ZM65.5788 192.245H75.4908V193.241H65.5788V192.245ZM69.8988 190.937H71.1468V192.641H69.8988V190.937ZM66.8508 190.385H74.3748V191.345H66.8508V190.385ZM66.8508 186.809H74.3028V187.781H68.0988V190.925H66.8508V186.809ZM67.7388 188.597H74.0388V189.533H67.7388V188.597ZM70.5228 193.913C72.9228 193.913 74.3028 194.537 74.3028 195.689C74.3028 196.841 72.9228 197.465 70.5228 197.465C68.1228 197.465 66.7428 196.841 66.7428 195.689C66.7428 194.537 68.1228 193.913 70.5228 193.913ZM70.5228 194.849C68.8668 194.849 68.0028 195.137 68.0028 195.689C68.0028 196.253 68.8668 196.529 70.5228 196.529C72.1788 196.529 73.0428 196.253 73.0428 195.689C73.0428 195.137 72.1788 194.849 70.5228 194.849ZM77.0138 198.893L76.7138 198.113C77.5418 197.765 78.0218 197.153 78.0218 196.433L77.9258 195.329L78.5018 196.229C78.3338 196.409 78.1178 196.481 77.8898 196.481C77.3978 196.481 76.9538 196.157 76.9538 195.593C76.9538 195.041 77.3978 194.705 77.9258 194.705C78.5978 194.705 78.9938 195.257 78.9938 196.181C78.9938 197.453 78.2618 198.425 77.0138 198.893ZM82.8874 191.969H92.8234V192.977H82.8874V191.969ZM87.3034 192.617H88.5754V195.053H87.3034V192.617ZM84.1114 196.229H91.7314V197.261H84.1114V196.229ZM84.1114 194.021H85.3714V196.505H84.1114V194.021ZM87.8434 186.749C90.1834 186.749 91.7314 187.613 91.7314 188.993C91.7314 190.361 90.1834 191.225 87.8434 191.225C85.5034 191.225 83.9554 190.361 83.9554 188.993C83.9554 187.613 85.5034 186.749 87.8434 186.749ZM87.8434 187.757C86.3074 187.757 85.2994 188.213 85.2994 188.993C85.2994 189.761 86.3074 190.205 87.8434 190.205C89.3914 190.205 90.3874 189.761 90.3874 188.993C90.3874 188.213 89.3914 187.757 87.8434 187.757ZM93.9384 191.801H103.85V192.809H93.9384V191.801ZM98.2704 190.097H99.5184V192.209H98.2704V190.097ZM95.1624 189.701H102.71V190.697H95.1624V189.701ZM95.1624 187.001H102.638V187.997H96.4104V190.313H95.1624V187.001ZM98.8704 193.493C101.222 193.493 102.65 194.213 102.65 195.485C102.65 196.757 101.222 197.477 98.8704 197.477C96.5184 197.477 95.0904 196.757 95.0904 195.485C95.0904 194.213 96.5184 193.493 98.8704 193.493ZM98.8704 194.453C97.2624 194.453 96.3624 194.813 96.3624 195.485C96.3624 196.157 97.2624 196.505 98.8704 196.505C100.478 196.505 101.378 196.157 101.378 195.485C101.378 194.813 100.478 194.453 98.8704 194.453ZM104.965 192.053H114.877V193.073H104.965V192.053ZM109.297 190.529H110.545V192.317H109.297V190.529ZM106.069 194.009H113.665V197.477H112.417V195.005H106.069V194.009ZM106.261 186.773H107.497V187.889H112.357V186.773H113.605V190.937H106.261V186.773ZM107.497 188.849V189.941H112.357V188.849H107.497ZM120.848 188.597H121.796V188.909C121.796 190.649 120.992 192.281 119.348 192.953L118.748 192.029C120.128 191.453 120.848 190.181 120.848 188.909V188.597ZM121.1 188.597H122.036V188.909C122.036 190.085 122.768 191.273 124.136 191.777L123.572 192.725C121.916 192.101 121.1 190.565 121.1 188.909V188.597ZM119 187.901H123.848V188.885H119V187.901ZM120.848 186.713H122.036V188.381H120.848V186.713ZM126.8 186.521H127.988V193.337H126.8V186.521ZM125.24 189.317H127.16V190.349H125.24V189.317ZM124.484 186.725H125.66V192.941H124.484V186.725ZM124.34 193.469C126.62 193.469 128.048 194.213 128.048 195.473C128.048 196.733 126.62 197.477 124.34 197.477C122.048 197.477 120.632 196.733 120.632 195.473C120.632 194.213 122.048 193.469 124.34 193.469ZM124.34 194.441C122.792 194.441 121.868 194.801 121.868 195.473C121.868 196.145 122.792 196.505 124.34 196.505C125.876 196.505 126.788 196.145 126.788 195.473C126.788 194.801 125.876 194.441 124.34 194.441ZM137.539 186.509H138.799V197.477H137.539V186.509ZM134.323 187.673H135.559C135.559 190.925 134.263 193.685 130.495 195.521L129.835 194.513C132.991 192.989 134.323 190.817 134.323 187.889V187.673ZM130.375 187.673H134.887V188.681H130.375V187.673ZM148.578 186.509H149.838V197.477H148.578V186.509ZM145.362 187.673H146.598C146.598 190.925 145.302 193.685 141.534 195.521L140.874 194.513C144.03 192.989 145.362 190.817 145.362 187.889V187.673ZM141.414 187.673H145.926V188.681H141.414V187.673Z" fill="#2C2C2C"/>
<path d="M160.814 195.628C159.596 195.628 158.829 195.134 158.273 194.588L158.861 193.801C159.291 194.242 159.858 194.63 160.667 194.63C161.538 194.63 162.189 194.011 162.189 192.982C162.189 191.963 161.601 191.375 160.719 191.375C160.236 191.375 159.942 191.512 159.491 191.806L158.892 191.428L159.123 187.753H163.05V188.782H160.184L160.005 190.756C160.331 190.588 160.646 190.493 161.066 190.493C162.357 190.493 163.418 191.249 163.418 192.95C163.418 194.651 162.158 195.628 160.814 195.628ZM164.46 191.753H173.154V192.635H164.46V191.753ZM168.345 192.215H169.437V194.336H168.345V192.215ZM165.521 195.271H172.188V196.163H165.521V195.271ZM165.521 193.538H166.613V195.628H165.521V193.538ZM165.594 187.06H166.676V188.173H170.928V187.06H172.02V190.945H165.594V187.06ZM166.676 189.013V190.073H170.928V189.013H166.676Z" fill="#676767"/>
<g clip-path="url(#clip1_649_8253)">
<path d="M232.875 185.356L231.553 186.678L235.847 190.981L231.553 195.284L232.875 196.606L238.5 190.981L232.875 185.356Z" fill="#D9D9D9"/>
</g>
<path d="M23.9997 232.231C23.9997 228.917 26.686 226.231 29.9997 226.231H252C255.313 226.231 258 228.917 258 232.231V266.731C258 270.044 255.313 272.731 252 272.731H29.9997C26.686 272.731 23.9997 270.044 23.9997 266.731V232.231Z" fill="#F4F4F4"/>
<path d="M35.9997 255.321H47.9997V243.321H35.9997V255.321Z" fill="#2C2C2C"/>
<path d="M61.8357 245.009H63.1077V252.953H61.8357V245.009ZM62.7357 248.213H64.6557V249.257H62.7357V248.213ZM58.8237 245.849H60.1557C60.1557 248.741 58.2477 250.817 55.0437 251.789L54.5157 250.781C57.2397 249.977 58.8237 248.381 58.8237 246.437V245.849ZM54.9717 245.849H59.4837V246.869H54.9717V245.849ZM56.1597 254.741H63.5397V255.761H56.1597V254.741ZM56.1597 252.149H57.4197V255.173H56.1597V252.149ZM72.8868 245.009H74.1468V252.941H72.8868V245.009ZM73.7748 248.141H75.6948V249.185H73.7748V248.141ZM66.0468 250.049H66.9228C69.2388 250.049 70.4628 249.989 71.8668 249.689L71.9988 250.697C70.5588 251.009 69.2868 251.069 66.9228 251.069H66.0468V250.049ZM66.0468 245.921H70.9188V246.941H67.2948V250.589H66.0468V245.921ZM67.2108 254.741H74.5908V255.761H67.2108V254.741ZM67.2108 252.125H68.4708V255.233H67.2108V252.125ZM83.9258 245.021H85.1858V253.229H83.9258V245.021ZM84.8138 248.501H86.7338V249.545H84.8138V248.501ZM76.6418 246.269H83.0978V247.265H76.6418V246.269ZM79.8698 247.769C81.4298 247.769 82.5218 248.609 82.5218 249.845C82.5218 251.093 81.4298 251.921 79.8698 251.921C78.2978 251.921 77.2058 251.093 77.2058 249.845C77.2058 248.609 78.2978 247.769 79.8698 247.769ZM79.8698 248.741C79.0058 248.741 78.4178 249.161 78.4178 249.845C78.4178 250.541 79.0058 250.949 79.8698 250.949C80.7338 250.949 81.3218 250.541 81.3218 249.845C81.3218 249.161 80.7338 248.741 79.8698 248.741ZM79.2458 245.009H80.4938V246.761H79.2458V245.009ZM78.2498 254.741H85.6298V255.761H78.2498V254.741ZM78.2498 252.593H79.5098V255.173H78.2498V252.593ZM94.6122 245.705H95.7042V246.533C95.7042 248.909 93.7122 250.877 91.2402 251.405L90.6882 250.361C92.8602 249.965 94.6122 248.261 94.6122 246.533V245.705ZM94.8522 245.705H95.9442V246.533C95.9442 248.285 97.6962 249.965 99.8682 250.361L99.3162 251.405C96.8442 250.877 94.8522 248.933 94.8522 246.533V245.705ZM90.3642 253.529H100.3V254.561H90.3642V253.529ZM102.627 250.805H110.235V251.801H102.627V250.805ZM101.403 253.601H111.339V254.633H101.403V253.601ZM102.627 245.885H110.127V246.905H103.899V251.093H102.627V245.885ZM103.503 248.321H109.887V249.305H103.503V248.321ZM112.766 252.305H113.522C114.854 252.305 116.054 252.269 117.494 252.017L117.602 253.037C116.126 253.301 114.89 253.337 113.522 253.337H112.766V252.305ZM112.742 246.161H116.642V250.145H113.99V252.713H112.766V249.137H115.43V247.169H112.742V246.161ZM120.59 245.009H121.79V255.977H120.59V245.009ZM117.134 248.849H118.874V249.881H117.134V248.849ZM118.37 245.249H119.534V255.425H118.37V245.249ZM126.313 246.833H127.345V247.277C127.345 249.209 126.205 250.865 124.225 251.465L123.637 250.493C125.341 249.965 126.313 248.657 126.313 247.277V246.833ZM126.541 246.833H127.561V247.277C127.561 248.561 128.569 249.773 130.273 250.229L129.697 251.225C127.717 250.661 126.541 249.113 126.541 247.277V246.833ZM123.949 246.269H129.925V247.265H123.949V246.269ZM126.313 245.021H127.573V246.713H126.313V245.021ZM131.257 245.021H132.517V251.681H131.257V245.021ZM128.845 251.897C131.149 251.897 132.565 252.641 132.565 253.925C132.565 255.221 131.149 255.965 128.845 255.965C126.541 255.965 125.137 255.221 125.137 253.925C125.137 252.641 126.541 251.897 128.845 251.897ZM128.845 252.869C127.285 252.869 126.397 253.241 126.397 253.925C126.397 254.621 127.285 254.993 128.845 254.993C130.405 254.993 131.305 254.621 131.305 253.925C131.305 253.241 130.405 252.869 128.845 252.869Z" fill="#2C2C2C"/>
<path d="M140.892 253.981V252.983H142.593V247.607H141.197V246.841C141.932 246.715 142.436 246.526 142.887 246.253H143.801V252.983H145.313V253.981H140.892ZM148.98 254.128C147.458 254.128 146.481 252.773 146.481 250.085C146.481 247.418 147.458 246.116 148.98 246.116C150.492 246.116 151.479 247.418 151.479 250.085C151.479 252.773 150.492 254.128 148.98 254.128ZM148.98 253.162C149.768 253.162 150.314 252.322 150.314 250.085C150.314 247.88 149.768 247.061 148.98 247.061C148.193 247.061 147.636 247.88 147.636 250.085C147.636 252.322 148.193 253.162 148.98 253.162ZM152.449 250.253H161.143V251.135H152.449V250.253ZM156.334 250.715H157.426V252.836H156.334V250.715ZM153.509 253.771H160.177V254.663H153.509V253.771ZM153.509 252.038H154.601V254.128H153.509V252.038ZM153.583 245.56H154.664V246.673H158.917V245.56H160.009V249.445H153.583V245.56ZM154.664 247.513V248.573H158.917V247.513H154.664Z" fill="#676767"/>
<g clip-path="url(#clip2_649_8253)">
<path d="M232.875 243.856L231.553 245.178L235.847 249.481L231.553 253.784L232.875 255.106L238.5 249.481L232.875 243.856Z" fill="#D9D9D9"/>
</g>
<path d="M23.9997 290.731C23.9997 287.417 26.686 284.731 29.9997 284.731H252C255.313 284.731 258 287.417 258 290.731V325.231C258 328.544 255.313 331.231 252 331.231H29.9997C26.686 331.231 23.9997 328.544 23.9997 325.231V290.731Z" fill="#F4F4F4"/>
<path d="M35.9997 313.821H47.9997V301.821H35.9997V313.821Z" fill="#2C2C2C"/>
<path d="M61.7877 303.497H63.0477V314.465H61.7877V303.497ZM62.7117 307.841H64.6917V308.873H62.7117V307.841ZM58.9437 304.661H60.1797C60.1797 307.853 58.8237 310.673 55.2357 312.473L54.5277 311.513C57.4917 310.001 58.9437 307.805 58.9437 304.877V304.661ZM55.0797 304.661H59.5917V305.681H55.0797V304.661ZM66.7668 310.673H74.2908V314.345H66.7668V310.673ZM73.0668 311.681H68.0028V313.337H73.0668V311.681ZM65.5788 308.609H75.4908V309.617H65.5788V308.609ZM69.8988 303.641H70.9788V304.061C70.9788 305.993 69.0708 307.481 66.5748 307.853L66.1188 306.857C68.3028 306.581 69.8988 305.357 69.8988 304.061V303.641ZM70.1028 303.641H71.1828V304.061C71.1828 305.333 72.7908 306.581 74.9628 306.857L74.4948 307.853C72.0108 307.481 70.1028 305.969 70.1028 304.061V303.641ZM79.3131 308.969H89.2491V309.977H79.3131V308.969ZM83.7291 309.617H85.0011V312.053H83.7291V309.617ZM80.5371 313.229H88.1571V314.261H80.5371V313.229ZM80.5371 311.021H81.7971V313.505H80.5371V311.021ZM84.2691 303.749C86.6091 303.749 88.1571 304.613 88.1571 305.993C88.1571 307.361 86.6091 308.225 84.2691 308.225C81.9291 308.225 80.3811 307.361 80.3811 305.993C80.3811 304.613 81.9291 303.749 84.2691 303.749ZM84.2691 304.757C82.7331 304.757 81.7251 305.213 81.7251 305.993C81.7251 306.761 82.7331 307.205 84.2691 307.205C85.8171 307.205 86.8131 306.761 86.8131 305.993C86.8131 305.213 85.8171 304.757 84.2691 304.757ZM90.3642 308.801H100.276V309.809H90.3642V308.801ZM94.6962 307.097H95.9442V309.209H94.6962V307.097ZM91.5882 306.701H99.1362V307.697H91.5882V306.701ZM91.5882 304.001H99.0642V304.997H92.8362V307.313H91.5882V304.001ZM95.2962 310.493C97.6482 310.493 99.0762 311.213 99.0762 312.485C99.0762 313.757 97.6482 314.477 95.2962 314.477C92.9442 314.477 91.5162 313.757 91.5162 312.485C91.5162 311.213 92.9442 310.493 95.2962 310.493ZM95.2962 311.453C93.6882 311.453 92.7882 311.813 92.7882 312.485C92.7882 313.157 93.6882 313.505 95.2962 313.505C96.9042 313.505 97.8042 313.157 97.8042 312.485C97.8042 311.813 96.9042 311.453 95.2962 311.453Z" fill="#2C2C2C"/>
<path d="M109.803 312.628C108.596 312.628 107.808 312.145 107.283 311.557L107.882 310.78C108.333 311.242 108.9 311.63 109.709 311.63C110.57 311.63 111.168 311.147 111.168 310.349C111.168 309.488 110.622 308.942 108.89 308.942V308.039C110.402 308.039 110.906 307.472 110.906 306.695C110.906 306.013 110.465 305.582 109.719 305.582C109.131 305.582 108.627 305.866 108.186 306.307L107.546 305.54C108.165 304.994 108.879 304.616 109.772 304.616C111.158 304.616 112.134 305.33 112.134 306.601C112.134 307.493 111.62 308.113 110.801 308.417V308.47C111.693 308.701 112.397 309.362 112.397 310.412C112.397 311.809 111.231 312.628 109.803 312.628ZM115.98 312.628C114.458 312.628 113.481 311.273 113.481 308.585C113.481 305.918 114.458 304.616 115.98 304.616C117.492 304.616 118.479 305.918 118.479 308.585C118.479 311.273 117.492 312.628 115.98 312.628ZM115.98 311.662C116.768 311.662 117.314 310.822 117.314 308.585C117.314 306.38 116.768 305.561 115.98 305.561C115.193 305.561 114.636 306.38 114.636 308.585C114.636 310.822 115.193 311.662 115.98 311.662ZM119.449 308.753H128.143V309.635H119.449V308.753ZM123.334 309.215H124.426V311.336H123.334V309.215ZM120.509 312.271H127.177V313.163H120.509V312.271ZM120.509 310.538H121.601V312.628H120.509V310.538ZM120.583 304.06H121.664V305.173H125.917V304.06H127.009V307.945H120.583V304.06ZM121.664 306.013V307.073H125.917V306.013H121.664Z" fill="#676767"/>
<g clip-path="url(#clip3_649_8253)">
<path d="M232.875 302.356L231.553 303.678L235.847 307.981L231.553 312.284L232.875 313.606L238.5 307.981L232.875 302.356Z" fill="#D9D9D9"/>
</g>
<path d="M23.9997 349.231C23.9997 345.917 26.686 343.231 29.9997 343.231H252C255.313 343.231 258 345.917 258 349.231V383.731C258 387.044 255.313 389.731 252 389.731H29.9997C26.686 389.731 23.9997 387.044 23.9997 383.731V349.231Z" fill="#F4F4F4"/>
<path d="M35.9997 372.321H47.9997V360.321H35.9997V372.321Z" fill="#2C2C2C"/>
<path d="M62.3157 361.997H63.5757V372.989H62.3157V361.997ZM57.7317 362.813C59.3757 362.813 60.5637 364.313 60.5637 366.677C60.5637 369.041 59.3757 370.553 57.7317 370.553C56.0997 370.553 54.9117 369.041 54.9117 366.677C54.9117 364.313 56.0997 362.813 57.7317 362.813ZM57.7317 363.953C56.7717 363.953 56.1117 364.973 56.1117 366.677C56.1117 368.393 56.7717 369.425 57.7317 369.425C58.6917 369.425 59.3517 368.393 59.3517 366.677C59.3517 364.973 58.6917 363.953 57.7317 363.953ZM66.8988 365.993H74.3148V367.013H66.8988V365.993ZM65.5788 368.285H75.5148V369.305H65.5788V368.285ZM69.8868 368.861H71.1348V372.953H69.8868V368.861ZM66.8988 362.621H74.1828V363.641H68.1828V366.485H66.8988V362.621ZM79.3131 367.469H89.2491V368.477H79.3131V367.469ZM83.7291 368.117H85.0011V370.553H83.7291V368.117ZM80.5371 371.729H88.1571V372.761H80.5371V371.729ZM80.5371 369.521H81.7971V372.005H80.5371V369.521ZM84.2691 362.249C86.6091 362.249 88.1571 363.113 88.1571 364.493C88.1571 365.861 86.6091 366.725 84.2691 366.725C81.9291 366.725 80.3811 365.861 80.3811 364.493C80.3811 363.113 81.9291 362.249 84.2691 362.249ZM84.2691 363.257C82.7331 363.257 81.7251 363.713 81.7251 364.493C81.7251 365.261 82.7331 365.705 84.2691 365.705C85.8171 365.705 86.8131 365.261 86.8131 364.493C86.8131 363.713 85.8171 363.257 84.2691 363.257ZM90.3642 367.301H100.276V368.309H90.3642V367.301ZM94.6962 365.597H95.9442V367.709H94.6962V365.597ZM91.5882 365.201H99.1362V366.197H91.5882V365.201ZM91.5882 362.501H99.0642V363.497H92.8362V365.813H91.5882V362.501ZM95.2962 368.993C97.6482 368.993 99.0762 369.713 99.0762 370.985C99.0762 372.257 97.6482 372.977 95.2962 372.977C92.9442 372.977 91.5162 372.257 91.5162 370.985C91.5162 369.713 92.9442 368.993 95.2962 368.993ZM95.2962 369.953C93.6882 369.953 92.7882 370.313 92.7882 370.985C92.7882 371.657 93.6882 372.005 95.2962 372.005C96.9042 372.005 97.8042 371.657 97.8042 370.985C97.8042 370.313 96.9042 369.953 95.2962 369.953Z" fill="#2C2C2C"/>
<path d="M107.451 370.981V370.277C109.74 368.261 110.906 366.76 110.906 365.489C110.906 364.66 110.465 364.082 109.604 364.082C108.995 364.082 108.491 364.46 108.081 364.933L107.388 364.271C108.06 363.547 108.743 363.116 109.751 363.116C111.168 363.116 112.082 364.03 112.082 365.437C112.082 366.917 110.885 368.461 109.247 370.036C109.646 369.994 110.139 369.952 110.517 369.952H112.449V370.981H107.451ZM115.98 371.128C114.458 371.128 113.481 369.773 113.481 367.085C113.481 364.418 114.458 363.116 115.98 363.116C117.492 363.116 118.479 364.418 118.479 367.085C118.479 369.773 117.492 371.128 115.98 371.128ZM115.98 370.162C116.768 370.162 117.314 369.322 117.314 367.085C117.314 364.88 116.768 364.061 115.98 364.061C115.193 364.061 114.636 364.88 114.636 367.085C114.636 369.322 115.193 370.162 115.98 370.162ZM119.449 367.253H128.143V368.135H119.449V367.253ZM123.334 367.715H124.426V369.836H123.334V367.715ZM120.509 370.771H127.177V371.663H120.509V370.771ZM120.509 369.038H121.601V371.128H120.509V369.038ZM120.583 362.56H121.664V363.673H125.917V362.56H127.009V366.445H120.583V362.56ZM121.664 364.513V365.573H125.917V364.513H121.664Z" fill="#676767"/>
<g clip-path="url(#clip4_649_8253)">
<path d="M232.875 360.856L231.553 362.178L235.847 366.481L231.553 370.784L232.875 372.106L238.5 366.481L232.875 360.856Z" fill="#D9D9D9"/>
</g>
<path d="M23.9997 407.731C23.9997 404.417 26.686 401.731 29.9997 401.731H252C255.313 401.731 258 404.417 258 407.731V442.231C258 445.544 255.313 448.231 252 448.231H29.9997C26.686 448.231 23.9997 445.544 23.9997 442.231V407.731Z" fill="#F4F4F4"/>
<path d="M35.9997 430.821H47.9997V418.821H35.9997V430.821Z" fill="#2C2C2C"/>
<path d="M56.9517 427.361H58.2357V431.477H56.9517V427.361ZM60.7317 427.361H62.0157V431.477H60.7317V427.361ZM54.5397 426.689H64.4757V427.709H54.5397V426.689ZM59.4837 420.917C61.7997 420.917 63.3717 421.853 63.3717 423.341C63.3717 424.805 61.7997 425.753 59.4837 425.753C57.1797 425.753 55.5957 424.805 55.5957 423.341C55.5957 421.853 57.1797 420.917 59.4837 420.917ZM59.4837 421.925C57.9117 421.925 56.8797 422.453 56.8797 423.341C56.8797 424.217 57.9117 424.745 59.4837 424.745C61.0557 424.745 62.0877 424.217 62.0877 423.341C62.0877 422.453 61.0557 421.925 59.4837 421.925ZM68.1708 421.181H69.2148V422.453C69.2148 424.613 68.1108 426.401 66.1548 427.109L65.4828 426.125C67.2348 425.525 68.1708 424.061 68.1708 422.453V421.181ZM68.4108 421.181H69.4308V422.477C69.4308 423.917 70.3788 425.309 72.0468 425.885L71.4108 426.869C69.5028 426.209 68.4108 424.469 68.4108 422.477V421.181ZM72.8868 420.509H74.1468V428.573H72.8868V420.509ZM73.7748 423.785H75.6948V424.829H73.7748V423.785ZM67.2228 430.241H74.5908V431.261H67.2228V430.241ZM67.2228 427.805H68.4948V430.757H67.2228V427.805ZM76.6298 429.077H86.5658V430.109H76.6298V429.077ZM80.9138 426.521H82.1618V429.389H80.9138V426.521ZM80.8778 421.181H81.9698V422.009C81.9698 424.349 79.9658 426.257 77.4698 426.749L76.9418 425.705C79.1258 425.333 80.8778 423.689 80.8778 422.009V421.181ZM81.1058 421.181H82.2098V422.009C82.2098 423.713 83.9618 425.333 86.1458 425.705L85.6178 426.749C83.1098 426.257 81.1058 424.361 81.1058 422.009V421.181ZM97.6122 420.509H98.8602V431.477H97.6122V420.509ZM98.5722 424.913H100.564V425.957H98.5722V424.913ZM90.3042 422.201H96.7362V423.209H90.3042V422.201ZM93.5562 424.001C95.1162 424.001 96.2682 425.057 96.2682 426.557C96.2682 428.069 95.1162 429.125 93.5562 429.125C91.9842 429.125 90.8322 428.069 90.8322 426.557C90.8322 425.057 91.9842 424.001 93.5562 424.001ZM93.5562 425.033C92.6682 425.033 92.0322 425.633 92.0322 426.557C92.0322 427.481 92.6682 428.093 93.5562 428.093C94.4322 428.093 95.0682 427.481 95.0682 426.557C95.0682 425.633 94.4322 425.033 93.5562 425.033ZM92.9082 420.665H94.1682V422.621H92.9082V420.665ZM109.191 420.509H110.451V431.477H109.191V420.509ZM105.975 421.673H107.211C107.211 424.925 105.915 427.685 102.147 429.521L101.487 428.513C104.643 426.989 105.975 424.817 105.975 421.889V421.673ZM102.027 421.673H106.539V422.681H102.027V421.673Z" fill="#2C2C2C"/>
<path d="M120.803 429.628C119.596 429.628 118.808 429.145 118.283 428.557L118.882 427.78C119.333 428.242 119.9 428.63 120.709 428.63C121.57 428.63 122.168 428.147 122.168 427.349C122.168 426.488 121.622 425.942 119.89 425.942V425.039C121.402 425.039 121.906 424.472 121.906 423.695C121.906 423.013 121.465 422.582 120.719 422.582C120.131 422.582 119.627 422.866 119.186 423.307L118.546 422.54C119.165 421.994 119.879 421.616 120.772 421.616C122.158 421.616 123.134 422.33 123.134 423.601C123.134 424.493 122.62 425.113 121.801 425.417V425.47C122.693 425.701 123.397 426.362 123.397 427.412C123.397 428.809 122.231 429.628 120.803 429.628ZM126.98 429.628C125.458 429.628 124.481 428.273 124.481 425.585C124.481 422.918 125.458 421.616 126.98 421.616C128.492 421.616 129.479 422.918 129.479 425.585C129.479 428.273 128.492 429.628 126.98 429.628ZM126.98 428.662C127.768 428.662 128.314 427.822 128.314 425.585C128.314 423.38 127.768 422.561 126.98 422.561C126.193 422.561 125.636 423.38 125.636 425.585C125.636 427.822 126.193 428.662 126.98 428.662ZM130.449 425.753H139.143V426.635H130.449V425.753ZM134.334 426.215H135.426V428.336H134.334V426.215ZM131.509 429.271H138.177V430.163H131.509V429.271ZM131.509 427.538H132.601V429.628H131.509V427.538ZM131.583 421.06H132.664V422.173H136.917V421.06H138.009V424.945H131.583V421.06ZM132.664 423.013V424.073H136.917V423.013H132.664Z" fill="#676767"/>
<g clip-path="url(#clip5_649_8253)">
<path d="M232.875 419.356L231.553 420.678L235.847 424.981L231.553 429.284L232.875 430.606L238.5 424.981L232.875 419.356Z" fill="#D9D9D9"/>
</g>
<rect width="270" height="111.5" transform="translate(5.99988 478.231)" fill="white"/>
<path d="M25.7037 500.655H33.2997V503.703H26.9997V505.491H25.7277V502.743H32.0277V501.663H25.7037V500.655ZM25.7277 504.879H33.5517V505.887H25.7277V504.879ZM24.5397 506.871H34.4757V507.891H24.5397V506.871ZM28.8597 507.255H30.1077V511.239H28.8597V507.255ZM43.3668 500.271H44.6268V508.395H43.3668V500.271ZM37.4628 509.991H44.9388V511.011H37.4628V509.991ZM37.4628 507.687H38.7228V510.579H37.4628V507.687ZM36.2028 505.707H37.1148C39.4308 505.707 40.7388 505.671 42.2628 505.419L42.3948 506.403C40.8228 506.667 39.4668 506.703 37.1148 506.703H36.2028V505.707ZM36.2028 501.111H41.4468V502.119H37.4508V505.899H36.2028V501.111ZM37.0548 503.391H41.1348V504.375H37.0548V503.391ZM51.5738 500.427C54.0338 500.427 55.4858 501.099 55.4858 502.323C55.4858 503.535 54.0338 504.207 51.5738 504.207C49.1138 504.207 47.6738 503.535 47.6738 502.323C47.6738 501.099 49.1138 500.427 51.5738 500.427ZM51.5738 501.363C49.8818 501.363 48.9698 501.699 48.9698 502.323C48.9698 502.947 49.8818 503.271 51.5738 503.271C53.2778 503.271 54.1778 502.947 54.1778 502.323C54.1778 501.699 53.2778 501.363 51.5738 501.363ZM46.6178 504.843H56.5298V505.839H46.6178V504.843ZM47.7938 506.643H55.2938V509.259H49.0538V510.435H47.8058V508.371H54.0578V507.579H47.7938V506.643ZM47.8058 510.159H55.6058V511.131H47.8058V510.159ZM63.3162 501.063C64.9362 501.063 66.0882 502.563 66.0882 504.927C66.0882 507.291 64.9362 508.803 63.3162 508.803C61.6962 508.803 60.5442 507.291 60.5442 504.927C60.5442 502.563 61.6962 501.063 63.3162 501.063ZM63.3162 502.203C62.3802 502.203 61.7442 503.223 61.7442 504.927C61.7442 506.643 62.3802 507.675 63.3162 507.675C64.2642 507.675 64.9002 506.643 64.9002 504.927C64.9002 503.223 64.2642 502.203 63.3162 502.203ZM68.2122 500.247H69.4602V511.239H68.2122V500.247ZM65.7042 504.339H68.7522V505.347H65.7042V504.339ZM72.8433 506.727H80.7633V507.687H72.8433V506.727ZM76.7913 508.119C78.7713 508.119 79.9473 508.671 79.9473 509.679C79.9473 510.675 78.7713 511.227 76.7913 511.227C74.8233 511.227 73.6473 510.675 73.6473 509.679C73.6473 508.671 74.8233 508.119 76.7913 508.119ZM76.7913 508.995C75.6393 508.995 74.9793 509.223 74.9793 509.679C74.9793 510.135 75.6393 510.363 76.7913 510.363C77.9433 510.363 78.6033 510.135 78.6033 509.679C78.6033 509.223 77.9433 508.995 76.7913 508.995ZM76.1793 505.767H77.4393V507.351H76.1793V505.767ZM71.6313 504.375H72.1353C72.8913 504.375 73.6473 504.351 74.5473 504.159L74.6553 505.155C73.6953 505.347 72.9393 505.359 72.1353 505.359H71.6313V504.375ZM71.6313 500.751H74.4153V501.735H72.8673V505.071H71.6313V500.751ZM74.9913 504.375H75.5553C76.8153 504.375 77.5233 504.351 78.3753 504.147L78.4713 505.131C77.5953 505.335 76.8633 505.359 75.5553 505.359H74.9913V504.375ZM74.9913 500.751H78.0273V501.735H76.2273V505.071H74.9913V500.751ZM79.3473 500.259H80.5953V506.091H79.3473V500.259ZM77.6313 502.467H80.0433V503.427H77.6313V502.467ZM90.6023 500.259H91.8143V511.227H90.6023V500.259ZM86.0303 504.615H88.6103V505.623H86.0303V504.615ZM88.3103 500.523H89.4863V510.699H88.3103V500.523ZM85.9463 501.603H87.1583C87.1583 504.591 86.1023 507.135 83.0903 508.899L82.3703 508.011C84.9143 506.487 85.9463 504.459 85.9463 501.843V501.603ZM82.9103 501.603H86.3783V502.623H82.9103V501.603ZM100.473 500.619H101.577V501.183C101.577 503.283 99.6447 504.915 97.1127 505.323L96.6207 504.303C98.8407 503.991 100.473 502.623 100.473 501.183V500.619ZM100.701 500.619H101.793V501.183C101.793 502.599 103.437 503.991 105.657 504.303L105.165 505.323C102.633 504.915 100.701 503.271 100.701 501.183V500.619ZM100.473 507.123H101.721V511.227H100.473V507.123ZM96.1767 506.331H106.089V507.363H96.1767V506.331ZM115.304 500.259H116.492V507.171H115.304V500.259ZM113.708 503.115H115.64V504.147H113.708V503.115ZM112.988 500.475H114.164V506.787H112.988V500.475ZM107.156 501.483H112.604V502.467H107.156V501.483ZM109.892 502.935C111.272 502.935 112.244 503.703 112.244 504.831C112.244 505.971 111.272 506.727 109.892 506.727C108.524 506.727 107.54 505.971 107.54 504.831C107.54 503.703 108.524 502.935 109.892 502.935ZM109.892 503.859C109.16 503.859 108.668 504.231 108.668 504.831C108.668 505.443 109.16 505.815 109.892 505.815C110.624 505.815 111.116 505.443 111.116 504.831C111.116 504.231 110.624 503.859 109.892 503.859ZM109.268 500.355H110.504V502.107H109.268V500.355ZM112.844 507.327C115.16 507.327 116.552 508.023 116.552 509.271C116.552 510.507 115.16 511.215 112.844 511.215C110.528 511.215 109.136 510.507 109.136 509.271C109.136 508.023 110.528 507.327 112.844 507.327ZM112.844 508.275C111.26 508.275 110.384 508.611 110.384 509.271C110.384 509.919 111.26 510.267 112.844 510.267C114.416 510.267 115.292 509.919 115.292 509.271C115.292 508.611 114.416 508.275 112.844 508.275ZM125.503 500.259H126.751V511.227H125.503V500.259ZM126.463 504.663H128.455V505.707H126.463V504.663ZM118.195 501.951H124.627V502.959H118.195V501.951ZM121.447 503.751C123.007 503.751 124.159 504.807 124.159 506.307C124.159 507.819 123.007 508.875 121.447 508.875C119.875 508.875 118.723 507.819 118.723 506.307C118.723 504.807 119.875 503.751 121.447 503.751ZM121.447 504.783C120.559 504.783 119.923 505.383 119.923 506.307C119.923 507.231 120.559 507.843 121.447 507.843C122.323 507.843 122.959 507.231 122.959 506.307C122.959 505.383 122.323 504.783 121.447 504.783ZM120.799 500.415H122.059V502.371H120.799V500.415ZM130.326 501.279H137.334V502.299H130.326V501.279ZM129.294 508.755H139.206V509.787H129.294V508.755ZM132.99 504.903H134.25V509.271H132.99V504.903ZM136.866 501.279H138.126V502.347C138.126 503.715 138.126 505.239 137.706 507.507L136.446 507.363C136.866 505.227 136.866 503.667 136.866 502.347V501.279ZM145.632 506.967H146.592V507.459C146.592 508.995 145.764 510.471 144.12 511.071L143.508 510.147C144.912 509.655 145.632 508.515 145.632 507.459V506.967ZM145.932 506.967H146.844V507.459C146.844 508.539 147.456 509.691 148.776 510.231L148.26 511.179C146.604 510.543 145.932 508.983 145.932 507.459V506.967ZM149.664 506.967H150.576V507.459C150.576 508.851 149.88 510.507 148.26 511.179L147.744 510.231C149.052 509.643 149.664 508.419 149.664 507.459V506.967ZM149.94 506.967H150.9V507.459C150.9 508.587 151.608 509.691 153.024 510.147L152.412 511.071C150.744 510.495 149.94 509.067 149.94 507.459V506.967ZM150.804 500.271H152.064V506.499H150.804V500.271ZM146.148 500.871C147.828 500.871 149.052 501.927 149.052 503.463C149.052 504.975 147.828 506.043 146.148 506.043C144.468 506.043 143.232 504.975 143.232 503.463C143.232 501.927 144.468 500.871 146.148 500.871ZM146.148 501.915C145.176 501.915 144.456 502.527 144.456 503.463C144.456 504.399 145.176 504.999 146.148 504.999C147.12 504.999 147.828 504.399 147.828 503.463C147.828 502.527 147.12 501.915 146.148 501.915ZM155.351 503.403H162.863V504.411H155.351V503.403ZM154.055 505.731H163.991V506.751H154.055V505.731ZM155.351 500.655H156.599V503.907H155.351V500.655ZM155.267 509.955H162.923V510.975H155.267V509.955ZM155.267 507.747H156.515V510.231H155.267V507.747ZM167.89 501.903H168.898V503.439C168.898 505.851 167.662 508.239 165.778 509.139L165.058 508.143C166.75 507.363 167.89 505.311 167.89 503.439V501.903ZM168.154 501.903H169.15V503.439C169.15 505.251 170.278 507.147 171.994 507.867L171.298 508.863C169.39 508.011 168.154 505.791 168.154 503.439V501.903ZM165.454 501.351H171.586V502.395H165.454V501.351ZM172.87 500.259H174.13V511.227H172.87V500.259ZM181.421 501.387H182.453V502.179C182.453 504.219 181.337 505.983 179.393 506.643L178.733 505.671C180.461 505.083 181.421 503.667 181.421 502.179V501.387ZM181.661 501.387H182.681V502.179C182.681 503.559 183.605 504.903 185.285 505.455L184.649 506.439C182.729 505.791 181.661 504.099 181.661 502.179V501.387ZM179.093 500.967H184.985V501.987H179.093V500.967ZM186.137 500.259H187.397V506.859H186.137V500.259ZM187.049 503.043H188.945V504.087H187.049V503.043ZM180.185 507.399H187.397V511.227H186.137V508.419H180.185V507.399ZM192.544 500.859H193.588V501.915C193.588 504.075 192.484 505.899 190.48 506.607L189.82 505.587C191.584 504.999 192.544 503.523 192.544 501.915V500.859ZM192.784 500.859H193.804V501.867C193.804 503.379 194.716 504.747 196.384 505.299L195.712 506.283C193.828 505.599 192.784 503.919 192.784 501.867V500.859ZM197.704 500.259H198.964V506.715H197.704V500.259ZM195.304 507.027C197.596 507.027 199 507.795 199 509.115C199 510.447 197.596 511.215 195.304 511.215C193.012 511.215 191.608 510.447 191.608 509.115C191.608 507.795 193.012 507.027 195.304 507.027ZM195.304 508.011C193.756 508.011 192.856 508.407 192.856 509.115C192.856 509.835 193.756 510.231 195.304 510.231C196.864 510.231 197.752 509.835 197.752 509.115C197.752 508.407 196.864 508.011 195.304 508.011ZM195.484 502.431H197.92V503.463H195.484V502.431ZM200.895 502.035H206.247V503.043H200.895V502.035ZM203.583 503.667C204.963 503.667 205.959 504.723 205.959 506.223C205.959 507.723 204.963 508.767 203.583 508.767C202.215 508.767 201.207 507.723 201.207 506.223C201.207 504.723 202.215 503.667 203.583 503.667ZM203.583 504.723C202.851 504.723 202.323 505.323 202.323 506.223C202.323 507.135 202.851 507.711 203.583 507.711C204.315 507.711 204.843 507.135 204.843 506.223C204.843 505.323 204.315 504.723 203.583 504.723ZM209.055 500.259H210.255V511.227H209.055V500.259ZM207.495 504.807H209.451V505.827H207.495V504.807ZM206.727 500.487H207.903V510.723H206.727V500.487ZM202.971 500.571H204.207V502.659H202.971V500.571ZM216.194 501.399H217.286V501.807C217.286 503.751 215.426 505.251 212.966 505.623L212.486 504.639C214.634 504.351 216.194 503.103 216.194 501.807V501.399ZM216.542 501.399H217.622V501.807C217.622 503.103 219.194 504.351 221.33 504.639L220.862 505.623C218.39 505.251 216.542 503.751 216.542 501.807V501.399ZM216.254 507.123H217.502V511.227H216.254V507.123ZM211.958 506.415H221.87V507.435H211.958V506.415ZM212.858 500.883H220.934V501.891H212.858V500.883ZM227.305 504.075H229.285V505.107H227.305V504.075ZM225.133 501.255H226.105V503.235C226.105 505.611 225.265 507.927 223.597 508.947L222.829 507.999C224.377 507.063 225.133 505.107 225.133 503.235V501.255ZM225.397 501.255H226.345V503.187C226.345 504.951 227.017 506.799 228.481 507.723L227.773 508.707C226.129 507.687 225.397 505.419 225.397 503.187V501.255ZM231.157 500.259H232.357V511.227H231.157V500.259ZM228.925 500.463H230.101V510.699H228.925V500.463ZM236.352 505.875H237.6V509.055H236.352V505.875ZM240.372 505.875H241.632V509.055H240.372V505.875ZM234.036 508.851H243.972V509.883H234.036V508.851ZM238.98 500.883C241.32 500.883 243.012 502.011 243.012 503.763C243.012 505.503 241.32 506.631 238.98 506.631C236.64 506.631 234.948 505.503 234.948 503.763C234.948 502.011 236.64 500.883 238.98 500.883ZM238.98 501.867C237.324 501.867 236.172 502.599 236.172 503.763C236.172 504.915 237.324 505.647 238.98 505.647C240.636 505.647 241.788 504.915 241.788 503.763C241.788 502.599 240.636 501.867 238.98 501.867Z" fill="#2C2C2C"/>
<rect width="234" height="46.5" transform="translate(23.9999 525.231)" fill="white"/>
<path d="M23.9999 531.231C23.9999 527.917 26.6862 525.231 29.9999 525.231H252C255.314 525.231 258 527.917 258 531.231V565.731C258 569.044 255.314 571.731 252 571.731H29.9999C26.6862 571.731 23.9999 569.044 23.9999 565.731V531.231Z" fill="#F4F4F4"/>
<g clip-path="url(#clip6_649_8253)">
<path d="M141 539.106C135.825 539.106 131.625 543.306 131.625 548.481C131.625 553.656 135.825 557.856 141 557.856C146.175 557.856 150.375 553.656 150.375 548.481C150.375 543.306 146.175 539.106 141 539.106ZM145.687 549.418H141.937V553.168H140.062V549.418H136.312V547.543H140.062V543.793H141.937V547.543H145.687V549.418Z" fill="#1777E9"/>
</g>
</g>
<rect x="3" y="3.73071" width="276" height="543.923" rx="16.5" stroke="#E5E5E5" stroke-width="6"/>
<defs>
<clipPath id="clip0_649_8253">
<rect x="6" y="6.73071" width="270" height="537.923" rx="13.5" fill="white"/>
</clipPath>
<clipPath id="clip1_649_8253">
<rect width="22.5" height="22.5" fill="white" transform="translate(223.5 179.731)"/>
</clipPath>
<clipPath id="clip2_649_8253">
<rect width="22.5" height="22.5" fill="white" transform="translate(223.5 238.231)"/>
</clipPath>
<clipPath id="clip3_649_8253">
<rect width="22.5" height="22.5" fill="white" transform="translate(223.5 296.731)"/>
</clipPath>
<clipPath id="clip4_649_8253">
<rect width="22.5" height="22.5" fill="white" transform="translate(223.5 355.231)"/>
</clipPath>
<clipPath id="clip5_649_8253">
<rect width="22.5" height="22.5" fill="white" transform="translate(223.5 413.731)"/>
</clipPath>
<clipPath id="clip6_649_8253">
<rect width="22.5" height="22.5" fill="white" transform="translate(129.75 537.231)"/>
</clipPath>
</defs>
</svg>
