<svg width="544" height="998" viewBox="0 0 544 998" fill="none" xmlns="http://www.w3.org/2000/svg">
<g clip-path="url(#clip0_648_1879)">
<rect x="12" y="12" width="520" height="974" rx="26" fill="white"/>
<g clip-path="url(#clip1_648_1879)">
<path d="M74.4903 65.0652L66.2208 56.7777L74.4903 48.4902L71.9444 45.9443L61.1111 56.7777L71.9444 67.611L74.4903 65.0652Z" fill="black"/>
</g>
<path d="M234.2 49.3667H236.118V52.0245C236.118 53.1338 235.933 54.2278 235.564 55.3063C235.194 56.3694 234.647 57.3323 233.923 58.1952C233.214 59.058 232.313 59.7282 231.219 60.2058L229.924 58.3338C230.88 57.9024 231.673 57.3478 232.305 56.6698C232.937 55.9765 233.407 55.2292 233.715 54.4281C234.038 53.6115 234.2 52.8103 234.2 52.0245V49.3667ZM234.639 49.3667H236.534V52.0245C236.534 52.7795 236.688 53.5267 236.996 54.2663C237.305 55.0058 237.767 55.6761 238.383 56.2769C238.999 56.8778 239.754 57.3632 240.648 57.7329L239.377 59.5587C238.329 59.1427 237.451 58.5495 236.742 57.7792C236.034 57.0088 235.502 56.1306 235.148 55.1445C234.809 54.143 234.639 53.103 234.639 52.0245V49.3667ZM245.64 48.0725H247.951V61.0609H245.64V48.0725ZM242.636 53.5036H246.333V55.4681H242.636V53.5036ZM241.133 48.4654H243.421V60.3907H241.133V48.4654ZM240.902 61.4307C242.366 61.4307 243.629 61.5848 244.692 61.8929C245.771 62.2011 246.595 62.6479 247.165 63.2334C247.751 63.8035 248.044 64.4968 248.044 65.3134C248.044 66.1146 247.751 66.8002 247.165 67.3703C246.595 67.9558 245.771 68.3949 244.692 68.6876C243.629 68.9958 242.366 69.1498 240.902 69.1498C239.454 69.1498 238.191 68.9958 237.112 68.6876C236.034 68.3949 235.202 67.9558 234.616 67.3703C234.046 66.8002 233.761 66.1146 233.761 65.3134C233.761 64.4968 234.046 63.8035 234.616 63.2334C235.202 62.6479 236.034 62.2011 237.112 61.8929C238.191 61.5848 239.454 61.4307 240.902 61.4307ZM240.902 63.2796C239.423 63.2796 238.26 63.4568 237.412 63.8112C236.58 64.1501 236.164 64.6509 236.164 65.3134C236.164 65.9451 236.58 66.4381 237.412 66.7925C238.26 67.1469 239.423 67.3241 240.902 67.3241C241.888 67.3241 242.736 67.247 243.444 67.0929C244.153 66.9235 244.692 66.6924 245.062 66.3996C245.432 66.1069 245.617 65.7448 245.617 65.3134C245.617 64.6509 245.201 64.1501 244.369 63.8112C243.552 63.4568 242.397 63.2796 240.902 63.2796ZM256.454 49.2049H258.465V51.2618C258.465 52.6485 258.234 53.9427 257.772 55.1445C257.309 56.3309 256.631 57.3709 255.738 58.2645C254.86 59.1427 253.781 59.8206 252.502 60.2983L251.231 58.3338C252.371 57.9486 253.327 57.4017 254.097 56.6929C254.867 55.9688 255.453 55.1368 255.853 54.1969C256.254 53.2571 256.454 52.2787 256.454 51.2618V49.2049ZM256.94 49.2049H258.904V51.1463C258.904 52.1169 259.089 53.0414 259.459 53.9196C259.844 54.7978 260.406 55.5682 261.146 56.2307C261.885 56.8932 262.787 57.4017 263.85 57.7561L262.579 59.6512C261.377 59.2198 260.352 58.5881 259.505 57.7561C258.658 56.9241 258.018 55.9457 257.587 54.8209C257.155 53.6962 256.94 52.4713 256.94 51.1463V49.2049ZM266.392 48.0725H268.819V60.5063H266.392V48.0725ZM261.793 61.0841C263.996 61.0841 265.73 61.4384 266.993 62.1472C268.272 62.8559 268.911 63.8497 268.911 65.1285C268.911 66.4073 268.272 67.3934 266.993 68.0867C265.73 68.7955 263.996 69.1498 261.793 69.1498C259.59 69.1498 257.849 68.7955 256.57 68.0867C255.291 67.3934 254.652 66.4073 254.652 65.1285C254.652 63.8497 255.291 62.8559 256.57 62.1472C257.849 61.4384 259.59 61.0841 261.793 61.0841ZM261.793 62.9792C260.791 62.9792 259.936 63.0639 259.228 63.2334C258.534 63.3875 258.003 63.6263 257.633 63.9498C257.263 64.2734 257.078 64.6663 257.078 65.1285C257.078 65.5753 257.263 65.9605 257.633 66.2841C258.003 66.6076 258.534 66.8541 259.228 67.0236C259.936 67.1931 260.791 67.2778 261.793 67.2778C262.794 67.2778 263.642 67.1931 264.335 67.0236C265.028 66.8541 265.56 66.6076 265.93 66.2841C266.315 65.9605 266.508 65.5753 266.508 65.1285C266.508 64.6663 266.315 64.2734 265.93 63.9498C265.56 63.6263 265.028 63.3875 264.335 63.2334C263.642 63.0639 262.794 62.9792 261.793 62.9792ZM262.14 52.2556H266.831V54.2432H262.14V52.2556ZM286.543 48.0725H288.97V69.1961H286.543V48.0725ZM288.415 56.5543H292.228V58.5649H288.415V56.5543ZM272.468 51.3312H284.856V53.2725H272.468V51.3312ZM278.755 54.7747C279.756 54.7747 280.65 54.9904 281.436 55.4218C282.221 55.8378 282.838 56.4156 283.284 57.1552C283.747 57.8947 283.978 58.7421 283.978 59.6974C283.978 60.6681 283.747 61.5232 283.284 62.2627C282.838 63.0023 282.221 63.5878 281.436 64.0192C280.65 64.4352 279.748 64.6432 278.732 64.6432C277.73 64.6432 276.836 64.4352 276.051 64.0192C275.265 63.5878 274.641 63.0023 274.179 62.2627C273.732 61.5232 273.508 60.6681 273.508 59.6974C273.508 58.7421 273.732 57.8947 274.179 57.1552C274.641 56.4156 275.265 55.8378 276.051 55.4218C276.836 54.9904 277.738 54.7747 278.755 54.7747ZM278.732 56.7623C278.177 56.7623 277.676 56.8855 277.229 57.1321C276.783 57.3786 276.428 57.7252 276.166 58.1721C275.92 58.6035 275.796 59.1119 275.796 59.6974C275.796 60.2983 275.92 60.8221 276.166 61.2689C276.428 61.7003 276.783 62.0393 277.229 62.2858C277.676 62.5324 278.177 62.6556 278.732 62.6556C279.302 62.6556 279.802 62.5324 280.234 62.2858C280.681 62.0393 281.027 61.7003 281.274 61.2689C281.536 60.8221 281.667 60.2983 281.667 59.6974C281.667 59.1119 281.536 58.6035 281.274 58.1721C281.027 57.7252 280.681 57.3786 280.234 57.1321C279.802 56.8855 279.302 56.7623 278.732 56.7623ZM277.507 48.3498H279.933V52.1401H277.507V48.3498ZM308.867 48.0494H311.293V69.1729H308.867V48.0494ZM302.65 50.2912H305.053C305.053 51.8627 304.884 53.3649 304.545 54.7978C304.206 56.2307 303.651 57.5943 302.881 58.8885C302.126 60.1673 301.124 61.3537 299.876 62.4476C298.644 63.5415 297.118 64.5276 295.3 65.4058L294.006 63.4876C296.055 62.5015 297.712 61.3768 298.975 60.1134C300.238 58.85 301.163 57.4402 301.748 55.8841C302.349 54.3125 302.65 52.5869 302.65 50.7072V50.2912ZM295.046 50.2912H303.736V52.2325H295.046V50.2912Z" fill="black"/>
<path d="M54.3511 159.649H57.4711V163.549C57.4711 170.424 55.1022 176.636 49.7867 179.091L47.5044 175.913C52.1556 173.891 54.3511 168.749 54.3511 163.549V159.649ZM55.1022 159.649H58.2222V163.549C58.2222 168.489 60.3311 173.4 64.8956 175.364L62.6422 178.456C57.4711 176.087 55.1022 170.136 55.1022 163.549V159.649ZM66.1667 157.569H70.0378V184.407H66.1667V157.569ZM80.3489 160.342H83.4977V162.018C83.4977 167.073 81.1 171.609 75.9866 173.256L73.9933 170.28C78.4711 168.836 80.3489 165.369 80.3489 162.018V160.342ZM81.1289 160.342H84.2489V162.018C84.2489 165.167 86.0689 168.431 90.4022 169.818L88.4377 172.793C83.44 171.176 81.1289 166.813 81.1289 162.018V160.342ZM75.0333 159.158H89.4778V162.22H75.0333V159.158ZM91.6155 157.598H95.4578V173.718H91.6155V157.598ZM94.3889 164.069H99.0111V167.218H94.3889V164.069ZM77.6044 174.873H95.4578V184.349H91.6155V177.964H77.6044V174.873ZM121.847 164.502H128.087V167.593H121.847V164.502ZM126.065 157.627H129.907V177.127H126.065V157.627ZM112.256 180.824H130.514V183.887H112.256V180.824ZM112.256 175.48H116.098V182.644H112.256V175.48ZM113.701 161.122H116.821V162.798C116.821 167.824 114.452 172.476 109.31 174.18L107.374 171.118C111.794 169.673 113.701 166.178 113.701 162.798V161.122ZM114.51 161.122H117.601V162.798C117.601 165.918 119.421 169.24 123.638 170.656L121.761 173.66C116.792 172.013 114.51 167.564 114.51 162.798V161.122ZM108.414 159.418H122.801V162.451H108.414V159.418ZM144.783 167.449H149.174V170.54H144.783V167.449ZM153.421 157.598H157.089V184.349H153.421V157.598ZM147.961 158.002H151.572V183.136H147.961V158.002ZM140.103 159.476C143.656 159.476 145.938 163.144 145.938 169.182C145.938 175.249 143.656 178.918 140.103 178.918C136.578 178.918 134.325 175.249 134.325 169.182C134.325 163.144 136.578 159.476 140.103 159.476ZM140.103 163.087C138.658 163.087 137.821 165.109 137.821 169.182C137.821 173.284 138.658 175.278 140.103 175.278C141.605 175.278 142.443 173.284 142.443 169.182C142.443 165.109 141.605 163.087 140.103 163.087ZM184.432 157.598H188.275V170.944H184.432V157.598ZM186.715 162.711H191.799V165.86H186.715V162.711ZM170.595 172.013H188.275V179.351H174.466V182.529H170.652V176.578H184.49V174.96H170.595V172.013ZM170.652 181.056H189.055V184.06H170.652V181.056ZM174.523 158.378C178.626 158.378 181.659 160.891 181.659 164.444C181.659 167.969 178.626 170.511 174.523 170.511C170.45 170.511 167.388 167.969 167.388 164.444C167.388 160.891 170.45 158.378 174.523 158.378ZM174.523 161.469C172.559 161.469 171.115 162.567 171.115 164.444C171.115 166.322 172.559 167.449 174.523 167.449C176.517 167.449 177.961 166.322 177.961 164.444C177.961 162.567 176.517 161.469 174.523 161.469ZM211.008 157.627H214.85V173.487H211.008V157.627ZM213.752 163.896H218.403V167.073H213.752V163.896ZM197.43 174.642H214.85V184.06H197.43V174.642ZM211.095 177.647H201.215V181.027H211.095V177.647ZM194.743 169.442H196.997C202.255 169.442 205.49 169.356 209.188 168.662L209.535 171.696C205.779 172.418 202.399 172.562 196.997 172.562H194.743V169.442ZM194.715 158.927H206.935V167.073H198.557V171.147H194.743V164.213H203.15V161.989H194.715V158.927ZM229.742 169.933H248.549V172.996H229.742V169.933ZM226.94 177.993H251.149V181.142H226.94V177.993ZM229.742 159.793H248.346V162.913H233.555V171.204H229.742V159.793ZM254.815 168.027H257.126C262.991 168.027 266.053 167.969 269.664 167.391L270.011 170.28C266.342 170.887 263.106 170.973 257.126 170.973H254.815V168.027ZM254.757 158.84H267.266V166.149H258.6V169.413H254.815V163.462H263.482V161.729H254.757V158.84ZM257.877 172.504H275.731V179.611H261.806V182.471H257.935V176.896H271.802V175.393H257.877V172.504ZM257.935 181.258H276.395V184.176H257.935V181.258ZM271.86 157.598H275.731V171.522H271.86V157.598ZM297.482 157.598H301.324V184.349H297.482V157.598ZM300.14 168.056H304.791V171.233H300.14V168.056ZM284.366 160.313H287.948C287.948 167.738 287.255 173.429 282.517 178.744L279.513 176.578C283.644 172.013 284.366 167.564 284.366 160.776V160.313ZM280.697 160.313H285.868V163.433H280.697V160.313ZM291.733 160.313H295.315C295.315 168.084 294.68 174.642 290.028 180.449L287.024 178.311C291.068 173.198 291.733 168.056 291.733 160.747V160.313ZM288.844 160.313H293.322V163.433H288.844V160.313ZM311.982 171.176H315.795V178.687H311.982V171.176ZM321.688 171.176H325.531V178.687H321.688V171.176ZM306.666 178.138H330.875V181.258H306.666V178.138ZM318.742 158.898C324.491 158.898 328.737 161.729 328.737 166.091C328.737 170.453 324.491 173.256 318.742 173.256C312.964 173.256 308.746 170.453 308.746 166.091C308.746 161.729 312.964 158.898 318.742 158.898ZM318.742 161.902C315.015 161.902 312.531 163.433 312.531 166.091C312.531 168.72 315.015 170.28 318.742 170.28C322.468 170.28 324.953 168.72 324.953 166.091C324.953 163.433 322.468 161.902 318.742 161.902ZM337.142 174.498C336.448 169.847 341.388 167.998 341.388 165.253C341.388 163.78 340.435 162.884 338.933 162.884C337.662 162.884 336.651 163.52 335.697 164.502L333.357 162.336C334.86 160.631 336.911 159.447 339.424 159.447C342.92 159.447 345.462 161.238 345.462 164.964C345.462 169.067 340.435 170.424 340.868 174.498H337.142ZM339.02 182.182C337.488 182.182 336.391 180.998 336.391 179.409C336.391 177.82 337.488 176.664 339.02 176.664C340.522 176.664 341.677 177.82 341.677 179.409C341.677 180.998 340.522 182.182 339.02 182.182Z" fill="black"/>
<path d="M58.0027 218.485H59.8227V226.476H58.0027V218.485ZM59.06 221.726H62.0413V223.217H59.06V221.726ZM49.596 227.169H59.8227V231.26H51.416V233.426H49.6133V229.925H58.0373V228.59H49.596V227.169ZM49.6133 232.698H60.3427V234.137H49.6133V232.698ZM51.8147 219.005C54.2067 219.005 55.9573 220.478 55.9573 222.558C55.9573 224.638 54.2067 226.112 51.8147 226.112C49.4227 226.112 47.672 224.638 47.672 222.558C47.672 220.478 49.4227 219.005 51.8147 219.005ZM51.8147 220.478C50.4453 220.478 49.4227 221.31 49.4227 222.558C49.4227 223.824 50.4453 224.656 51.8147 224.656C53.2013 224.656 54.2067 223.824 54.2067 222.558C54.2067 221.31 53.2013 220.478 51.8147 220.478ZM74.6413 218.485H76.4613V227.88H74.6413V218.485ZM64.224 225.748H65.5413C68.5053 225.748 70.568 225.678 72.9946 225.28L73.2026 226.736C70.7066 227.152 68.5746 227.238 65.5413 227.238H64.224V225.748ZM64.1893 219.421H71.4173V223.945H65.992V226.632H64.224V222.558H69.632V220.877H64.1893V219.421ZM66.096 228.677H76.4613V234.137H66.096V228.677ZM74.676 230.116H67.8813V232.681H74.676V230.116Z" fill="#909090"/>
<path d="M46.6667 266.778C46.6667 263.587 49.2535 261 52.4444 261H491.556C494.747 261 497.333 263.587 497.333 266.778V343.444C497.333 346.635 494.747 349.222 491.556 349.222H52.4444C49.2534 349.222 46.6667 346.635 46.6667 343.444V266.778Z" fill="#F4F4F4"/>
<path d="M89.0756 294.249H91.4733V307.538H89.0756V294.249ZM90.4333 299.853H95.3156V301.847H90.4333V299.853ZM74.8911 308.78H91.4733V315.193H77.3178V319.093H74.9489V313.373H89.1333V310.687H74.8911V308.78ZM74.9489 318.082H92.4267V320.018H74.9489V318.082ZM78.4156 295.173C82.3444 295.173 85.1756 297.571 85.1756 300.98C85.1756 304.418 82.3444 306.816 78.4156 306.816C74.5444 306.816 71.6844 304.418 71.6844 300.98C71.6844 297.571 74.5444 295.173 78.4156 295.173ZM78.4156 297.138C75.9022 297.138 74.0244 298.727 74.0244 300.98C74.0244 303.262 75.9022 304.851 78.4156 304.851C80.9867 304.851 82.8644 303.262 82.8644 300.98C82.8644 298.727 80.9867 297.138 78.4156 297.138ZM116.778 294.249H119.204V309.733H116.778V294.249ZM99.1266 306.527H101.236C105.973 306.527 109.469 306.382 113.658 305.718L113.918 307.653C109.613 308.376 106.089 308.52 101.236 308.52H99.1266V306.527ZM99.0689 295.809H110.913V302.944H101.467V307.711H99.1266V301.096H108.573V297.773H99.0689V295.809ZM102.333 311.178H119.204V320.018H102.333V311.178ZM116.836 313.084H104.673V318.082H116.836V313.084ZM137.709 296.502H139.674V301.182C139.674 307.191 136.438 312.767 132.163 314.933L130.689 312.969C134.56 311.12 137.709 306.122 137.709 301.182V296.502ZM138.114 296.502H140.078V301.182C140.078 305.949 143.198 310.744 147.069 312.536L145.625 314.442C141.378 312.362 138.114 306.989 138.114 301.182V296.502ZM149.785 294.22H152.183V320.393H149.785V294.22ZM175.263 294.249H177.66V313.344H175.263V294.249ZM176.909 302.164H181.532V304.158H176.909V302.164ZM168.127 296.271H170.669C170.669 303.031 165.932 307.971 158.449 310.369L157.409 308.404C163.996 306.382 168.127 302.338 168.127 297.311V296.271ZM158.478 296.271H169.34V298.236H158.478V296.271ZM161.367 317.822H178.816V319.787H161.367V317.822ZM161.367 311.409H163.765V318.602H161.367V311.409Z" fill="#909090"/>
<path d="M58.0027 389.502H59.8227V401.133H58.0027V389.502ZM59.2853 394.13H62.0587V395.638H59.2853V394.13ZM49.804 403.542H60.464V405.016H49.804V403.542ZM49.804 399.989H51.624V403.872H49.804V399.989ZM48.0187 390.629H49.8213V393.108H53.6867V390.629H55.472V398.55H48.0187V390.629ZM49.8213 394.512V397.112H53.6867V394.512H49.8213ZM63.392 397.493H77.7093V398.966H63.392V397.493ZM69.6493 395.292H71.452V397.874H69.6493V395.292ZM64.9866 400.318H75.9586V405.328H74.156V401.757H64.9866V400.318ZM65.264 389.866H67.0493V391.478H74.0693V389.866H75.872V395.881H65.264V389.866ZM67.0493 392.865V394.442H74.0693V392.865H67.0493ZM86.5932 397.597H88.3958V402.19H86.5932V397.597ZM92.3998 397.597H94.2198V402.19H92.3998V397.597ZM83.2478 401.896H97.5998V403.386H83.2478V401.896ZM90.3892 390.386C93.7692 390.386 96.2132 392.016 96.2132 394.546C96.2132 397.06 93.7692 398.689 90.3892 398.689C87.0092 398.689 84.5652 397.06 84.5652 394.546C84.5652 392.016 87.0092 390.386 90.3892 390.386ZM90.3892 391.808C87.9972 391.808 86.3332 392.865 86.3332 394.546C86.3332 396.21 87.9972 397.268 90.3892 397.268C92.7812 397.268 94.4452 396.21 94.4452 394.546C94.4452 392.865 92.7812 391.808 90.3892 391.808ZM103.63 390.005C106.022 390.005 107.79 391.478 107.79 393.576C107.79 395.656 106.022 397.129 103.63 397.129C101.256 397.129 99.4878 395.656 99.4878 393.576C99.4878 391.478 101.256 390.005 103.63 390.005ZM103.63 391.496C102.261 391.496 101.238 392.31 101.238 393.576C101.238 394.841 102.261 395.656 103.63 395.656C105.017 395.656 106.022 394.841 106.022 393.576C106.022 392.31 105.017 391.496 103.63 391.496ZM110.425 389.485H112.245V397.51H110.425V389.485ZM101.862 398.238H112.245V402.294H103.665V404.478H101.897V400.96H110.442V399.66H101.862V398.238ZM101.897 403.698H112.713V405.137H101.897V403.698Z" fill="#909090"/>
<path d="M46.6667 443.556C46.6667 437.174 51.8403 432 58.2222 432H248.889C255.271 432 260.444 437.174 260.444 443.556V499.667C260.444 506.049 255.271 511.222 248.889 511.222H58.2222C51.8402 511.222 46.6667 506.049 46.6667 499.667V443.556Z" fill="#DFEAFF"/>
<path d="M148.834 462.906H151.145V484.029H148.834V462.906ZM145.83 471.133H149.643V473.098H145.83V471.133ZM144.166 463.299H146.454V483.012H144.166V463.299ZM133.789 465.217H141.97V478.529H133.789V465.217ZM139.705 467.135H136.054V476.634H139.705V467.135ZM160.296 463.599C163.485 463.599 165.842 465.564 165.842 468.36C165.842 471.133 163.485 473.098 160.296 473.098C157.129 473.098 154.772 471.133 154.772 468.36C154.772 465.564 157.129 463.599 160.296 463.599ZM160.296 465.587C158.47 465.587 157.106 466.673 157.106 468.36C157.106 470.047 158.47 471.133 160.296 471.133C162.144 471.133 163.485 470.047 163.485 468.36C163.485 466.673 162.144 465.587 160.296 465.587ZM169.355 462.906H171.782V473.606H169.355V462.906ZM157.938 474.577H171.782V479.985H160.342V482.897H157.984V478.205H169.378V476.472H157.938V474.577ZM157.984 481.857H172.406V483.775H157.984V481.857Z" fill="#1777E9"/>
<path d="M283.556 443.556C283.556 437.174 288.729 432 295.111 432H485.778C492.16 432 497.333 437.174 497.333 443.556V499.667C497.333 506.049 492.16 511.222 485.778 511.222H295.111C288.729 511.222 283.556 506.049 283.556 499.667V443.556Z" fill="#F4F4F4"/>
<path d="M382.048 466.511H386.44V468.452H382.048V466.511ZM382.048 470.371H386.44V472.335H382.048V470.371ZM370.562 464.408H381.702V466.372H370.562V464.408ZM370.285 474.854L370.031 472.844C373.451 472.844 378.304 472.797 382.187 472.335L382.326 474.115C378.328 474.785 373.659 474.854 370.285 474.854ZM372.48 466.003H374.815V473.537H372.48V466.003ZM377.472 466.003H379.784V473.537H377.472V466.003ZM385.076 462.906H387.503V475.894H385.076V462.906ZM380.454 476.264C384.891 476.264 387.572 477.674 387.572 480.147C387.572 482.596 384.891 484.006 380.454 484.006C376.016 484.006 373.336 482.596 373.336 480.147C373.336 477.674 376.016 476.264 380.454 476.264ZM380.454 478.136C377.449 478.136 375.739 478.829 375.739 480.147C375.739 481.441 377.449 482.157 380.454 482.157C383.481 482.157 385.168 481.441 385.168 480.147C385.168 478.829 383.481 478.136 380.454 478.136ZM397.184 463.599C400.374 463.599 402.731 465.564 402.731 468.36C402.731 471.133 400.374 473.098 397.184 473.098C394.018 473.098 391.661 471.133 391.661 468.36C391.661 465.564 394.018 463.599 397.184 463.599ZM397.184 465.587C395.359 465.587 393.995 466.673 393.995 468.36C393.995 470.047 395.359 471.133 397.184 471.133C399.033 471.133 400.374 470.047 400.374 468.36C400.374 466.673 399.033 465.587 397.184 465.587ZM406.244 462.906H408.671V473.606H406.244V462.906ZM394.827 474.577H408.671V479.985H397.231V482.897H394.873V478.205H406.267V476.472H394.827V474.577ZM394.873 481.857H409.295V483.775H394.873V481.857Z" fill="#676767"/>
<path d="M46.6667 545.889C46.6667 539.507 51.8403 534.333 58.2222 534.333H248.889C255.271 534.333 260.444 539.507 260.444 545.889V602C260.444 608.382 255.271 613.556 248.889 613.556H58.2222C51.8402 613.556 46.6667 608.382 46.6667 602V545.889Z" fill="#F4F4F4"/>
<path d="M141.277 567.435H143.38V568.221C143.38 571.965 139.798 574.853 135.06 575.57L134.136 573.675C138.272 573.12 141.277 570.717 141.277 568.221V567.435ZM141.947 567.435H144.027V568.221C144.027 570.717 147.055 573.12 151.168 573.675L150.267 575.57C145.506 574.853 141.947 571.965 141.947 568.221V567.435ZM141.392 578.459H143.796V586.363H141.392V578.459ZM133.119 577.095H152.208V579.06H133.119V577.095ZM134.852 566.441H150.406V568.382H134.852V566.441ZM168.431 565.239H170.857V575.893H168.431V565.239ZM169.84 569.561H173.816V571.549H169.84V569.561ZM155.119 566.349H164.987V574.946H155.119V566.349ZM162.607 568.244H157.499V573.028H162.607V568.244ZM157.222 576.818H170.857V582.272H159.648V585.161H157.245V580.493H168.477V578.713H157.222V576.818ZM157.245 584.19H171.551V586.109H157.245V584.19Z" fill="#676767"/>
<path d="M283.556 545.889C283.556 539.507 288.729 534.333 295.111 534.333H485.778C492.16 534.333 497.333 539.507 497.333 545.889V602C497.333 608.382 492.16 613.556 485.778 613.556H295.111C288.729 613.556 283.556 608.382 283.556 602V545.889Z" fill="#F4F4F4"/>
<path d="M351.392 567.412H353.403V568.937C353.403 572.866 351.208 576.263 347.44 577.534L346.192 575.662C349.52 574.53 351.392 571.78 351.392 568.937V567.412ZM351.878 567.412H353.865V568.937C353.865 571.641 355.76 574.206 359.019 575.269L357.794 577.165C354.073 575.94 351.878 572.681 351.878 568.937V567.412ZM360.984 565.239H363.41V577.997H360.984V565.239ZM349.174 579.037H363.41V586.363H360.984V580.978H349.174V579.037ZM346.84 566.603H358.372V568.544H346.84V566.603ZM378.592 570.185H382.984V572.149H378.592V570.185ZM382.336 565.239H384.74V576.749H382.336V565.239ZM371.012 577.696H373.416V579.984H382.36V577.696H384.74V586.109H371.012V577.696ZM373.416 581.879V584.144H382.36V581.879H373.416ZM372.422 566.88H374.386V568.452C374.386 572.334 372.237 575.801 368.47 577.118L367.245 575.2C370.527 574.068 372.422 571.294 372.422 568.452V566.88ZM372.907 566.88H374.848V568.429C374.848 571.04 376.651 573.675 379.817 574.761L378.616 576.656C374.964 575.385 372.907 572.08 372.907 568.429V566.88ZM367.938 566.372H379.263V568.313H367.938V566.372ZM404.512 570H409.643V571.988H404.512V570ZM398.804 566.533H400.745V568.983C400.745 573.166 398.665 576.702 394.944 578.135L393.673 576.24C396.955 575.061 398.804 572.103 398.804 568.983V566.533ZM399.289 566.533H401.23V569.029C401.23 571.872 403.01 574.622 406.176 575.755L404.882 577.627C401.323 576.286 399.289 572.912 399.289 569.029V566.533ZM408.788 565.262H411.214V580.955H408.788V565.262ZM397.463 583.982H411.7V585.947H397.463V583.982ZM397.463 579.291H399.89V584.999H397.463V579.291ZM415.789 575.131H417.175C420.388 575.131 422.352 575.061 424.686 574.622L424.918 576.587C422.491 577.026 420.457 577.118 417.175 577.118H415.789V575.131ZM415.789 566.718H424.016V568.683H418.123V576.217H415.789V566.718ZM417.406 570.901H423.785V572.75H417.406V570.901ZM430.557 565.239H432.845V578.089H430.557V565.239ZM427.529 570.601H431.227V572.565H427.529V570.601ZM425.958 565.632H428.222V577.95H425.958V565.632ZM418.539 579.106H432.845V586.363H430.441V581.07H418.539V579.106Z" fill="#676767"/>
<path d="M51.4853 655.118H52.976V657.718C52.976 661.549 51.26 665.068 48.4173 666.454L47.3253 664.946C49.856 663.802 51.4853 660.752 51.4853 657.718V655.118ZM51.832 655.118H53.3053V657.718C53.3053 660.63 54.9173 663.542 57.4133 664.652L56.3387 666.108C53.548 664.79 51.832 661.41 51.832 657.718V655.118ZM58.6787 653.801H60.4987V669.678H58.6787V653.801ZM67.136 655.447H68.6266V656.592C68.6266 659.538 67.0146 662.086 64.2066 663.04L63.2533 661.636C65.7493 660.786 67.136 658.741 67.136 656.592V655.447ZM67.4826 655.447H68.956V656.592C68.956 658.585 70.2906 660.526 72.7173 661.324L71.7986 662.745C69.0253 661.809 67.4826 659.365 67.4826 656.592V655.447ZM63.7733 654.841H72.284V656.314H63.7733V654.841ZM73.948 653.818H75.768V663.352H73.948V653.818ZM75.2653 657.84H78.004V659.348H75.2653V657.84ZM65.3506 664.132H75.768V669.661H73.948V665.605H65.3506V664.132ZM87.2692 655.118H88.7598V657.718C88.7598 661.549 87.0438 665.068 84.2012 666.454L83.1092 664.946C85.6398 663.802 87.2692 660.752 87.2692 657.718V655.118ZM87.6158 655.118H89.0892V657.718C89.0892 660.63 90.7012 663.542 93.1972 664.652L92.1225 666.108C89.3318 664.79 87.6158 661.41 87.6158 657.718V655.118ZM94.4625 653.801H96.2825V669.678H94.4625V653.801ZM109.714 653.818H111.552V665.293H109.714V653.818ZM111.014 658.446H113.788V659.954H111.014V658.446ZM105.364 655.032H107.288C107.288 659.209 104.532 662.208 99.9038 663.612L99.1412 662.156C103.076 660.994 105.364 658.689 105.364 655.881V655.032ZM99.7998 655.032H106.317V656.505H99.7998V655.032ZM101.516 667.876H112.176V669.349H101.516V667.876ZM101.516 664.132H103.336V668.5H101.516V664.132Z" fill="#909090"/>
<path d="M46.6667 690.556C46.6667 687.365 49.2535 684.778 52.4444 684.778H491.556C494.747 684.778 497.333 687.365 497.333 690.556V767.222C497.333 770.413 494.747 773 491.556 773H52.4444C49.2534 773 46.6667 770.413 46.6667 767.222V690.556Z" fill="#F4F4F4"/>
<path d="M75.4689 741.889C75.8444 734.147 77.4044 729.207 81.4489 723.573H71.1933V721.32H84.4244V722.938C79.5711 729.149 78.56 733.858 78.2133 741.889H75.4689ZM89.7887 730.622C88.7487 730.622 87.911 729.813 87.911 728.629C87.911 727.416 88.7487 726.607 89.7887 726.607C90.8576 726.607 91.7243 727.416 91.7243 728.629C91.7243 729.813 90.8576 730.622 89.7887 730.622ZM89.7887 742.293C88.7487 742.293 87.911 741.456 87.911 740.271C87.911 739.058 88.7487 738.249 89.7887 738.249C90.8576 738.249 91.7243 739.058 91.7243 740.271C91.7243 741.456 90.8576 742.293 89.7887 742.293ZM101.874 742.293C97.7424 742.293 95.258 738.451 95.258 731.547C95.258 724.642 97.7424 720.944 101.874 720.944C105.947 720.944 108.431 724.642 108.431 731.547C108.431 738.451 105.947 742.293 101.874 742.293ZM101.874 740.156C104.271 740.156 105.889 737.584 105.889 731.547C105.889 725.48 104.271 723.053 101.874 723.053C99.4469 723.053 97.8002 725.48 97.8002 731.547C97.8002 737.584 99.4469 740.156 101.874 740.156ZM117.898 742.293C113.767 742.293 111.282 738.451 111.282 731.547C111.282 724.642 113.767 720.944 117.898 720.944C121.971 720.944 124.456 724.642 124.456 731.547C124.456 738.451 121.971 742.293 117.898 742.293ZM117.898 740.156C120.296 740.156 121.913 737.584 121.913 731.547C121.913 725.48 120.296 723.053 117.898 723.053C115.471 723.053 113.825 725.48 113.825 731.547C113.825 737.584 115.471 740.156 117.898 740.156ZM135.24 741.889V720.713H141.278C146.016 720.713 149.223 722.302 149.223 726.953C149.223 731.402 146.045 733.482 141.394 733.482H137.927V741.889H135.24ZM137.927 731.316H141.076C144.774 731.316 146.565 729.958 146.565 726.953C146.565 723.862 144.687 722.909 140.932 722.909H137.927V731.316ZM153.522 741.889V720.713H156.728L160.802 732.067C161.322 733.511 161.813 734.984 162.333 736.487H162.448C162.968 734.984 163.431 733.511 163.922 732.067L167.937 720.713H171.173V741.889H168.688V730.189C168.688 728.34 168.891 725.798 169.035 723.92H168.891L167.215 728.744L163.199 739.78H161.408L157.393 728.744L155.717 723.92H155.602C155.746 725.798 155.948 728.34 155.948 730.189V741.889H153.522Z" fill="#2C2C2C"/>
<path d="M49.128 813.835H60.1V818.237H51V820.82H49.1627V816.851H58.2627V815.291H49.128V813.835ZM49.1627 819.936H60.464V821.392H49.1627V819.936ZM47.4467 822.813H61.7987V824.287H47.4467V822.813ZM53.6867 823.368H55.4893V829.123H53.6867V823.368ZM74.6413 813.28H76.4613V825.015H74.6413V813.28ZM66.1133 827.32H76.912V828.793H66.1133V827.32ZM66.1133 823.992H67.9333V828.169H66.1133V823.992ZM64.2933 821.132H65.6106C68.956 821.132 70.8453 821.08 73.0466 820.716L73.2373 822.137C70.9666 822.519 69.008 822.571 65.6106 822.571H64.2933V821.132ZM64.2933 814.493H71.868V815.949H66.096V821.409H64.2933V814.493ZM65.524 817.787H71.4173V819.208H65.524V817.787ZM85.0332 813.904H95.7278V819.381H85.0332V813.904ZM93.9425 815.343H86.8185V817.943H93.9425V815.343ZM83.2305 821.149H97.5478V822.605H83.2305V821.149ZM89.4878 819.035H91.2905V821.617H89.4878V819.035ZM84.8252 824.027H95.7972V829.105H93.9945V825.465H84.8252V824.027ZM102.954 821.86H104.774V826.263H102.954V821.86ZM107.877 821.877H109.68V826.28H107.877V821.877ZM99.1932 825.777H113.545V827.268H99.1932V825.777ZM100.372 814.632H112.262V816.105H100.372V814.632ZM100.424 820.924H112.228V822.38H100.424V820.924ZM102.694 815.828H104.514V821.184H102.694V815.828ZM108.137 815.828H109.94V821.184H108.137V815.828Z" fill="#909090"/>
<path d="M46.6667 850C46.6667 846.809 49.2535 844.222 52.4444 844.222H491.556C494.747 844.222 497.333 846.809 497.333 850V926.667C497.333 929.858 494.747 932.445 491.556 932.445H52.4444C49.2534 932.445 46.6667 929.858 46.6667 926.667V850Z" fill="#F4F4F4"/>
<path d="M71.1933 890.153H94.7956V892.147H71.1933V890.153ZM81.7955 891.684H84.1644V903.587H81.7955V891.684ZM73.1 879.291H80.0044V881.227H73.1V879.291ZM79.1955 879.291H81.5355V880.158C81.5355 881.92 81.5355 885.647 80.12 891.02L77.7511 890.644C79.1955 885.531 79.1955 881.978 79.1955 880.158V879.291ZM83.4422 879.291H90.8089V881.227H83.4422V879.291ZM89.7978 879.291H92.1378V880.476C92.1378 882.44 92.1378 885.936 91.0111 890.991L88.6422 890.644C89.7978 885.791 89.7978 882.44 89.7978 880.476V879.291ZM108.024 879.927H110.162V880.707C110.162 885.127 105.453 888.218 100.109 889.027L99.2133 887.091C103.836 886.484 108.024 883.884 108.024 880.707V879.927ZM109.036 879.927H111.144V880.707C111.144 883.884 115.362 886.484 119.984 887.091L119.06 889.027C113.744 888.218 109.036 885.127 109.036 880.707V879.927ZM99.9355 878.771H119.262V880.707H99.9355V878.771ZM97.7689 890.904H121.429V892.869H97.7689V890.904ZM108.573 892.118H110.971V898.127H108.573V892.118ZM100.773 901.044H118.8V903.009H100.773V901.044ZM100.773 895.613H103.142V901.796H100.773V895.613ZM143.324 877.471H145.722V903.587H143.324V877.471ZM124.951 881.689H140.609V883.624H124.951V881.689ZM132.809 885.762C136.564 885.762 139.28 888.247 139.28 891.771C139.28 895.296 136.564 897.78 132.809 897.78C129.053 897.78 126.367 895.296 126.367 891.771C126.367 888.247 129.053 885.762 132.809 885.762ZM132.809 887.756C130.411 887.756 128.649 889.402 128.649 891.771C128.649 894.111 130.411 895.787 132.809 895.787C135.207 895.787 136.969 894.111 136.969 891.771C136.969 889.402 135.207 887.756 132.809 887.756ZM131.567 877.731H133.964V882.873H131.567V877.731ZM157.38 890.702H181.069V892.667H157.38V890.702ZM168.185 891.944H170.612V897.953H168.185V891.944ZM160.385 901.016H178.44V903.009H160.385V901.016ZM160.385 895.382H162.783V901.564H160.385V895.382ZM169.196 878.107C174.714 878.107 178.354 880.129 178.354 883.364C178.354 886.6 174.714 888.622 169.196 888.622C163.649 888.622 160.038 886.6 160.038 883.364C160.038 880.129 163.649 878.107 169.196 878.107ZM169.196 880.071C165.209 880.071 162.58 881.342 162.58 883.364C162.58 885.416 165.209 886.658 169.196 886.658C173.183 886.658 175.812 885.416 175.812 883.364C175.812 881.342 173.183 880.071 169.196 880.071ZM183.985 890.327H207.587V892.291H183.985V890.327ZM194.587 886.138H196.956V891.136H194.587V886.138ZM186.96 885.387H204.843V887.351H186.96V885.387ZM186.96 878.656H204.64V880.591H189.329V886.542H186.96V878.656ZM195.743 894.169C201.318 894.169 204.698 895.873 204.698 898.849C204.698 901.882 201.318 903.558 195.743 903.558C190.167 903.558 186.787 901.882 186.787 898.849C186.787 895.873 190.167 894.169 195.743 894.169ZM195.743 896.018C191.669 896.018 189.214 897.058 189.214 898.849C189.214 900.669 191.669 901.68 195.743 901.68C199.845 901.68 202.271 900.669 202.271 898.849C202.271 897.058 199.845 896.018 195.743 896.018ZM228.24 877.471H230.638V903.587H228.24V877.471ZM230.06 888.189H234.914V890.211H230.06V888.189ZM210.416 881.631H225.814V883.596H210.416V881.631ZM218.216 885.762C221.914 885.762 224.571 888.247 224.571 891.771C224.571 895.296 221.914 897.78 218.216 897.78C214.547 897.78 211.86 895.296 211.86 891.771C211.86 888.247 214.547 885.762 218.216 885.762ZM218.216 887.756C215.847 887.756 214.143 889.402 214.143 891.771C214.143 894.111 215.847 895.787 218.216 895.787C220.585 895.787 222.289 894.111 222.289 891.771C222.289 889.402 220.585 887.756 218.216 887.756ZM216.974 877.789H219.371V882.527H216.974V877.789ZM256.145 877.471H258.543V903.587H256.145V877.471ZM248.489 880.273H250.858C250.858 887.842 247.449 894.458 238.725 898.733L237.454 896.798C244.994 893.158 248.489 887.611 248.489 880.678V880.273ZM238.638 880.273H249.529V882.238H238.638V880.273Z" fill="#2C2C2C"/>
</g>
<rect x="6.22222" y="6.22222" width="531.556" height="985.556" rx="31.7778" stroke="#E5E5E5" stroke-width="11.5556"/>
<defs>
<clipPath id="clip0_648_1879">
<rect x="12" y="12" width="520" height="974" rx="26" fill="white"/>
</clipPath>
<clipPath id="clip1_648_1879">
<rect width="43.3333" height="43.3333" fill="white" transform="translate(46.6667 35.1111)"/>
</clipPath>
</defs>
</svg>
