<svg width="288" height="600" viewBox="0 0 288 600" fill="none" xmlns="http://www.w3.org/2000/svg">
<g clip-path="url(#clip0_649_8552)">
<rect x="9" y="8.65381" width="270" height="582.058" rx="18.6923" fill="#F4F4F4"/>
<rect width="270" height="64.3846" transform="translate(9 8.65381)" fill="white"/>
<g clip-path="url(#clip1_649_8552)">
<path d="M247.587 33.5899L245.756 31.7596L238.5 39.0158L231.244 31.7596L229.413 33.5899L236.67 40.8461L229.413 48.1024L231.244 49.9327L238.5 42.6764L245.756 49.9327L247.587 48.1024L240.33 40.8461L247.587 33.5899Z" fill="black"/>
</g>
<rect width="270" height="362.162" transform="translate(9 73.0385)" fill="white"/>
<path d="M26.9998 103.038C26.9998 96.411 32.3724 91.0385 38.9998 91.0385H249C255.627 91.0385 261 96.411 261 103.038V251.038C261 257.666 255.627 263.038 249 263.038H38.9998C32.3724 263.038 26.9998 257.666 26.9998 251.038V103.038Z" fill="#F4F4F4"/>
<path d="M103.525 120.483H105.535V130.413H103.525V120.483ZM104.98 124.353H107.38V125.988H104.98V124.353ZM99.6699 121.518H101.785C101.785 122.778 101.535 123.903 101.035 124.893C100.535 125.883 99.8049 126.728 98.8449 127.428C97.8949 128.128 96.7249 128.678 95.3349 129.078L94.5099 127.503C95.6399 127.183 96.5849 126.773 97.3449 126.273C98.1149 125.773 98.6949 125.203 99.0849 124.563C99.4749 123.923 99.6699 123.233 99.6699 122.493V121.518ZM95.1099 121.518H100.735V123.108H95.1099V121.518ZM96.5649 132.528H106.015V134.133H96.5649V132.528ZM96.5649 129.408H98.5599V133.248H96.5649V129.408ZM117.339 120.483H119.334V130.518H117.339V120.483ZM118.779 124.263H121.179V125.898H118.779V124.263ZM108.924 126.648H110.079C111.089 126.648 111.949 126.638 112.659 126.618C113.379 126.588 114.019 126.543 114.579 126.483C115.149 126.423 115.709 126.333 116.259 126.213L116.454 127.788C115.894 127.918 115.319 128.018 114.729 128.088C114.149 128.148 113.489 128.193 112.749 128.223C112.009 128.243 111.119 128.253 110.079 128.253H108.924V126.648ZM108.924 121.578H115.149V123.168H110.919V127.488H108.924V121.578ZM110.379 132.528H119.829V134.133H110.379V132.528ZM110.379 129.453H112.389V133.338H110.379V129.453ZM131.138 120.483H133.133V130.863H131.138V120.483ZM132.578 124.713H134.978V126.363H132.578V124.713ZM122.213 121.938H130.373V123.498H122.213V121.938ZM126.293 123.993C126.963 123.993 127.553 124.108 128.063 124.338C128.583 124.558 128.988 124.873 129.278 125.283C129.568 125.683 129.713 126.143 129.713 126.663C129.713 127.193 129.568 127.663 129.278 128.073C128.988 128.473 128.583 128.788 128.063 129.018C127.553 129.238 126.963 129.348 126.293 129.348C125.633 129.348 125.043 129.238 124.523 129.018C124.003 128.788 123.598 128.473 123.308 128.073C123.018 127.663 122.873 127.193 122.873 126.663C122.873 126.143 123.018 125.683 123.308 125.283C123.598 124.873 124.003 124.558 124.523 124.338C125.043 124.108 125.633 123.993 126.293 123.993ZM126.293 125.508C125.853 125.508 125.493 125.608 125.213 125.808C124.933 126.008 124.793 126.298 124.793 126.678C124.793 127.048 124.933 127.333 125.213 127.533C125.493 127.733 125.853 127.833 126.293 127.833C126.743 127.833 127.103 127.733 127.373 127.533C127.653 127.333 127.793 127.048 127.793 126.678C127.793 126.298 127.653 126.008 127.373 125.808C127.103 125.608 126.743 125.508 126.293 125.508ZM125.303 120.468H127.283V122.688H125.303V120.468ZM124.178 132.528H133.628V134.133H124.178V132.528ZM124.178 130.083H126.188V133.218H124.178V130.083ZM144.57 121.278H146.295V122.283C146.295 122.883 146.21 123.468 146.04 124.038C145.88 124.598 145.64 125.128 145.32 125.628C145 126.128 144.605 126.583 144.135 126.993C143.675 127.393 143.145 127.738 142.545 128.028C141.945 128.318 141.285 128.533 140.565 128.673L139.71 127.008C140.33 126.898 140.895 126.733 141.405 126.513C141.925 126.283 142.38 126.008 142.77 125.688C143.16 125.368 143.49 125.023 143.76 124.653C144.03 124.273 144.23 123.883 144.36 123.483C144.5 123.073 144.57 122.673 144.57 122.283V121.278ZM144.96 121.278H146.7V122.283C146.7 122.683 146.765 123.088 146.895 123.498C147.035 123.908 147.235 124.303 147.495 124.683C147.765 125.053 148.095 125.393 148.485 125.703C148.875 126.013 149.325 126.283 149.835 126.513C150.345 126.733 150.92 126.898 151.56 127.008L150.705 128.673C149.985 128.533 149.325 128.318 148.725 128.028C148.125 127.738 147.59 127.393 147.12 126.993C146.66 126.593 146.265 126.143 145.935 125.643C145.615 125.143 145.37 124.608 145.2 124.038C145.04 123.468 144.96 122.883 144.96 122.283V121.278ZM139.41 131.043H151.995V132.678H139.41V131.043ZM154.679 127.623H164.444V129.198H154.679V127.623ZM153.209 131.163H165.794V132.783H153.209V131.163ZM154.679 121.488H164.339V123.078H156.704V128.058H154.679V121.488ZM156.089 124.548H164.024V126.093H156.089V124.548ZM167.382 129.498H168.372C169.212 129.498 170.017 129.478 170.787 129.438C171.567 129.388 172.387 129.293 173.247 129.153L173.412 130.758C172.532 130.918 171.687 131.018 170.877 131.058C170.077 131.098 169.242 131.118 168.372 131.118H167.382V129.498ZM167.352 121.848H172.272V127.158H169.317V130.113H167.382V125.583H170.352V123.423H167.352V121.848ZM177.027 120.468H178.932V134.358H177.027V120.468ZM172.842 125.193H174.987V126.828H172.842V125.193ZM174.207 120.723H176.052V133.698H174.207V120.723ZM184.181 122.808H185.816V123.318C185.816 124.138 185.671 124.913 185.381 125.643C185.091 126.363 184.656 126.993 184.076 127.533C183.496 128.063 182.751 128.458 181.841 128.718L180.926 127.173C181.486 127.003 181.971 126.788 182.381 126.528C182.801 126.258 183.141 125.948 183.401 125.598C183.671 125.248 183.866 124.883 183.986 124.503C184.116 124.113 184.181 123.718 184.181 123.318V122.808ZM184.556 122.808H186.176V123.318C186.176 123.688 186.241 124.053 186.371 124.413C186.511 124.773 186.711 125.113 186.971 125.433C187.241 125.743 187.581 126.023 187.991 126.273C188.411 126.523 188.906 126.718 189.476 126.858L188.561 128.433C187.671 128.193 186.926 127.823 186.326 127.323C185.736 126.813 185.291 126.213 184.991 125.523C184.701 124.833 184.556 124.098 184.556 123.318V122.808ZM181.391 121.923H188.981V123.483H181.391V121.923ZM184.181 120.498H186.191V122.628H184.181V120.498ZM190.346 120.483H192.341V128.853H190.346V120.483ZM187.646 129.093C188.626 129.093 189.471 129.198 190.181 129.408C190.891 129.618 191.436 129.918 191.816 130.308C192.206 130.698 192.401 131.173 192.401 131.733C192.401 132.573 191.976 133.223 191.126 133.683C190.276 134.143 189.116 134.373 187.646 134.373C186.176 134.373 185.016 134.143 184.166 133.683C183.316 133.223 182.891 132.573 182.891 131.733C182.891 130.903 183.316 130.258 184.166 129.798C185.016 129.328 186.176 129.093 187.646 129.093ZM187.646 130.608C187.046 130.608 186.536 130.648 186.116 130.728C185.706 130.808 185.396 130.933 185.186 131.103C184.986 131.273 184.886 131.483 184.886 131.733C184.886 132.103 185.116 132.383 185.576 132.573C186.046 132.753 186.736 132.843 187.646 132.843C188.546 132.843 189.231 132.753 189.701 132.573C190.171 132.383 190.406 132.103 190.406 131.733C190.406 131.483 190.301 131.273 190.091 131.103C189.881 130.933 189.571 130.808 189.161 130.728C188.761 130.648 188.256 130.608 187.646 130.608Z" fill="#2C2C2C"/>
<path d="M104.727 216.563C99.0642 216.563 95.3142 211.651 95.3142 202.051C95.3142 192.488 99.0642 187.801 104.727 187.801C110.352 187.801 114.102 192.488 114.102 202.051C114.102 211.651 110.352 216.563 104.727 216.563ZM104.727 212.251C107.127 212.251 108.889 209.851 108.889 202.051C108.889 194.288 107.127 192.038 104.727 192.038C102.327 192.038 100.527 194.288 100.527 202.051C100.527 209.851 102.327 212.251 104.727 212.251ZM125.346 216.563C121.858 216.563 119.383 215.138 117.696 213.413L120.621 210.076C121.671 211.238 123.358 212.101 125.008 212.101C128.271 212.101 130.933 209.476 130.933 201.526C130.933 194.438 128.796 191.926 126.096 191.926C123.996 191.926 122.308 193.613 122.308 197.063C122.308 200.288 123.883 201.863 126.246 201.863C127.821 201.863 129.546 201.001 130.896 198.713L131.196 202.463C129.696 204.526 127.183 205.763 125.233 205.763C120.583 205.763 117.283 202.951 117.283 197.063C117.283 191.326 121.258 187.801 125.983 187.801C131.271 187.801 135.996 191.926 135.996 201.526C135.996 212.026 130.858 216.563 125.346 216.563ZM143.977 202.351C141.99 202.351 140.565 200.813 140.565 198.751C140.565 196.726 141.99 195.188 143.977 195.188C145.927 195.188 147.427 196.726 147.427 198.751C147.427 200.813 145.927 202.351 143.977 202.351ZM143.977 216.563C141.99 216.563 140.565 215.026 140.565 212.963C140.565 210.901 141.99 209.401 143.977 209.401C145.927 209.401 147.427 210.901 147.427 212.963C147.427 215.026 145.927 216.563 143.977 216.563ZM162.697 216.038V198.976C162.697 197.363 162.847 194.851 162.922 193.201H162.772C162.06 194.701 161.31 196.238 160.522 197.738L156.247 204.638H171.135V208.876H150.885V205.088L161.197 188.288H167.835V216.038H162.697ZM173.791 216.038V212.888C181.366 206.101 185.791 200.888 185.791 196.613C185.791 193.838 184.329 192.113 181.666 192.113C179.604 192.113 177.991 193.426 176.566 195.001L173.529 192.001C176.079 189.263 178.591 187.801 182.379 187.801C187.591 187.801 191.116 191.138 191.116 196.313C191.116 201.376 186.916 206.776 181.854 211.726C183.241 211.576 185.079 211.388 186.391 211.388H192.391V216.038H173.791Z" fill="#2C2C2C"/>
<rect width="233.827" height="40.9823" transform="translate(27.0001 299.025)" fill="white"/>
<path d="M27.0001 310.632C27.0001 304.222 32.1966 299.025 38.6068 299.025H128.56C134.97 299.025 140.166 304.222 140.166 310.632V328.401C140.166 334.811 134.97 340.007 128.56 340.007H38.6068C32.1966 340.007 27.0001 334.811 27.0001 328.401V310.632Z" fill="#DFEAFF"/>
<path d="M63.7165 315.411C64.2681 315.411 64.7597 315.515 65.1914 315.723C65.6231 315.931 65.9628 316.223 66.2107 316.599C66.4585 316.966 66.5824 317.394 66.5824 317.882C66.5824 318.361 66.4585 318.785 66.2107 319.153C65.9628 319.52 65.6231 319.808 65.1914 320.016C64.7597 320.224 64.2681 320.328 63.7165 320.328C63.1649 320.328 62.6733 320.224 62.2416 320.016C61.8099 319.808 61.4662 319.52 61.2104 319.153C60.9625 318.785 60.8386 318.361 60.8386 317.882C60.8386 317.394 60.9625 316.966 61.2104 316.599C61.4662 316.223 61.8099 315.931 62.2416 315.723C62.6733 315.515 63.1649 315.411 63.7165 315.411ZM63.7165 316.431C63.3967 316.431 63.1129 316.491 62.8651 316.611C62.6173 316.73 62.4215 316.898 62.2776 317.114C62.1337 317.33 62.0617 317.582 62.0617 317.87C62.0617 318.165 62.1337 318.421 62.2776 318.637C62.4215 318.853 62.6173 319.021 62.8651 319.141C63.1129 319.253 63.3967 319.309 63.7165 319.309C64.0363 319.309 64.3201 319.253 64.5679 319.141C64.8157 319.021 65.0115 318.853 65.1554 318.637C65.2993 318.421 65.3713 318.165 65.3713 317.87C65.3713 317.582 65.2993 317.33 65.1554 317.114C65.0115 316.898 64.8117 316.73 64.5559 316.611C64.3081 316.491 64.0283 316.431 63.7165 316.431ZM68.405 315.052H69.6641V320.604H68.405V315.052ZM62.4814 321.095H69.6641V323.913H63.7405V325.412H62.5054V322.99H68.429V322.078H62.4814V321.095ZM62.5054 324.884H69.9999V325.868H62.5054V324.884ZM74.4596 315.951H75.4908V317.75C75.4908 318.413 75.4189 319.053 75.275 319.668C75.1311 320.284 74.9193 320.859 74.6395 321.395C74.3677 321.931 74.0359 322.402 73.6442 322.81C73.2605 323.218 72.8208 323.541 72.3252 323.781L71.5698 322.75C72.0094 322.55 72.4051 322.278 72.7569 321.935C73.1166 321.583 73.4204 321.183 73.6682 320.735C73.924 320.288 74.1199 319.808 74.2558 319.297C74.3917 318.785 74.4596 318.269 74.4596 317.75V315.951ZM74.6874 315.951H75.7187V317.75C75.7187 318.253 75.7826 318.749 75.9105 319.237C76.0464 319.724 76.2383 320.184 76.4861 320.616C76.7339 321.047 77.0337 321.427 77.3854 321.755C77.7372 322.082 78.1249 322.346 78.5486 322.546L77.8171 323.553C77.3295 323.322 76.8938 323.01 76.5101 322.618C76.1264 322.226 75.7986 321.775 75.5268 321.263C75.255 320.751 75.0472 320.196 74.9033 319.596C74.7594 318.997 74.6874 318.381 74.6874 317.75V315.951ZM79.4239 315.04H80.683V326.024H79.4239V315.04ZM91.2775 317.798H93.5798V318.829H91.2775V317.798ZM93.2081 315.052H94.4672V321.575H93.2081V315.052ZM90.8219 321.863C91.5893 321.863 92.2448 321.947 92.7884 322.114C93.34 322.274 93.7637 322.51 94.0595 322.822C94.3633 323.126 94.5151 323.497 94.5151 323.937C94.5151 324.593 94.1834 325.1 93.5199 325.46C92.8644 325.82 91.965 326 90.8219 326C89.6787 326 88.7754 325.82 88.1119 325.46C87.4484 325.1 87.1166 324.593 87.1166 323.937C87.1166 323.497 87.2645 323.126 87.5603 322.822C87.8641 322.51 88.2918 322.274 88.8433 322.114C89.4029 321.947 90.0624 321.863 90.8219 321.863ZM90.8219 322.822C90.3023 322.822 89.8586 322.866 89.4909 322.954C89.1311 323.042 88.8553 323.166 88.6635 323.326C88.4716 323.485 88.3757 323.689 88.3757 323.937C88.3757 324.169 88.4716 324.369 88.6635 324.537C88.8553 324.705 89.1311 324.832 89.4909 324.92C89.8586 325 90.3023 325.04 90.8219 325.04C91.3415 325.04 91.7812 325 92.1409 324.92C92.5006 324.832 92.7764 324.705 92.9683 324.537C93.1681 324.369 93.2681 324.169 93.2681 323.937C93.2681 323.689 93.1681 323.485 92.9683 323.326C92.7764 323.166 92.5006 323.042 92.1409 322.954C91.7812 322.866 91.3415 322.822 90.8219 322.822ZM88.0639 316.155H89.0952V316.946C89.0952 317.634 88.9712 318.281 88.7234 318.889C88.4836 319.488 88.1359 320.02 87.6802 320.484C87.2245 320.939 86.6729 321.283 86.0254 321.515L85.3899 320.52C85.8136 320.368 86.1893 320.168 86.5171 319.92C86.8528 319.672 87.1366 319.388 87.3684 319.069C87.6003 318.749 87.7721 318.409 87.8841 318.049C88.004 317.69 88.0639 317.322 88.0639 316.946V316.155ZM88.3157 316.155H89.335V316.946C89.335 317.394 89.4349 317.834 89.6348 318.265C89.8346 318.697 90.1264 319.085 90.5101 319.428C90.8938 319.764 91.3615 320.032 91.9131 320.232L91.2895 321.215C90.658 320.991 90.1184 320.668 89.6707 320.244C89.2311 319.812 88.8953 319.313 88.6635 318.745C88.4316 318.169 88.3157 317.57 88.3157 316.946V316.155ZM85.7496 315.783H91.6133V316.802H85.7496V315.783ZM99.2027 316.682H100.21V318.217C100.21 318.825 100.138 319.42 99.9942 320.004C99.8503 320.58 99.6384 321.123 99.3586 321.635C99.0868 322.146 98.7591 322.598 98.3754 322.99C97.9916 323.382 97.5679 323.693 97.1043 323.925L96.3728 322.93C96.7965 322.73 97.1802 322.462 97.524 322.126C97.8757 321.791 98.1755 321.411 98.4233 320.987C98.6711 320.556 98.863 320.104 98.9989 319.632C99.1348 319.161 99.2027 318.689 99.2027 318.217V316.682ZM99.4665 316.682H100.474V318.217C100.474 318.673 100.542 319.125 100.678 319.572C100.814 320.02 101.005 320.444 101.253 320.843C101.501 321.243 101.797 321.599 102.141 321.911C102.484 322.222 102.872 322.47 103.304 322.654L102.608 323.649C102.129 323.433 101.697 323.142 101.313 322.774C100.929 322.406 100.598 321.983 100.318 321.503C100.046 321.015 99.8343 320.496 99.6824 319.944C99.5385 319.384 99.4665 318.809 99.4665 318.217V316.682ZM96.7685 316.131H102.908V317.174H96.7685V316.131ZM104.179 315.052H105.438V326.012H104.179V315.052Z" fill="#1777E9"/>
<path d="M147.661 310.632C147.661 304.222 152.857 299.025 159.267 299.025H249.22C255.631 299.025 260.827 304.222 260.827 310.632V328.401C260.827 334.811 255.631 340.007 249.22 340.007H159.267C152.857 340.007 147.661 334.811 147.661 328.401V310.632Z" fill="#DFEAFF"/>
<path d="M190.114 315.052H191.373V323.11H190.114V315.052ZM187.967 318.337H190.33V319.368H187.967V318.337ZM186.708 315.879H188.027C188.027 316.846 187.823 317.726 187.416 318.517C187.008 319.301 186.424 319.98 185.665 320.556C184.914 321.131 184.014 321.591 182.967 321.935L182.439 320.927C183.311 320.648 184.066 320.284 184.706 319.836C185.345 319.388 185.837 318.877 186.181 318.301C186.532 317.726 186.708 317.098 186.708 316.419V315.879ZM183.003 315.879H187.512V316.898H183.003V315.879ZM184.334 324.764H191.649V325.784H184.334V324.764ZM184.334 322.294H185.605V325.328H184.334V322.294ZM201.169 315.04H202.428V326.024H201.169V315.04ZM197.991 318.565H201.564V319.584H197.991V318.565ZM193.902 316.251H195.149V323.05H193.902V316.251ZM193.902 322.354H194.789C195.333 322.354 195.873 322.342 196.408 322.318C196.944 322.294 197.483 322.25 198.027 322.186C198.571 322.122 199.122 322.035 199.682 321.923L199.826 322.954C199.242 323.066 198.67 323.158 198.111 323.23C197.559 323.294 197.008 323.342 196.456 323.374C195.904 323.397 195.349 323.409 194.789 323.409H193.902V322.354ZM207.403 321.383H208.662V325.664H207.403V321.383ZM212.259 315.052H213.519V326.012H212.259V315.052ZM204.453 322.031L204.297 320.987C205.025 320.987 205.8 320.987 206.624 320.987C207.455 320.979 208.298 320.955 209.154 320.915C210.009 320.867 210.844 320.795 211.66 320.699L211.744 321.635C210.896 321.763 210.049 321.855 209.202 321.911C208.354 321.967 207.531 322.003 206.732 322.019C205.932 322.027 205.173 322.031 204.453 322.031ZM208.326 318.817H211.3V319.812H208.326V318.817ZM208.326 315.819H211.228V316.838H209.561V319.273H208.326V315.819ZM204.933 315.819H207.775V316.838H206.18V319.321H204.933V315.819ZM204.933 318.817H205.46C205.86 318.817 206.252 318.805 206.636 318.781C207.019 318.757 207.435 318.697 207.883 318.601L207.979 319.596C207.515 319.7 207.083 319.764 206.684 319.788C206.284 319.804 205.876 319.812 205.46 319.812H204.933V318.817ZM223.182 315.04H224.441V326H223.182V315.04ZM219.957 316.203H221.204C221.204 317.018 221.116 317.798 220.94 318.541C220.764 319.285 220.476 319.992 220.077 320.664C219.685 321.327 219.165 321.943 218.518 322.51C217.878 323.078 217.087 323.589 216.144 324.045L215.472 323.05C216.535 322.538 217.395 321.955 218.05 321.299C218.706 320.644 219.185 319.912 219.489 319.105C219.801 318.289 219.957 317.394 219.957 316.419V316.203ZM216.012 316.203H220.52V317.21H216.012V316.203Z" fill="#1777E9"/>
<path d="M27 369.601C27 363.191 32.1965 357.994 38.6067 357.994H249.22C255.63 357.994 260.827 363.191 260.827 369.601V387.607C260.827 394.017 255.63 399.214 249.22 399.214H38.6067C32.1965 399.214 27 394.017 27 387.607V369.601Z" fill="#1777E9"/>
<path d="M124.639 378.636H125.898V380.303H124.639V378.636ZM125.251 374.619C126.833 374.619 127.961 375.506 127.961 376.813C127.961 378.108 126.833 378.996 125.251 378.996C123.668 378.996 122.529 378.108 122.529 376.813C122.529 375.506 123.668 374.619 125.251 374.619ZM125.251 375.566C124.339 375.566 123.704 376.046 123.704 376.813C123.704 377.569 124.339 378.048 125.251 378.048C126.162 378.048 126.785 377.569 126.785 376.813C126.785 376.046 126.162 375.566 125.251 375.566ZM129.28 374.151H130.539V382.521H129.28V374.151ZM130.059 377.737H132.038V378.768H130.059V377.737ZM123.44 383.852H130.922V384.871H123.44V383.852ZM123.44 381.802H124.699V384.296H123.44V381.802ZM122.085 380.986L121.929 379.967C123.824 379.967 126.45 379.955 128.644 379.619L128.728 380.53C126.474 380.95 123.932 380.986 122.085 380.986ZM135.646 380.542H136.881V383.192H135.646V380.542ZM139.135 380.53H140.358V383.181H139.135V380.53ZM132.996 382.785H142.925V383.816H132.996V382.785ZM134.159 374.907H141.737V378.36H135.43V380.411H134.183V377.365H140.49V375.914H134.159V374.907ZM134.183 379.871H141.989V380.89H134.183V379.871ZM151.269 374.139H152.517V385.099H151.269V374.139ZM152.229 378.54H154.219V379.583H152.229V378.54ZM143.967 375.83H150.394V376.837H143.967V375.83ZM147.216 377.629C148.775 377.629 149.926 378.684 149.926 380.183C149.926 381.694 148.775 382.749 147.216 382.749C145.646 382.749 144.494 381.694 144.494 380.183C144.494 378.684 145.646 377.629 147.216 377.629ZM147.216 378.66C146.329 378.66 145.694 379.259 145.694 380.183C145.694 381.106 146.329 381.718 147.216 381.718C148.092 381.718 148.727 381.106 148.727 380.183C148.727 379.259 148.092 378.66 147.216 378.66ZM146.569 374.295H147.828V376.25H146.569V374.295ZM162.84 374.139H164.099V385.099H162.84V374.139ZM159.626 375.302H160.861C160.861 378.552 159.566 381.31 155.801 383.145L155.142 382.137C158.295 380.614 159.626 378.444 159.626 375.518V375.302ZM155.681 375.302H160.19V376.31H155.681V375.302Z" fill="white"/>
<rect width="270" height="475.5" transform="translate(9 447.2)" fill="white"/>
<path d="M26.9998 471.2C26.9998 467.887 29.6861 465.2 32.9998 465.2H255C258.314 465.2 261 467.887 261 471.2V505.7C261 509.014 258.314 511.7 255 511.7H32.9998C29.6861 511.7 26.9998 509.014 26.9998 505.7V471.2Z" fill="#F4F4F4"/>
<path d="M38.9998 494.29H50.9998V482.29H38.9998V494.29Z" fill="#2C2C2C"/>
<path d="M61.8598 489.198H63.1078V490.818H61.8598V489.198ZM57.5398 488.478H67.4518V489.474H57.5398V488.478ZM58.7998 484.326H66.1798V487.71H58.7998V484.326ZM64.9438 485.31H60.0358V486.726H64.9438V485.31ZM58.7158 490.374H66.2158V493.002H59.9758V494.166H58.7278V492.102H64.9798V491.322H58.7158V490.374ZM58.7278 493.878H66.5278V494.85H58.7278V493.878ZM68.5789 489.714H78.4909V490.71H68.5789V489.714ZM72.8989 488.406H74.1469V490.11H72.8989V488.406ZM69.8509 487.854H77.3749V488.814H69.8509V487.854ZM69.8509 484.278H77.3029V485.25H71.0989V488.394H69.8509V484.278ZM70.7389 486.066H77.0389V487.002H70.7389V486.066ZM73.5229 491.382C75.9229 491.382 77.3029 492.006 77.3029 493.158C77.3029 494.31 75.9229 494.934 73.5229 494.934C71.1229 494.934 69.7429 494.31 69.7429 493.158C69.7429 492.006 71.1229 491.382 73.5229 491.382ZM73.5229 492.318C71.8669 492.318 71.0029 492.606 71.0029 493.158C71.0029 493.722 71.8669 493.998 73.5229 493.998C75.1789 493.998 76.0429 493.722 76.0429 493.158C76.0429 492.606 75.1789 492.318 73.5229 492.318ZM80.0139 496.362L79.7139 495.582C80.5419 495.234 81.0219 494.622 81.0219 493.902L80.9259 492.798L81.5019 493.698C81.3339 493.878 81.1179 493.95 80.8899 493.95C80.3979 493.95 79.9539 493.626 79.9539 493.062C79.9539 492.51 80.3979 492.174 80.9259 492.174C81.5979 492.174 81.9939 492.726 81.9939 493.65C81.9939 494.922 81.2619 495.894 80.0139 496.362ZM85.8875 489.438H95.8235V490.446H85.8875V489.438ZM90.3035 490.086H91.5755V492.522H90.3035V490.086ZM87.1115 493.698H94.7315V494.73H87.1115V493.698ZM87.1115 491.49H88.3715V493.974H87.1115V491.49ZM90.8435 484.218C93.1835 484.218 94.7315 485.082 94.7315 486.462C94.7315 487.83 93.1835 488.694 90.8435 488.694C88.5035 488.694 86.9555 487.83 86.9555 486.462C86.9555 485.082 88.5035 484.218 90.8435 484.218ZM90.8435 485.226C89.3075 485.226 88.2995 485.682 88.2995 486.462C88.2995 487.23 89.3075 487.674 90.8435 487.674C92.3915 487.674 93.3875 487.23 93.3875 486.462C93.3875 485.682 92.3915 485.226 90.8435 485.226ZM96.9385 489.27H106.851V490.278H96.9385V489.27ZM101.271 487.566H102.519V489.678H101.271V487.566ZM98.1625 487.17H105.711V488.166H98.1625V487.17ZM98.1625 484.47H105.639V485.466H99.4105V487.782H98.1625V484.47ZM101.871 490.962C104.223 490.962 105.651 491.682 105.651 492.954C105.651 494.226 104.223 494.946 101.871 494.946C99.5185 494.946 98.0905 494.226 98.0905 492.954C98.0905 491.682 99.5185 490.962 101.871 490.962ZM101.871 491.922C100.263 491.922 99.3625 492.282 99.3625 492.954C99.3625 493.626 100.263 493.974 101.871 493.974C103.479 493.974 104.379 493.626 104.379 492.954C104.379 492.282 103.479 491.922 101.871 491.922ZM107.966 489.522H117.878V490.542H107.966V489.522ZM112.298 487.998H113.546V489.786H112.298V487.998ZM109.07 491.478H116.666V494.946H115.418V492.474H109.07V491.478ZM109.262 484.242H110.498V485.358H115.358V484.242H116.606V488.406H109.262V484.242ZM110.498 486.318V487.41H115.358V486.318H110.498ZM123.848 486.066H124.796V486.378C124.796 488.118 123.992 489.75 122.348 490.422L121.748 489.498C123.128 488.922 123.848 487.65 123.848 486.378V486.066ZM124.1 486.066H125.036V486.378C125.036 487.554 125.768 488.742 127.136 489.246L126.572 490.194C124.916 489.57 124.1 488.034 124.1 486.378V486.066ZM122 485.37H126.848V486.354H122V485.37ZM123.848 484.182H125.036V485.85H123.848V484.182ZM129.8 483.99H130.988V490.806H129.8V483.99ZM128.24 486.786H130.16V487.818H128.24V486.786ZM127.484 484.194H128.66V490.41H127.484V484.194ZM127.34 490.938C129.62 490.938 131.048 491.682 131.048 492.942C131.048 494.202 129.62 494.946 127.34 494.946C125.048 494.946 123.632 494.202 123.632 492.942C123.632 491.682 125.048 490.938 127.34 490.938ZM127.34 491.91C125.792 491.91 124.868 492.27 124.868 492.942C124.868 493.614 125.792 493.974 127.34 493.974C128.876 493.974 129.788 493.614 129.788 492.942C129.788 492.27 128.876 491.91 127.34 491.91ZM140.539 483.978H141.799V494.946H140.539V483.978ZM137.323 485.142H138.559C138.559 488.394 137.263 491.154 133.495 492.99L132.835 491.982C135.991 490.458 137.323 488.286 137.323 485.358V485.142ZM133.375 485.142H137.887V486.15H133.375V485.142ZM151.578 483.978H152.838V494.946H151.578V483.978ZM148.362 485.142H149.598C149.598 488.394 148.302 491.154 144.534 492.99L143.874 491.982C147.03 490.458 148.362 488.286 148.362 485.358V485.142ZM144.414 485.142H148.926V486.15H144.414V485.142Z" fill="#808080" fill-opacity="0.55"/>
<path d="M56.9998 490.05H154.278V490.65H56.9998V490.05Z" fill="#808080" fill-opacity="0.55"/>
<path d="M163.814 493.097C162.596 493.097 161.829 492.604 161.273 492.058L161.861 491.27C162.291 491.711 162.858 492.1 163.667 492.1C164.538 492.1 165.189 491.48 165.189 490.451C165.189 489.433 164.601 488.845 163.719 488.845C163.236 488.845 162.942 488.981 162.491 489.275L161.892 488.897L162.123 485.222H166.05V486.251H163.184L163.005 488.225C163.331 488.057 163.646 487.963 164.066 487.963C165.357 487.963 166.418 488.719 166.418 490.42C166.418 492.121 165.158 493.097 163.814 493.097ZM167.461 489.223H176.155V490.105H167.461V489.223ZM171.346 489.685H172.438V491.806H171.346V489.685ZM168.521 492.74H175.189V493.633H168.521V492.74ZM168.521 491.008H169.613V493.097H168.521V491.008ZM168.595 484.529H169.676V485.642H173.929V484.529H175.021V488.414H168.595V484.529ZM169.676 486.482V487.543H173.929V486.482H169.676Z" fill="#808080" fill-opacity="0.55"/>
<path d="M161 489.538H176.648V490.063H161V489.538Z" fill="#808080" fill-opacity="0.55"/>
<g clip-path="url(#clip2_649_8552)">
<path d="M235.875 482.825L234.553 484.147L238.847 488.45L234.553 492.753L235.875 494.075L241.5 488.45L235.875 482.825Z" fill="#D9D9D9"/>
</g>
<path d="M27 529.7C27 526.387 29.6863 523.7 33 523.7H255C258.314 523.7 261 526.387 261 529.7V564.2C261 567.514 258.314 570.2 255 570.2H33C29.6863 570.2 27 567.514 27 564.2V529.7Z" fill="#F4F4F4"/>
<path d="M39 552.79H51V540.79H39V552.79Z" fill="#2C2C2C"/>
<path d="M64.836 542.478H66.108V550.422H64.836V542.478ZM65.736 545.682H67.656V546.726H65.736V545.682ZM61.824 543.318H63.156C63.156 546.21 61.248 548.286 58.044 549.258L57.516 548.25C60.24 547.446 61.824 545.85 61.824 543.906V543.318ZM57.972 543.318H62.484V544.338H57.972V543.318ZM59.16 552.21H66.54V553.23H59.16V552.21ZM59.16 549.618H60.42V552.642H59.16V549.618ZM75.8871 542.478H77.1471V550.41H75.8871V542.478ZM76.7751 545.61H78.6951V546.654H76.7751V545.61ZM69.0471 547.518H69.9231C72.2391 547.518 73.4631 547.458 74.8671 547.158L74.9991 548.166C73.5591 548.478 72.2871 548.538 69.9231 548.538H69.0471V547.518ZM69.0471 543.39H73.9191V544.41H70.2951V548.058H69.0471V543.39ZM70.2111 552.21H77.5911V553.23H70.2111V552.21ZM70.2111 549.594H71.4711V552.702H70.2111V549.594ZM86.9261 542.49H88.1861V550.698H86.9261V542.49ZM87.8141 545.97H89.7341V547.014H87.8141V545.97ZM79.6421 543.738H86.0981V544.734H79.6421V543.738ZM82.8701 545.238C84.4301 545.238 85.5221 546.078 85.5221 547.314C85.5221 548.562 84.4301 549.39 82.8701 549.39C81.2981 549.39 80.2061 548.562 80.2061 547.314C80.2061 546.078 81.2981 545.238 82.8701 545.238ZM82.8701 546.21C82.0061 546.21 81.4181 546.63 81.4181 547.314C81.4181 548.01 82.0061 548.418 82.8701 548.418C83.7341 548.418 84.3221 548.01 84.3221 547.314C84.3221 546.63 83.7341 546.21 82.8701 546.21ZM82.2461 542.478H83.4941V544.23H82.2461V542.478ZM81.2501 552.21H88.6301V553.23H81.2501V552.21ZM81.2501 550.062H82.5101V552.642H81.2501V550.062ZM97.6125 543.174H98.7045V544.002C98.7045 546.378 96.7125 548.346 94.2405 548.874L93.6885 547.83C95.8605 547.434 97.6125 545.73 97.6125 544.002V543.174ZM97.8525 543.174H98.9445V544.002C98.9445 545.754 100.697 547.434 102.869 547.83L102.317 548.874C99.8445 548.346 97.8525 546.402 97.8525 544.002V543.174ZM93.3645 550.998H103.301V552.03H93.3645V550.998ZM105.628 548.274H113.236V549.27H105.628V548.274ZM104.404 551.07H114.34V552.102H104.404V551.07ZM105.628 543.354H113.128V544.374H106.9V548.562H105.628V543.354ZM106.504 545.79H112.888V546.774H106.504V545.79ZM115.767 549.774H116.523C117.855 549.774 119.055 549.738 120.495 549.486L120.603 550.506C119.127 550.77 117.891 550.806 116.523 550.806H115.767V549.774ZM115.743 543.63H119.643V547.614H116.991V550.182H115.767V546.606H118.431V544.638H115.743V543.63ZM123.591 542.478H124.791V553.446H123.591V542.478ZM120.135 546.318H121.875V547.35H120.135V546.318ZM121.371 542.718H122.535V552.894H121.371V542.718ZM129.314 544.302H130.346V544.746C130.346 546.678 129.206 548.334 127.226 548.934L126.638 547.962C128.342 547.434 129.314 546.126 129.314 544.746V544.302ZM129.542 544.302H130.562V544.746C130.562 546.03 131.57 547.242 133.274 547.698L132.698 548.694C130.718 548.13 129.542 546.582 129.542 544.746V544.302ZM126.95 543.738H132.926V544.734H126.95V543.738ZM129.314 542.49H130.574V544.182H129.314V542.49ZM134.258 542.49H135.518V549.15H134.258V542.49ZM131.846 549.366C134.15 549.366 135.566 550.11 135.566 551.394C135.566 552.69 134.15 553.434 131.846 553.434C129.542 553.434 128.138 552.69 128.138 551.394C128.138 550.11 129.542 549.366 131.846 549.366ZM131.846 550.338C130.286 550.338 129.398 550.71 129.398 551.394C129.398 552.09 130.286 552.462 131.846 552.462C133.406 552.462 134.306 552.09 134.306 551.394C134.306 550.71 133.406 550.338 131.846 550.338Z" fill="#2C2C2C"/>
<path d="M143.893 551.45V550.453H145.594V545.077H144.197V544.31C144.932 544.184 145.436 543.995 145.888 543.722H146.801V550.453H148.313V551.45H143.893ZM151.981 551.597C150.458 551.597 149.482 550.243 149.482 547.555C149.482 544.888 150.458 543.586 151.981 543.586C153.493 543.586 154.48 544.888 154.48 547.555C154.48 550.243 153.493 551.597 151.981 551.597ZM151.981 550.631C152.768 550.631 153.314 549.791 153.314 547.555C153.314 545.35 152.768 544.531 151.981 544.531C151.193 544.531 150.637 545.35 150.637 547.555C150.637 549.791 151.193 550.631 151.981 550.631ZM155.449 547.723H164.143V548.605H155.449V547.723ZM159.334 548.185H160.426V550.306H159.334V548.185ZM156.51 551.24H163.177V552.133H156.51V551.24ZM156.51 549.508H157.602V551.597H156.51V549.508ZM156.583 543.029H157.665V544.142H161.917V543.029H163.009V546.914H156.583V543.029ZM157.665 544.982V546.043H161.917V544.982H157.665Z" fill="#676767"/>
<g clip-path="url(#clip3_649_8552)">
<path d="M235.875 541.325L234.553 542.647L238.847 546.95L234.553 551.253L235.875 552.575L241.5 546.95L235.875 541.325Z" fill="#D9D9D9"/>
</g>
<path d="M27 588.2C27 584.886 29.6863 582.2 33 582.2H255C258.314 582.2 261 584.886 261 588.2V622.7C261 626.014 258.314 628.7 255 628.7H33C29.6863 628.7 27 626.014 27 622.7V588.2Z" fill="#F4F4F4"/>
</g>
<rect x="4.84615" y="4.49996" width="278.308" height="590.365" rx="22.8462" stroke="#E5E5E5" stroke-width="8.30769"/>
<defs>
<clipPath id="clip0_649_8552">
<rect x="9" y="8.65381" width="270" height="582.058" rx="18.6923" fill="white"/>
</clipPath>
<clipPath id="clip1_649_8552">
<rect width="31.1538" height="31.1538" fill="white" transform="translate(222.923 25.2692)"/>
</clipPath>
<clipPath id="clip2_649_8552">
<rect width="22.5" height="22.5" fill="white" transform="translate(226.5 477.2)"/>
</clipPath>
<clipPath id="clip3_649_8552">
<rect width="22.5" height="22.5" fill="white" transform="translate(226.5 535.7)"/>
</clipPath>
</defs>
</svg>
