<svg width="282" height="580" viewBox="0 0 282 580" fill="none" xmlns="http://www.w3.org/2000/svg">
<g clip-path="url(#clip0_649_9010)">
<rect x="6" y="6.71143" width="270" height="567" rx="13.5" fill="white"/>
<rect width="270" height="72" transform="translate(5.99988 18.7114)" fill="white"/>
<rect x="5.99988" y="18.7114" width="270" height="36" fill="white"/>
<path d="M129.501 37.4754H139.413V38.4714H129.501V37.4754ZM133.833 36.1674H135.081V37.8594H133.833V36.1674ZM130.773 35.6034H138.309V36.5754H130.773V35.6034ZM130.773 32.0274H138.237V32.9994H132.033V36.1434H130.773V32.0274ZM131.661 33.8154H137.961V34.7514H131.661V33.8154ZM134.445 39.1434C135.645 39.1434 136.573 39.2954 137.229 39.5994C137.893 39.8954 138.225 40.3354 138.225 40.9194C138.225 41.4954 137.893 41.9314 137.229 42.2274C136.573 42.5314 135.645 42.6834 134.445 42.6834C133.253 42.6834 132.325 42.5314 131.661 42.2274C131.005 41.9314 130.677 41.4954 130.677 40.9194C130.677 40.3354 131.005 39.8954 131.661 39.5994C132.325 39.2954 133.253 39.1434 134.445 39.1434ZM134.445 40.0794C133.621 40.0794 132.997 40.1514 132.573 40.2954C132.149 40.4314 131.937 40.6394 131.937 40.9194C131.937 41.1994 132.149 41.4114 132.573 41.5554C132.997 41.6914 133.621 41.7594 134.445 41.7594C135.277 41.7594 135.905 41.6914 136.329 41.5554C136.753 41.4114 136.965 41.1994 136.965 40.9194C136.965 40.6394 136.753 40.4314 136.329 40.2954C135.905 40.1514 135.277 40.0794 134.445 40.0794ZM144.8 34.7154H147.128V35.7234H144.8V34.7154ZM144.716 37.4514H147.104V38.4714H144.716V37.4514ZM148.724 31.7274H149.924V42.6954H148.724V31.7274ZM146.492 31.9914H147.68V42.1674H146.492V31.9914ZM144.044 33.0714H145.244C145.244 34.0714 145.116 35.0154 144.86 35.9034C144.604 36.7834 144.176 37.5994 143.576 38.3514C142.984 39.1034 142.192 39.7794 141.2 40.3794L140.48 39.4794C141.32 38.9754 142 38.4114 142.52 37.7874C143.048 37.1634 143.432 36.4794 143.672 35.7354C143.92 34.9914 144.044 34.1874 144.044 33.3234V33.0714ZM141.02 33.0714H144.488V34.0914H141.02V33.0714Z" fill="black"/>
<rect width="135" height="36" transform="translate(5.99988 54.7114)" fill="white"/>
<path d="M66.1189 68.4229H67.5259V78.1459H66.1189V68.4229ZM63.2524 69.4309H64.6384C64.6384 72.4024 63.6304 74.8384 60.1759 76.5079L59.4514 75.3949C62.2444 74.0509 63.2524 72.2869 63.2524 69.6829V69.4309ZM59.9659 69.4309H63.9139V70.5334H59.9659V69.4309ZM75.3266 68.4229H76.7336V75.3844H75.3266V68.4229ZM76.3346 71.1319H78.0251V72.2764H76.3346V71.1319ZM72.6176 69.1474H74.1086C74.1086 71.7934 72.4916 73.6099 69.5936 74.4499L69.0056 73.3369C71.3891 72.6859 72.6176 71.3839 72.6176 69.8404V69.1474ZM69.4256 69.1474H73.3736V70.2709H69.4256V69.1474ZM70.4441 76.8649H77.0591V77.9779H70.4441V76.8649ZM70.4441 74.6809H71.8511V77.3584H70.4441V74.6809ZM83.4317 69.6409H85.7837V70.6909H83.4317V69.6409ZM83.4317 71.4154H85.7837V72.4654H83.4317V71.4154ZM85.4792 68.4229H86.8757V73.4104H85.4792V68.4229ZM80.4497 73.7884H86.8757V76.3924H81.8462V77.6209H80.4602V75.3844H85.4897V74.8594H80.4497V73.7884ZM80.4602 76.9594H87.1487V78.0409H80.4602V76.9594ZM79.1477 68.8219H80.5337V69.9559H82.3817V68.8219H83.7467V73.1479H79.1477V68.8219ZM80.5337 71.0059V72.0559H82.3817V71.0059H80.5337Z" fill="#1777E9"/>
<rect x="5.99988" y="87.7114" width="135" height="3" fill="#1777E9"/>
<rect width="135" height="36" transform="translate(141 54.7114)" fill="white"/>
<path d="M195.543 68.9164H202.074V71.3944H196.446V73.0324H195.564V70.7224H201.203V69.6199H195.543V68.9164ZM195.564 72.6019H202.295V73.3159H195.564V72.6019ZM194.514 74.2924H203.124V75.0169H194.514V74.2924ZM198.368 74.5654H199.229V78.0409H198.368V74.5654ZM211.083 68.5489H211.965V75.5944H211.083V68.5489ZM205.864 77.1064H212.248V77.8204H205.864V77.1064ZM205.864 74.9854H206.725V77.4844H205.864V74.9854ZM204.73 73.3369H205.497C207.544 73.3369 208.668 73.2949 210.001 73.0639L210.096 73.7674C208.72 73.9984 207.565 74.0404 205.497 74.0404H204.73V73.3369ZM204.73 69.2839H209.245V69.9979H205.591V73.5049H204.73V69.2839ZM205.308 71.2789H208.983V71.9824H205.308V71.2789ZM218.316 69.8824H220.994V70.5649H218.316V69.8824ZM218.316 71.6149H220.994V72.2974H218.316V71.6149ZM220.773 68.5384H221.645V73.4839H220.773V68.5384ZM215.534 73.9564H221.645V76.2034H216.405V77.6629H215.555V75.5524H220.784V74.6494H215.534V73.9564ZM215.555 77.2114H221.991V77.9044H215.555V77.2114ZM214.305 68.9689H215.166V70.3339H217.739V68.9689H218.589V73.1164H214.305V68.9689ZM215.166 71.0164V72.4129H217.739V71.0164H215.166Z" fill="#909090"/>
<rect width="270" height="150" transform="translate(6 90.7114)" fill="white"/>
<path d="M27.9448 116.346H29.5348V117.906C29.5348 121.116 28.2298 124.251 25.6198 125.436L24.4948 123.861C26.8198 122.826 27.9448 120.261 27.9448 117.906V116.346ZM28.3948 116.346H29.9698V117.906C29.9698 120.156 31.0798 122.556 33.4048 123.516L32.3248 125.091C29.6848 123.951 28.3948 120.996 28.3948 117.906V116.346ZM25.0498 115.491H32.8348V117.126H25.0498V115.491ZM34.1248 114.156H36.1348V128.046H34.1248V114.156ZM39.9436 114.771H48.7486V116.361H39.9436V114.771ZM38.4136 119.766H50.9836V121.356H38.4136V119.766ZM47.5486 114.771H49.5136V115.881C49.5136 117.081 49.5136 118.371 49.0936 120.171L47.1136 120.141C47.5486 118.341 47.5486 117.066 47.5486 115.881V114.771ZM39.8836 122.811H49.4536V127.896H39.8836V122.811ZM47.4886 124.356H41.8336V126.321H47.4886V124.356ZM61.2425 114.156H63.2375V128.046H61.2425V114.156ZM62.6225 119.586H65.0375V121.236H62.6225V119.586ZM54.4325 115.566H56.2925C56.2925 119.421 55.9325 122.376 53.4725 125.136L51.9125 124.011C54.0575 121.641 54.4325 119.331 54.4325 115.806V115.566ZM52.5275 115.566H55.2125V117.186H52.5275V115.566ZM58.2575 115.566H60.1175C60.1175 119.601 59.7875 123.006 57.3725 126.021L55.8125 124.911C57.9125 122.256 58.2575 119.586 58.2575 115.791V115.566ZM56.7575 115.566H59.0825V117.186H56.7575V115.566ZM69.3413 116.346H70.9313V117.906C70.9313 121.116 69.6263 124.251 67.0163 125.436L65.8913 123.861C68.2163 122.826 69.3413 120.261 69.3413 117.906V116.346ZM69.7913 116.346H71.3663V117.906C71.3663 120.156 72.4763 122.556 74.8013 123.516L73.7213 125.091C71.0813 123.951 69.7913 120.996 69.7913 117.906V116.346ZM66.4463 115.491H74.2313V117.126H66.4463V115.491ZM75.5213 114.156H77.5313V128.046H75.5213V114.156ZM149.097 120.681H161.667V122.271H149.097V120.681ZM154.392 118.596H156.372V121.296H154.392V118.596ZM150.612 117.966H160.242V119.541H150.612V117.966ZM150.612 114.756H160.167V116.316H152.592V118.971H150.612V114.756ZM155.337 122.961C158.337 122.961 160.152 123.876 160.152 125.511C160.152 127.146 158.337 128.061 155.337 128.061C152.337 128.061 150.507 127.146 150.507 125.511C150.507 123.876 152.337 122.961 155.337 122.961ZM155.337 124.461C153.477 124.461 152.532 124.806 152.532 125.511C152.532 126.231 153.477 126.546 155.337 126.546C157.197 126.546 158.142 126.231 158.142 125.511C158.142 124.806 157.197 124.461 155.337 124.461ZM171.821 114.156H173.816V124.251H171.821V114.156ZM173.246 118.131H175.661V119.766H173.246V118.131ZM164.861 126.216H174.311V127.806H164.861V126.216ZM164.861 123.201H166.856V126.921H164.861V123.201ZM166.751 115.041C168.881 115.041 170.531 116.526 170.531 118.581C170.531 120.621 168.881 122.106 166.751 122.106C164.621 122.106 162.971 120.621 162.971 118.581C162.971 116.526 164.621 115.041 166.751 115.041ZM166.751 116.781C165.731 116.781 164.921 117.441 164.921 118.581C164.921 119.706 165.731 120.366 166.751 120.366C167.786 120.366 168.581 119.706 168.581 118.581C168.581 117.441 167.786 116.781 166.751 116.781ZM26.0398 136.591H35.7298V140.731H28.0948V142.846H26.0698V139.246H33.7048V138.181H26.0398V136.591ZM26.0698 141.871H36.0748V143.446H26.0698V141.871ZM24.5998 144.466H37.1848V146.071H24.5998V144.466ZM29.8648 145.051H31.8598V150.076H29.8648V145.051ZM47.9386 136.171H49.9486V146.431H47.9386V136.171ZM40.6936 148.216H50.2936V149.806H40.6936V148.216ZM40.6936 145.546H42.6886V149.221H40.6936V145.546ZM39.1636 142.906H40.3486C43.2136 142.906 44.8786 142.876 46.7836 142.561L46.9786 144.106C45.0286 144.436 43.2736 144.481 40.3486 144.481H39.1636V142.906ZM39.1636 137.206H45.8386V138.796H41.1436V143.146H39.1636V137.206ZM40.5286 140.056H45.4336V141.601H40.5286V140.056ZM58.4825 136.351C61.6475 136.351 63.5075 137.191 63.5075 138.721C63.5075 140.251 61.6475 141.091 58.4825 141.091C55.3025 141.091 53.4575 140.251 53.4575 138.721C53.4575 137.191 55.3025 136.351 58.4825 136.351ZM58.4825 137.806C56.4725 137.806 55.5275 138.106 55.5275 138.721C55.5275 139.366 56.4725 139.636 58.4825 139.636C60.4925 139.636 61.4375 139.366 61.4375 138.721C61.4375 138.106 60.4925 137.806 58.4825 137.806ZM52.1975 141.736H64.7525V143.311H52.1975V141.736ZM53.6375 144.091H63.2375V147.661H55.6175V148.891H53.6525V146.281H61.2725V145.576H53.6375V144.091ZM53.6525 148.456H63.5975V149.956H53.6525V148.456ZM70.0097 148.711V146.926H72.4097V139.906H70.3847V138.541C71.5097 138.331 72.2597 138.046 72.9797 137.611H74.6147V146.926H76.6997V148.711H70.0097ZM82.0674 148.921C79.8024 148.921 78.3024 146.956 78.3024 143.116C78.3024 139.291 79.8024 137.416 82.0674 137.416C84.3174 137.416 85.8174 139.291 85.8174 143.116C85.8174 146.956 84.3174 148.921 82.0674 148.921ZM82.0674 147.196C83.0274 147.196 83.7324 146.236 83.7324 143.116C83.7324 140.011 83.0274 139.111 82.0674 139.111C81.1074 139.111 80.3874 140.011 80.3874 143.116C80.3874 146.236 81.1074 147.196 82.0674 147.196ZM90.9151 148.921C88.6501 148.921 87.1501 146.956 87.1501 143.116C87.1501 139.291 88.6501 137.416 90.9151 137.416C93.1651 137.416 94.6651 139.291 94.6651 143.116C94.6651 146.956 93.1651 148.921 90.9151 148.921ZM90.9151 147.196C91.8751 147.196 92.5801 146.236 92.5801 143.116C92.5801 140.011 91.8751 139.111 90.9151 139.111C89.9551 139.111 89.2351 140.011 89.2351 143.116C89.2351 146.236 89.9551 147.196 90.9151 147.196ZM98.5177 144.451C96.9277 144.451 95.8027 143.131 95.8027 140.911C95.8027 138.691 96.9277 137.416 98.5177 137.416C100.108 137.416 101.233 138.691 101.233 140.911C101.233 143.131 100.108 144.451 98.5177 144.451ZM98.5177 143.206C99.1627 143.206 99.6577 142.531 99.6577 140.911C99.6577 139.276 99.1627 138.661 98.5177 138.661C97.8577 138.661 97.3627 139.276 97.3627 140.911C97.3627 142.531 97.8577 143.206 98.5177 143.206ZM98.8777 148.921L104.908 137.416H106.228L100.183 148.921H98.8777ZM106.588 148.921C105.013 148.921 103.888 147.616 103.888 145.381C103.888 143.161 105.013 141.871 106.588 141.871C108.163 141.871 109.288 143.161 109.288 145.381C109.288 147.616 108.163 148.921 106.588 148.921ZM106.588 147.676C107.233 147.676 107.743 147.016 107.743 145.381C107.743 143.746 107.233 143.131 106.588 143.131C105.943 143.131 105.433 143.746 105.433 145.381C105.433 147.016 105.943 147.676 106.588 147.676ZM114.26 141.196H115.415C118.31 141.196 119.885 141.106 121.64 140.746L121.85 142.291C120.065 142.696 118.385 142.756 115.415 142.756H114.26V141.196ZM114.26 136.876H120.47V138.436H116.24V142.066H114.26V136.876ZM122.72 136.156H124.715V143.056H122.72V136.156ZM124.16 138.766H126.56V140.386H124.16V138.766ZM115.535 143.626H124.715V147.466H117.545V149.131H115.565V145.996H122.75V145.186H115.535V143.626ZM115.565 148.321H125.12V149.896H115.565V148.321ZM130.803 136.876H132.468V138.121C132.468 140.911 131.223 143.356 128.493 144.271L127.458 142.666C129.828 141.901 130.803 140.026 130.803 138.121V136.876ZM131.223 136.876H132.828V138.031C132.828 139.876 133.728 141.586 135.933 142.291L134.898 143.851C132.333 142.966 131.223 140.731 131.223 138.031V136.876ZM137.208 136.156H139.203V144.286H137.208V136.156ZM134.493 144.646C137.433 144.646 139.248 145.651 139.248 147.346C139.248 149.056 137.433 150.046 134.493 150.046C131.553 150.046 129.738 149.056 129.738 147.346C129.738 145.651 131.553 144.646 134.493 144.646ZM134.493 146.191C132.693 146.191 131.733 146.566 131.733 147.346C131.733 148.126 132.693 148.516 134.493 148.516C136.308 148.516 137.268 148.126 137.268 147.346C137.268 146.566 136.308 146.191 134.493 146.191ZM134.673 138.676H137.493V140.296H134.673V138.676ZM151.322 136.171H153.212V144.706H151.322V136.171ZM149.627 139.711H151.847V141.316H149.627V139.711ZM148.457 136.351H150.317V144.571H148.457V136.351ZM141.317 137.491H148.052V139.036H141.317V137.491ZM144.707 139.456C146.447 139.456 147.707 140.446 147.707 141.886C147.707 143.326 146.447 144.316 144.707 144.316C142.967 144.316 141.707 143.326 141.707 141.886C141.707 140.446 142.967 139.456 144.707 139.456ZM144.707 140.896C143.972 140.896 143.477 141.241 143.477 141.886C143.477 142.531 143.972 142.891 144.707 142.891C145.427 142.891 145.922 142.531 145.922 141.886C145.922 141.241 145.427 140.896 144.707 140.896ZM143.702 136.246H145.667V138.586H143.702V136.246ZM144.722 145.156H146.222V145.426C146.222 147.391 145.262 149.176 143.072 149.881L142.157 148.411C143.942 147.886 144.722 146.641 144.722 145.426V145.156ZM145.247 145.156H146.672V145.426C146.672 146.656 147.332 147.931 148.997 148.546L148.202 150.016C146.042 149.266 145.247 147.331 145.247 145.426V145.156ZM149.732 145.156H151.157V145.426C151.157 147.211 150.347 149.236 148.202 150.016L147.422 148.546C149.042 147.871 149.732 146.551 149.732 145.426V145.156ZM150.227 145.156H151.712V145.426C151.712 146.716 152.477 147.931 154.292 148.411L153.362 149.881C151.142 149.206 150.227 147.466 150.227 145.426V145.156ZM158.986 137.116C161.056 137.116 162.571 139.036 162.571 142.066C162.571 145.126 161.056 147.046 158.986 147.046C156.901 147.046 155.401 145.126 155.401 142.066C155.401 139.036 156.901 137.116 158.986 137.116ZM158.986 138.931C157.981 138.931 157.306 140.026 157.306 142.066C157.306 144.136 157.981 145.246 158.986 145.246C160.006 145.246 160.666 144.136 160.666 142.066C160.666 140.026 160.006 138.931 158.986 138.931ZM164.851 136.141H166.831V150.076H164.851V136.141ZM161.986 141.151H165.691V142.756H161.986V141.151ZM171.75 143.206H173.73V147.106H171.75V143.206ZM176.79 143.206H178.785V147.106H176.79V143.206ZM168.99 146.821H181.56V148.441H168.99V146.821ZM175.26 136.831C178.245 136.831 180.45 138.301 180.45 140.566C180.45 142.831 178.245 144.286 175.26 144.286C172.26 144.286 170.07 142.831 170.07 140.566C170.07 138.301 172.26 136.831 175.26 136.831ZM175.26 138.391C173.325 138.391 172.035 139.186 172.035 140.566C172.035 141.931 173.325 142.741 175.26 142.741C177.195 142.741 178.485 141.931 178.485 140.566C178.485 139.186 177.195 138.391 175.26 138.391Z" fill="#2C2C2C"/>
<path d="M89.4786 116.091H93.5586V117.681H89.4786V116.091ZM89.4786 119.466H93.5586V121.056H89.4786V119.466ZM92.8236 114.171H94.8186V124.326H92.8236V114.171ZM85.6536 126.216H95.1336V127.806H85.6536V126.216ZM85.6536 123.321H87.6486V127.041H85.6536V123.321ZM87.0336 114.981C89.0886 114.981 90.6936 116.481 90.6936 118.581C90.6936 120.651 89.0886 122.166 87.0336 122.166C84.9636 122.166 83.3586 120.651 83.3586 118.581C83.3586 116.481 84.9636 114.981 87.0336 114.981ZM87.0336 116.736C86.0136 116.736 85.2636 117.426 85.2636 118.581C85.2636 119.736 86.0136 120.426 87.0336 120.426C88.0386 120.426 88.8036 119.736 88.8036 118.581C88.8036 117.426 88.0386 116.736 87.0336 116.736ZM96.9924 120.891H109.562V122.481H96.9924V120.891ZM102.257 119.091H104.237V121.581H102.257V119.091ZM102.227 114.396H103.937V114.816C103.937 117.381 101.897 119.391 98.3574 119.901L97.6224 118.341C100.742 117.966 102.227 116.376 102.227 114.816V114.396ZM102.557 114.396H104.267V114.816C104.267 116.436 105.722 117.966 108.872 118.341L108.137 119.901C104.597 119.376 102.557 117.441 102.557 114.816V114.396ZM98.3874 123.456H108.032V128.046H106.037V125.016H98.3874V123.456ZM114.805 126.711V124.926H117.205V117.906H115.18V116.541C116.305 116.331 117.055 116.046 117.775 115.611H119.41V124.926H121.495V126.711H114.805ZM126.577 126.921C124.822 126.921 123.652 126.231 122.812 125.406L123.847 124.011C124.462 124.626 125.257 125.136 126.277 125.136C127.447 125.136 128.242 124.401 128.242 123.081C128.242 121.791 127.492 121.071 126.382 121.071C125.722 121.071 125.362 121.236 124.717 121.656L123.697 120.996L124.012 115.611H129.952V117.456H125.917L125.707 119.811C126.142 119.616 126.532 119.511 127.042 119.511C128.902 119.511 130.462 120.606 130.462 123.036C130.462 125.496 128.617 126.921 126.577 126.921ZM135.8 114.561C137.915 114.561 139.505 115.881 139.505 117.741C139.505 119.586 137.915 120.906 135.8 120.906C133.685 120.906 132.095 119.586 132.095 117.741C132.095 115.881 133.685 114.561 135.8 114.561ZM135.8 116.181C134.78 116.181 134.015 116.751 134.015 117.741C134.015 118.731 134.78 119.301 135.8 119.301C136.82 119.301 137.57 118.731 137.57 117.741C137.57 116.751 136.82 116.181 135.8 116.181ZM141.425 114.156H143.435V121.101H141.425V114.156ZM134.165 121.671H143.435V125.481H136.145V127.161H134.195V124.041H141.455V123.216H134.165V121.671ZM134.195 126.351H143.78V127.896H134.195V126.351Z" fill="#1777E9"/>
<path d="M27.234 180.057H28.116V182.115H27.234V180.057ZM27.234 176.718H27.9375V176.928C27.9375 178.587 26.856 179.868 25.26 180.372L24.861 179.69C26.268 179.27 27.234 178.209 27.234 176.928V176.718ZM27.402 176.718H28.1055V176.928C28.1055 178.157 29.103 179.186 30.4995 179.595L30.1005 180.267C28.5045 179.795 27.402 178.535 27.402 176.928V176.718ZM25.0815 176.277H30.3V176.981H25.0815V176.277ZM27.234 175.101H28.116V176.582H27.234V175.101ZM31.3815 175.028H32.253V184.541H31.3815V175.028ZM24.693 182.588L24.567 181.853C26.2995 181.853 28.6935 181.842 30.762 181.527L30.8355 182.168C28.704 182.567 26.3835 182.577 24.693 182.588ZM35.0872 175.983H41.1982V176.708H35.0872V175.983ZM34.1842 182.483H42.7627V183.207H34.1842V182.483ZM37.5127 179.091H38.3842V182.84H37.5127V179.091ZM40.8727 175.983H41.7337V176.928C41.7337 178.104 41.7337 179.406 41.3872 181.328L40.5157 181.212C40.8727 179.396 40.8727 178.062 40.8727 176.928V175.983ZM50.5805 176.519H53.4365V177.233H50.5805V176.519ZM50.5805 178.797H53.4365V179.511H50.5805V178.797ZM53.1215 175.049H53.993V182.063H53.1215V175.049ZM47.9345 183.606H54.2555V184.32H47.9345V183.606ZM47.9345 181.338H48.806V183.921H47.9345V181.338ZM48.7745 175.647C50.171 175.647 51.221 176.624 51.221 178.02C51.221 179.417 50.171 180.393 48.7745 180.393C47.378 180.393 46.328 179.417 46.328 178.02C46.328 176.624 47.378 175.647 48.7745 175.647ZM48.7745 176.414C47.8505 176.414 47.168 177.086 47.168 178.02C47.168 178.965 47.8505 179.637 48.7745 179.637C49.6985 179.637 50.3915 178.965 50.3915 178.02C50.3915 177.086 49.6985 176.414 48.7745 176.414ZM55.8402 179.795H64.4502V180.509H55.8402V179.795ZM59.6937 178.356H60.5547V180.12H59.6937V178.356ZM59.6832 175.185H60.4392V175.605C60.4392 177.317 58.6227 178.535 56.6907 178.85L56.3547 178.157C58.0557 177.926 59.6832 176.876 59.6832 175.605V175.185ZM59.8197 175.185H60.5652V175.605C60.5652 176.876 62.2032 177.926 63.8937 178.157L63.5682 178.85C61.6467 178.524 59.8197 177.317 59.8197 175.605V175.185ZM56.7957 181.433H63.3582V184.53H62.4867V182.136H56.7957V181.433ZM68.278 178.755H69.013C70.924 178.755 72.0475 178.692 73.3495 178.43L73.4545 179.133C72.1105 179.406 70.9555 179.469 69.013 179.469H68.278V178.755ZM68.278 175.584H72.4675V176.288H69.139V179.175H68.278V175.584ZM74.347 175.038H75.2185V179.816H74.347V175.038ZM74.977 177.033H76.6255V177.758H74.977V177.033ZM69.1915 180.299H75.2185V182.64H70.0735V184.11H69.2125V181.968H74.368V180.992H69.1915V180.299ZM69.2125 183.701H75.565V184.404H69.2125V183.701ZM79.9007 175.574H80.6252V176.55C80.6252 178.388 79.5857 179.889 77.9582 180.498L77.5067 179.784C78.9557 179.27 79.9007 177.999 79.9007 176.55V175.574ZM80.0582 175.574H80.7722V176.519C80.7722 177.863 81.6962 179.049 83.0822 179.532L82.6097 180.215C81.0767 179.637 80.0582 178.241 80.0582 176.519V175.574ZM84.4472 175.038H85.3187V180.656H84.4472V175.038ZM82.2002 180.929C84.1532 180.929 85.3607 181.59 85.3607 182.724C85.3607 183.858 84.1532 184.509 82.2002 184.509C80.2367 184.509 79.0292 183.858 79.0292 182.724C79.0292 181.59 80.2367 180.929 82.2002 180.929ZM82.2002 181.622C80.7722 181.622 79.9007 182.031 79.9007 182.724C79.9007 183.417 80.7722 183.827 82.2002 183.827C83.6282 183.827 84.4997 183.417 84.4997 182.724C84.4997 182.031 83.6282 181.622 82.2002 181.622ZM82.3892 177.044H84.6362V177.768H82.3892V177.044Z" fill="#2C2C2C"/>
<path d="M233.309 184.711V183.703C235.733 181.531 237.149 179.863 237.149 178.495C237.149 177.607 236.681 177.055 235.829 177.055C235.169 177.055 234.653 177.475 234.197 177.979L233.225 177.019C234.041 176.143 234.845 175.675 236.057 175.675C237.725 175.675 238.853 176.743 238.853 178.399C238.853 180.019 237.509 181.747 235.889 183.331C236.333 183.283 236.921 183.223 237.341 183.223H239.261V184.711H233.309ZM240.855 184.711V183.283H242.775V177.667H241.155V176.575C242.055 176.407 242.655 176.179 243.231 175.831H244.539V183.283H246.207V184.711H240.855ZM250.573 174.991C252.265 174.991 253.537 176.047 253.537 177.535C253.537 179.011 252.265 180.067 250.573 180.067C248.881 180.067 247.609 179.011 247.609 177.535C247.609 176.047 248.881 174.991 250.573 174.991ZM250.573 176.287C249.757 176.287 249.145 176.743 249.145 177.535C249.145 178.327 249.757 178.783 250.573 178.783C251.389 178.783 251.989 178.327 251.989 177.535C251.989 176.743 251.389 176.287 250.573 176.287ZM255.073 174.667H256.681V180.223H255.073V174.667ZM249.265 180.679H256.681V183.727H250.849V185.071H249.289V182.575H255.097V181.915H249.265V180.679ZM249.289 184.423H256.957V185.659H249.289V184.423Z" fill="#2C2C2C"/>
<path d="M25.6275 213.22H32.1375V213.934H25.6275V213.22ZM24.525 215.351H33.135V216.076H24.525V215.351ZM28.3575 215.74H29.229V219.53H28.3575V215.74ZM25.6275 210.511H26.499V213.566H25.6275V210.511ZM36.5992 210.994H37.3132V211.771C37.3132 212.345 37.2012 212.884 36.9772 213.388C36.7602 213.892 36.4522 214.333 36.0532 214.711C35.6542 215.082 35.1922 215.365 34.6672 215.561L34.2157 214.868C34.5657 214.742 34.8842 214.574 35.1712 214.364C35.4652 214.154 35.7207 213.913 35.9377 213.64C36.1547 213.36 36.3192 213.062 36.4312 212.747C36.5432 212.425 36.5992 212.1 36.5992 211.771V210.994ZM36.7672 210.994H37.4812V211.76C37.4812 212.166 37.5757 212.562 37.7647 212.947C37.9537 213.325 38.2232 213.664 38.5732 213.965C38.9232 214.259 39.3257 214.49 39.7807 214.658L39.3397 215.341C38.8217 215.152 38.3702 214.879 37.9852 214.522C37.6002 214.165 37.2992 213.748 37.0822 213.272C36.8722 212.796 36.7672 212.292 36.7672 211.76V210.994ZM39.2662 212.506H41.3767V213.23H39.2662V212.506ZM34.4887 210.679H39.5602V211.393H34.4887V210.679ZM35.6542 216.223H41.9962V219.53H41.1247V216.937H35.6542V216.223ZM41.1247 210.028H41.9962V215.708H41.1247V210.028ZM46.6115 213.755H47.3465C47.9905 213.755 48.554 213.748 49.037 213.734C49.527 213.713 49.982 213.678 50.402 213.629C50.829 213.58 51.256 213.514 51.683 213.43L51.788 214.123C51.347 214.214 50.9095 214.284 50.4755 214.333C50.0415 214.382 49.5725 214.417 49.0685 214.438C48.5715 214.452 47.9975 214.459 47.3465 214.459H46.6115V213.755ZM46.6115 210.574H50.801V211.277H47.4725V214.165H46.6115V210.574ZM52.691 210.028H53.5625V214.805H52.691V210.028ZM53.321 212.023H54.959V212.747H53.321V212.023ZM47.525 215.288H53.5625V217.64H48.407V219.1H47.5565V216.968H52.7015V215.992H47.525V215.288ZM47.5565 218.69H53.8985V219.404H47.5565V218.69ZM58.2447 210.563H58.9692V211.54C58.9692 212.156 58.8572 212.723 58.6332 213.241C58.4162 213.759 58.1082 214.214 57.7092 214.606C57.3172 214.991 56.8482 215.285 56.3022 215.488L55.8402 214.784C56.3302 214.609 56.7537 214.361 57.1107 214.039C57.4677 213.717 57.7442 213.342 57.9402 212.915C58.1432 212.481 58.2447 212.023 58.2447 211.54V210.563ZM58.4022 210.563H59.1057V211.508C59.1057 211.956 59.2037 212.38 59.3997 212.779C59.5957 213.178 59.8652 213.531 60.2082 213.839C60.5582 214.14 60.9642 214.368 61.4262 214.522L60.9537 215.204C60.4427 215.008 59.9947 214.732 59.6097 214.375C59.2247 214.018 58.9272 213.594 58.7172 213.104C58.5072 212.614 58.4022 212.082 58.4022 211.508V210.563ZM62.7912 210.028H63.6627V215.645H62.7912V210.028ZM60.5337 215.929C61.5137 215.929 62.2837 216.086 62.8437 216.401C63.4107 216.716 63.6942 217.157 63.6942 217.724C63.6942 218.284 63.4107 218.722 62.8437 219.037C62.2837 219.352 61.5137 219.509 60.5337 219.509C59.5537 219.509 58.7802 219.352 58.2132 219.037C57.6532 218.722 57.3732 218.284 57.3732 217.724C57.3732 217.157 57.6532 216.716 58.2132 216.401C58.7802 216.086 59.5537 215.929 60.5337 215.929ZM60.5337 216.622C60.0577 216.622 59.6482 216.667 59.3052 216.758C58.9622 216.842 58.6962 216.968 58.5072 217.136C58.3252 217.297 58.2342 217.493 58.2342 217.724C58.2342 217.948 58.3252 218.144 58.5072 218.312C58.6962 218.473 58.9622 218.599 59.3052 218.69C59.6482 218.774 60.0577 218.816 60.5337 218.816C61.0167 218.816 61.4262 218.774 61.7622 218.69C62.1052 218.599 62.3677 218.473 62.5497 218.312C62.7387 218.144 62.8332 217.948 62.8332 217.724C62.8332 217.493 62.7387 217.297 62.5497 217.136C62.3677 216.968 62.1052 216.842 61.7622 216.758C61.4262 216.667 61.0167 216.622 60.5337 216.622ZM60.7227 212.033H62.9697V212.758H60.7227V212.033Z" fill="#2C2C2C"/>
<path d="M226.711 219.711V218.271H228.631V212.667H227.011V211.563C227.459 211.483 227.843 211.387 228.163 211.275C228.491 211.155 228.795 211.003 229.075 210.819H230.383V218.271H232.051V219.711H226.711ZM233.321 219.711V218.691C234.129 217.971 234.817 217.303 235.385 216.687C235.961 216.071 236.401 215.499 236.705 214.971C237.009 214.435 237.161 213.939 237.161 213.483C237.161 213.195 237.109 212.943 237.005 212.727C236.901 212.511 236.749 212.347 236.549 212.235C236.357 212.115 236.117 212.055 235.829 212.055C235.509 212.055 235.213 212.147 234.941 212.331C234.677 212.507 234.433 212.719 234.209 212.967L233.225 212.019C233.641 211.571 234.065 211.235 234.497 211.011C234.937 210.779 235.457 210.663 236.057 210.663C236.617 210.663 237.105 210.779 237.521 211.011C237.945 211.235 238.273 211.551 238.505 211.959C238.737 212.367 238.853 212.847 238.853 213.399C238.853 213.935 238.717 214.483 238.445 215.043C238.181 215.595 237.825 216.147 237.377 216.699C236.929 217.251 236.433 217.795 235.889 218.331C236.121 218.299 236.369 218.275 236.633 218.259C236.905 218.235 237.145 218.223 237.353 218.223H239.273V219.711H233.321ZM243.159 219.879C242.695 219.879 242.279 219.823 241.911 219.711C241.543 219.607 241.215 219.463 240.927 219.279C240.647 219.087 240.403 218.875 240.195 218.643L241.023 217.527C241.295 217.775 241.591 217.991 241.911 218.175C242.239 218.351 242.603 218.439 243.003 218.439C243.307 218.439 243.571 218.391 243.795 218.295C244.027 218.199 244.203 218.059 244.323 217.875C244.451 217.691 244.515 217.467 244.515 217.203C244.515 216.907 244.443 216.655 244.299 216.447C244.163 216.231 243.919 216.067 243.567 215.955C243.215 215.843 242.719 215.787 242.079 215.787V214.515C242.623 214.515 243.051 214.459 243.363 214.347C243.675 214.227 243.895 214.067 244.023 213.867C244.159 213.659 244.227 213.423 244.227 213.159C244.227 212.815 244.123 212.547 243.915 212.355C243.707 212.155 243.415 212.055 243.039 212.055C242.727 212.055 242.435 212.127 242.163 212.271C241.899 212.407 241.635 212.595 241.371 212.835L240.459 211.743C240.851 211.415 241.263 211.155 241.695 210.963C242.127 210.763 242.603 210.663 243.123 210.663C243.691 210.663 244.191 210.755 244.623 210.939C245.063 211.123 245.403 211.391 245.643 211.743C245.883 212.095 246.003 212.523 246.003 213.027C246.003 213.507 245.875 213.919 245.619 214.263C245.363 214.607 244.999 214.871 244.527 215.055V215.115C244.855 215.203 245.151 215.347 245.415 215.547C245.687 215.739 245.899 215.983 246.051 216.279C246.211 216.575 246.291 216.919 246.291 217.311C246.291 217.847 246.147 218.307 245.859 218.691C245.579 219.075 245.199 219.371 244.719 219.579C244.247 219.779 243.727 219.879 243.159 219.879ZM250.573 209.979C251.149 209.979 251.657 210.091 252.097 210.315C252.545 210.531 252.897 210.831 253.153 211.215C253.417 211.591 253.549 212.027 253.549 212.523C253.549 213.019 253.417 213.459 253.153 213.843C252.897 214.219 252.545 214.515 252.097 214.731C251.657 214.947 251.149 215.055 250.573 215.055C250.013 215.055 249.509 214.947 249.061 214.731C248.613 214.515 248.257 214.219 247.993 213.843C247.737 213.459 247.609 213.019 247.609 212.523C247.609 212.027 247.737 211.587 247.993 211.203C248.257 210.819 248.613 210.519 249.061 210.303C249.509 210.087 250.013 209.979 250.573 209.979ZM250.585 211.275C250.313 211.275 250.069 211.327 249.853 211.431C249.637 211.527 249.465 211.667 249.337 211.851C249.217 212.035 249.157 212.259 249.157 212.523C249.157 212.787 249.217 213.015 249.337 213.207C249.465 213.391 249.633 213.531 249.841 213.627C250.057 213.723 250.305 213.771 250.585 213.771C250.857 213.771 251.097 213.723 251.305 213.627C251.521 213.531 251.689 213.391 251.809 213.207C251.937 213.015 252.001 212.787 252.001 212.523C252.001 212.259 251.937 212.035 251.809 211.851C251.689 211.667 251.521 211.527 251.305 211.431C251.089 211.327 250.849 211.275 250.585 211.275ZM255.085 209.667H256.681V215.223H255.085V209.667ZM249.277 215.679H256.681V218.715H250.861V220.071H249.289V217.563H255.097V216.903H249.277V215.679ZM249.289 219.411H256.957V220.659H249.289V219.411Z" fill="#2C2C2C"/>
<rect width="270" height="315" transform="translate(6 258.711)" fill="white"/>
<path d="M110.903 292.961V292.405C113.318 290.294 114.421 288.751 114.421 287.438C114.421 286.556 113.969 285.905 113.014 285.905C112.384 285.905 111.838 286.294 111.407 286.798L110.851 286.262C111.481 285.58 112.153 285.128 113.129 285.128C114.505 285.128 115.366 286.021 115.366 287.396C115.366 288.94 114.158 290.504 112.342 292.216C112.751 292.174 113.213 292.142 113.602 292.142H115.733V292.961H110.903ZM119.184 293.108C117.714 293.108 116.78 291.775 116.78 289.087C116.78 286.42 117.714 285.128 119.184 285.128C120.633 285.128 121.568 286.42 121.568 289.087C121.568 291.775 120.633 293.108 119.184 293.108ZM119.184 292.331C120.056 292.331 120.644 291.355 120.644 289.087C120.644 286.85 120.056 285.895 119.184 285.895C118.302 285.895 117.704 286.85 117.704 289.087C117.704 291.355 118.302 292.331 119.184 292.331ZM122.552 292.961V292.405C124.967 290.294 126.069 288.751 126.069 287.438C126.069 286.556 125.618 285.905 124.662 285.905C124.032 285.905 123.486 286.294 123.056 286.798L122.499 286.262C123.129 285.58 123.801 285.128 124.778 285.128C126.153 285.128 127.014 286.021 127.014 287.396C127.014 288.94 125.807 290.504 123.99 292.216C124.4 292.174 124.862 292.142 125.25 292.142H127.382V292.961H122.552ZM131.473 292.961V287.722C131.473 287.333 131.505 286.714 131.536 286.315H131.484C131.295 286.693 131.085 287.081 130.875 287.459L129.121 290.084H133.405V290.84H128.113V290.21L131.316 285.265H132.376V292.961H131.473ZM135.187 293.108C134.809 293.108 134.505 292.804 134.505 292.373C134.505 291.932 134.809 291.638 135.187 291.638C135.576 291.638 135.891 291.932 135.891 292.373C135.891 292.804 135.576 293.108 135.187 293.108ZM139.579 293.108C138.109 293.108 137.175 291.775 137.175 289.087C137.175 286.42 138.109 285.128 139.579 285.128C141.028 285.128 141.963 286.42 141.963 289.087C141.963 291.775 141.028 293.108 139.579 293.108ZM139.579 292.331C140.451 292.331 141.039 291.355 141.039 289.087C141.039 286.85 140.451 285.895 139.579 285.895C138.697 285.895 138.099 286.85 138.099 289.087C138.099 291.355 138.697 292.331 139.579 292.331ZM146.044 292.961V287.722C146.044 287.333 146.076 286.714 146.107 286.315H146.055C145.866 286.693 145.656 287.081 145.446 287.459L143.692 290.084H147.976V290.84H142.684V290.21L145.887 285.265H146.947V292.961H146.044Z" fill="black"/>
<path fill-rule="evenodd" clip-rule="evenodd" d="M154.375 283.461H155.875V282.711H161.875V283.461H163.375V282.711H164.875V284.961H152.875V282.711H154.375V283.461ZM152.875 286.461V293.961H164.875V286.461H152.875ZM155.875 281.211H161.875V280.461H163.375V281.211H164.875C165.703 281.211 166.375 281.883 166.375 282.711V293.961C166.375 294.79 165.703 295.461 164.875 295.461H152.875C152.047 295.461 151.375 294.79 151.375 293.961V282.711C151.375 281.883 152.047 281.211 152.875 281.211H154.375V280.461H155.875V281.211Z" fill="#D9D9D9"/>
<g clip-path="url(#clip1_649_9010)">
<path d="M36.1969 292.265L31.9031 287.961L36.1969 283.658L34.875 282.336L29.25 287.961L34.875 293.586L36.1969 292.265Z" fill="black"/>
</g>
<g clip-path="url(#clip2_649_9010)">
<path d="M247.125 282.336L245.803 283.658L250.097 287.961L245.803 292.265L247.125 293.586L252.75 287.961L247.125 282.336Z" fill="#D9D9D9"/>
</g>
<rect width="270" height="180" transform="translate(6 317.211)" fill="white"/>
<path d="M79.875 335.211C79.875 336.64 79.5937 338.054 79.0472 339.373C78.5007 340.693 77.6996 341.891 76.6898 342.901C75.6799 343.911 74.4811 344.712 73.1617 345.259C71.8423 345.805 70.4281 346.086 69 346.086C67.5719 346.086 66.1577 345.805 64.8383 345.259C63.5189 344.712 62.3201 343.911 61.3102 342.901C60.3004 341.891 59.4993 340.693 58.9528 339.373C58.4063 338.054 58.125 336.64 58.125 335.211C58.125 333.783 58.4063 332.369 58.9528 331.05C59.4993 329.73 60.3004 328.531 61.3102 327.522C62.3201 326.512 63.5189 325.711 64.8383 325.164C66.1577 324.618 67.5719 324.336 69 324.336C70.4281 324.336 71.8423 324.618 73.1617 325.164C74.4811 325.711 75.68 326.512 76.6898 327.522C77.6996 328.531 78.5007 329.73 79.0472 331.05C79.5937 332.369 79.875 333.783 79.875 335.211L79.875 335.211Z" stroke="#D9D9D9" stroke-width="2.25"/>
<path d="M69 324.336C71.1509 324.336 73.2534 324.974 75.0418 326.169C76.8302 327.364 78.2241 329.063 79.0472 331.05C79.8703 333.037 80.0857 335.223 79.666 337.333C79.2464 339.443 78.2107 341.38 76.6898 342.901C75.1689 344.422 73.2312 345.458 71.1216 345.877C69.0121 346.297 66.8255 346.082 64.8383 345.259C62.8512 344.436 61.1527 343.042 59.9578 341.253C58.7628 339.465 58.125 337.362 58.125 335.211" stroke="#1777E9" stroke-width="2.25"/>
<path fill-rule="evenodd" clip-rule="evenodd" d="M67.3169 337.269L73.125 331.461L74.0089 332.345L67.3169 339.037L63.75 335.47L64.6339 334.586L67.3169 337.269Z" fill="#1777E9"/>
<path d="M115.875 335.211C115.875 336.64 115.594 338.054 115.047 339.373C114.501 340.693 113.7 341.891 112.69 342.901C111.68 343.911 110.481 344.712 109.162 345.259C107.842 345.805 106.428 346.086 105 346.086C103.572 346.086 102.158 345.805 100.838 345.259C99.5189 344.712 98.3201 343.911 97.3102 342.901C96.3004 341.891 95.4993 340.693 94.9528 339.373C94.4063 338.054 94.125 336.64 94.125 335.211C94.125 333.783 94.4063 332.369 94.9528 331.05C95.4993 329.73 96.3004 328.531 97.3102 327.522C98.3201 326.512 99.5189 325.711 100.838 325.164C102.158 324.618 103.572 324.336 105 324.336C106.428 324.336 107.842 324.618 109.162 325.164C110.481 325.711 111.68 326.512 112.69 327.522C113.7 328.531 114.501 329.73 115.047 331.05C115.594 332.369 115.875 333.783 115.875 335.211L115.875 335.211Z" stroke="#D9D9D9" stroke-width="2.25"/>
<path d="M105 324.336C107.151 324.336 109.253 324.974 111.042 326.169C112.83 327.364 114.224 329.063 115.047 331.05C115.87 333.037 116.086 335.223 115.666 337.333C115.246 339.443 114.211 341.38 112.69 342.901C111.169 344.422 109.231 345.458 107.122 345.877C105.012 346.297 102.825 346.082 100.838 345.259C98.8512 344.436 97.1527 343.042 95.9578 341.253C94.7628 339.465 94.125 337.362 94.125 335.211" stroke="#1777E9" stroke-width="2.25"/>
<path fill-rule="evenodd" clip-rule="evenodd" d="M103.317 337.269L109.125 331.461L110.009 332.345L103.317 339.037L99.75 335.47L100.634 334.586L103.317 337.269Z" fill="#1777E9"/>
<rect x="129" y="323.211" width="24" height="24" rx="12" fill="#1777E9"/>
<path fill-rule="evenodd" clip-rule="evenodd" d="M139.567 337.269L145.375 331.461L146.259 332.345L139.567 339.037L136 335.47L136.884 334.586L139.567 337.269Z" fill="white"/>
<rect x="165" y="323.211" width="24" height="24" rx="12" fill="#1777E9"/>
<path fill-rule="evenodd" clip-rule="evenodd" d="M175.567 337.269L181.375 331.461L182.259 332.345L175.567 339.037L172 335.47L172.884 334.586L175.567 337.269Z" fill="white"/>
<rect x="201" y="323.211" width="24" height="24" rx="12" fill="#1777E9"/>
<path fill-rule="evenodd" clip-rule="evenodd" d="M211.567 337.269L217.375 331.461L218.259 332.345L211.567 339.037L208 335.47L208.884 334.586L211.567 337.269Z" fill="white"/>
<path d="M259.875 335.211C259.875 336.64 259.594 338.054 259.047 339.373C258.501 340.693 257.7 341.891 256.69 342.901C255.68 343.911 254.481 344.712 253.162 345.259C251.842 345.805 250.428 346.086 249 346.086C247.572 346.086 246.158 345.805 244.838 345.259C243.519 344.712 242.32 343.911 241.31 342.901C240.3 341.891 239.499 340.693 238.953 339.373C238.406 338.054 238.125 336.64 238.125 335.211C238.125 333.783 238.406 332.369 238.953 331.05C239.499 329.73 240.3 328.531 241.31 327.522C242.32 326.512 243.519 325.711 244.838 325.164C246.158 324.618 247.572 324.336 249 324.336C250.428 324.336 251.842 324.618 253.162 325.164C254.481 325.711 255.68 326.512 256.69 327.522C257.7 328.531 258.501 329.73 259.047 331.05C259.594 332.369 259.875 333.783 259.875 335.211L259.875 335.211Z" stroke="#D9D9D9" stroke-width="2.25"/>
<path d="M249 324.336C251.151 324.336 253.253 324.974 255.042 326.169C256.83 327.364 258.224 329.063 259.047 331.05C259.87 333.037 260.086 335.223 259.666 337.333C259.246 339.443 258.211 341.38 256.69 342.901C255.169 344.422 253.231 345.458 251.122 345.877C249.012 346.297 246.825 346.082 244.838 345.259C242.851 344.436 241.153 343.042 239.958 341.253C238.763 339.465 238.125 337.362 238.125 335.211" stroke="#1777E9" stroke-width="2.25"/>
<path fill-rule="evenodd" clip-rule="evenodd" d="M247.317 337.269L253.125 331.461L254.009 332.345L247.317 339.037L243.75 335.47L244.634 334.586L247.317 337.269Z" fill="#1777E9"/>
<path d="M43.875 371.211C43.875 372.64 43.5937 374.054 43.0472 375.373C42.5007 376.693 41.6996 377.891 40.6898 378.901C39.6799 379.911 38.4811 380.712 37.1617 381.259C35.8423 381.805 34.4281 382.086 33 382.086C31.5719 382.086 30.1577 381.805 28.8383 381.259C27.5189 380.712 26.3201 379.911 25.3102 378.901C24.3004 377.891 23.4993 376.693 22.9528 375.373C22.4063 374.054 22.125 372.64 22.125 371.211C22.125 369.783 22.4063 368.369 22.9528 367.05C23.4993 365.73 24.3004 364.531 25.3102 363.522C26.3201 362.512 27.5189 361.711 28.8383 361.164C30.1577 360.618 31.5719 360.336 33 360.336C34.4281 360.336 35.8423 360.618 37.1617 361.164C38.4811 361.711 39.68 362.512 40.6898 363.522C41.6996 364.531 42.5007 365.73 43.0472 367.05C43.5937 368.369 43.875 369.783 43.875 371.211L43.875 371.211Z" stroke="#D9D9D9" stroke-width="2.25"/>
<path d="M33 360.336C35.1509 360.336 37.2534 360.974 39.0418 362.169C40.8302 363.364 42.2241 365.063 43.0472 367.05C43.8703 369.037 44.0857 371.223 43.666 373.333C43.2464 375.443 42.2107 377.38 40.6898 378.901C39.1689 380.422 37.2312 381.458 35.1216 381.877C33.0121 382.297 30.8255 382.082 28.8383 381.259C26.8512 380.436 25.1527 379.042 23.9578 377.253C22.7628 375.465 22.125 373.362 22.125 371.211" stroke="#1777E9" stroke-width="2.25"/>
<path fill-rule="evenodd" clip-rule="evenodd" d="M31.3169 373.269L37.125 367.461L38.0089 368.345L31.3169 375.037L27.75 371.47L28.6339 370.586L31.3169 373.269Z" fill="#1777E9"/>
<rect x="57" y="359.211" width="24" height="24" rx="12" fill="#1777E9"/>
<path fill-rule="evenodd" clip-rule="evenodd" d="M67.5669 373.269L73.3749 367.461L74.2588 368.345L67.5669 375.037L63.9999 371.47L64.8838 370.586L67.5669 373.269Z" fill="white"/>
<path d="M102.346 374.837C101.896 374.837 101.5 374.708 101.158 374.45C100.822 374.186 100.558 373.796 100.366 373.28C100.18 372.758 100.087 372.113 100.087 371.345C100.087 370.583 100.18 369.95 100.366 369.446C100.558 368.936 100.822 368.555 101.158 368.303C101.5 368.051 101.896 367.925 102.346 367.925C102.802 367.925 103.198 368.054 103.534 368.312C103.87 368.564 104.131 368.942 104.317 369.446C104.509 369.95 104.605 370.583 104.605 371.345C104.605 372.113 104.509 372.758 104.317 373.28C104.131 373.796 103.87 374.186 103.534 374.45C103.198 374.708 102.802 374.837 102.346 374.837ZM102.346 373.802C102.544 373.802 102.718 373.727 102.868 373.577C103.018 373.427 103.135 373.175 103.219 372.821C103.303 372.461 103.345 371.969 103.345 371.345C103.345 370.727 103.303 370.244 103.219 369.896C103.135 369.542 103.018 369.296 102.868 369.158C102.718 369.014 102.544 368.942 102.346 368.942C102.16 368.942 101.989 369.014 101.833 369.158C101.683 369.296 101.563 369.542 101.473 369.896C101.383 370.244 101.338 370.727 101.338 371.345C101.338 371.969 101.383 372.461 101.473 372.821C101.563 373.175 101.683 373.427 101.833 373.577C101.989 373.727 102.16 373.802 102.346 373.802ZM107.295 374.837C106.881 374.837 106.521 374.762 106.215 374.612C105.915 374.462 105.666 374.285 105.468 374.081L106.17 373.28C106.29 373.418 106.446 373.532 106.638 373.622C106.83 373.712 107.025 373.757 107.223 373.757C107.415 373.757 107.598 373.715 107.772 373.631C107.946 373.541 108.096 373.4 108.222 373.208C108.354 373.01 108.456 372.749 108.528 372.425C108.606 372.101 108.645 371.702 108.645 371.228C108.645 370.658 108.591 370.205 108.483 369.869C108.381 369.533 108.243 369.293 108.069 369.149C107.895 368.999 107.697 368.924 107.475 368.924C107.313 368.924 107.163 368.969 107.025 369.059C106.887 369.149 106.776 369.284 106.692 369.464C106.614 369.644 106.575 369.872 106.575 370.148C106.575 370.406 106.614 370.622 106.692 370.796C106.77 370.964 106.878 371.09 107.016 371.174C107.16 371.258 107.328 371.3 107.52 371.3C107.706 371.3 107.898 371.243 108.096 371.129C108.294 371.015 108.474 370.823 108.636 370.553L108.699 371.444C108.585 371.606 108.444 371.747 108.276 371.867C108.114 371.987 107.946 372.08 107.772 372.146C107.598 372.212 107.43 372.245 107.268 372.245C106.902 372.245 106.575 372.17 106.287 372.02C105.999 371.864 105.771 371.633 105.603 371.327C105.441 371.015 105.36 370.622 105.36 370.148C105.36 369.692 105.456 369.299 105.648 368.969C105.84 368.633 106.095 368.375 106.413 368.195C106.731 368.015 107.079 367.925 107.457 367.925C107.775 367.925 108.075 367.991 108.357 368.123C108.645 368.249 108.9 368.447 109.122 368.717C109.35 368.981 109.527 369.323 109.653 369.743C109.785 370.157 109.851 370.652 109.851 371.228C109.851 371.858 109.782 372.401 109.644 372.857C109.506 373.307 109.314 373.679 109.068 373.973C108.828 374.267 108.555 374.486 108.249 374.63C107.943 374.768 107.625 374.837 107.295 374.837Z" fill="#909090"/>
<rect x="129" y="359.211" width="24" height="24" rx="12" fill="#1777E9"/>
<path fill-rule="evenodd" clip-rule="evenodd" d="M139.567 373.269L145.375 367.461L146.259 368.345L139.567 375.037L136 371.47L136.884 370.586L139.567 373.269Z" fill="white"/>
<rect x="165" y="359.211" width="24" height="24" rx="12" fill="#1777E9"/>
<path fill-rule="evenodd" clip-rule="evenodd" d="M175.567 373.269L181.375 367.461L182.259 368.345L175.567 375.037L172 371.47L172.884 370.586L175.567 373.269Z" fill="white"/>
<path d="M208.429 374.711V373.631H209.869V369.428H208.654V368.6C208.99 368.54 209.278 368.468 209.518 368.384C209.764 368.294 209.992 368.18 210.202 368.042H211.183V373.631H212.434V374.711H208.429ZM213.387 374.711V373.946C213.993 373.406 214.509 372.905 214.935 372.443C215.367 371.981 215.697 371.552 215.925 371.156C216.153 370.754 216.267 370.382 216.267 370.04C216.267 369.824 216.228 369.635 216.15 369.473C216.072 369.311 215.958 369.188 215.808 369.104C215.664 369.014 215.484 368.969 215.268 368.969C215.028 368.969 214.806 369.038 214.602 369.176C214.404 369.308 214.221 369.467 214.053 369.653L213.315 368.942C213.627 368.606 213.945 368.354 214.269 368.186C214.599 368.012 214.989 367.925 215.439 367.925C215.859 367.925 216.225 368.012 216.537 368.186C216.855 368.354 217.101 368.591 217.275 368.897C217.449 369.203 217.536 369.563 217.536 369.977C217.536 370.379 217.434 370.79 217.23 371.21C217.032 371.624 216.765 372.038 216.429 372.452C216.093 372.866 215.721 373.274 215.313 373.676C215.487 373.652 215.673 373.634 215.871 373.622C216.075 373.604 216.255 373.595 216.411 373.595H217.851V374.711H213.387Z" fill="#909090"/>
<path d="M259.875 371.211C259.875 372.64 259.594 374.054 259.047 375.373C258.501 376.693 257.7 377.891 256.69 378.901C255.68 379.911 254.481 380.712 253.162 381.259C251.842 381.805 250.428 382.086 249 382.086C247.572 382.086 246.158 381.805 244.838 381.259C243.519 380.712 242.32 379.911 241.31 378.901C240.3 377.891 239.499 376.693 238.953 375.373C238.406 374.054 238.125 372.64 238.125 371.211C238.125 369.783 238.406 368.369 238.953 367.05C239.499 365.73 240.3 364.531 241.31 363.522C242.32 362.512 243.519 361.711 244.838 361.164C246.158 360.618 247.572 360.336 249 360.336C250.428 360.336 251.842 360.618 253.162 361.164C254.481 361.711 255.68 362.512 256.69 363.522C257.7 364.531 258.501 365.73 259.047 367.05C259.594 368.369 259.875 369.783 259.875 371.211L259.875 371.211Z" stroke="#D9D9D9" stroke-width="2.25"/>
<path d="M249 360.336C251.151 360.336 253.253 360.974 255.042 362.169C256.83 363.364 258.224 365.063 259.047 367.05C259.87 369.037 260.086 371.223 259.666 373.333C259.246 375.443 258.211 377.38 256.69 378.901C255.169 380.422 253.231 381.458 251.122 381.877C249.012 382.297 246.825 382.082 244.838 381.259C242.851 380.436 241.153 379.042 239.958 377.253C238.763 375.465 238.125 373.362 238.125 371.211" stroke="#1777E9" stroke-width="2.25"/>
<path fill-rule="evenodd" clip-rule="evenodd" d="M247.317 373.269L253.125 367.461L254.009 368.345L247.317 375.037L243.75 371.47L244.634 370.586L247.317 373.269Z" fill="#1777E9"/>
<path d="M43.875 407.211C43.875 408.64 43.5937 410.054 43.0472 411.373C42.5007 412.693 41.6996 413.891 40.6898 414.901C39.6799 415.911 38.4811 416.712 37.1617 417.259C35.8423 417.805 34.4281 418.086 33 418.086C31.5719 418.086 30.1577 417.805 28.8383 417.259C27.5189 416.712 26.3201 415.911 25.3102 414.901C24.3004 413.891 23.4993 412.693 22.9528 411.373C22.4063 410.054 22.125 408.64 22.125 407.211C22.125 405.783 22.4063 404.369 22.9528 403.05C23.4993 401.73 24.3004 400.531 25.3102 399.522C26.3201 398.512 27.5189 397.711 28.8383 397.164C30.1577 396.618 31.5719 396.336 33 396.336C34.4281 396.336 35.8423 396.618 37.1617 397.164C38.4811 397.711 39.68 398.512 40.6898 399.522C41.6996 400.531 42.5007 401.73 43.0472 403.05C43.5937 404.369 43.875 405.783 43.875 407.211L43.875 407.211Z" stroke="#D9D9D9" stroke-width="2.25"/>
<path d="M33 396.336C35.1509 396.336 37.2534 396.974 39.0418 398.169C40.8302 399.364 42.2241 401.063 43.0472 403.05C43.8703 405.037 44.0857 407.223 43.666 409.333C43.2464 411.443 42.2107 413.38 40.6898 414.901C39.1689 416.422 37.2312 417.458 35.1216 417.877C33.0121 418.297 30.8255 418.082 28.8383 417.259C26.8512 416.436 25.1527 415.042 23.9578 413.253C22.7628 411.465 22.125 409.362 22.125 407.211" stroke="#1777E9" stroke-width="2.25"/>
<path fill-rule="evenodd" clip-rule="evenodd" d="M31.3169 409.269L37.125 403.461L38.0089 404.345L31.3169 411.037L27.75 407.47L28.6339 406.586L31.3169 409.269Z" fill="#1777E9"/>
<rect x="57" y="395.211" width="24" height="24" rx="12" fill="#1777E9"/>
<path fill-rule="evenodd" clip-rule="evenodd" d="M67.5669 409.269L73.3749 403.461L74.2588 404.345L67.5669 411.037L63.9999 407.47L64.8838 406.586L67.5669 409.269Z" fill="white"/>
<rect x="93" y="395.211" width="24" height="24" rx="12" fill="#1777E9"/>
<path fill-rule="evenodd" clip-rule="evenodd" d="M103.567 409.269L109.375 403.461L110.259 404.345L103.567 411.037L99.9999 407.47L100.884 406.586L103.567 409.269Z" fill="white"/>
<path d="M136.429 410.711V409.631H137.869V405.428H136.654V404.6C136.99 404.54 137.278 404.468 137.518 404.384C137.764 404.294 137.992 404.18 138.202 404.042H139.183V409.631H140.434V410.711H136.429ZM142.674 410.711C142.704 410.135 142.755 409.604 142.827 409.118C142.899 408.626 143.001 408.164 143.133 407.732C143.265 407.294 143.436 406.865 143.646 406.445C143.862 406.025 144.129 405.596 144.447 405.158H141.45V404.042H145.878V404.852C145.494 405.32 145.182 405.77 144.942 406.202C144.708 406.634 144.528 407.072 144.402 407.516C144.282 407.96 144.192 408.44 144.132 408.956C144.078 409.472 144.036 410.057 144.006 410.711H142.674Z" fill="#909090"/>
<rect x="165" y="395.211" width="24" height="24" rx="12" fill="#1777E9"/>
<path fill-rule="evenodd" clip-rule="evenodd" d="M175.567 409.269L181.375 403.461L182.259 404.345L175.567 411.037L172 407.47L172.884 406.586L175.567 409.269Z" fill="white"/>
<path d="M223.875 407.211C223.875 408.64 223.594 410.054 223.047 411.373C222.501 412.693 221.7 413.891 220.69 414.901C219.68 415.911 218.481 416.712 217.162 417.259C215.842 417.805 214.428 418.086 213 418.086C211.572 418.086 210.158 417.805 208.838 417.259C207.519 416.712 206.32 415.911 205.31 414.901C204.3 413.891 203.499 412.693 202.953 411.373C202.406 410.054 202.125 408.64 202.125 407.211C202.125 405.783 202.406 404.369 202.953 403.05C203.499 401.73 204.3 400.531 205.31 399.522C206.32 398.512 207.519 397.711 208.838 397.164C210.158 396.618 211.572 396.336 213 396.336C214.428 396.336 215.842 396.618 217.162 397.164C218.481 397.711 219.68 398.512 220.69 399.522C221.7 400.531 222.501 401.73 223.047 403.05C223.594 404.369 223.875 405.783 223.875 407.211L223.875 407.211Z" stroke="#D9D9D9" stroke-width="2.25"/>
<path d="M213 396.336C215.151 396.336 217.253 396.974 219.042 398.169C220.83 399.364 222.224 401.063 223.047 403.05C223.87 405.037 224.086 407.223 223.666 409.333C223.246 411.443 222.211 413.38 220.69 414.901C219.169 416.422 217.231 417.458 215.122 417.877C213.012 418.297 210.825 418.082 208.838 417.259C206.851 416.436 205.153 415.042 203.958 413.253C202.763 411.465 202.125 409.362 202.125 407.211" stroke="#1777E9" stroke-width="2.25"/>
<path fill-rule="evenodd" clip-rule="evenodd" d="M211.317 409.269L217.125 403.461L218.009 404.345L211.317 411.037L207.75 407.47L208.634 406.586L211.317 409.269Z" fill="#1777E9"/>
<rect x="237" y="395.211" width="24" height="24" rx="12" fill="#1777E9"/>
<path fill-rule="evenodd" clip-rule="evenodd" d="M247.567 409.269L253.375 403.461L254.259 404.345L247.567 411.037L244 407.47L244.884 406.586L247.567 409.269Z" fill="white"/>
<rect x="21" y="431.211" width="24" height="24" rx="12" fill="#1777E9"/>
<path fill-rule="evenodd" clip-rule="evenodd" d="M31.5669 445.269L37.3749 439.461L38.2588 440.345L31.5669 447.037L27.9999 443.47L28.8838 442.586L31.5669 445.269Z" fill="white"/>
<path d="M51 443.211C51 433.27 59.0589 425.211 69 425.211C78.9411 425.211 87 433.27 87 443.211C87 453.153 78.9411 461.211 69 461.211C59.0589 461.211 51 453.153 51 443.211Z" fill="#DFEAFF"/>
<path d="M79.875 443.211C79.875 444.64 79.5937 446.054 79.0472 447.373C78.5007 448.693 77.6996 449.891 76.6898 450.901C75.6799 451.911 74.4811 452.712 73.1617 453.259C71.8423 453.805 70.4281 454.086 69 454.086C67.5719 454.086 66.1577 453.805 64.8383 453.259C63.5189 452.712 62.3201 451.911 61.3102 450.901C60.3004 449.891 59.4993 448.693 58.9528 447.373C58.4063 446.054 58.125 444.64 58.125 443.211C58.125 441.783 58.4063 440.369 58.9528 439.05C59.4993 437.73 60.3004 436.531 61.3102 435.522C62.3201 434.512 63.5189 433.711 64.8383 433.164C66.1577 432.618 67.5719 432.336 69 432.336C70.4281 432.336 71.8423 432.618 73.1617 433.164C74.4811 433.711 75.68 434.512 76.6898 435.522C77.6996 436.531 78.5007 437.73 79.0472 439.05C79.5937 440.369 79.875 441.783 79.875 443.211L79.875 443.211Z" stroke="#D9D9D9" stroke-width="2.25"/>
<path d="M69 432.336C71.1509 432.336 73.2534 432.974 75.0418 434.169C76.8302 435.364 78.2241 437.063 79.0472 439.05C79.8703 441.037 80.0857 443.223 79.666 445.333C79.2464 447.443 78.2107 449.38 76.6898 450.901C75.1689 452.422 73.2312 453.458 71.1216 453.877C69.0121 454.297 66.8255 454.082 64.8383 453.259C62.8512 452.436 61.1527 451.042 59.9578 449.253C58.7628 447.465 58.125 445.362 58.125 443.211" stroke="#1777E9" stroke-width="2.25"/>
<path fill-rule="evenodd" clip-rule="evenodd" d="M67.3169 445.269L73.125 439.461L74.0089 440.345L67.3169 447.037L63.75 443.47L64.6339 442.586L67.3169 445.269Z" fill="#1777E9"/>
<path d="M115.875 443.211C115.875 444.64 115.594 446.054 115.047 447.373C114.501 448.693 113.7 449.891 112.69 450.901C111.68 451.911 110.481 452.712 109.162 453.259C107.842 453.805 106.428 454.086 105 454.086C103.572 454.086 102.158 453.805 100.838 453.259C99.5189 452.712 98.3201 451.911 97.3102 450.901C96.3004 449.891 95.4993 448.693 94.9528 447.373C94.4063 446.054 94.125 444.64 94.125 443.211C94.125 441.783 94.4063 440.369 94.9528 439.05C95.4993 437.73 96.3004 436.531 97.3102 435.522C98.3201 434.512 99.5189 433.711 100.838 433.164C102.158 432.618 103.572 432.336 105 432.336C106.428 432.336 107.842 432.618 109.162 433.164C110.481 433.711 111.68 434.512 112.69 435.522C113.7 436.531 114.501 437.73 115.047 439.05C115.594 440.369 115.875 441.783 115.875 443.211L115.875 443.211Z" stroke="#D9D9D9" stroke-width="2.25"/>
<path d="M105 432.336C107.151 432.336 109.253 432.974 111.042 434.169C112.83 435.364 114.224 437.063 115.047 439.05C115.87 441.037 116.086 443.223 115.666 445.333C115.246 447.443 114.211 449.38 112.69 450.901C111.169 452.422 109.231 453.458 107.122 453.877C105.012 454.297 102.825 454.082 100.838 453.259C98.8512 452.436 97.1527 451.042 95.9578 449.253C94.7628 447.465 94.125 445.362 94.125 443.211" stroke="#1777E9" stroke-width="2.25"/>
<path fill-rule="evenodd" clip-rule="evenodd" d="M103.317 445.269L109.125 439.461L110.009 440.345L103.317 447.037L99.75 443.47L100.634 442.586L103.317 445.269Z" fill="#1777E9"/>
<path d="M136.154 446.461V445.975C136.844 445.369 137.411 444.817 137.855 444.319C138.305 443.821 138.638 443.359 138.854 442.933C139.07 442.501 139.178 442.096 139.178 441.718C139.178 441.466 139.133 441.241 139.043 441.043C138.959 440.845 138.827 440.692 138.647 440.584C138.467 440.47 138.239 440.413 137.963 440.413C137.693 440.413 137.441 440.485 137.207 440.629C136.979 440.773 136.775 440.956 136.595 441.178L136.118 440.71C136.382 440.416 136.667 440.182 136.973 440.008C137.279 439.834 137.642 439.747 138.062 439.747C138.458 439.747 138.797 439.828 139.079 439.99C139.367 440.146 139.589 440.371 139.745 440.665C139.907 440.953 139.988 441.292 139.988 441.682C139.988 442.12 139.877 442.564 139.655 443.014C139.439 443.464 139.136 443.923 138.746 444.391C138.362 444.853 137.912 445.327 137.396 445.813C137.57 445.801 137.75 445.789 137.936 445.777C138.128 445.759 138.308 445.75 138.476 445.75H140.303V446.461H136.154ZM143.81 446.461V441.961C143.81 441.799 143.816 441.601 143.828 441.367C143.84 441.133 143.849 440.932 143.855 440.764H143.819C143.735 440.92 143.648 441.082 143.558 441.25C143.474 441.412 143.384 441.574 143.288 441.736L141.785 443.986H145.466V444.643H140.93V444.103L143.675 439.864H144.584V446.461H143.81Z" fill="#2C2C2C"/>
<path d="M172.154 446.461V445.975C172.844 445.369 173.411 444.817 173.855 444.319C174.305 443.821 174.638 443.359 174.854 442.933C175.07 442.501 175.178 442.096 175.178 441.718C175.178 441.466 175.133 441.241 175.043 441.043C174.959 440.845 174.827 440.692 174.647 440.584C174.467 440.47 174.239 440.413 173.963 440.413C173.693 440.413 173.441 440.485 173.207 440.629C172.979 440.773 172.775 440.956 172.595 441.178L172.118 440.71C172.382 440.416 172.667 440.182 172.973 440.008C173.279 439.834 173.642 439.747 174.062 439.747C174.458 439.747 174.797 439.828 175.079 439.99C175.367 440.146 175.589 440.371 175.745 440.665C175.907 440.953 175.988 441.292 175.988 441.682C175.988 442.12 175.877 442.564 175.655 443.014C175.439 443.464 175.136 443.923 174.746 444.391C174.362 444.853 173.912 445.327 173.396 445.813C173.57 445.801 173.75 445.789 173.936 445.777C174.128 445.759 174.308 445.75 174.476 445.75H176.303V446.461H172.154ZM179.108 446.578C178.766 446.578 178.463 446.536 178.199 446.452C177.941 446.368 177.713 446.26 177.515 446.128C177.323 445.996 177.149 445.855 176.993 445.705L177.407 445.165C177.533 445.291 177.671 445.411 177.821 445.525C177.977 445.633 178.154 445.723 178.352 445.795C178.55 445.861 178.775 445.894 179.027 445.894C179.285 445.894 179.519 445.831 179.729 445.705C179.945 445.579 180.116 445.399 180.242 445.165C180.368 444.931 180.431 444.655 180.431 444.337C180.431 443.869 180.305 443.503 180.053 443.239C179.807 442.969 179.477 442.834 179.063 442.834C178.847 442.834 178.658 442.867 178.496 442.933C178.334 442.999 178.157 443.095 177.965 443.221L177.524 442.942L177.74 439.864H180.944V440.566H178.46L178.289 442.474C178.433 442.39 178.583 442.327 178.739 442.285C178.901 442.237 179.081 442.213 179.279 442.213C179.645 442.213 179.978 442.288 180.278 442.438C180.578 442.582 180.818 442.81 180.998 443.122C181.178 443.434 181.268 443.833 181.268 444.319C181.268 444.799 181.163 445.207 180.953 445.543C180.749 445.879 180.482 446.137 180.152 446.317C179.822 446.491 179.474 446.578 179.108 446.578Z" fill="#2C2C2C"/>
<path d="M208.154 446.461V445.975C208.844 445.369 209.411 444.817 209.855 444.319C210.305 443.821 210.638 443.359 210.854 442.933C211.07 442.501 211.178 442.096 211.178 441.718C211.178 441.466 211.133 441.241 211.043 441.043C210.959 440.845 210.827 440.692 210.647 440.584C210.467 440.47 210.239 440.413 209.963 440.413C209.693 440.413 209.441 440.485 209.207 440.629C208.979 440.773 208.775 440.956 208.595 441.178L208.118 440.71C208.382 440.416 208.667 440.182 208.973 440.008C209.279 439.834 209.642 439.747 210.062 439.747C210.458 439.747 210.797 439.828 211.079 439.99C211.367 440.146 211.589 440.371 211.745 440.665C211.907 440.953 211.988 441.292 211.988 441.682C211.988 442.12 211.877 442.564 211.655 443.014C211.439 443.464 211.136 443.923 210.746 444.391C210.362 444.853 209.912 445.327 209.396 445.813C209.57 445.801 209.75 445.789 209.936 445.777C210.128 445.759 210.308 445.75 210.476 445.75H212.303V446.461H208.154ZM215.459 446.578C215.147 446.578 214.856 446.512 214.586 446.38C214.316 446.242 214.082 446.038 213.884 445.768C213.686 445.492 213.53 445.15 213.416 444.742C213.308 444.334 213.254 443.857 213.254 443.311C213.254 442.669 213.32 442.12 213.452 441.664C213.584 441.208 213.764 440.839 213.992 440.557C214.22 440.275 214.481 440.071 214.775 439.945C215.069 439.813 215.375 439.747 215.693 439.747C216.035 439.747 216.332 439.81 216.584 439.936C216.836 440.062 217.055 440.224 217.241 440.422L216.773 440.926C216.647 440.77 216.491 440.647 216.305 440.557C216.119 440.467 215.927 440.422 215.729 440.422C215.417 440.422 215.132 440.515 214.874 440.701C214.616 440.881 214.409 441.181 214.253 441.601C214.103 442.021 214.028 442.591 214.028 443.311C214.028 443.875 214.082 444.352 214.19 444.742C214.304 445.132 214.466 445.429 214.676 445.633C214.892 445.831 215.153 445.93 215.459 445.93C215.675 445.93 215.864 445.867 216.026 445.741C216.194 445.615 216.326 445.441 216.422 445.219C216.524 444.991 216.575 444.73 216.575 444.436C216.575 444.136 216.53 443.878 216.44 443.662C216.356 443.44 216.227 443.272 216.053 443.158C215.879 443.038 215.657 442.978 215.387 442.978C215.177 442.978 214.949 443.047 214.703 443.185C214.457 443.317 214.223 443.548 214.001 443.878L213.974 443.23C214.112 443.05 214.265 442.897 214.433 442.771C214.601 442.639 214.778 442.54 214.964 442.474C215.156 442.402 215.342 442.366 215.522 442.366C215.894 442.366 216.215 442.444 216.485 442.6C216.761 442.75 216.974 442.978 217.124 443.284C217.28 443.59 217.358 443.974 217.358 444.436C217.358 444.862 217.271 445.237 217.097 445.561C216.923 445.879 216.692 446.128 216.404 446.308C216.122 446.488 215.807 446.578 215.459 446.578Z" fill="#2C2C2C"/>
<path d="M244.154 446.461V445.975C244.844 445.369 245.411 444.817 245.855 444.319C246.305 443.821 246.638 443.359 246.854 442.933C247.07 442.501 247.178 442.096 247.178 441.718C247.178 441.466 247.133 441.241 247.043 441.043C246.959 440.845 246.827 440.692 246.647 440.584C246.467 440.47 246.239 440.413 245.963 440.413C245.693 440.413 245.441 440.485 245.207 440.629C244.979 440.773 244.775 440.956 244.595 441.178L244.118 440.71C244.382 440.416 244.667 440.182 244.973 440.008C245.279 439.834 245.642 439.747 246.062 439.747C246.458 439.747 246.797 439.828 247.079 439.99C247.367 440.146 247.589 440.371 247.745 440.665C247.907 440.953 247.988 441.292 247.988 441.682C247.988 442.12 247.877 442.564 247.655 443.014C247.439 443.464 247.136 443.923 246.746 444.391C246.362 444.853 245.912 445.327 245.396 445.813C245.57 445.801 245.75 445.789 245.936 445.777C246.128 445.759 246.308 445.75 246.476 445.75H248.303V446.461H244.154ZM250.532 446.461C250.562 445.837 250.613 445.264 250.685 444.742C250.763 444.214 250.874 443.719 251.018 443.257C251.162 442.789 251.345 442.336 251.567 441.898C251.795 441.46 252.071 441.016 252.395 440.566H249.191V439.864H253.322V440.359C252.938 440.857 252.623 441.334 252.377 441.79C252.137 442.246 251.948 442.711 251.81 443.185C251.678 443.659 251.579 444.163 251.513 444.697C251.453 445.225 251.411 445.813 251.387 446.461H250.532Z" fill="#2C2C2C"/>
<path d="M28.1538 482.461V481.975C28.8438 481.369 29.4108 480.817 29.8548 480.319C30.3048 479.821 30.6378 479.359 30.8538 478.933C31.0698 478.501 31.1778 478.096 31.1778 477.718C31.1778 477.466 31.1328 477.241 31.0428 477.043C30.9588 476.845 30.8268 476.692 30.6468 476.584C30.4668 476.47 30.2388 476.413 29.9628 476.413C29.6928 476.413 29.4408 476.485 29.2068 476.629C28.9788 476.773 28.7748 476.956 28.5948 477.178L28.1178 476.71C28.3818 476.416 28.6668 476.182 28.9728 476.008C29.2788 475.834 29.6418 475.747 30.0618 475.747C30.4578 475.747 30.7968 475.828 31.0788 475.99C31.3668 476.146 31.5888 476.371 31.7448 476.665C31.9068 476.953 31.9878 477.292 31.9878 477.682C31.9878 478.12 31.8768 478.564 31.6548 479.014C31.4388 479.464 31.1358 479.923 30.7458 480.391C30.3618 480.853 29.9118 481.327 29.3958 481.813C29.5698 481.801 29.7498 481.789 29.9358 481.777C30.1278 481.759 30.3078 481.75 30.4758 481.75H32.3028V482.461H28.1538ZM35.27 482.578C34.862 482.578 34.499 482.503 34.181 482.353C33.863 482.203 33.614 481.996 33.434 481.732C33.254 481.468 33.164 481.165 33.164 480.823C33.164 480.529 33.221 480.265 33.335 480.031C33.455 479.791 33.608 479.587 33.794 479.419C33.98 479.245 34.172 479.104 34.37 478.996V478.96C34.13 478.792 33.92 478.585 33.74 478.339C33.566 478.087 33.479 477.787 33.479 477.439C33.479 477.103 33.557 476.812 33.713 476.566C33.875 476.314 34.091 476.119 34.361 475.981C34.637 475.837 34.946 475.765 35.288 475.765C35.666 475.765 35.99 475.84 36.26 475.99C36.53 476.14 36.737 476.344 36.881 476.602C37.025 476.86 37.097 477.16 37.097 477.502C37.097 477.73 37.049 477.946 36.953 478.15C36.863 478.354 36.752 478.537 36.62 478.699C36.488 478.855 36.356 478.987 36.224 479.095V479.14C36.416 479.248 36.596 479.38 36.764 479.536C36.932 479.686 37.067 479.872 37.169 480.094C37.277 480.31 37.331 480.571 37.331 480.877C37.331 481.189 37.244 481.477 37.07 481.741C36.902 481.999 36.662 482.203 36.35 482.353C36.044 482.503 35.684 482.578 35.27 482.578ZM35.72 478.879C35.942 478.681 36.11 478.471 36.224 478.249C36.338 478.021 36.395 477.787 36.395 477.547C36.395 477.325 36.35 477.127 36.26 476.953C36.176 476.779 36.05 476.641 35.882 476.539C35.714 476.431 35.513 476.377 35.279 476.377C34.973 476.377 34.721 476.473 34.523 476.665C34.325 476.857 34.226 477.115 34.226 477.439C34.226 477.697 34.295 477.916 34.433 478.096C34.577 478.27 34.763 478.42 34.991 478.546C35.219 478.666 35.462 478.777 35.72 478.879ZM35.279 481.966C35.537 481.966 35.759 481.918 35.945 481.822C36.137 481.726 36.284 481.594 36.386 481.426C36.494 481.258 36.548 481.066 36.548 480.85C36.548 480.628 36.5 480.439 36.404 480.283C36.308 480.121 36.179 479.98 36.017 479.86C35.861 479.74 35.678 479.632 35.468 479.536C35.258 479.44 35.036 479.347 34.802 479.257C34.538 479.425 34.319 479.638 34.145 479.896C33.977 480.148 33.893 480.433 33.893 480.751C33.893 480.979 33.953 481.186 34.073 481.372C34.193 481.558 34.358 481.705 34.568 481.813C34.784 481.915 35.021 481.966 35.279 481.966Z" fill="#2C2C2C"/>
<path d="M64.1538 482.461V481.975C64.8438 481.369 65.4108 480.817 65.8548 480.319C66.3048 479.821 66.6378 479.359 66.8538 478.933C67.0698 478.501 67.1778 478.096 67.1778 477.718C67.1778 477.466 67.1328 477.241 67.0428 477.043C66.9588 476.845 66.8268 476.692 66.6468 476.584C66.4668 476.47 66.2388 476.413 65.9628 476.413C65.6928 476.413 65.4408 476.485 65.2068 476.629C64.9788 476.773 64.7748 476.956 64.5948 477.178L64.1178 476.71C64.3818 476.416 64.6668 476.182 64.9728 476.008C65.2788 475.834 65.6418 475.747 66.0618 475.747C66.4578 475.747 66.7968 475.828 67.0788 475.99C67.3668 476.146 67.5888 476.371 67.7448 476.665C67.9068 476.953 67.9878 477.292 67.9878 477.682C67.9878 478.12 67.8768 478.564 67.6548 479.014C67.4388 479.464 67.1358 479.923 66.7458 480.391C66.3618 480.853 65.9118 481.327 65.3958 481.813C65.5698 481.801 65.7498 481.789 65.9358 481.777C66.1278 481.759 66.3078 481.75 66.4758 481.75H68.3028V482.461H64.1538ZM70.865 482.578C70.505 482.578 70.193 482.515 69.929 482.389C69.671 482.257 69.452 482.095 69.272 481.903L69.722 481.39C69.866 481.546 70.034 481.669 70.226 481.759C70.424 481.849 70.628 481.894 70.838 481.894C71.06 481.894 71.27 481.843 71.468 481.741C71.666 481.639 71.84 481.471 71.99 481.237C72.146 480.997 72.266 480.685 72.35 480.301C72.44 479.917 72.485 479.443 72.485 478.879C72.485 478.339 72.428 477.883 72.314 477.511C72.206 477.139 72.044 476.86 71.828 476.674C71.612 476.482 71.351 476.386 71.045 476.386C70.835 476.386 70.646 476.449 70.478 476.575C70.31 476.701 70.175 476.875 70.073 477.097C69.971 477.319 69.92 477.583 69.92 477.889C69.92 478.183 69.962 478.441 70.046 478.663C70.136 478.879 70.268 479.047 70.442 479.167C70.622 479.287 70.841 479.347 71.099 479.347C71.321 479.347 71.552 479.278 71.792 479.14C72.038 478.996 72.272 478.762 72.494 478.438L72.53 479.095C72.398 479.263 72.245 479.413 72.071 479.545C71.903 479.677 71.723 479.779 71.531 479.851C71.345 479.923 71.156 479.959 70.964 479.959C70.598 479.959 70.277 479.881 70.001 479.725C69.731 479.569 69.521 479.338 69.371 479.032C69.221 478.72 69.146 478.339 69.146 477.889C69.146 477.457 69.233 477.082 69.407 476.764C69.581 476.44 69.809 476.191 70.091 476.017C70.379 475.837 70.694 475.747 71.036 475.747C71.354 475.747 71.648 475.813 71.918 475.945C72.188 476.071 72.422 476.266 72.62 476.53C72.818 476.788 72.974 477.112 73.088 477.502C73.202 477.892 73.259 478.351 73.259 478.879C73.259 479.545 73.193 480.115 73.061 480.589C72.929 481.057 72.749 481.438 72.521 481.732C72.293 482.026 72.035 482.242 71.747 482.38C71.465 482.512 71.171 482.578 70.865 482.578Z" fill="#2C2C2C"/>
<path d="M102.125 482.578C101.783 482.578 101.48 482.536 101.216 482.452C100.958 482.368 100.73 482.257 100.532 482.119C100.334 481.981 100.163 481.831 100.019 481.669L100.442 481.138C100.634 481.336 100.859 481.513 101.117 481.669C101.381 481.819 101.699 481.894 102.071 481.894C102.335 481.894 102.566 481.846 102.764 481.75C102.968 481.648 103.127 481.507 103.241 481.327C103.355 481.141 103.412 480.922 103.412 480.67C103.412 480.406 103.346 480.175 103.214 479.977C103.088 479.779 102.875 479.626 102.575 479.518C102.275 479.404 101.87 479.347 101.36 479.347V478.717C101.816 478.717 102.176 478.663 102.44 478.555C102.704 478.441 102.893 478.288 103.007 478.096C103.127 477.904 103.187 477.691 103.187 477.457C103.187 477.139 103.088 476.887 102.89 476.701C102.692 476.509 102.419 476.413 102.071 476.413C101.807 476.413 101.558 476.473 101.324 476.593C101.096 476.713 100.889 476.866 100.703 477.052L100.262 476.53C100.514 476.302 100.787 476.116 101.081 475.972C101.381 475.822 101.72 475.747 102.098 475.747C102.47 475.747 102.8 475.813 103.088 475.945C103.382 476.071 103.61 476.257 103.772 476.503C103.94 476.749 104.024 477.046 104.024 477.394C104.024 477.796 103.916 478.129 103.7 478.393C103.484 478.657 103.202 478.852 102.854 478.978V479.023C103.112 479.083 103.346 479.188 103.556 479.338C103.766 479.488 103.934 479.677 104.06 479.905C104.186 480.133 104.249 480.397 104.249 480.697C104.249 481.087 104.153 481.423 103.961 481.705C103.769 481.987 103.514 482.203 103.196 482.353C102.878 482.503 102.521 482.578 102.125 482.578ZM107.252 482.578C106.838 482.578 106.475 482.452 106.163 482.2C105.857 481.948 105.62 481.567 105.452 481.057C105.284 480.547 105.2 479.908 105.2 479.14C105.2 478.372 105.284 477.739 105.452 477.241C105.62 476.737 105.857 476.362 106.163 476.116C106.475 475.87 106.838 475.747 107.252 475.747C107.672 475.747 108.035 475.873 108.341 476.125C108.647 476.371 108.884 476.743 109.052 477.241C109.22 477.739 109.304 478.372 109.304 479.14C109.304 479.908 109.22 480.547 109.052 481.057C108.884 481.567 108.647 481.948 108.341 482.2C108.035 482.452 107.672 482.578 107.252 482.578ZM107.252 481.912C107.504 481.912 107.723 481.816 107.909 481.624C108.101 481.432 108.248 481.132 108.35 480.724C108.458 480.31 108.512 479.782 108.512 479.14C108.512 478.498 108.458 477.976 108.35 477.574C108.248 477.166 108.101 476.869 107.909 476.683C107.723 476.491 107.504 476.395 107.252 476.395C107.006 476.395 106.787 476.491 106.595 476.683C106.403 476.869 106.253 477.166 106.145 477.574C106.043 477.976 105.992 478.498 105.992 479.14C105.992 479.782 106.043 480.31 106.145 480.724C106.253 481.132 106.403 481.432 106.595 481.624C106.787 481.816 107.006 481.912 107.252 481.912Z" fill="#2C2C2C"/>
<line x1="6" y1="514.836" x2="276" y2="514.836" stroke="#D9D9D9" stroke-width="0.75"/>
<path d="M24.462 548.961V548.405C26.877 546.294 27.9795 544.751 27.9795 543.438C27.9795 542.556 27.528 541.905 26.5725 541.905C25.9425 541.905 25.3965 542.294 24.966 542.798L24.4095 542.262C25.0395 541.58 25.7115 541.128 26.688 541.128C28.0635 541.128 28.9245 542.021 28.9245 543.396C28.9245 544.94 27.717 546.504 25.9005 548.216C26.31 548.174 26.772 548.142 27.1605 548.142H29.292V548.961H24.462ZM30.2862 548.961V548.405C32.7012 546.294 33.8037 544.751 33.8037 543.438C33.8037 542.556 33.3522 541.905 32.3967 541.905C31.7667 541.905 31.2207 542.294 30.7902 542.798L30.2337 542.262C30.8637 541.58 31.5357 541.128 32.5122 541.128C33.8877 541.128 34.7487 542.021 34.7487 543.396C34.7487 544.94 33.5412 546.504 31.7247 548.216C32.1342 548.174 32.5962 548.142 32.9847 548.142H35.1162V548.961H30.2862ZM38.8299 540.635C40.2474 540.635 41.2869 541.496 41.2869 542.745C41.2869 543.984 40.2474 544.845 38.8299 544.845C37.4229 544.845 36.3834 543.984 36.3834 542.745C36.3834 541.496 37.4229 540.635 38.8299 540.635ZM38.8299 541.349C37.9164 541.349 37.2234 541.926 37.2234 542.745C37.2234 543.564 37.9164 544.131 38.8299 544.131C39.7539 544.131 40.4364 543.564 40.4364 542.745C40.4364 541.926 39.7539 541.349 38.8299 541.349ZM43.0719 540.288H43.9539V545.15H43.0719V540.288ZM37.8114 545.612H43.9539V547.922H38.6829V549.35H37.8324V547.271H43.0929V546.315H37.8114V545.612ZM37.8324 548.961H44.2689V549.654H37.8324V548.961ZM50.7218 544.215H51.5933V545.906H50.7218V544.215ZM55.0793 540.288H55.9508V545.874H55.0793V540.288ZM48.2543 544.509L48.1493 543.858C49.9763 543.858 52.2968 543.848 54.3233 543.617L54.3758 544.184C52.2968 544.488 50.0288 544.509 48.2543 544.509ZM49.5878 546.221H55.9508V548.195H50.4593V549.266H49.6088V547.617H55.0898V546.851H49.5878V546.221ZM49.6088 549.045H56.2658V549.675H49.6088V549.045ZM53.1893 544.803H55.3523V545.37H53.1893V544.803ZM51.2153 540.467C52.6223 540.467 53.5463 541.013 53.5463 541.895C53.5463 542.777 52.6223 543.323 51.2153 543.323C49.7978 543.323 48.8738 542.777 48.8738 541.895C48.8738 541.013 49.7978 540.467 51.2153 540.467ZM51.2153 541.076C50.2808 541.076 49.6823 541.391 49.6823 541.895C49.6823 542.399 50.2808 542.714 51.2153 542.714C52.1288 542.714 52.7273 542.399 52.7273 541.895C52.7273 541.391 52.1288 541.076 51.2153 541.076ZM59.9399 545.171H60.8009V548.016H59.9399V545.171ZM63.4469 545.171H64.3184V548.016H63.4469V545.171ZM57.8399 547.848H66.4394V548.573H57.8399V547.848ZM62.1239 540.887C64.1294 540.887 65.5679 541.842 65.5679 543.333C65.5679 544.814 64.1294 545.769 62.1239 545.769C60.1079 545.769 58.6694 544.814 58.6694 543.333C58.6694 541.842 60.1079 540.887 62.1239 540.887ZM62.1239 541.58C60.6014 541.58 59.5094 542.273 59.5094 543.333C59.5094 544.383 60.6014 545.076 62.1239 545.076C63.6464 545.076 64.7279 544.383 64.7279 543.333C64.7279 542.273 63.6464 541.58 62.1239 541.58ZM70.1556 540.635C71.5731 540.635 72.6126 541.496 72.6126 542.745C72.6126 543.984 71.5731 544.845 70.1556 544.845C68.7486 544.845 67.7091 543.984 67.7091 542.745C67.7091 541.496 68.7486 540.635 70.1556 540.635ZM70.1556 541.349C69.2421 541.349 68.5491 541.926 68.5491 542.745C68.5491 543.564 69.2421 544.131 70.1556 544.131C71.0796 544.131 71.7621 543.564 71.7621 542.745C71.7621 541.926 71.0796 541.349 70.1556 541.349ZM74.3976 540.288H75.2796V545.15H74.3976V540.288ZM69.1371 545.612H75.2796V547.922H70.0086V549.35H69.1581V547.271H74.4186V546.315H69.1371V545.612ZM69.1581 548.961H75.5946V549.654H69.1581V548.961Z" fill="#2C2C2C"/>
<path d="M92.012 543.917H93.608V545.597H92.012V543.917ZM92.792 539.861C94.4 539.861 95.564 540.785 95.564 542.129C95.564 543.449 94.4 544.373 92.792 544.373C91.184 544.373 90.02 543.449 90.02 542.129C90.02 540.785 91.184 539.861 92.792 539.861ZM92.792 541.061C92.036 541.061 91.508 541.445 91.508 542.129C91.508 542.801 92.036 543.185 92.792 543.185C93.56 543.185 94.076 542.801 94.076 542.129C94.076 541.445 93.56 541.061 92.792 541.061ZM96.704 539.429H98.3V547.901H96.704V539.429ZM97.736 542.909H99.692V544.217H97.736V542.909ZM90.884 549.053H98.672V550.337H90.884V549.053ZM90.884 547.169H92.492V549.605H90.884V547.169ZM89.624 546.461L89.444 545.189C91.328 545.189 93.932 545.177 96.116 544.865L96.224 546.005C93.98 546.425 91.46 546.461 89.624 546.461ZM103.075 545.897H104.635V548.513H103.075V545.897ZM106.591 545.885H108.151V548.513H106.591V545.885ZM100.531 548.009H110.587V549.305H100.531V548.009ZM101.659 540.137H109.459V543.821H103.267V545.705H101.683V542.573H107.875V541.397H101.659V540.137ZM101.683 545.033H109.711V546.317H101.683V545.033ZM112.05 549.461V548.033H113.97V542.417H112.35V541.325C113.25 541.157 113.85 540.929 114.426 540.581H115.734V548.033H117.402V549.461H112.05Z" fill="#1777E9"/>
<path d="M134.425 539.417H136.033V545.033H134.425V539.417ZM128.617 545.525H136.033V548.537H130.201V549.653H128.641V547.385H134.449V546.737H128.617V545.525ZM128.641 549.221H136.309V550.457H128.641V549.221ZM129.396 539.669H130.717V540.509C130.717 542.561 129.685 544.421 127.513 545.081L126.745 543.821C128.605 543.257 129.396 541.865 129.396 540.509V539.669ZM129.721 539.669H131.029V540.509C131.029 541.829 131.809 543.125 133.621 543.641L132.853 544.877C130.717 544.253 129.721 542.513 129.721 540.509V539.669ZM145.86 539.417H147.384V550.529H145.86V539.417ZM144.528 543.677H146.364V544.973H144.528V543.677ZM143.52 539.609H145.008V550.001H143.52V539.609ZM137.916 540.665H142.992V541.937H137.916V540.665ZM137.892 548.009L137.724 546.713C139.104 546.713 141.42 546.677 143.076 546.449L143.184 547.601C141.48 547.973 139.248 548.009 137.892 548.009ZM138.612 541.481H140.04V547.049H138.612V541.481ZM140.868 541.481H142.296V547.049H140.868V541.481ZM148.895 549.461V548.453C151.319 546.281 152.735 544.613 152.735 543.245C152.735 542.357 152.267 541.805 151.415 541.805C150.755 541.805 150.239 542.225 149.783 542.729L148.811 541.769C149.627 540.893 150.431 540.425 151.643 540.425C153.311 540.425 154.439 541.493 154.439 543.149C154.439 544.769 153.095 546.497 151.475 548.081C151.919 548.033 152.507 547.973 152.927 547.973H154.847V549.461H148.895Z" fill="#2C2C2C"/>
<g clip-path="url(#clip3_649_9010)">
<path d="M242.447 541.265L246.75 545.558L251.053 541.265L252.375 542.586L246.75 548.211L241.125 542.586L242.447 541.265Z" fill="black"/>
</g>
</g>
<rect x="3" y="3.71143" width="276" height="573" rx="16.5" stroke="#E5E5E5" stroke-width="6"/>
<defs>
<clipPath id="clip0_649_9010">
<rect x="6" y="6.71143" width="270" height="567" rx="13.5" fill="white"/>
</clipPath>
<clipPath id="clip1_649_9010">
<rect width="22.5" height="22.5" fill="white" transform="translate(21.75 276.711)"/>
</clipPath>
<clipPath id="clip2_649_9010">
<rect width="22.5" height="22.5" fill="white" transform="translate(237.75 276.711)"/>
</clipPath>
<clipPath id="clip3_649_9010">
<rect width="22.5" height="22.5" fill="white" transform="translate(235.5 533.211)"/>
</clipPath>
</defs>
</svg>
