<svg width="282" height="597" viewBox="0 0 282 597" fill="none" xmlns="http://www.w3.org/2000/svg">
<g clip-path="url(#clip0_649_9278)">
<rect x="6" y="6.71143" width="270" height="584" rx="13.5" fill="white"/>
<rect width="270" height="72" transform="translate(5.99988 18.7114)" fill="white"/>
<rect x="5.99988" y="18.7114" width="270" height="36" fill="white"/>
<path d="M129.501 37.4754H139.413V38.4714H129.501V37.4754ZM133.833 36.1674H135.081V37.8594H133.833V36.1674ZM130.773 35.6034H138.309V36.5754H130.773V35.6034ZM130.773 32.0274H138.237V32.9994H132.033V36.1434H130.773V32.0274ZM131.661 33.8154H137.961V34.7514H131.661V33.8154ZM134.445 39.1434C135.645 39.1434 136.573 39.2954 137.229 39.5994C137.893 39.8954 138.225 40.3354 138.225 40.9194C138.225 41.4954 137.893 41.9314 137.229 42.2274C136.573 42.5314 135.645 42.6834 134.445 42.6834C133.253 42.6834 132.325 42.5314 131.661 42.2274C131.005 41.9314 130.677 41.4954 130.677 40.9194C130.677 40.3354 131.005 39.8954 131.661 39.5994C132.325 39.2954 133.253 39.1434 134.445 39.1434ZM134.445 40.0794C133.621 40.0794 132.997 40.1514 132.573 40.2954C132.149 40.4314 131.937 40.6394 131.937 40.9194C131.937 41.1994 132.149 41.4114 132.573 41.5554C132.997 41.6914 133.621 41.7594 134.445 41.7594C135.277 41.7594 135.905 41.6914 136.329 41.5554C136.753 41.4114 136.965 41.1994 136.965 40.9194C136.965 40.6394 136.753 40.4314 136.329 40.2954C135.905 40.1514 135.277 40.0794 134.445 40.0794ZM144.8 34.7154H147.128V35.7234H144.8V34.7154ZM144.716 37.4514H147.104V38.4714H144.716V37.4514ZM148.724 31.7274H149.924V42.6954H148.724V31.7274ZM146.492 31.9914H147.68V42.1674H146.492V31.9914ZM144.044 33.0714H145.244C145.244 34.0714 145.116 35.0154 144.86 35.9034C144.604 36.7834 144.176 37.5994 143.576 38.3514C142.984 39.1034 142.192 39.7794 141.2 40.3794L140.48 39.4794C141.32 38.9754 142 38.4114 142.52 37.7874C143.048 37.1634 143.432 36.4794 143.672 35.7354C143.92 34.9914 144.044 34.1874 144.044 33.3234V33.0714ZM141.02 33.0714H144.488V34.0914H141.02V33.0714Z" fill="black"/>
<rect width="135" height="36" transform="translate(5.99988 54.7114)" fill="white"/>
<path d="M66.1294 68.4124H67.5259V78.1354H66.1294V68.4124ZM63.2629 69.4204H64.6384C64.6384 70.1624 64.5649 70.8729 64.4179 71.5519C64.2779 72.2239 64.0399 72.8574 63.7039 73.4524C63.3749 74.0474 62.9199 74.6004 62.3389 75.1114C61.7649 75.6154 61.0474 76.0774 60.1864 76.4974L59.4514 75.3949C60.3894 74.9399 61.1349 74.4394 61.6879 73.8934C62.2479 73.3404 62.6504 72.7174 62.8954 72.0244C63.1404 71.3244 63.2629 70.5404 63.2629 69.6724V69.4204ZM59.9764 69.4204H63.9139V70.5334H59.9764V69.4204ZM75.3266 68.4229H76.7336V75.3739H75.3266V68.4229ZM76.3451 71.1319H78.0251V72.2764H76.3451V71.1319ZM72.6281 69.1474H74.1086C74.1086 70.0294 73.9336 70.8169 73.5836 71.5099C73.2336 72.2029 72.7226 72.7944 72.0506 73.2844C71.3856 73.7744 70.5666 74.1594 69.5936 74.4394L69.0161 73.3369C69.8071 73.1129 70.4686 72.8259 71.0006 72.4759C71.5396 72.1259 71.9456 71.7269 72.2186 71.2789C72.4916 70.8309 72.6281 70.3479 72.6281 69.8299V69.1474ZM69.4361 69.1474H73.3736V70.2604H69.4361V69.1474ZM70.4546 76.8544H77.0696V77.9779H70.4546V76.8544ZM70.4546 74.6704H71.8511V77.3584H70.4546V74.6704ZM83.4317 69.6304H85.7942V70.6909H83.4317V69.6304ZM83.4317 71.4154H85.7942V72.4654H83.4317V71.4154ZM85.4792 68.4229H86.8757V73.4104H85.4792V68.4229ZM80.4497 73.7779H86.8757V76.3819H81.8462V77.6104H80.4707V75.3739H85.5002V74.8594H80.4497V73.7779ZM80.4707 76.9489H87.1592V78.0409H80.4707V76.9489ZM79.1477 68.8219H80.5337V69.9454H82.3817V68.8219H83.7572V73.1374H79.1477V68.8219ZM80.5337 70.9954V72.0559H82.3817V70.9954H80.5337Z" fill="#1777E9"/>
<rect x="5.99988" y="87.7114" width="135" height="3" fill="#1777E9"/>
<rect width="135" height="36" transform="translate(141 54.7114)" fill="white"/>
<path d="M195.543 68.9059H202.085V71.3944H196.446V73.0219H195.575V70.7224H201.203V69.6094H195.543V68.9059ZM195.575 72.6019H202.295V73.3159H195.575V72.6019ZM194.514 74.2924H203.124V75.0064H194.514V74.2924ZM198.368 74.5654H199.239V78.0409H198.368V74.5654ZM211.093 68.5384H211.965V75.5944H211.093V68.5384ZM205.864 77.1064H212.259V77.8204H205.864V77.1064ZM205.864 74.9749H206.736V77.4739H205.864V74.9749ZM204.73 73.3264H205.497C206.183 73.3264 206.778 73.3229 207.282 73.3159C207.793 73.3019 208.265 73.2739 208.699 73.2319C209.133 73.1899 209.571 73.1339 210.012 73.0639L210.106 73.7569C209.644 73.8339 209.193 73.8934 208.752 73.9354C208.311 73.9774 207.831 74.0054 207.313 74.0194C206.795 74.0334 206.19 74.0404 205.497 74.0404H204.73V73.3264ZM204.73 69.2734H209.245V69.9874H205.602V73.4944H204.73V69.2734ZM205.318 71.2789H208.983V71.9719H205.318V71.2789ZM218.327 69.8824H220.994V70.5544H218.327V69.8824ZM218.327 71.6044H220.994V72.2869H218.327V71.6044ZM220.784 68.5279H221.645V73.4839H220.784V68.5279ZM215.534 73.9459H221.645V76.2034H216.416V77.6629H215.555V75.5419H220.784V74.6389H215.534V73.9459ZM215.555 77.2009H222.002V77.9044H215.555V77.2009ZM214.305 68.9689H215.177V70.3234H217.739V68.9689H218.6V73.1059H214.305V68.9689ZM215.177 71.0059V72.4024H217.739V71.0059H215.177Z" fill="#909090"/>
<rect width="270" height="276" transform="translate(6 90.7114)" fill="white"/>
<path d="M200.25 116.211C206.849 116.211 213.383 117.511 219.48 120.036C225.576 122.562 231.116 126.263 235.782 130.929C240.448 135.595 244.15 141.135 246.675 147.232C249.2 153.328 250.5 159.863 250.5 166.461C250.5 173.06 249.2 179.595 246.675 185.691C244.15 191.788 240.448 197.327 235.782 201.994C231.116 206.66 225.576 210.361 219.48 212.886C213.383 215.412 206.849 216.711 200.25 216.711" stroke="#D9D9D9" stroke-width="15"/>
<path d="M200.25 112.461C208.533 112.461 216.705 114.367 224.133 118.03C231.562 121.694 238.049 127.017 243.091 133.588C248.133 140.16 251.596 147.803 253.212 155.927C254.828 164.05 254.554 172.437 252.41 180.438C250.266 188.438 246.311 195.839 240.849 202.066C235.388 208.294 228.567 213.181 220.915 216.351C213.262 219.521 204.983 220.888 196.718 220.346C188.453 219.804 180.423 217.368 173.25 213.227" stroke="#1777E9" stroke-width="7.5"/>
<path d="M181.849 171.922C178.489 171.922 175.465 169.21 175.465 162.946C175.465 156.346 178.753 153.514 182.353 153.514C184.513 153.514 186.097 154.402 187.177 155.53L185.281 157.618C184.681 156.922 183.577 156.346 182.569 156.346C180.409 156.346 178.705 158.002 178.705 162.946C178.705 167.554 180.049 169.258 181.801 169.258C183.121 169.258 184.201 168.154 184.201 165.994C184.201 163.882 183.193 162.922 181.681 162.922C180.697 162.922 179.569 163.45 178.681 164.914L178.537 162.514C179.473 161.194 181.129 160.426 182.329 160.426C185.305 160.426 187.441 162.178 187.441 165.994C187.441 169.642 184.873 171.922 181.849 171.922ZM195.525 171.922C191.901 171.922 189.501 168.778 189.501 162.634C189.501 156.514 191.901 153.514 195.525 153.514C199.125 153.514 201.525 156.514 201.525 162.634C201.525 168.778 199.125 171.922 195.525 171.922ZM195.525 169.162C197.061 169.162 198.189 167.626 198.189 162.634C198.189 157.666 197.061 156.226 195.525 156.226C193.989 156.226 192.837 157.666 192.837 162.634C192.837 167.626 193.989 169.162 195.525 169.162ZM207.689 164.77C205.145 164.77 203.345 162.658 203.345 159.106C203.345 155.554 205.145 153.514 207.689 153.514C210.233 153.514 212.033 155.554 212.033 159.106C212.033 162.658 210.233 164.77 207.689 164.77ZM207.689 162.778C208.721 162.778 209.513 161.698 209.513 159.106C209.513 156.49 208.721 155.506 207.689 155.506C206.633 155.506 205.841 156.49 205.841 159.106C205.841 161.698 206.633 162.778 207.689 162.778ZM208.265 171.922L217.913 153.514H220.025L210.353 171.922H208.265ZM220.601 171.922C218.081 171.922 216.281 169.834 216.281 166.258C216.281 162.706 218.081 160.642 220.601 160.642C223.121 160.642 224.921 162.706 224.921 166.258C224.921 169.834 223.121 171.922 220.601 171.922ZM220.601 169.93C221.633 169.93 222.449 168.874 222.449 166.258C222.449 163.642 221.633 162.658 220.601 162.658C219.569 162.658 218.753 163.642 218.753 166.258C218.753 168.874 219.569 169.93 220.601 169.93Z" fill="#1777E9"/>
<path d="M179.283 181.813H179.886V183.136C179.886 184.855 178.851 186.583 177.555 187.222L177.123 186.628C178.302 186.07 179.283 184.54 179.283 183.136V181.813ZM179.427 181.813H180.03V183.136C180.03 184.513 181.011 185.917 182.208 186.43L181.785 187.024C180.471 186.412 179.427 184.828 179.427 183.136V181.813ZM177.393 181.48H181.938V182.11H177.393V181.48ZM183.036 180.652H183.783V188.788H183.036V180.652ZM185.798 181.237H186.545V184.675H185.798V181.237ZM185.798 184.441H186.446C187.607 184.441 188.822 184.36 190.154 184.09L190.244 184.702C188.876 184.99 187.652 185.071 186.446 185.071H185.798V184.441ZM190.973 180.661H191.72V186.538H190.973V180.661ZM191.486 183.064H192.926V183.703H191.486V183.064ZM186.68 187.996H192.008V188.608H186.68V187.996ZM186.68 185.962H187.427V188.284H186.68V185.962ZM198.961 181.453H199.609V181.795C199.609 183.253 198.061 184.324 196.423 184.603L196.135 184.009C197.566 183.802 198.961 182.866 198.961 181.795V181.453ZM199.15 181.453H199.789V181.795C199.789 182.866 201.193 183.802 202.615 184.009L202.336 184.603C200.689 184.324 199.15 183.253 199.15 181.795V181.453ZM198.988 185.683H199.726V188.788H198.988V185.683ZM195.703 185.287H203.056V185.899H195.703V185.287ZM196.387 181.156H202.345V181.759H196.387V181.156ZM208.596 188.086V183.595C208.596 183.262 208.623 182.731 208.65 182.389H208.605C208.443 182.713 208.263 183.046 208.083 183.37L206.58 185.62H210.252V186.268H205.716V185.728L208.461 181.489H209.37V188.086H208.596ZM213.048 188.212C211.833 188.212 210.942 187.474 210.942 186.457C210.942 185.566 211.554 184.954 212.157 184.63V184.594C211.671 184.261 211.257 183.757 211.257 183.064C211.257 182.065 212.04 181.399 213.075 181.399C214.2 181.399 214.884 182.119 214.884 183.127C214.884 183.829 214.398 184.414 214.002 184.72V184.765C214.578 185.098 215.118 185.602 215.118 186.502C215.118 187.465 214.281 188.212 213.048 188.212ZM213.498 184.513C213.948 184.117 214.182 183.667 214.182 183.172C214.182 182.524 213.768 182.002 213.057 182.002C212.454 182.002 212.013 182.434 212.013 183.064C212.013 183.856 212.724 184.207 213.498 184.513ZM213.066 187.591C213.822 187.591 214.326 187.132 214.326 186.475C214.326 185.593 213.516 185.26 212.589 184.882C212.049 185.224 211.68 185.746 211.68 186.376C211.68 187.078 212.274 187.591 213.066 187.591ZM217.375 185.53C216.466 185.53 215.872 184.774 215.872 183.442C215.872 182.119 216.466 181.372 217.375 181.372C218.284 181.372 218.878 182.119 218.878 183.442C218.878 184.774 218.284 185.53 217.375 185.53ZM217.375 185.026C217.897 185.026 218.248 184.486 218.248 183.442C218.248 182.389 217.897 181.876 217.375 181.876C216.853 181.876 216.493 182.389 216.493 183.442C216.493 184.486 216.853 185.026 217.375 185.026ZM217.564 188.212L221.2 181.372H221.758L218.122 188.212H217.564ZM221.974 188.212C221.065 188.212 220.471 187.456 220.471 186.115C220.471 184.801 221.065 184.045 221.974 184.045C222.865 184.045 223.468 184.801 223.468 186.115C223.468 187.456 222.865 188.212 221.974 188.212ZM221.974 187.708C222.487 187.708 222.847 187.168 222.847 186.115C222.847 185.062 222.487 184.558 221.974 184.558C221.452 184.558 221.092 185.062 221.092 186.115C221.092 187.168 221.452 187.708 221.974 187.708Z" fill="#909090"/>
<path d="M27.9598 116.346H29.5498V117.906C29.5498 118.706 29.4648 119.491 29.2948 120.261C29.1348 121.031 28.8898 121.756 28.5598 122.436C28.2398 123.106 27.8348 123.701 27.3448 124.221C26.8548 124.731 26.2848 125.136 25.6348 125.436L24.4948 123.861C25.0748 123.591 25.5798 123.241 26.0098 122.811C26.4498 122.381 26.8098 121.901 27.0898 121.371C27.3798 120.831 27.5948 120.266 27.7348 119.676C27.8848 119.076 27.9598 118.486 27.9598 117.906V116.346ZM28.3948 116.346H29.9698V117.906C29.9698 118.456 30.0398 119.016 30.1798 119.586C30.3298 120.146 30.5448 120.681 30.8248 121.191C31.1048 121.691 31.4598 122.141 31.8898 122.541C32.3198 122.941 32.8298 123.261 33.4198 123.501L32.3248 125.091C31.6648 124.801 31.0898 124.411 30.5998 123.921C30.1098 123.431 29.6998 122.866 29.3698 122.226C29.0398 121.586 28.7948 120.901 28.6348 120.171C28.4748 119.431 28.3948 118.676 28.3948 117.906V116.346ZM25.0498 115.476H32.8498V117.126H25.0498V115.476ZM34.1398 114.156H36.1348V128.046H34.1398V114.156ZM38.9686 115.071H40.9636V120.876H38.9686V115.071ZM38.9686 120.246H40.1386C41.0786 120.246 42.0636 120.206 43.0936 120.126C44.1236 120.046 45.1886 119.896 46.2886 119.676L46.5136 121.296C45.3836 121.516 44.2836 121.671 43.2136 121.761C42.1536 121.841 41.1286 121.881 40.1386 121.881H38.9686V120.246ZM47.3386 114.156H49.3336V124.131H47.3386V114.156ZM48.7786 118.041H51.1786V119.721H48.7786V118.041ZM40.3936 126.201H49.7836V127.806H40.3936V126.201ZM40.3936 123.201H42.4036V127.086H40.3936V123.201ZM60.7409 115.686H62.4809V116.106C62.4809 116.586 62.4009 117.051 62.2409 117.501C62.0909 117.951 61.8609 118.371 61.5509 118.761C61.2409 119.141 60.8609 119.486 60.4109 119.796C59.9709 120.096 59.4609 120.351 58.8809 120.561C58.3009 120.771 57.6559 120.921 56.9459 121.011L56.2109 119.466C56.8309 119.386 57.3809 119.266 57.8609 119.106C58.3509 118.936 58.7759 118.741 59.1359 118.521C59.4959 118.291 59.7959 118.046 60.0359 117.786C60.2759 117.526 60.4509 117.251 60.5609 116.961C60.6809 116.671 60.7409 116.386 60.7409 116.106V115.686ZM61.3259 115.686H63.0509V116.106C63.0509 116.386 63.1059 116.671 63.2159 116.961C63.3359 117.251 63.5159 117.526 63.7559 117.786C63.9959 118.046 64.2959 118.291 64.6559 118.521C65.0259 118.741 65.4509 118.936 65.9309 119.106C66.4109 119.266 66.9609 119.386 67.5809 119.466L66.8459 121.011C66.1359 120.921 65.4909 120.771 64.9109 120.561C64.3309 120.351 63.8159 120.096 63.3659 119.796C62.9259 119.486 62.5509 119.141 62.2409 118.761C61.9409 118.371 61.7109 117.951 61.5509 117.501C61.4009 117.051 61.3259 116.586 61.3259 116.106V115.686ZM60.8459 122.961H62.8409V128.046H60.8459V122.961ZM55.6109 121.806H68.1809V123.411H55.6109V121.806ZM56.7209 114.861H67.0259V116.436H56.7209V114.861ZM74.9597 119.256H77.2397V120.861H74.9597V119.256ZM79.4297 114.141H81.3347V128.031H79.4297V114.141ZM76.6097 114.366H78.4697V127.416H76.6097V114.366ZM72.5297 115.116C73.1397 115.116 73.6697 115.321 74.1197 115.731C74.5797 116.131 74.9297 116.711 75.1697 117.471C75.4197 118.221 75.5447 119.121 75.5447 120.171C75.5447 121.211 75.4197 122.111 75.1697 122.871C74.9297 123.631 74.5797 124.216 74.1197 124.626C73.6697 125.026 73.1347 125.226 72.5147 125.226C71.9147 125.226 71.3847 125.026 70.9247 124.626C70.4747 124.216 70.1247 123.631 69.8747 122.871C69.6347 122.111 69.5147 121.211 69.5147 120.171C69.5147 119.121 69.6347 118.221 69.8747 117.471C70.1247 116.711 70.4747 116.131 70.9247 115.731C71.3847 115.321 71.9197 115.116 72.5297 115.116ZM72.5297 117.006C72.2797 117.006 72.0647 117.121 71.8847 117.351C71.7047 117.581 71.5647 117.931 71.4647 118.401C71.3747 118.861 71.3297 119.451 71.3297 120.171C71.3297 120.871 71.3747 121.456 71.4647 121.926C71.5647 122.396 71.7047 122.751 71.8847 122.991C72.0647 123.221 72.2797 123.336 72.5297 123.336C72.7797 123.336 72.9947 123.221 73.1747 122.991C73.3647 122.751 73.5047 122.396 73.5947 121.926C73.6847 121.456 73.7297 120.871 73.7297 120.171C73.7297 119.451 73.6847 118.861 73.5947 118.401C73.5047 117.931 73.3647 117.581 73.1747 117.351C72.9947 117.121 72.7797 117.006 72.5297 117.006ZM96.132 114.126H98.127V128.061H96.132V114.126ZM87.282 115.236H89.262V118.626H92.142V115.236H94.122V124.821H87.282V115.236ZM89.262 120.171V123.231H92.142V120.171H89.262ZM100.391 116.241H107.036V117.816H100.391V116.241ZM103.736 118.446C104.326 118.446 104.846 118.586 105.296 118.866C105.756 119.146 106.116 119.536 106.376 120.036C106.646 120.526 106.781 121.096 106.781 121.746C106.781 122.396 106.646 122.971 106.376 123.471C106.116 123.961 105.756 124.346 105.296 124.626C104.846 124.906 104.326 125.046 103.736 125.046C103.146 125.046 102.621 124.906 102.161 124.626C101.701 124.346 101.341 123.961 101.081 123.471C100.821 122.971 100.691 122.396 100.691 121.746C100.691 121.096 100.821 120.526 101.081 120.036C101.341 119.536 101.701 119.146 102.161 118.866C102.631 118.586 103.156 118.446 103.736 118.446ZM103.736 120.096C103.496 120.096 103.276 120.161 103.076 120.291C102.876 120.421 102.721 120.611 102.611 120.861C102.501 121.101 102.446 121.396 102.446 121.746C102.446 122.096 102.501 122.396 102.611 122.646C102.721 122.896 102.876 123.086 103.076 123.216C103.276 123.336 103.496 123.396 103.736 123.396C103.986 123.396 104.206 123.336 104.396 123.216C104.586 123.086 104.736 122.896 104.846 122.646C104.956 122.396 105.011 122.096 105.011 121.746C105.011 121.396 104.956 121.101 104.846 120.861C104.736 120.611 104.586 120.421 104.396 120.291C104.206 120.161 103.986 120.096 103.736 120.096ZM110.441 114.141H112.331V128.031H110.441V114.141ZM108.776 119.796H111.056V121.401H108.776V119.796ZM107.516 114.396H109.376V127.446H107.516V114.396ZM102.761 114.516H104.726V117.231H102.761V114.516Z" fill="#2C2C2C"/>
<path d="M25.2298 148.711V146.911H27.6298V139.906H25.6048V138.526C26.1648 138.426 26.6448 138.306 27.0448 138.166C27.4548 138.016 27.8348 137.826 28.1848 137.596H29.8198V146.911H31.9048V148.711H25.2298ZM33.4925 148.711V147.436C34.5025 146.536 35.3625 145.701 36.0725 144.931C36.7925 144.161 37.3425 143.446 37.7225 142.786C38.1025 142.116 38.2925 141.496 38.2925 140.926C38.2925 140.566 38.2275 140.251 38.0975 139.981C37.9675 139.711 37.7775 139.506 37.5275 139.366C37.2875 139.216 36.9875 139.141 36.6275 139.141C36.2275 139.141 35.8575 139.256 35.5175 139.486C35.1875 139.706 34.8825 139.971 34.6025 140.281L33.3725 139.096C33.8925 138.536 34.4225 138.116 34.9625 137.836C35.5125 137.546 36.1625 137.401 36.9125 137.401C37.6125 137.401 38.2225 137.546 38.7425 137.836C39.2725 138.116 39.6825 138.511 39.9725 139.021C40.2625 139.531 40.4075 140.131 40.4075 140.821C40.4075 141.491 40.2375 142.176 39.8975 142.876C39.5675 143.566 39.1225 144.256 38.5625 144.946C38.0025 145.636 37.3825 146.316 36.7025 146.986C36.9925 146.946 37.3025 146.916 37.6325 146.896C37.9725 146.866 38.2725 146.851 38.5325 146.851H40.9325V148.711H33.4925ZM44.8751 144.436C44.3551 144.436 43.8901 144.296 43.4801 144.016C43.0701 143.736 42.7501 143.331 42.5201 142.801C42.2901 142.271 42.1751 141.636 42.1751 140.896C42.1751 140.156 42.2901 139.526 42.5201 139.006C42.7501 138.486 43.0701 138.091 43.4801 137.821C43.8901 137.541 44.3551 137.401 44.8751 137.401C45.4151 137.401 45.8851 137.541 46.2851 137.821C46.6951 138.091 47.0151 138.486 47.2451 139.006C47.4751 139.526 47.5901 140.156 47.5901 140.896C47.5901 141.636 47.4751 142.271 47.2451 142.801C47.0151 143.331 46.6951 143.736 46.2851 144.016C45.8851 144.296 45.4151 144.436 44.8751 144.436ZM44.8751 143.191C45.1951 143.191 45.4651 143.016 45.6851 142.666C45.9151 142.306 46.0301 141.716 46.0301 140.896C46.0301 140.086 45.9151 139.511 45.6851 139.171C45.4651 138.821 45.1951 138.646 44.8751 138.646C44.5551 138.646 44.2801 138.821 44.0501 139.171C43.8301 139.511 43.7201 140.086 43.7201 140.896C43.7201 141.716 43.8301 142.306 44.0501 142.666C44.2801 143.016 44.5551 143.191 44.8751 143.191ZM45.2351 148.921L51.2801 137.401H52.5851L46.5551 148.921H45.2351ZM52.9601 148.921C52.4301 148.921 51.9601 148.781 51.5501 148.501C51.1501 148.221 50.8301 147.816 50.5901 147.286C50.3601 146.756 50.2451 146.121 50.2451 145.381C50.2451 144.631 50.3601 143.996 50.5901 143.476C50.8301 142.956 51.1501 142.561 51.5501 142.291C51.9601 142.011 52.4301 141.871 52.9601 141.871C53.4801 141.871 53.9401 142.011 54.3401 142.291C54.7501 142.561 55.0701 142.956 55.3001 143.476C55.5401 143.996 55.6601 144.631 55.6601 145.381C55.6601 146.121 55.5401 146.756 55.3001 147.286C55.0701 147.816 54.7501 148.221 54.3401 148.501C53.9401 148.781 53.4801 148.921 52.9601 148.921ZM52.9601 147.661C53.2801 147.661 53.5501 147.486 53.7701 147.136C53.9901 146.776 54.1001 146.191 54.1001 145.381C54.1001 144.551 53.9901 143.971 53.7701 143.641C53.5501 143.301 53.2801 143.131 52.9601 143.131C52.6301 143.131 52.3551 143.301 52.1351 143.641C51.9151 143.971 51.8051 144.551 51.8051 145.381C51.8051 146.191 51.9151 146.776 52.1351 147.136C52.3551 147.486 52.6301 147.661 52.9601 147.661ZM60.8119 145.081H61.9369C62.7569 145.081 63.4919 145.071 64.1419 145.051C64.8019 145.031 65.4269 144.996 66.0169 144.946C66.6069 144.886 67.2019 144.801 67.8019 144.691L67.9969 146.311C67.3669 146.421 66.7469 146.506 66.1369 146.566C65.5369 146.626 64.8969 146.666 64.2169 146.686C63.5469 146.706 62.7869 146.716 61.9369 146.716H60.8119V145.081ZM60.8119 137.371H67.0969V138.961H62.8069V145.711H60.8119V137.371ZM69.8119 136.141H71.8069V150.076H69.8119V136.141ZM66.4219 140.941H70.6669V142.561H66.4219V140.941ZM25.0798 163.181H26.2348C27.2048 163.181 28.0448 163.171 28.7548 163.151C29.4648 163.121 30.1148 163.076 30.7048 163.016C31.3048 162.946 31.8948 162.851 32.4748 162.731L32.6848 164.276C32.0848 164.406 31.4798 164.506 30.8698 164.576C30.2598 164.646 29.5848 164.696 28.8448 164.726C28.1048 164.746 27.2348 164.756 26.2348 164.756H25.0798V163.181ZM25.0798 158.861H31.3048V160.421H27.0748V164.066H25.0798V158.861ZM33.5398 158.141H35.5348V165.041H33.5398V158.141ZM34.9948 160.766H37.3798V162.386H34.9948V160.766ZM26.3698 165.626H35.5348V169.451H28.3648V171.116H26.3848V167.996H33.5698V167.186H26.3698V165.626ZM26.3848 170.321H35.9398V171.896H26.3848V170.321ZM41.6386 158.876H43.2886V160.106C43.2886 161.036 43.1436 161.911 42.8536 162.731C42.5736 163.551 42.1436 164.266 41.5636 164.876C40.9836 165.486 40.2386 165.946 39.3286 166.256L38.2786 164.651C39.0786 164.401 39.7236 164.041 40.2136 163.571C40.7036 163.101 41.0636 162.566 41.2936 161.966C41.5236 161.366 41.6386 160.746 41.6386 160.106V158.876ZM42.0436 158.876H43.6636V160.016C43.6636 160.626 43.7686 161.216 43.9786 161.786C44.1886 162.346 44.5236 162.846 44.9836 163.286C45.4436 163.716 46.0386 164.051 46.7686 164.291L45.7336 165.851C44.8836 165.551 44.1836 165.116 43.6336 164.546C43.0936 163.976 42.6936 163.306 42.4336 162.536C42.1736 161.756 42.0436 160.916 42.0436 160.016V158.876ZM48.0286 158.156H50.0386V166.286H48.0286V158.156ZM45.3286 166.646C46.7986 166.646 47.9586 166.886 48.8086 167.366C49.6586 167.836 50.0836 168.491 50.0836 169.331C50.0836 170.191 49.6586 170.856 48.8086 171.326C47.9586 171.806 46.7986 172.046 45.3286 172.046C43.8586 172.046 42.6986 171.806 41.8486 171.326C40.9986 170.856 40.5736 170.191 40.5736 169.331C40.5736 168.491 40.9986 167.836 41.8486 167.366C42.6986 166.886 43.8586 166.646 45.3286 166.646ZM45.3286 168.191C44.7286 168.191 44.2236 168.231 43.8136 168.311C43.4036 168.391 43.0886 168.521 42.8686 168.701C42.6586 168.871 42.5536 169.081 42.5536 169.331C42.5536 169.591 42.6586 169.811 42.8686 169.991C43.0886 170.161 43.4036 170.291 43.8136 170.381C44.2236 170.461 44.7286 170.501 45.3286 170.501C45.9286 170.501 46.4336 170.461 46.8436 170.381C47.2536 170.291 47.5636 170.161 47.7736 169.991C47.9836 169.811 48.0886 169.591 48.0886 169.331C48.0886 169.081 47.9836 168.871 47.7736 168.701C47.5636 168.521 47.2536 168.391 46.8436 168.311C46.4336 168.231 45.9286 168.191 45.3286 168.191ZM45.4936 160.676H48.3286V162.296H45.4936V160.676ZM62.1425 158.156H64.0475V166.706H62.1425V158.156ZM60.4625 161.711H62.6675V163.316H60.4625V161.711ZM59.2775 158.336H61.1375V166.556H59.2775V158.336ZM52.1375 159.491H58.8875V161.021H52.1375V159.491ZM55.5275 161.456C56.1175 161.456 56.6375 161.561 57.0875 161.771C57.5375 161.971 57.8875 162.256 58.1375 162.626C58.3975 162.986 58.5275 163.406 58.5275 163.886C58.5275 164.356 58.3975 164.776 58.1375 165.146C57.8875 165.506 57.5375 165.791 57.0875 166.001C56.6375 166.201 56.1175 166.301 55.5275 166.301C54.9575 166.301 54.4425 166.201 53.9825 166.001C53.5325 165.791 53.1775 165.506 52.9175 165.146C52.6575 164.776 52.5275 164.356 52.5275 163.886C52.5275 163.406 52.6575 162.986 52.9175 162.626C53.1775 162.256 53.5325 161.971 53.9825 161.771C54.4425 161.561 54.9575 161.456 55.5275 161.456ZM55.5275 162.881C55.1675 162.881 54.8725 162.966 54.6425 163.136C54.4225 163.306 54.3125 163.556 54.3125 163.886C54.3125 164.206 54.4225 164.456 54.6425 164.636C54.8725 164.806 55.1675 164.891 55.5275 164.891C55.8875 164.891 56.1825 164.806 56.4125 164.636C56.6425 164.456 56.7575 164.206 56.7575 163.886C56.7575 163.556 56.6425 163.306 56.4125 163.136C56.1825 162.966 55.8875 162.881 55.5275 162.881ZM54.5375 158.246H56.5025V160.571H54.5375V158.246ZM55.5575 167.141H57.0575V167.411C57.0575 168.061 56.9425 168.686 56.7125 169.286C56.4925 169.876 56.1525 170.396 55.6925 170.846C55.2325 171.296 54.6375 171.636 53.9075 171.866L52.9775 170.411C53.5875 170.231 54.0775 169.986 54.4475 169.676C54.8275 169.356 55.1075 169.001 55.2875 168.611C55.4675 168.221 55.5575 167.821 55.5575 167.411V167.141ZM56.0675 167.141H57.4925V167.411C57.4925 167.821 57.5725 168.231 57.7325 168.641C57.8925 169.041 58.1425 169.406 58.4825 169.736C58.8225 170.066 59.2675 170.336 59.8175 170.546L59.0375 172.001C58.3175 171.751 57.7375 171.386 57.2975 170.906C56.8675 170.426 56.5525 169.886 56.3525 169.286C56.1625 168.676 56.0675 168.051 56.0675 167.411V167.141ZM60.5675 167.141H61.9925V167.411C61.9925 168.001 61.8925 168.606 61.6925 169.226C61.4925 169.836 61.1775 170.386 60.7475 170.876C60.3175 171.366 59.7475 171.741 59.0375 172.001L58.2425 170.546C58.7925 170.316 59.2375 170.031 59.5775 169.691C59.9175 169.341 60.1675 168.966 60.3275 168.566C60.4875 168.166 60.5675 167.781 60.5675 167.411V167.141ZM61.0475 167.141H62.5325V167.411C62.5325 167.841 62.6225 168.256 62.8025 168.656C62.9825 169.056 63.2625 169.411 63.6425 169.721C64.0325 170.021 64.5275 170.251 65.1275 170.411L64.1825 171.866C63.4525 171.636 62.8575 171.301 62.3975 170.861C61.9375 170.431 61.5975 169.921 61.3775 169.331C61.1575 168.741 61.0475 168.101 61.0475 167.411V167.141ZM69.8063 159.101C70.4963 159.101 71.1113 159.306 71.6513 159.716C72.2013 160.116 72.6263 160.691 72.9263 161.441C73.2363 162.181 73.3913 163.056 73.3913 164.066C73.3913 165.086 73.2363 165.971 72.9263 166.721C72.6263 167.461 72.2013 168.036 71.6513 168.446C71.1113 168.846 70.4963 169.046 69.8063 169.046C69.1163 169.046 68.5013 168.846 67.9613 168.446C67.4213 168.036 66.9963 167.461 66.6863 166.721C66.3763 165.971 66.2213 165.086 66.2213 164.066C66.2213 163.056 66.3763 162.181 66.6863 161.441C66.9963 160.691 67.4213 160.116 67.9613 159.716C68.5013 159.306 69.1163 159.101 69.8063 159.101ZM69.8063 160.916C69.4763 160.916 69.1813 161.036 68.9213 161.276C68.6713 161.516 68.4763 161.871 68.3363 162.341C68.1963 162.801 68.1263 163.376 68.1263 164.066C68.1263 164.746 68.1963 165.326 68.3363 165.806C68.4763 166.276 68.6713 166.631 68.9213 166.871C69.1813 167.111 69.4763 167.231 69.8063 167.231C70.1563 167.231 70.4563 167.111 70.7063 166.871C70.9563 166.631 71.1513 166.276 71.2913 165.806C71.4313 165.326 71.5013 164.746 71.5013 164.066C71.5013 163.376 71.4313 162.801 71.2913 162.341C71.1513 161.871 70.9563 161.516 70.7063 161.276C70.4563 161.036 70.1563 160.916 69.8063 160.916ZM75.6713 158.126H77.6663V172.061H75.6713V158.126ZM72.8063 163.151H76.5113V164.741H72.8063V163.151ZM82.5701 165.206H84.5651V169.091H82.5701V165.206ZM87.6101 165.206H89.6051V169.091H87.6101V165.206ZM79.8101 168.806H92.3951V170.426H79.8101V168.806ZM86.0801 158.831C87.0801 158.831 87.9701 158.986 88.7501 159.296C89.5401 159.606 90.1551 160.041 90.5951 160.601C91.0451 161.151 91.2701 161.806 91.2701 162.566C91.2701 163.316 91.0451 163.971 90.5951 164.531C90.1551 165.081 89.5401 165.511 88.7501 165.821C87.9701 166.131 87.0801 166.286 86.0801 166.286C85.0901 166.286 84.2001 166.131 83.4101 165.821C82.6301 165.511 82.0151 165.081 81.5651 164.531C81.1151 163.971 80.8901 163.316 80.8901 162.566C80.8901 161.806 81.1151 161.151 81.5651 160.601C82.0151 160.041 82.6301 159.606 83.4101 159.296C84.2001 158.986 85.0901 158.831 86.0801 158.831ZM86.0801 160.376C85.4401 160.376 84.8751 160.466 84.3851 160.646C83.9051 160.816 83.5301 161.061 83.2601 161.381C82.9901 161.701 82.8551 162.096 82.8551 162.566C82.8551 163.016 82.9901 163.406 83.2601 163.736C83.5301 164.056 83.9051 164.306 84.3851 164.486C84.8751 164.656 85.4401 164.741 86.0801 164.741C86.7301 164.741 87.2951 164.656 87.7751 164.486C88.2651 164.306 88.6401 164.056 88.9001 163.736C89.1701 163.406 89.3051 163.016 89.3051 162.566C89.3051 162.096 89.1701 161.701 88.9001 161.381C88.6401 161.061 88.2651 160.816 87.7751 160.646C87.2951 160.466 86.7301 160.376 86.0801 160.376Z" fill="#1777E9"/>
<path d="M26.9188 192.848C26.4358 192.848 26.0123 192.701 25.6483 192.407C25.2913 192.113 25.0148 191.668 24.8188 191.073C24.6228 190.478 24.5248 189.733 24.5248 188.837C24.5248 187.941 24.6228 187.202 24.8188 186.621C25.0148 186.033 25.2913 185.596 25.6483 185.309C26.0123 185.022 26.4358 184.878 26.9188 184.878C27.4088 184.878 27.8323 185.025 28.1893 185.319C28.5463 185.606 28.8228 186.04 29.0188 186.621C29.2148 187.202 29.3128 187.941 29.3128 188.837C29.3128 189.733 29.2148 190.478 29.0188 191.073C28.8228 191.668 28.5463 192.113 28.1893 192.407C27.8323 192.701 27.4088 192.848 26.9188 192.848ZM26.9188 192.071C27.2128 192.071 27.4683 191.959 27.6853 191.735C27.9093 191.511 28.0808 191.161 28.1998 190.685C28.3258 190.202 28.3888 189.586 28.3888 188.837C28.3888 188.088 28.3258 187.479 28.1998 187.01C28.0808 186.534 27.9093 186.187 27.6853 185.97C27.4683 185.746 27.2128 185.634 26.9188 185.634C26.6318 185.634 26.3763 185.746 26.1523 185.97C25.9283 186.187 25.7533 186.534 25.6273 187.01C25.5083 187.479 25.4488 188.088 25.4488 188.837C25.4488 189.586 25.5083 190.202 25.6273 190.685C25.7533 191.161 25.9283 191.511 26.1523 191.735C26.3763 191.959 26.6318 192.071 26.9188 192.071ZM33.394 192.711V187.461C33.394 187.272 33.401 187.041 33.415 186.768C33.429 186.495 33.4395 186.261 33.4465 186.065H33.4045C33.3065 186.247 33.205 186.436 33.1 186.632C33.002 186.821 32.897 187.01 32.785 187.199L31.0315 189.824H35.326V190.59H30.034V189.96L33.2365 185.015H34.297V192.711H33.394ZM37.1078 192.848C36.9188 192.848 36.7543 192.781 36.6143 192.648C36.4813 192.508 36.4148 192.333 36.4148 192.123C36.4148 191.899 36.4813 191.721 36.6143 191.588C36.7543 191.455 36.9188 191.388 37.1078 191.388C37.2968 191.388 37.4578 191.455 37.5908 191.588C37.7308 191.721 37.8008 191.899 37.8008 192.123C37.8008 192.333 37.7308 192.508 37.5908 192.648C37.4578 192.781 37.2968 192.848 37.1078 192.848ZM39.0326 192.711V192.144C39.8376 191.437 40.4991 190.793 41.0171 190.212C41.5421 189.631 41.9306 189.092 42.1826 188.595C42.4346 188.091 42.5606 187.619 42.5606 187.178C42.5606 186.884 42.5081 186.621 42.4031 186.39C42.3051 186.159 42.1511 185.981 41.9411 185.855C41.7311 185.722 41.4651 185.655 41.1431 185.655C40.8281 185.655 40.5341 185.739 40.2611 185.907C39.9951 186.075 39.7571 186.289 39.5471 186.548L38.9906 186.002C39.2986 185.659 39.6311 185.386 39.9881 185.183C40.3451 184.98 40.7686 184.878 41.2586 184.878C41.7206 184.878 42.1161 184.973 42.4451 185.162C42.7811 185.344 43.0401 185.606 43.2221 185.949C43.4111 186.285 43.5056 186.681 43.5056 187.136C43.5056 187.647 43.3761 188.165 43.1171 188.69C42.8651 189.215 42.5116 189.75 42.0566 190.296C41.6086 190.835 41.0836 191.388 40.4816 191.955C40.6846 191.941 40.8946 191.927 41.1116 191.913C41.3356 191.892 41.5456 191.882 41.7416 191.882H43.8731V192.711H39.0326ZM45.3188 192.711V191.913H47.0408V186.17H45.6653V185.561C46.0083 185.498 46.3058 185.421 46.5578 185.33C46.8168 185.239 47.0513 185.134 47.2613 185.015H47.9963V191.913H49.5398V192.711H45.3188ZM56.5152 189.698C56.2842 189.698 56.0742 189.649 55.8852 189.551C55.7032 189.446 55.5317 189.33 55.3707 189.204C55.2097 189.071 55.0522 188.956 54.8982 188.858C54.7512 188.753 54.5937 188.7 54.4257 188.7C54.2577 188.7 54.1002 188.756 53.9532 188.868C53.8062 188.98 53.6662 189.162 53.5332 189.414L52.9977 189.036C53.2077 188.665 53.4387 188.396 53.6907 188.228C53.9497 188.06 54.2052 187.976 54.4572 187.976C54.6882 187.976 54.8947 188.028 55.0767 188.133C55.2657 188.231 55.4372 188.347 55.5912 188.48C55.7522 188.606 55.9062 188.721 56.0532 188.826C56.2072 188.924 56.3682 188.973 56.5362 188.973C56.7042 188.973 56.8617 188.921 57.0087 188.816C57.1627 188.704 57.3062 188.518 57.4392 188.259L57.9747 188.648C57.7647 189.012 57.5302 189.278 57.2712 189.446C57.0192 189.614 56.7672 189.698 56.5152 189.698ZM63.6586 192.848C63.1756 192.848 62.7521 192.701 62.3881 192.407C62.0311 192.113 61.7546 191.668 61.5586 191.073C61.3626 190.478 61.2646 189.733 61.2646 188.837C61.2646 187.941 61.3626 187.202 61.5586 186.621C61.7546 186.033 62.0311 185.596 62.3881 185.309C62.7521 185.022 63.1756 184.878 63.6586 184.878C64.1486 184.878 64.5721 185.025 64.9291 185.319C65.2861 185.606 65.5626 186.04 65.7586 186.621C65.9546 187.202 66.0526 187.941 66.0526 188.837C66.0526 189.733 65.9546 190.478 65.7586 191.073C65.5626 191.668 65.2861 192.113 64.9291 192.407C64.5721 192.701 64.1486 192.848 63.6586 192.848ZM63.6586 192.071C63.9526 192.071 64.2081 191.959 64.4251 191.735C64.6491 191.511 64.8206 191.161 64.9396 190.685C65.0656 190.202 65.1286 189.586 65.1286 188.837C65.1286 188.088 65.0656 187.479 64.9396 187.01C64.8206 186.534 64.6491 186.187 64.4251 185.97C64.2081 185.746 63.9526 185.634 63.6586 185.634C63.3716 185.634 63.1161 185.746 62.8921 185.97C62.6681 186.187 62.4931 186.534 62.3671 187.01C62.2481 187.479 62.1886 188.088 62.1886 188.837C62.1886 189.586 62.2481 190.202 62.3671 190.685C62.4931 191.161 62.6681 191.511 62.8921 191.735C63.1161 191.959 63.3716 192.071 63.6586 192.071ZM70.1338 192.711V187.461C70.1338 187.272 70.1408 187.041 70.1548 186.768C70.1688 186.495 70.1793 186.261 70.1863 186.065H70.1443C70.0463 186.247 69.9448 186.436 69.8398 186.632C69.7418 186.821 69.6368 187.01 69.5248 187.199L67.7713 189.824H72.0658V190.59H66.7738V189.96L69.9763 185.015H71.0368V192.711H70.1338ZM73.8475 192.848C73.6585 192.848 73.494 192.781 73.354 192.648C73.221 192.508 73.1545 192.333 73.1545 192.123C73.1545 191.899 73.221 191.721 73.354 191.588C73.494 191.455 73.6585 191.388 73.8475 191.388C74.0365 191.388 74.1975 191.455 74.3305 191.588C74.4705 191.721 74.5405 191.899 74.5405 192.123C74.5405 192.333 74.4705 192.508 74.3305 192.648C74.1975 192.781 74.0365 192.848 73.8475 192.848ZM75.7724 192.711V192.144C76.5774 191.437 77.2389 190.793 77.7569 190.212C78.2819 189.631 78.6704 189.092 78.9224 188.595C79.1744 188.091 79.3004 187.619 79.3004 187.178C79.3004 186.884 79.2479 186.621 79.1429 186.39C79.0449 186.159 78.8909 185.981 78.6809 185.855C78.4709 185.722 78.2049 185.655 77.8829 185.655C77.5679 185.655 77.2739 185.739 77.0009 185.907C76.7349 186.075 76.4969 186.289 76.2869 186.548L75.7304 186.002C76.0384 185.659 76.3709 185.386 76.7279 185.183C77.0849 184.98 77.5084 184.878 77.9984 184.878C78.4604 184.878 78.8559 184.973 79.1849 185.162C79.5209 185.344 79.7799 185.606 79.9619 185.949C80.1509 186.285 80.2454 186.681 80.2454 187.136C80.2454 187.647 80.1159 188.165 79.8569 188.69C79.6049 189.215 79.2514 189.75 78.7964 190.296C78.3484 190.835 77.8234 191.388 77.2214 191.955C77.4244 191.941 77.6344 191.927 77.8514 191.913C78.0754 191.892 78.2854 191.882 78.4814 191.882H80.6129V192.711H75.7724ZM83.2136 192.711C83.2486 191.983 83.3081 191.315 83.3921 190.706C83.4831 190.09 83.6126 189.512 83.7806 188.973C83.9486 188.427 84.1621 187.899 84.4211 187.388C84.6871 186.877 85.0091 186.359 85.3871 185.834H81.6491V185.015H86.4686V185.592C86.0206 186.173 85.6531 186.73 85.3661 187.262C85.0861 187.794 84.8656 188.336 84.7046 188.889C84.5506 189.442 84.4351 190.03 84.3581 190.653C84.2881 191.269 84.2391 191.955 84.2111 192.711H83.2136Z" fill="#2C2C2C"/>
<rect x="23.9998" y="242.211" width="18" height="18" rx="9" fill="#1777E9"/>
<path fill-rule="evenodd" clip-rule="evenodd" d="M31.5667 253.269L37.3748 247.461L38.2586 248.345L31.5667 255.037L27.9998 251.47L28.8836 250.586L31.5667 253.269Z" fill="white"/>
<path d="M48.9448 250.755H49.6798C51.5908 250.755 52.7143 250.692 54.0163 250.43L54.1213 251.133C52.7773 251.406 51.6223 251.469 49.6798 251.469H48.9448V250.755ZM48.9448 247.584H53.1343V248.288H49.8058V251.175H48.9448V247.584ZM55.0138 247.038H55.8853V251.816H55.0138V247.038ZM55.6438 249.033H57.2923V249.758H55.6438V249.033ZM49.8583 252.299H55.8853V254.64H50.7403V256.11H49.8793V253.968H55.0348V252.992H49.8583V252.299ZM49.8793 255.701H56.2318V256.404H49.8793V255.701ZM60.5675 247.574H61.292V248.55C61.292 250.388 60.2525 251.889 58.625 252.498L58.1735 251.784C59.6225 251.27 60.5675 249.999 60.5675 248.55V247.574ZM60.725 247.574H61.439V248.519C61.439 249.863 62.363 251.049 63.749 251.532L63.2765 252.215C61.7435 251.637 60.725 250.241 60.725 248.519V247.574ZM65.114 247.038H65.9855V252.656H65.114V247.038ZM62.867 252.929C64.82 252.929 66.0275 253.59 66.0275 254.724C66.0275 255.858 64.82 256.509 62.867 256.509C60.9035 256.509 59.696 255.858 59.696 254.724C59.696 253.59 60.9035 252.929 62.867 252.929ZM62.867 253.622C61.439 253.622 60.5675 254.031 60.5675 254.724C60.5675 255.417 61.439 255.827 62.867 255.827C64.295 255.827 65.1665 255.417 65.1665 254.724C65.1665 254.031 64.295 253.622 62.867 253.622ZM63.056 249.044H65.303V249.768H63.056V249.044ZM71.2098 247.416H77.7408V249.894H72.1128V251.532H71.2308V249.222H76.8693V248.12H71.2098V247.416ZM71.2308 251.102H77.9613V251.816H71.2308V251.102ZM70.1808 252.792H78.7908V253.517H70.1808V252.792ZM74.0343 253.065H74.8953V256.541H74.0343V253.065ZM86.749 247.049H87.631V254.094H86.749V247.049ZM81.5305 255.606H87.9145V256.32H81.5305V255.606ZM81.5305 253.485H82.3915V255.984H81.5305V253.485ZM80.3965 251.837H81.163C83.2105 251.837 84.334 251.795 85.6675 251.564L85.762 252.267C84.3865 252.498 83.2315 252.54 81.163 252.54H80.3965V251.837ZM80.3965 247.784H84.9115V248.498H81.2575V252.005H80.3965V247.784ZM80.974 249.779H84.649V250.482H80.974V249.779Z" fill="#2C2C2C"/>
<path d="M233.308 256.711V255.703C235.732 253.531 237.148 251.863 237.148 250.495C237.148 249.607 236.68 249.055 235.828 249.055C235.168 249.055 234.652 249.475 234.196 249.979L233.224 249.019C234.04 248.143 234.844 247.675 236.056 247.675C237.724 247.675 238.852 248.743 238.852 250.399C238.852 252.019 237.508 253.747 235.888 255.331C236.332 255.283 236.92 255.223 237.34 255.223H239.26V256.711H233.308ZM243.915 256.711V251.251C243.915 250.735 243.963 249.931 243.987 249.403H243.939C243.711 249.883 243.471 250.375 243.219 250.855L241.851 253.063H246.615V254.419H240.135V253.207L243.435 247.831H245.559V256.711H243.915ZM255.433 246.667H256.957V257.779H255.433V246.667ZM254.029 250.855H255.865V252.127H254.029V250.855ZM250.717 248.023H252.241C252.241 251.155 251.329 253.687 248.221 255.499L247.297 254.395C249.829 252.895 250.717 251.023 250.717 248.359V248.023ZM247.861 248.023H251.185V249.307H247.861V248.023ZM252.973 246.955H254.461V257.299H252.973V246.955Z" fill="#1777E9"/>
<rect x="23.9998" y="278.211" width="18" height="18" rx="9" fill="#DFEAFF"/>
<path d="M30.1998 290.711L29.4998 290.011L32.2998 287.211L29.4998 284.411L30.1998 283.711L32.9998 286.511L35.7998 283.711L36.4998 284.411L33.6998 287.211L36.4998 290.011L35.7998 290.711L32.9998 287.911L30.1998 290.711Z" fill="white"/>
<path d="M55.4338 283.028H56.3053V287.942H55.4338V283.028ZM50.1628 288.425H56.3053V290.714H51.0343V292.016H50.1943V290.052H55.4443V289.118H50.1628V288.425ZM50.1943 291.722H56.6308V292.425H50.1943V291.722ZM50.9923 283.301H51.7168V284.025C51.7168 284.613 51.6048 285.163 51.3808 285.674C51.1568 286.185 50.8418 286.629 50.4358 287.007C50.0298 287.378 49.5608 287.662 49.0288 287.858L48.5878 287.165C48.9448 287.039 49.2703 286.871 49.5643 286.661C49.8583 286.451 50.1103 286.209 50.3203 285.936C50.5373 285.656 50.7018 285.355 50.8138 285.033C50.9328 284.711 50.9923 284.375 50.9923 284.025V283.301ZM51.1498 283.301H51.8743V284.025C51.8743 284.354 51.9303 284.673 52.0423 284.981C52.1613 285.289 52.3258 285.572 52.5358 285.831C52.7528 286.09 53.0083 286.321 53.3023 286.524C53.5963 286.72 53.9183 286.878 54.2683 286.997L53.8378 287.679C53.4388 287.539 53.0748 287.354 52.7458 287.123C52.4168 286.885 52.1333 286.608 51.8953 286.293C51.6573 285.971 51.4718 285.621 51.3388 285.243C51.2128 284.858 51.1498 284.452 51.1498 284.025V283.301ZM65.4185 283.028H66.2585V292.53H65.4185V283.028ZM63.9065 286.85H65.7335V287.574H63.9065V286.85ZM63.35 283.238H64.1795V292.037H63.35V283.238ZM58.2785 284.225H62.6675V284.939H58.2785V284.225ZM58.184 290.189L58.079 289.454C58.394 289.454 58.7475 289.454 59.1395 289.454C59.5385 289.447 59.9515 289.436 60.3785 289.422C60.8125 289.401 61.2395 289.377 61.6595 289.349C62.0865 289.314 62.482 289.272 62.846 289.223L62.8985 289.863C62.4085 289.954 61.873 290.024 61.292 290.073C60.718 290.122 60.1615 290.154 59.6225 290.168C59.0835 290.182 58.604 290.189 58.184 290.189ZM59.087 284.687H59.885V289.653H59.087V284.687ZM61.061 284.687H61.859V289.653H61.061V284.687ZM71.2098 283.406H77.7513V285.894H72.1128V287.522H71.2413V285.222H76.8693V284.109H71.2098V283.406ZM71.2413 287.102H77.9613V287.816H71.2413V287.102ZM70.1808 288.792H78.7908V289.506H70.1808V288.792ZM74.0343 289.065H74.9058V292.541H74.0343V289.065ZM86.7595 283.038H87.631V290.094H86.7595V283.038ZM81.5305 291.606H87.925V292.32H81.5305V291.606ZM81.5305 289.475H82.402V291.974H81.5305V289.475ZM80.3965 287.826H81.163C81.849 287.826 82.444 287.823 82.948 287.816C83.459 287.802 83.9315 287.774 84.3655 287.732C84.7995 287.69 85.237 287.634 85.678 287.564L85.7725 288.257C85.3105 288.334 84.859 288.393 84.418 288.435C83.977 288.477 83.4975 288.505 82.9795 288.519C82.4615 288.533 81.856 288.54 81.163 288.54H80.3965V287.826ZM80.3965 283.773H84.9115V284.487H81.268V287.994H80.3965V283.773ZM80.9845 285.779H84.649V286.472H80.9845V285.779Z" fill="#2C2C2C"/>
<path d="M233.788 292.711V291.271H235.708V285.667H234.088V284.563C234.536 284.483 234.92 284.387 235.24 284.275C235.568 284.155 235.872 284.003 236.152 283.819H237.46V291.271H239.128V292.711H233.788ZM243.423 292.879C242.823 292.879 242.295 292.707 241.839 292.363C241.391 292.011 241.039 291.491 240.783 290.803C240.535 290.107 240.411 289.247 240.411 288.223C240.411 287.207 240.535 286.363 240.783 285.691C241.039 285.011 241.391 284.503 241.839 284.167C242.295 283.831 242.823 283.663 243.423 283.663C244.031 283.663 244.559 283.835 245.007 284.179C245.455 284.515 245.803 285.019 246.051 285.691C246.307 286.363 246.435 287.207 246.435 288.223C246.435 289.247 246.307 290.107 246.051 290.803C245.803 291.491 245.455 292.011 245.007 292.363C244.559 292.707 244.031 292.879 243.423 292.879ZM243.423 291.499C243.687 291.499 243.919 291.399 244.119 291.199C244.319 290.999 244.475 290.663 244.587 290.191C244.699 289.711 244.755 289.055 244.755 288.223C244.755 287.399 244.699 286.755 244.587 286.291C244.475 285.819 244.319 285.491 244.119 285.307C243.919 285.115 243.687 285.019 243.423 285.019C243.175 285.019 242.947 285.115 242.739 285.307C242.539 285.491 242.379 285.819 242.259 286.291C242.139 286.755 242.079 287.399 242.079 288.223C242.079 289.055 242.139 289.711 242.259 290.191C242.379 290.663 242.539 290.999 242.739 291.199C242.947 291.399 243.175 291.499 243.423 291.499ZM255.445 282.655H256.957V293.767H255.445V282.655ZM254.029 286.843H255.877V288.127H254.029V286.843ZM250.717 284.023H252.253C252.253 284.807 252.185 285.551 252.049 286.255C251.921 286.959 251.705 287.627 251.401 288.259C251.097 288.883 250.685 289.467 250.165 290.011C249.653 290.547 249.009 291.043 248.233 291.499L247.309 290.383C248.149 289.887 248.817 289.343 249.313 288.751C249.817 288.151 250.177 287.491 250.393 286.771C250.609 286.043 250.717 285.235 250.717 284.347V284.023ZM247.861 284.023H251.185V285.295H247.861V284.023ZM252.973 282.943H254.473V293.287H252.973V282.943Z" fill="#2C2C2C"/>
<path d="M24 326.211C24 319.584 29.3726 314.211 36 314.211H246C252.627 314.211 258 319.584 258 326.211V336.711C258 343.339 252.627 348.711 246 348.711H36C29.3726 348.711 24 343.339 24 336.711V326.211Z" fill="#DFEAFF"/>
<path d="M107.117 328.643H107.81V330.186C107.81 332.16 106.602 334.197 105.122 334.953L104.618 334.26C105.972 333.599 107.117 331.793 107.117 330.186V328.643ZM107.274 328.643H107.967V330.186C107.967 331.688 109.038 333.378 110.414 334.029L109.92 334.722C108.419 333.977 107.274 332.066 107.274 330.186V328.643ZM104.954 328.254H110.067V328.989H104.954V328.254ZM111.191 327.288H112.073V336.78H111.191V327.288ZM111.863 331.121H113.627V331.856H111.863V331.121ZM118.172 330.68H119.989V331.404H118.172V330.68ZM116.398 328.181H117.08V329.987C117.08 331.971 116.251 333.893 114.865 334.743L114.319 334.082C115.621 333.315 116.398 331.614 116.398 329.987V328.181ZM116.566 328.181H117.238V329.955C117.238 331.478 117.952 333.095 119.201 333.851L118.697 334.533C117.332 333.693 116.566 331.803 116.566 329.955V328.181ZM121.658 327.288H122.498V336.78H121.658V327.288ZM119.737 327.488H120.556V336.308H119.737V327.488ZM130.981 327.288H131.853V336.78H130.981V327.288ZM124.303 328.821H129.994V329.525H124.303V328.821ZM127.159 330.302C128.524 330.302 129.511 331.205 129.511 332.486C129.511 333.767 128.524 334.67 127.159 334.67C125.794 334.67 124.818 333.767 124.818 332.486C124.818 331.205 125.794 330.302 127.159 330.302ZM127.159 331.026C126.288 331.026 125.647 331.625 125.647 332.486C125.647 333.336 126.288 333.945 127.159 333.945C128.031 333.945 128.671 333.336 128.671 332.486C128.671 331.625 128.031 331.026 127.159 331.026ZM126.708 327.383H127.579V329.252H126.708V327.383ZM136.101 334.848H144.7V335.573H136.101V334.848ZM139.944 332.58H140.815V335.058H139.944V332.58ZM137.109 327.96H137.97V329.651H142.81V327.96H143.671V332.811H137.109V327.96ZM137.97 330.354V332.097H142.81V330.354H137.97ZM152.669 327.288H153.54V336.78H152.669V327.288ZM149.886 328.307H150.747C150.747 331.058 149.508 333.462 146.337 335.016L145.875 334.313C148.616 332.99 149.886 330.974 149.886 328.454V328.307ZM146.306 328.307H150.264V329.021H146.306V328.307Z" fill="#1777E9"/>
<g clip-path="url(#clip1_649_9278)">
<path d="M164.625 325.836L163.303 327.158L167.597 331.461L163.303 335.765L164.625 337.086L170.25 331.461L164.625 325.836Z" fill="#1777E9"/>
</g>
<rect width="270" height="200" transform="translate(6 384.711)" fill="white"/>
<path d="M28.1698 415.701H30.1648V418.566H28.1698V415.701ZM28.1548 410.751H29.7448V411.051C29.7448 411.831 29.5998 412.561 29.3098 413.241C29.0298 413.921 28.6048 414.511 28.0348 415.011C27.4648 415.511 26.7348 415.881 25.8448 416.121L24.9598 414.576C25.6998 414.386 26.3048 414.111 26.7748 413.751C27.2448 413.381 27.5898 412.966 27.8098 412.506C28.0398 412.036 28.1548 411.551 28.1548 411.051V410.751ZM28.5748 410.751H30.1798V411.051C30.1798 411.531 30.2898 411.996 30.5098 412.446C30.7398 412.896 31.0898 413.296 31.5598 413.646C32.0398 413.996 32.6498 414.266 33.3898 414.456L32.5048 415.986C31.6248 415.756 30.8898 415.401 30.2998 414.921C29.7198 414.431 29.2848 413.856 28.9948 413.196C28.7148 412.526 28.5748 411.811 28.5748 411.051V410.751ZM25.3648 409.776H32.9848V411.351H25.3648V409.776ZM28.1698 408.261H30.1648V410.481H28.1698V408.261ZM34.1998 408.126H36.1948V422.061H34.1998V408.126ZM24.8998 419.481L24.6748 417.861C25.4848 417.861 26.3798 417.856 27.3598 417.846C28.3498 417.826 29.3648 417.786 30.4048 417.726C31.4548 417.656 32.4698 417.551 33.4498 417.411L33.5848 418.866C32.5848 419.056 31.5698 419.196 30.5398 419.286C29.5098 419.376 28.5148 419.431 27.5548 419.451C26.5948 419.461 25.7098 419.471 24.8998 419.481ZM39.9586 408.906H48.7336V410.496H39.9586V408.906ZM38.4136 414.291H50.9986V415.881H38.4136V414.291ZM47.5486 408.906H49.5286V410.106C49.5286 410.766 49.5086 411.481 49.4686 412.251C49.4386 413.021 49.3136 413.906 49.0936 414.906L47.1286 414.726C47.3386 413.746 47.4586 412.896 47.4886 412.176C47.5286 411.446 47.5486 410.756 47.5486 410.106V408.906ZM39.9886 420.201H49.9186V421.791H39.9886V420.201ZM39.9886 417.066H41.9686V420.351H39.9886V417.066ZM59.4059 409.101C60.0959 409.101 60.7109 409.306 61.2509 409.716C61.8009 410.116 62.2259 410.691 62.5259 411.441C62.8359 412.181 62.9909 413.056 62.9909 414.066C62.9909 415.086 62.8359 415.971 62.5259 416.721C62.2259 417.461 61.8009 418.036 61.2509 418.446C60.7109 418.846 60.0959 419.046 59.4059 419.046C58.7159 419.046 58.1009 418.846 57.5609 418.446C57.0209 418.036 56.5959 417.461 56.2859 416.721C55.9759 415.971 55.8209 415.086 55.8209 414.066C55.8209 413.056 55.9759 412.181 56.2859 411.441C56.5959 410.691 57.0209 410.116 57.5609 409.716C58.1009 409.306 58.7159 409.101 59.4059 409.101ZM59.4059 410.916C59.0759 410.916 58.7809 411.036 58.5209 411.276C58.2709 411.516 58.0759 411.871 57.9359 412.341C57.7959 412.801 57.7259 413.376 57.7259 414.066C57.7259 414.746 57.7959 415.326 57.9359 415.806C58.0759 416.276 58.2709 416.631 58.5209 416.871C58.7809 417.111 59.0759 417.231 59.4059 417.231C59.7559 417.231 60.0559 417.111 60.3059 416.871C60.5559 416.631 60.7509 416.276 60.8909 415.806C61.0309 415.326 61.1009 414.746 61.1009 414.066C61.1009 413.376 61.0309 412.801 60.8909 412.341C60.7509 411.871 60.5559 411.516 60.3059 411.276C60.0559 411.036 59.7559 410.916 59.4059 410.916ZM65.2709 408.126H67.2659V422.061H65.2709V408.126ZM62.4059 413.151H66.1109V414.741H62.4059V413.151ZM79.0397 408.126H81.0197V422.061H79.0397V408.126ZM76.7447 411.096H79.3697V412.686H76.7447V411.096ZM69.8747 417.336H70.9847C71.6747 417.336 72.3297 417.331 72.9497 417.321C73.5697 417.301 74.1897 417.266 74.8097 417.216C75.4297 417.166 76.0747 417.091 76.7447 416.991L76.8947 418.611C76.2147 418.721 75.5547 418.801 74.9147 418.851C74.2847 418.901 73.6497 418.936 73.0097 418.956C72.3697 418.976 71.6947 418.986 70.9847 418.986H69.8747V417.336ZM69.8597 409.311H76.0547V414.681H71.8547V417.711H69.8747V413.121H74.0897V410.886H69.8597V409.311ZM76.7147 414.876H79.3397V416.466H76.7147V414.876ZM86.5536 415.971H88.5636V421.626H86.5536V415.971ZM92.9736 408.141H94.9836V422.031H92.9736V408.141ZM83.3886 416.811L83.1636 415.191C84.0136 415.191 84.9436 415.186 85.9536 415.176C86.9636 415.166 87.9936 415.131 89.0436 415.071C90.0936 415.011 91.1136 414.916 92.1036 414.786L92.2086 416.226C91.1986 416.416 90.1736 416.551 89.1336 416.631C88.1036 416.711 87.0986 416.761 86.1186 416.781C85.1486 416.801 84.2386 416.811 83.3886 416.811ZM90.1986 417.486H93.3636V418.986H90.1986V417.486ZM87.6486 408.726C88.3286 408.726 88.9336 408.846 89.4636 409.086C90.0036 409.326 90.4236 409.661 90.7236 410.091C91.0236 410.511 91.1736 411.001 91.1736 411.561C91.1736 412.131 91.0236 412.631 90.7236 413.061C90.4236 413.491 90.0036 413.826 89.4636 414.066C88.9336 414.296 88.3286 414.411 87.6486 414.411C86.9686 414.411 86.3586 414.296 85.8186 414.066C85.2886 413.826 84.8686 413.491 84.5586 413.061C84.2586 412.631 84.1086 412.131 84.1086 411.561C84.1086 411.001 84.2586 410.511 84.5586 410.091C84.8686 409.661 85.2886 409.326 85.8186 409.086C86.3586 408.846 86.9686 408.726 87.6486 408.726ZM87.6486 410.226C87.3286 410.226 87.0386 410.281 86.7786 410.391C86.5286 410.491 86.3336 410.641 86.1936 410.841C86.0536 411.041 85.9836 411.281 85.9836 411.561C85.9836 411.851 86.0536 412.096 86.1936 412.296C86.3336 412.496 86.5286 412.646 86.7786 412.746C87.0386 412.846 87.3286 412.896 87.6486 412.896C87.9786 412.896 88.2636 412.846 88.5036 412.746C88.7536 412.646 88.9486 412.496 89.0886 412.296C89.2386 412.096 89.3136 411.851 89.3136 411.561C89.3136 411.281 89.2386 411.041 89.0886 410.841C88.9486 410.641 88.7536 410.491 88.5036 410.391C88.2636 410.281 87.9786 410.226 87.6486 410.226ZM105.932 408.156H107.927V418.536H105.932V408.156ZM107.372 412.386H109.772V414.036H107.372V412.386ZM97.0074 409.611H105.167V411.171H97.0074V409.611ZM101.087 411.666C101.757 411.666 102.347 411.781 102.857 412.011C103.377 412.231 103.782 412.546 104.072 412.956C104.362 413.356 104.507 413.816 104.507 414.336C104.507 414.866 104.362 415.336 104.072 415.746C103.782 416.146 103.377 416.461 102.857 416.691C102.347 416.911 101.757 417.021 101.087 417.021C100.427 417.021 99.8374 416.911 99.3174 416.691C98.7974 416.461 98.3924 416.146 98.1024 415.746C97.8124 415.336 97.6674 414.866 97.6674 414.336C97.6674 413.816 97.8124 413.356 98.1024 412.956C98.3924 412.546 98.7974 412.231 99.3174 412.011C99.8374 411.781 100.427 411.666 101.087 411.666ZM101.087 413.181C100.647 413.181 100.287 413.281 100.007 413.481C99.7274 413.681 99.5874 413.971 99.5874 414.351C99.5874 414.721 99.7274 415.006 100.007 415.206C100.287 415.406 100.647 415.506 101.087 415.506C101.537 415.506 101.897 415.406 102.167 415.206C102.447 415.006 102.587 414.721 102.587 414.351C102.587 413.971 102.447 413.681 102.167 413.481C101.897 413.281 101.537 413.181 101.087 413.181ZM100.097 408.141H102.077V410.361H100.097V408.141ZM98.9724 420.201H108.422V421.806H98.9724V420.201ZM98.9724 417.756H100.982V420.891H98.9724V417.756ZM115.645 408.591H125.335V412.731H117.685V414.831H115.66V411.231H123.31V410.166H115.645V408.591ZM115.66 413.871H125.665V415.446H115.66V413.871ZM114.205 416.466H126.775V418.056H114.205V416.466ZM119.47 417.051H121.45V422.061H119.47V417.051ZM137.543 408.156H139.538V418.416H137.543V408.156ZM130.283 420.201H139.898V421.806H130.283V420.201ZM130.283 417.531H132.278V421.206H130.283V417.531ZM128.753 414.906H129.953C130.903 414.906 131.738 414.901 132.458 414.891C133.188 414.871 133.863 414.836 134.483 414.786C135.113 414.736 135.748 414.661 136.388 414.561L136.583 416.106C135.923 416.206 135.268 416.286 134.618 416.346C133.978 416.396 133.283 416.431 132.533 416.451C131.783 416.461 130.923 416.466 129.953 416.466H128.753V414.906ZM128.753 409.206H135.443V410.781H130.733V415.131H128.753V409.206ZM130.118 412.041H135.038V413.586H130.118V412.041ZM151.327 408.126H153.322V422.061H151.327V408.126ZM145.837 409.101C146.547 409.101 147.177 409.306 147.727 409.716C148.277 410.116 148.707 410.691 149.017 411.441C149.337 412.181 149.497 413.056 149.497 414.066C149.497 415.086 149.337 415.971 149.017 416.721C148.707 417.461 148.277 418.036 147.727 418.446C147.177 418.846 146.547 419.046 145.837 419.046C145.137 419.046 144.512 418.846 143.962 418.446C143.412 418.036 142.977 417.461 142.657 416.721C142.347 415.971 142.192 415.086 142.192 414.066C142.192 413.056 142.347 412.181 142.657 411.441C142.977 410.691 143.412 410.116 143.962 409.716C144.512 409.306 145.137 409.101 145.837 409.101ZM145.837 410.916C145.497 410.916 145.197 411.036 144.937 411.276C144.677 411.516 144.472 411.871 144.322 412.341C144.182 412.801 144.112 413.376 144.112 414.066C144.112 414.746 144.182 415.326 144.322 415.806C144.472 416.276 144.677 416.631 144.937 416.871C145.197 417.111 145.497 417.231 145.837 417.231C146.187 417.231 146.492 417.111 146.752 416.871C147.012 416.631 147.212 416.276 147.352 415.806C147.502 415.326 147.577 414.746 147.577 414.066C147.577 413.376 147.502 412.801 147.352 412.341C147.212 411.871 147.012 411.516 146.752 411.276C146.492 411.036 146.187 410.916 145.837 410.916ZM161.151 413.256H163.431V414.861H161.151V413.256ZM165.621 408.141H167.526V422.031H165.621V408.141ZM162.801 408.366H164.661V421.416H162.801V408.366ZM158.721 409.116C159.331 409.116 159.861 409.321 160.311 409.731C160.771 410.131 161.121 410.711 161.361 411.471C161.611 412.221 161.736 413.121 161.736 414.171C161.736 415.211 161.611 416.111 161.361 416.871C161.121 417.631 160.771 418.216 160.311 418.626C159.861 419.026 159.326 419.226 158.706 419.226C158.106 419.226 157.576 419.026 157.116 418.626C156.666 418.216 156.316 417.631 156.066 416.871C155.826 416.111 155.706 415.211 155.706 414.171C155.706 413.121 155.826 412.221 156.066 411.471C156.316 410.711 156.666 410.131 157.116 409.731C157.576 409.321 158.111 409.116 158.721 409.116ZM158.721 411.006C158.471 411.006 158.256 411.121 158.076 411.351C157.896 411.581 157.756 411.931 157.656 412.401C157.566 412.861 157.521 413.451 157.521 414.171C157.521 414.871 157.566 415.456 157.656 415.926C157.756 416.396 157.896 416.751 158.076 416.991C158.256 417.221 158.471 417.336 158.721 417.336C158.971 417.336 159.186 417.221 159.366 416.991C159.556 416.751 159.696 416.396 159.786 415.926C159.876 415.456 159.921 414.871 159.921 414.171C159.921 413.451 159.876 412.861 159.786 412.401C159.696 411.931 159.556 411.581 159.366 411.351C159.186 411.121 158.971 411.006 158.721 411.006ZM172.16 415.206H174.155V419.091H172.16V415.206ZM177.2 415.206H179.195V419.091H177.2V415.206ZM169.4 418.806H181.985V420.426H169.4V418.806ZM175.67 408.831C176.67 408.831 177.56 408.986 178.34 409.296C179.13 409.606 179.745 410.041 180.185 410.601C180.635 411.151 180.86 411.806 180.86 412.566C180.86 413.316 180.635 413.971 180.185 414.531C179.745 415.081 179.13 415.511 178.34 415.821C177.56 416.131 176.67 416.286 175.67 416.286C174.68 416.286 173.79 416.131 173 415.821C172.22 415.511 171.605 415.081 171.155 414.531C170.705 413.971 170.48 413.316 170.48 412.566C170.48 411.806 170.705 411.151 171.155 410.601C171.605 410.041 172.22 409.606 173 409.296C173.79 408.986 174.68 408.831 175.67 408.831ZM175.67 410.376C175.03 410.376 174.465 410.466 173.975 410.646C173.495 410.816 173.12 411.061 172.85 411.381C172.58 411.701 172.445 412.096 172.445 412.566C172.445 413.016 172.58 413.406 172.85 413.736C173.12 414.056 173.495 414.306 173.975 414.486C174.465 414.656 175.03 414.741 175.67 414.741C176.32 414.741 176.885 414.656 177.365 414.486C177.855 414.306 178.23 414.056 178.49 413.736C178.76 413.406 178.895 413.016 178.895 412.566C178.895 412.096 178.76 411.701 178.49 411.381C178.23 411.061 177.855 410.816 177.365 410.646C176.885 410.466 176.32 410.376 175.67 410.376Z" fill="#2C2C2C"/>
<path d="M31.0138 434.028H31.8853V440.905H31.0138V434.028ZM31.6228 436.852H33.2923V437.577H31.6228V436.852ZM24.9553 438.511H25.6903C27.6433 438.511 28.7458 438.459 30.0163 438.196L30.1108 438.9C28.8088 439.173 27.6853 439.236 25.6903 439.236H24.9553V438.511ZM24.9553 434.847H29.1448V435.571H25.8163V438.9H24.9553V434.847ZM25.9738 442.606H32.3158V443.32H25.9738V442.606ZM25.9738 440.223H26.8453V442.932H25.9738V440.223ZM38.027 434.28H38.7725V434.742C38.7725 436.464 36.956 437.734 35.0345 438.07L34.688 437.377C36.368 437.125 38.027 436.012 38.027 434.742V434.28ZM38.1635 434.28H38.909V434.742C38.909 435.981 40.589 437.115 42.2375 437.367L41.912 438.049C39.9905 437.724 38.1635 436.422 38.1635 434.742V434.28ZM34.1735 438.868H42.773V439.582H34.1735V438.868ZM38.1005 439.309H38.972V441.493H38.1005V439.309ZM35.2655 442.606H41.8175V443.32H35.2655V442.606ZM35.2655 440.58H36.1265V442.837H35.2655V440.58ZM50.3322 434.049H51.2037V441.168H50.3322V434.049ZM50.9307 437.157H52.6107V437.892H50.9307V437.157ZM43.8642 435.193H49.4712V435.897H43.8642V435.193ZM46.6677 436.422C48.0117 436.422 48.9357 437.125 48.9357 438.196C48.9357 439.257 48.0117 439.96 46.6677 439.96C45.3132 439.96 44.3892 439.257 44.3892 438.196C44.3892 437.125 45.3132 436.422 46.6677 436.422ZM46.6677 437.104C45.8067 437.104 45.2187 437.535 45.2187 438.196C45.2187 438.847 45.8067 439.278 46.6677 439.278C47.5182 439.278 48.1062 438.847 48.1062 438.196C48.1062 437.535 47.5182 437.104 46.6677 437.104ZM46.2267 434.038H47.0982V435.561H46.2267V434.038ZM45.2922 442.606H51.6342V443.32H45.2922V442.606ZM45.2922 440.601H46.1637V442.911H45.2922V440.601ZM56.869 434.416H63.4V436.894H57.772V438.532H56.89V436.222H62.5285V435.12H56.869V434.416ZM56.89 438.102H63.6205V438.816H56.89V438.102ZM55.84 439.792H64.45V440.517H55.84V439.792ZM59.6935 440.065H60.5545V443.541H59.6935V440.065ZM72.4082 434.049H73.2902V441.094H72.4082V434.049ZM67.1897 442.606H73.5737V443.32H67.1897V442.606ZM67.1897 440.485H68.0507V442.984H67.1897V440.485ZM66.0557 438.837H66.8222C68.8697 438.837 69.9932 438.795 71.3267 438.564L71.4212 439.267C70.0457 439.498 68.8907 439.54 66.8222 439.54H66.0557V438.837ZM66.0557 434.784H70.5707V435.498H66.9167V439.005H66.0557V434.784ZM66.6332 436.779H70.3082V437.482H66.6332V436.779ZM78.2454 434.721C79.7259 434.721 80.7864 435.634 80.7864 436.957C80.7864 438.291 79.7259 439.204 78.2454 439.204C76.7649 439.204 75.6939 438.291 75.6939 436.957C75.6939 435.634 76.7649 434.721 78.2454 434.721ZM78.2454 435.477C77.2584 435.477 76.5444 436.075 76.5444 436.957C76.5444 437.839 77.2584 438.448 78.2454 438.448C79.2219 438.448 79.9359 437.839 79.9359 436.957C79.9359 436.075 79.2219 435.477 78.2454 435.477ZM82.0254 434.028H82.8969V443.541H82.0254V434.028ZM75.3369 441.462L75.2109 440.737C76.9434 440.737 79.3374 440.727 81.4059 440.401L81.4794 441.042C79.3479 441.451 77.0274 441.462 75.3369 441.462ZM87.5962 437.755H88.3312C90.2422 437.755 91.3657 437.692 92.6677 437.43L92.7727 438.133C91.4287 438.406 90.2737 438.469 88.3312 438.469H87.5962V437.755ZM87.5962 434.584H91.7857V435.288H88.4572V438.175H87.5962V434.584ZM93.6652 434.038H94.5367V438.816H93.6652V434.038ZM94.2952 436.033H95.9437V436.758H94.2952V436.033ZM88.5097 439.299H94.5367V441.64H89.3917V443.11H88.5307V440.968H93.6862V439.992H88.5097V439.299ZM88.5307 442.701H94.8832V443.404H88.5307V442.701ZM99.2189 434.574H99.9434V435.55C99.9434 437.388 98.9039 438.889 97.2764 439.498L96.8249 438.784C98.2739 438.27 99.2189 436.999 99.2189 435.55V434.574ZM99.3764 434.574H100.09V435.519C100.09 436.863 101.014 438.049 102.4 438.532L101.928 439.215C100.395 438.637 99.3764 437.241 99.3764 435.519V434.574ZM103.765 434.038H104.637V439.656H103.765V434.038ZM101.518 439.929C103.471 439.929 104.679 440.59 104.679 441.724C104.679 442.858 103.471 443.509 101.518 443.509C99.5549 443.509 98.3474 442.858 98.3474 441.724C98.3474 440.59 99.5549 439.929 101.518 439.929ZM101.518 440.622C100.09 440.622 99.2189 441.031 99.2189 441.724C99.2189 442.417 100.09 442.827 101.518 442.827C102.946 442.827 103.818 442.417 103.818 441.724C103.818 441.031 102.946 440.622 101.518 440.622ZM101.707 436.044H103.954V436.768H101.707V436.044ZM106.484 438.364H115.094V439.036H106.484V438.364ZM107.503 439.887H114.013V441.913H108.395V443.026H107.534V441.315H113.162V440.506H107.503V439.887ZM107.534 442.795H114.317V443.425H107.534V442.795ZM107.576 434.301H113.981V436.275H108.458V437.304H107.597V435.687H113.131V434.92H107.576V434.301ZM107.597 437.083H114.16V437.713H107.597V437.083ZM108.805 438.627H109.666V440.275H108.805V438.627ZM111.913 438.627H112.774V440.275H111.913V438.627ZM123.042 434.028H123.913V443.541H123.042V434.028ZM118.905 434.763C120.312 434.763 121.32 436.054 121.32 438.07C121.32 440.097 120.312 441.388 118.905 441.388C117.508 441.388 116.5 440.097 116.5 438.07C116.5 436.054 117.508 434.763 118.905 434.763ZM118.905 435.55C117.981 435.55 117.33 436.537 117.33 438.07C117.33 439.614 117.981 440.622 118.905 440.622C119.839 440.622 120.48 439.614 120.48 438.07C120.48 436.537 119.839 435.55 118.905 435.55ZM130.797 442.858C129.316 442.858 128.214 441.588 128.214 439.047C128.214 436.033 129.568 434.878 131.059 434.878C131.857 434.878 132.445 435.214 132.865 435.666L132.33 436.254C132.036 435.897 131.563 435.676 131.101 435.676C130.02 435.676 129.117 436.527 129.117 439.047C129.117 441.021 129.715 442.102 130.797 442.102C131.532 442.102 132.099 441.399 132.099 440.359C132.099 439.309 131.637 438.648 130.713 438.648C130.219 438.648 129.6 438.942 129.085 439.708L129.054 438.942C129.526 438.322 130.24 437.944 130.86 437.944C132.162 437.944 133.002 438.742 133.002 440.359C133.002 441.85 131.983 442.858 130.797 442.858ZM136.39 442.858C134.972 442.858 133.933 441.997 133.933 440.811C133.933 439.771 134.647 439.057 135.35 438.679V438.637C134.783 438.249 134.3 437.661 134.3 436.852C134.3 435.687 135.214 434.91 136.421 434.91C137.734 434.91 138.532 435.75 138.532 436.926C138.532 437.745 137.965 438.427 137.503 438.784V438.837C138.175 439.225 138.805 439.813 138.805 440.863C138.805 441.987 137.828 442.858 136.39 442.858ZM136.915 438.543C137.44 438.081 137.713 437.556 137.713 436.978C137.713 436.222 137.23 435.613 136.4 435.613C135.697 435.613 135.182 436.117 135.182 436.852C135.182 437.776 136.012 438.186 136.915 438.543ZM136.411 442.134C137.293 442.134 137.881 441.598 137.881 440.832C137.881 439.803 136.936 439.414 135.854 438.973C135.224 439.372 134.794 439.981 134.794 440.716C134.794 441.535 135.487 442.134 136.411 442.134ZM141.437 439.729C140.376 439.729 139.683 438.847 139.683 437.293C139.683 435.75 140.376 434.878 141.437 434.878C142.497 434.878 143.19 435.75 143.19 437.293C143.19 438.847 142.497 439.729 141.437 439.729ZM141.437 439.141C142.046 439.141 142.455 438.511 142.455 437.293C142.455 436.065 142.046 435.466 141.437 435.466C140.828 435.466 140.408 436.065 140.408 437.293C140.408 438.511 140.828 439.141 141.437 439.141ZM141.657 442.858L145.899 434.878H146.55L142.308 442.858H141.657ZM146.802 442.858C145.742 442.858 145.049 441.976 145.049 440.412C145.049 438.879 145.742 437.997 146.802 437.997C147.842 437.997 148.545 438.879 148.545 440.412C148.545 441.976 147.842 442.858 146.802 442.858ZM146.802 442.27C147.401 442.27 147.821 441.64 147.821 440.412C147.821 439.183 147.401 438.595 146.802 438.595C146.193 438.595 145.773 439.183 145.773 440.412C145.773 441.64 146.193 442.27 146.802 442.27ZM152.3 440.464H153.024C154.788 440.464 155.922 440.422 157.245 440.17L157.34 440.884C155.975 441.136 154.83 441.199 153.024 441.199H152.3V440.464ZM152.3 434.941H156.615V435.655H153.161V440.737H152.3V434.941ZM158.778 434.038H159.65V443.551H158.778V434.038ZM156.059 437.472H159.135V438.196H156.059V437.472ZM165 436.464H171.447V437.167H165V436.464ZM165 434.248H165.861V436.915H165V434.248ZM163.834 438.364H172.413V439.057H163.834V438.364ZM167.688 436.926H168.549V438.837H167.688V436.926ZM164.79 440.002H171.468V440.706H164.79V440.002ZM164.695 442.701H171.552V443.404H164.695V442.701ZM166.228 440.212H167.089V443.026H166.228V440.212ZM169.158 440.212H170.019V443.026H169.158V440.212ZM180.718 434.038H181.558V443.53H180.718V434.038ZM176.602 437.913H178.996V438.616H176.602V437.913ZM178.744 434.28H179.563V443.047H178.744V434.28ZM176.717 435.235H177.557C177.557 437.724 176.56 439.96 173.998 441.483L173.483 440.863C175.72 439.519 176.717 437.629 176.717 435.393V435.235ZM173.903 435.235H177.043V435.949H173.903V435.235ZM192.557 437.818H194.31V438.553H192.557V437.818ZM191.916 434.028H192.798V443.53H191.916V434.028ZM185.868 434.962H186.74V440.842H185.868V434.962ZM185.868 440.391H186.624C188.031 440.391 189.47 440.296 191.034 439.971L191.139 440.695C189.522 441.031 188.063 441.126 186.624 441.126H185.868V440.391ZM195.559 440.527H196.305C198.058 440.527 199.266 440.485 200.694 440.233L200.788 440.947C199.318 441.199 198.079 441.252 196.305 441.252H195.559V440.527ZM195.559 434.899H199.98V435.624H196.431V440.779H195.559V434.899ZM196.21 437.556H199.77V438.259H196.21V437.556ZM201.576 434.038H202.458V443.53H201.576V434.038ZM202.248 437.85H204.012V438.585H202.248V437.85ZM211.875 437.818H213.629V438.553H211.875V437.818ZM211.235 434.028H212.117V443.53H211.235V434.028ZM205.187 434.962H206.058V440.842H205.187V434.962ZM205.187 440.391H205.943C207.35 440.391 208.788 440.296 210.353 439.971L210.458 440.695C208.841 441.031 207.381 441.126 205.943 441.126H205.187V440.391ZM216.578 438.921H217.439V441.766H216.578V438.921ZM220.085 438.921H220.957V441.766H220.085V438.921ZM214.478 441.598H223.078V442.323H214.478V441.598ZM218.762 434.637C220.768 434.637 222.206 435.592 222.206 437.083C222.206 438.564 220.768 439.519 218.762 439.519C216.746 439.519 215.308 438.564 215.308 437.083C215.308 435.592 216.746 434.637 218.762 434.637ZM218.762 435.33C217.24 435.33 216.148 436.023 216.148 437.083C216.148 438.133 217.24 438.826 218.762 438.826C220.285 438.826 221.366 438.133 221.366 437.083C221.366 436.023 220.285 435.33 218.762 435.33ZM225.062 442.858C224.684 442.858 224.379 442.554 224.379 442.123C224.379 441.682 224.684 441.388 225.062 441.388C225.45 441.388 225.765 441.682 225.765 442.123C225.765 442.554 225.45 442.858 225.062 442.858ZM24.5248 456.588H33.1243V457.312H24.5248V456.588ZM28.3888 454.288H29.2498V456.829H28.3888V454.288ZM28.3678 450.235H29.1028V450.823C29.1028 452.766 27.1603 454.236 25.2913 454.624L24.9343 453.931C26.5723 453.658 28.3678 452.325 28.3678 450.823V450.235ZM28.5253 450.235H29.2603V450.823C29.2603 452.325 31.0663 453.627 32.7253 453.9L32.3788 454.593C30.4783 454.215 28.5253 452.766 28.5253 450.823V450.235ZM25.2283 449.899H32.3998V450.613H25.2283V449.899ZM35.276 449.532H41.387V450.246H35.276V449.532ZM34.184 453.028H42.7835V453.742H34.184V453.028ZM40.82 449.532H41.6705V450.235C41.6705 451.044 41.6705 451.968 41.3555 453.28L40.505 453.238C40.82 451.936 40.82 451.023 40.82 450.235V449.532ZM35.234 455.034H41.702V458.404H35.234V455.034ZM40.8515 455.727H36.0845V457.701H40.8515V455.727ZM46.6638 455.464H47.3883C49.1523 455.464 50.2863 455.422 51.6093 455.17L51.7038 455.884C50.3388 456.136 49.1943 456.199 47.3883 456.199H46.6638V455.464ZM46.6638 449.941H50.9793V450.655H47.5248V455.737H46.6638V449.941ZM53.1423 449.038H54.0138V458.551H53.1423V449.038ZM50.4228 452.472H53.4993V453.196H50.4228V452.472ZM64.6876 449.038H65.5591V455.979H64.6876V449.038ZM65.2861 451.915H66.9661V452.64H65.2861V451.915ZM62.0941 449.773H63.0181C63.0181 452.23 61.2961 454.026 58.5766 454.897L58.1986 454.183C60.5926 453.448 62.0941 451.978 62.0941 450.151V449.773ZM58.5871 449.773H62.5351V450.487H58.5871V449.773ZM59.6371 457.606H65.9791V458.32H59.6371V457.606ZM59.6371 455.275H60.5086V457.89H59.6371V455.275ZM74.3468 449.028H75.2183V455.905H74.3468V449.028ZM74.9558 451.852H76.6253V452.577H74.9558V451.852ZM68.2883 453.511H69.0233C70.9763 453.511 72.0788 453.459 73.3493 453.196L73.4438 453.9C72.1418 454.173 71.0183 454.236 69.0233 454.236H68.2883V453.511ZM68.2883 449.847H72.4778V450.571H69.1493V453.9H68.2883V449.847ZM69.3068 457.606H75.6488V458.32H69.3068V457.606ZM69.3068 455.223H70.1783V457.932H69.3068V455.223ZM83.943 449.038H84.8145V458.53H83.943V449.038ZM84.6045 452.934H86.3685V453.669H84.6045V452.934ZM77.4645 450.55H83.061V451.264H77.4645V450.55ZM80.2995 452.052C81.6435 452.052 82.6095 452.955 82.6095 454.236C82.6095 455.517 81.6435 456.42 80.2995 456.42C78.966 456.42 77.9895 455.517 77.9895 454.236C77.9895 452.955 78.966 452.052 80.2995 452.052ZM80.2995 452.776C79.4385 452.776 78.819 453.375 78.819 454.236C78.819 455.086 79.4385 455.695 80.2995 455.695C81.1605 455.695 81.78 455.086 81.78 454.236C81.78 453.375 81.1605 452.776 80.2995 452.776ZM79.848 449.154H80.7195V450.876H79.848V449.154ZM94.4002 449.038H95.2402V458.53H94.4002V449.038ZM90.2842 452.913H92.6782V453.616H90.2842V452.913ZM92.4262 449.28H93.2452V458.047H92.4262V449.28ZM90.3997 450.235H91.2397C91.2397 452.724 90.2422 454.96 87.6802 456.483L87.1657 455.863C89.4022 454.519 90.3997 452.629 90.3997 450.393V450.235ZM87.5857 450.235H90.7252V450.949H87.5857V450.235ZM99.1625 450.655H103.867V451.369H99.1625V450.655ZM101.515 451.999C102.701 451.999 103.562 452.892 103.562 454.173C103.562 455.443 102.701 456.336 101.515 456.336C100.339 456.336 99.4775 455.443 99.4775 454.173C99.4775 452.892 100.339 451.999 101.515 451.999ZM101.515 452.745C100.79 452.745 100.265 453.333 100.265 454.173C100.265 455.013 100.79 455.601 101.515 455.601C102.25 455.601 102.785 455.013 102.785 454.173C102.785 453.333 102.25 452.745 101.515 452.745ZM106.376 449.038H107.216V458.53H106.376V449.038ZM104.864 453.028H106.66V453.753H104.864V453.028ZM104.35 449.248H105.169V458.068H104.35V449.248ZM101.095 449.311H101.956V451.096H101.095V449.311ZM108.843 456.598H117.442V457.323H108.843V456.598ZM112.686 454.33H113.557V456.808H112.686V454.33ZM109.851 449.71H110.712V451.401H115.552V449.71H116.413V454.561H109.851V449.71ZM110.712 452.104V453.847H115.552V452.104H110.712ZM119.657 451.884H126.104V452.598H119.657V451.884ZM118.491 453.868H127.101V454.582H118.491V453.868ZM119.657 449.385H120.518V452.241H119.657V449.385ZM119.594 457.585H126.156V458.299H119.594V457.585ZM119.594 455.527H120.455V457.774H119.594V455.527ZM137.439 449.038H138.311V456.052H137.439V449.038ZM135.392 451.968H137.607V452.692H135.392V451.968ZM134.51 449.773H135.423C135.423 452.22 133.701 454.078 131.024 454.971L130.646 454.267C132.966 453.49 134.51 451.999 134.51 450.12V449.773ZM131.118 449.773H135.077V450.487H131.118V449.773ZM132.315 457.606H138.552V458.32H132.315V457.606ZM132.315 455.349H133.187V457.963H132.315V455.349ZM145.047 449.763C146.423 449.763 147.41 451.054 147.41 453.07C147.41 455.097 146.423 456.388 145.047 456.388C143.661 456.388 142.685 455.097 142.685 453.07C142.685 451.054 143.661 449.763 145.047 449.763ZM145.047 450.55C144.134 450.55 143.514 451.537 143.514 453.07C143.514 454.614 144.134 455.622 145.047 455.622C145.961 455.622 146.58 454.614 146.58 453.07C146.58 451.537 145.961 450.55 145.047 450.55ZM149.468 449.028H150.329V458.541H149.468V449.028ZM147.126 452.65H149.846V453.364H147.126V452.65ZM152.417 452.85H152.837C153.394 452.85 154.097 452.829 154.916 452.65L155.011 453.343C154.129 453.532 153.425 453.543 152.837 453.543H152.417V452.85ZM152.417 449.595H154.79V450.288H153.278V453.291H152.417V449.595ZM155.336 452.85H155.809C156.817 452.85 157.499 452.829 158.308 452.64L158.392 453.333C157.541 453.522 156.848 453.543 155.809 453.543H155.336V452.85ZM155.336 449.595H157.951V450.288H156.187V453.291H155.336V449.595ZM153.719 454.414H160.082V456.682H154.622V458.058H153.74V456.031H159.211V455.107H153.719V454.414ZM153.74 457.711H160.418V458.404H153.74V457.711ZM159.211 449.038H160.082V453.931H159.211V449.038ZM157.468 451.117H159.841V451.789H157.468V451.117ZM168.418 449.038H169.279V458.53H168.418V449.038ZM169.006 452.944H170.697V453.679H169.006V452.944ZM163.872 450.057H164.67C164.67 452.346 164.187 454.561 162.486 456.399L161.782 455.905C163.347 454.278 163.872 452.304 163.872 450.151V450.057ZM162.087 450.057H164.197V450.781H162.087V450.057ZM166.455 450.057H167.263C167.263 452.356 166.938 454.96 165.195 457.029L164.491 456.546C166.098 454.687 166.455 452.335 166.455 450.141V450.057ZM164.974 450.057H166.812V450.781H164.974V450.057ZM173.594 453.921H174.455V456.766H173.594V453.921ZM177.101 453.921H177.973V456.766H177.101V453.921ZM171.494 456.598H180.094V457.323H171.494V456.598ZM175.778 449.637C177.784 449.637 179.222 450.592 179.222 452.083C179.222 453.564 177.784 454.519 175.778 454.519C173.762 454.519 172.324 453.564 172.324 452.083C172.324 450.592 173.762 449.637 175.778 449.637ZM175.778 450.33C174.256 450.33 173.164 451.023 173.164 452.083C173.164 453.133 174.256 453.826 175.778 453.826C177.301 453.826 178.382 453.133 178.382 452.083C178.382 451.023 177.301 450.33 175.778 450.33ZM182.497 455.391C182.245 453.564 184.114 452.892 184.114 451.653C184.114 451.023 183.726 450.508 182.98 450.508C182.455 450.508 181.983 450.76 181.615 451.18L181.069 450.676C181.563 450.13 182.224 449.71 183.075 449.71C184.272 449.71 185.049 450.435 185.049 451.59C185.049 453.133 183.148 453.742 183.348 455.391H182.497ZM182.949 457.858C182.56 457.858 182.256 457.554 182.256 457.123C182.256 456.682 182.56 456.388 182.949 456.388C183.327 456.388 183.642 456.682 183.642 457.123C183.642 457.554 183.327 457.858 182.949 457.858Z" fill="#909090"/>
<path d="M19.5 490.711C19.5 484.084 24.8726 478.711 31.5 478.711H250.5C257.127 478.711 262.5 484.084 262.5 490.711V554.711C262.5 561.339 257.127 566.711 250.5 566.711H31.5C24.8726 566.711 19.5 561.339 19.5 554.711V490.711Z" fill="#F4F4F4"/>
<path d="M34.5345 494.584C35.0315 494.584 35.469 494.728 35.847 495.015C36.232 495.295 36.533 495.697 36.75 496.222C36.974 496.74 37.086 497.353 37.086 498.06C37.086 498.774 36.974 499.393 36.75 499.918C36.533 500.436 36.232 500.839 35.847 501.126C35.469 501.406 35.0315 501.546 34.5345 501.546C34.0375 501.546 33.5965 501.406 33.2115 501.126C32.8265 500.839 32.522 500.436 32.298 499.918C32.081 499.393 31.9725 498.774 31.9725 498.06C31.9725 497.353 32.081 496.74 32.298 496.222C32.522 495.697 32.8265 495.295 33.2115 495.015C33.5965 494.728 34.0375 494.584 34.5345 494.584ZM34.5345 495.855C34.2965 495.855 34.083 495.939 33.894 496.107C33.712 496.275 33.5685 496.523 33.4635 496.852C33.3655 497.174 33.3165 497.577 33.3165 498.06C33.3165 498.536 33.3655 498.942 33.4635 499.278C33.5685 499.607 33.712 499.855 33.894 500.023C34.083 500.191 34.2965 500.275 34.5345 500.275C34.7725 500.275 34.9825 500.191 35.1645 500.023C35.3465 499.855 35.4865 499.607 35.5845 499.278C35.6895 498.942 35.742 498.536 35.742 498.06C35.742 497.577 35.6895 497.174 35.5845 496.852C35.4865 496.523 35.3465 496.275 35.1645 496.107C34.9825 495.939 34.7725 495.855 34.5345 495.855ZM38.136 493.923H39.543V503.646H38.136V493.923ZM39.2385 497.587H40.95V498.732H39.2385V497.587ZM43.9522 495.508H45.0967V495.855C45.0967 496.422 44.9952 496.957 44.7922 497.461C44.5892 497.965 44.2847 498.403 43.8787 498.774C43.4727 499.145 42.9512 499.418 42.3142 499.593L41.6632 498.511C42.0622 498.399 42.4052 498.252 42.6922 498.07C42.9862 497.881 43.2242 497.668 43.4062 497.43C43.5952 497.192 43.7317 496.94 43.8157 496.674C43.9067 496.408 43.9522 496.135 43.9522 495.855V495.508ZM44.2147 495.508H45.3487V495.855C45.3487 496.114 45.3942 496.369 45.4852 496.621C45.5832 496.873 45.7232 497.111 45.9052 497.335C46.0942 497.552 46.3322 497.748 46.6192 497.923C46.9132 498.098 47.2597 498.238 47.6587 498.343L47.0182 499.435C46.3952 499.267 45.8737 499.008 45.4537 498.658C45.0407 498.301 44.7292 497.881 44.5192 497.398C44.3162 496.915 44.2147 496.401 44.2147 495.855V495.508ZM41.9992 494.878H47.3122V495.97H41.9992V494.878ZM43.9522 493.881H45.3592V495.372H43.9522V493.881ZM48.2677 493.923H49.6642V499.614H48.2677V493.923ZM43.1962 500.034H49.6642V503.541H43.1962V500.034ZM48.2992 501.126H44.5717V502.438H48.2992V501.126ZM53.6278 501.388H62.4373V502.522H53.6278V501.388ZM57.3343 499.236H58.7203V501.703H57.3343V499.236ZM57.2818 495.183H58.4683V495.54C58.4683 495.946 58.4088 496.334 58.2898 496.705C58.1778 497.076 58.0098 497.423 57.7858 497.745C57.5688 498.067 57.2993 498.354 56.9773 498.606C56.6553 498.858 56.2878 499.075 55.8748 499.257C55.4618 499.439 55.0103 499.575 54.5203 499.666L53.9638 498.553C54.3978 498.483 54.7898 498.378 55.1398 498.238C55.4968 498.098 55.8083 497.93 56.0743 497.734C56.3403 497.538 56.5608 497.321 56.7358 497.083C56.9178 496.845 57.0543 496.597 57.1453 496.338C57.2363 496.079 57.2818 495.813 57.2818 495.54V495.183ZM57.5758 495.183H58.7518V495.54C58.7518 495.813 58.7973 496.079 58.8883 496.338C58.9793 496.59 59.1158 496.835 59.2978 497.073C59.4798 497.304 59.7038 497.517 59.9698 497.713C60.2428 497.902 60.5578 498.067 60.9148 498.207C61.2788 498.347 61.6813 498.448 62.1223 498.511L61.5763 499.614C61.0723 499.523 60.6103 499.39 60.1903 499.215C59.7773 499.04 59.4063 498.826 59.0773 498.574C58.7553 498.322 58.4823 498.042 58.2583 497.734C58.0343 497.419 57.8628 497.076 57.7438 496.705C57.6318 496.334 57.5758 495.946 57.5758 495.54V495.183ZM54.3523 494.658H61.6813V495.771H54.3523V494.658ZM69.9439 493.912H71.3404V499.614H69.9439V493.912ZM66.9199 494.553H68.3899C68.3899 495.204 68.2884 495.806 68.0854 496.359C67.8824 496.912 67.5849 497.409 67.1929 497.85C66.8079 498.284 66.3319 498.665 65.7649 498.994C65.2049 499.316 64.5679 499.575 63.8539 499.771L63.3184 498.69C63.9064 498.529 64.4244 498.333 64.8724 498.102C65.3204 497.864 65.6949 497.594 65.9959 497.293C66.3039 496.992 66.5349 496.67 66.6889 496.327C66.8429 495.977 66.9199 495.61 66.9199 495.225V494.553ZM63.8854 494.553H67.8439V495.666H63.8854V494.553ZM68.0644 499.719C68.7434 499.719 69.3314 499.799 69.8284 499.96C70.3254 500.114 70.7104 500.338 70.9834 500.632C71.2564 500.919 71.3929 501.269 71.3929 501.682C71.3929 502.088 71.2564 502.438 70.9834 502.732C70.7104 503.026 70.3254 503.25 69.8284 503.404C69.3314 503.565 68.7434 503.646 68.0644 503.646C67.3854 503.646 66.7974 503.565 66.3004 503.404C65.8034 503.25 65.4184 503.026 65.1454 502.732C64.8724 502.438 64.7359 502.088 64.7359 501.682C64.7359 501.269 64.8724 500.919 65.1454 500.632C65.4184 500.338 65.8034 500.114 66.3004 499.96C66.7974 499.799 67.3854 499.719 68.0644 499.719ZM68.0644 500.821C67.6444 500.821 67.2909 500.853 67.0039 500.916C66.7169 500.979 66.4999 501.073 66.3529 501.199C66.2059 501.325 66.1324 501.486 66.1324 501.682C66.1324 501.878 66.2059 502.039 66.3529 502.165C66.4999 502.291 66.7169 502.386 67.0039 502.449C67.2909 502.512 67.6444 502.543 68.0644 502.543C68.4844 502.543 68.8379 502.512 69.1249 502.449C69.4119 502.386 69.6289 502.291 69.7759 502.165C69.9229 502.039 69.9964 501.878 69.9964 501.682C69.9964 501.486 69.9229 501.325 69.7759 501.199C69.6289 501.073 69.4119 500.979 69.1249 500.916C68.8379 500.853 68.4844 500.821 68.0644 500.821ZM79.1726 493.923H80.5691V503.646H79.1726V493.923ZM80.2541 497.713H81.9656V498.868H80.2541V497.713ZM72.8936 495.351H78.5636V496.464H72.8936V495.351ZM75.7496 497.02C76.2186 497.02 76.6386 497.122 77.0096 497.325C77.3806 497.521 77.6711 497.79 77.8811 498.133C78.0981 498.476 78.2066 498.875 78.2066 499.33C78.2066 499.785 78.0981 500.188 77.8811 500.538C77.6711 500.881 77.3806 501.154 77.0096 501.357C76.6456 501.553 76.2256 501.651 75.7496 501.651C75.2806 501.651 74.8571 501.553 74.4791 501.357C74.1081 501.154 73.8141 500.881 73.5971 500.538C73.3871 500.188 73.2821 499.785 73.2821 499.33C73.2821 498.875 73.3871 498.476 73.5971 498.133C73.8141 497.79 74.1081 497.521 74.4791 497.325C74.8571 497.122 75.2806 497.02 75.7496 497.02ZM75.7496 498.154C75.5256 498.154 75.3296 498.2 75.1616 498.291C74.9936 498.382 74.8606 498.515 74.7626 498.69C74.6646 498.865 74.6156 499.078 74.6156 499.33C74.6156 499.575 74.6646 499.789 74.7626 499.971C74.8606 500.146 74.9936 500.282 75.1616 500.38C75.3296 500.471 75.5256 500.517 75.7496 500.517C75.9666 500.517 76.1591 500.471 76.3271 500.38C76.4951 500.282 76.6281 500.146 76.7261 499.971C76.8241 499.789 76.8731 499.575 76.8731 499.33C76.8731 499.078 76.8241 498.865 76.7261 498.69C76.6281 498.515 76.4951 498.382 76.3271 498.291C76.1591 498.2 75.9666 498.154 75.7496 498.154ZM75.0356 494.08H76.4426V495.781H75.0356V494.08ZM89.3043 493.912H90.7008V503.635H89.3043V493.912ZM86.4378 494.92H87.8133C87.8133 495.662 87.7398 496.373 87.5928 497.052C87.4528 497.724 87.2148 498.357 86.8788 498.952C86.5498 499.547 86.0948 500.1 85.5138 500.611C84.9398 501.115 84.2223 501.577 83.3613 501.997L82.6263 500.895C83.5643 500.44 84.3098 499.939 84.8628 499.393C85.4228 498.84 85.8253 498.217 86.0703 497.524C86.3153 496.824 86.4378 496.04 86.4378 495.172V494.92ZM83.1513 494.92H87.0888V496.033H83.1513V494.92Z" fill="black"/>
<rect x="31.5" y="517.711" width="21" height="21" rx="10.5" fill="#D9D9D9"/>
<path d="M39.5098 531.828C39.0958 531.828 38.7328 531.702 38.4208 531.45C38.1148 531.198 37.8778 530.817 37.7098 530.307C37.5418 529.797 37.4578 529.158 37.4578 528.39C37.4578 527.622 37.5418 526.989 37.7098 526.491C37.8778 525.987 38.1148 525.612 38.4208 525.366C38.7328 525.12 39.0958 524.997 39.5098 524.997C39.9298 524.997 40.2928 525.123 40.5988 525.375C40.9048 525.621 41.1418 525.993 41.3098 526.491C41.4778 526.989 41.5618 527.622 41.5618 528.39C41.5618 529.158 41.4778 529.797 41.3098 530.307C41.1418 530.817 40.9048 531.198 40.5988 531.45C40.2928 531.702 39.9298 531.828 39.5098 531.828ZM39.5098 531.162C39.7618 531.162 39.9808 531.066 40.1668 530.874C40.3588 530.682 40.5058 530.382 40.6078 529.974C40.7158 529.56 40.7698 529.032 40.7698 528.39C40.7698 527.748 40.7158 527.226 40.6078 526.824C40.5058 526.416 40.3588 526.119 40.1668 525.933C39.9808 525.741 39.7618 525.645 39.5098 525.645C39.2638 525.645 39.0448 525.741 38.8528 525.933C38.6608 526.119 38.5108 526.416 38.4028 526.824C38.3008 527.226 38.2498 527.748 38.2498 528.39C38.2498 529.032 38.3008 529.56 38.4028 529.974C38.5108 530.382 38.6608 530.682 38.8528 530.874C39.0448 531.066 39.2638 531.162 39.5098 531.162ZM43.782 531.711C43.812 531.087 43.863 530.514 43.935 529.992C44.013 529.464 44.124 528.969 44.268 528.507C44.412 528.039 44.595 527.586 44.817 527.148C45.045 526.71 45.321 526.266 45.645 525.816H42.441V525.114H46.572V525.609C46.188 526.107 45.873 526.584 45.627 527.04C45.387 527.496 45.198 527.961 45.06 528.435C44.928 528.909 44.829 529.413 44.763 529.947C44.703 530.475 44.661 531.063 44.637 531.711H43.782Z" fill="white"/>
<path d="M40.5874 544.574C41.8024 544.574 42.6934 545.312 42.6934 546.383C42.6934 547.445 41.8024 548.183 40.5874 548.183C39.3814 548.183 38.4904 547.445 38.4904 546.383C38.4904 545.312 39.3814 544.574 40.5874 544.574ZM40.5874 545.186C39.8044 545.186 39.2104 545.681 39.2104 546.383C39.2104 547.085 39.8044 547.571 40.5874 547.571C41.3794 547.571 41.9644 547.085 41.9644 546.383C41.9644 545.681 41.3794 545.186 40.5874 545.186ZM44.2234 544.277H44.9794V548.444H44.2234V544.277ZM39.7144 548.84H44.9794V550.82H40.4614V552.044H39.7324V550.262H44.2414V549.443H39.7144V548.84ZM39.7324 551.711H45.2494V552.305H39.7324V551.711Z" fill="black"/>
<rect x="64.5" y="517.711" width="21" height="21" rx="10.5" fill="#1777E9"/>
<path fill-rule="evenodd" clip-rule="evenodd" d="M73.5669 530.269L79.3749 524.461L80.2588 525.345L73.5669 532.037L69.9999 528.47L70.8838 527.586L73.5669 530.269Z" fill="white"/>
<path d="M73.4974 547.634H74.2354V549.092H73.4974V547.634ZM77.2234 544.277H77.9704V549.065H77.2234V544.277ZM71.3734 547.886L71.2834 547.337C71.8054 547.337 72.3634 547.334 72.9574 547.328C73.5574 547.316 74.1664 547.298 74.7844 547.274C75.4024 547.244 76.0024 547.196 76.5844 547.13L76.6294 547.616C76.0354 547.7 75.4294 547.763 74.8114 547.805C74.1994 547.841 73.5994 547.865 73.0114 547.877C72.4294 547.883 71.8834 547.886 71.3734 547.886ZM72.5164 549.362H77.9704V551.054H73.2724V551.972H72.5434V550.55H77.2324V549.893H72.5164V549.362ZM72.5434 551.774H78.2404V552.323H72.5434V551.774ZM75.6034 548.147H77.4664V548.633H75.6034V548.147ZM73.9114 544.43C74.3134 544.43 74.6644 544.478 74.9644 544.574C75.2644 544.67 75.4984 544.811 75.6664 544.997C75.8344 545.183 75.9184 545.402 75.9184 545.654C75.9184 545.9 75.8344 546.116 75.6664 546.302C75.4984 546.482 75.2644 546.623 74.9644 546.725C74.6644 546.821 74.3134 546.869 73.9114 546.869C73.5094 546.869 73.1554 546.821 72.8494 546.725C72.5494 546.623 72.3154 546.482 72.1474 546.302C71.9854 546.116 71.9044 545.9 71.9044 545.654C71.9044 545.402 71.9854 545.183 72.1474 544.997C72.3154 544.811 72.5494 544.67 72.8494 544.574C73.1554 544.478 73.5094 544.43 73.9114 544.43ZM73.9114 544.943C73.5154 544.943 73.1974 545.006 72.9574 545.132C72.7234 545.258 72.6064 545.432 72.6064 545.654C72.6064 545.864 72.7234 546.035 72.9574 546.167C73.1974 546.293 73.5154 546.356 73.9114 546.356C74.3074 546.356 74.6224 546.293 74.8564 546.167C75.0964 546.035 75.2164 545.864 75.2164 545.654C75.2164 545.432 75.0964 545.258 74.8564 545.132C74.6224 545.006 74.3074 544.943 73.9114 544.943Z" fill="black"/>
<rect x="97.5" y="517.711" width="21" height="21" rx="10.5" fill="#DFEAFF"/>
<path d="M105.2 531.711L104.5 531.011L107.3 528.211L104.5 525.411L105.2 524.711L108 527.511L110.8 524.711L111.5 525.411L108.7 528.211L111.5 531.011L110.8 531.711L108 528.911L105.2 531.711Z" fill="white"/>
<path d="M106.416 549.119H107.163V550.442H106.416V549.119ZM109.836 544.268H110.583V552.413H109.836V544.268ZM110.349 547.724H111.852V548.354H110.349V547.724ZM104.328 550.865L104.211 550.235C104.703 550.235 105.237 550.232 105.813 550.226C106.395 550.214 106.989 550.19 107.595 550.154C108.201 550.118 108.786 550.061 109.35 549.983L109.404 550.532C108.822 550.634 108.228 550.709 107.622 550.757C107.022 550.805 106.44 550.835 105.876 550.847C105.318 550.859 104.802 550.865 104.328 550.865ZM104.355 545.258H109.215V545.861H104.355V545.258ZM106.794 546.329C107.172 546.329 107.505 546.392 107.793 546.518C108.081 546.644 108.306 546.821 108.468 547.049C108.63 547.271 108.711 547.535 108.711 547.841C108.711 548.141 108.63 548.405 108.468 548.633C108.306 548.861 108.081 549.038 107.793 549.164C107.505 549.284 107.172 549.344 106.794 549.344C106.416 549.344 106.08 549.284 105.786 549.164C105.498 549.038 105.273 548.861 105.111 548.633C104.955 548.405 104.877 548.141 104.877 547.841C104.877 547.535 104.955 547.271 105.111 547.049C105.273 546.821 105.498 546.644 105.786 546.518C106.08 546.392 106.416 546.329 106.794 546.329ZM106.794 546.914C106.428 546.914 106.134 546.998 105.912 547.166C105.69 547.334 105.579 547.559 105.579 547.841C105.579 548.117 105.69 548.339 105.912 548.507C106.134 548.675 106.428 548.759 106.794 548.759C107.154 548.759 107.445 548.675 107.667 548.507C107.889 548.339 108 548.117 108 547.841C108 547.559 107.889 547.334 107.667 547.166C107.445 546.998 107.154 546.914 106.794 546.914ZM106.416 544.286H107.163V545.654H106.416V544.286Z" fill="black"/>
<rect x="130.5" y="517.711" width="21" height="21" rx="10.5" fill="#1777E9"/>
<path fill-rule="evenodd" clip-rule="evenodd" d="M139.567 530.269L145.375 524.461L146.259 525.345L139.567 532.037L136 528.47L136.884 527.586L139.567 530.269Z" fill="white"/>
<path d="M140.604 544.556H141.261V545.015C141.261 545.327 141.201 545.621 141.081 545.897C140.961 546.167 140.796 546.416 140.586 546.644C140.382 546.872 140.142 547.076 139.866 547.256C139.59 547.436 139.29 547.586 138.966 547.706C138.648 547.826 138.321 547.913 137.985 547.967L137.679 547.364C137.979 547.322 138.27 547.25 138.552 547.148C138.84 547.046 139.107 546.923 139.353 546.779C139.599 546.629 139.815 546.461 140.001 546.275C140.193 546.089 140.34 545.891 140.442 545.681C140.55 545.465 140.604 545.243 140.604 545.015V544.556ZM140.73 544.556H141.378V545.015C141.378 545.243 141.432 545.462 141.54 545.672C141.648 545.882 141.795 546.08 141.981 546.266C142.173 546.452 142.392 546.62 142.638 546.77C142.884 546.92 143.148 547.046 143.43 547.148C143.718 547.25 144.009 547.322 144.303 547.364L144.006 547.967C143.67 547.913 143.343 547.826 143.025 547.706C142.707 547.58 142.407 547.427 142.125 547.247C141.849 547.067 141.606 546.863 141.396 546.635C141.192 546.407 141.03 546.158 140.91 545.888C140.79 545.612 140.73 545.321 140.73 545.015V544.556ZM140.604 549.317H141.342V552.413H140.604V549.317ZM137.31 548.849H144.663V549.47H137.31V548.849Z" fill="black"/>
<rect x="163.5" y="517.711" width="21" height="21" rx="10.5" fill="#D9D9D9"/>
<path d="M169.8 531.711V531.027H171.276V526.104H170.097V525.582C170.391 525.528 170.646 525.462 170.862 525.384C171.084 525.306 171.285 525.216 171.465 525.114H172.095V531.027H173.418V531.711H169.8ZM174.792 531.711V531.027H176.268V526.104H175.089V525.582C175.383 525.528 175.638 525.462 175.854 525.384C176.076 525.306 176.277 525.216 176.457 525.114H177.087V531.027H178.41V531.711H174.792Z" fill="white"/>
<path d="M171.255 544.61H176.718V547.373H171.255V544.61ZM175.989 545.204H171.984V546.77H175.989V545.204ZM170.31 548.39H177.663V549.002H170.31V548.39ZM173.613 547.22H174.36V548.624H173.613V547.22ZM171.129 549.839H176.754V552.413H176.007V550.442H171.129V549.839Z" fill="black"/>
<rect x="196.5" y="517.711" width="21" height="21" rx="10.5" fill="#D9D9D9"/>
<path d="M202.8 531.711V531.027H204.276V526.104H203.097V525.582C203.391 525.528 203.646 525.462 203.862 525.384C204.084 525.306 204.285 525.216 204.465 525.114H205.095V531.027H206.418V531.711H202.8ZM207.396 531.711V531.225C208.086 530.619 208.653 530.067 209.097 529.569C209.547 529.071 209.88 528.609 210.096 528.183C210.312 527.751 210.42 527.346 210.42 526.968C210.42 526.716 210.375 526.491 210.285 526.293C210.201 526.095 210.069 525.942 209.889 525.834C209.709 525.72 209.481 525.663 209.205 525.663C208.935 525.663 208.683 525.735 208.449 525.879C208.221 526.023 208.017 526.206 207.837 526.428L207.36 525.96C207.624 525.666 207.909 525.432 208.215 525.258C208.521 525.084 208.884 524.997 209.304 524.997C209.7 524.997 210.039 525.078 210.321 525.24C210.609 525.396 210.831 525.621 210.987 525.915C211.149 526.203 211.23 526.542 211.23 526.932C211.23 527.37 211.119 527.814 210.897 528.264C210.681 528.714 210.378 529.173 209.988 529.641C209.604 530.103 209.154 530.577 208.638 531.063C208.812 531.051 208.992 531.039 209.178 531.027C209.37 531.009 209.55 531 209.718 531H211.545V531.711H207.396Z" fill="white"/>
<path d="M204.246 544.7H209.484V545.312H204.246V544.7ZM203.31 547.697H210.69V548.309H203.31V547.697ZM208.998 544.7H209.736V545.303C209.736 545.645 209.724 546.023 209.7 546.437C209.676 546.851 209.598 547.343 209.466 547.913L208.728 547.868C208.86 547.316 208.938 546.836 208.962 546.428C208.986 546.014 208.998 545.639 208.998 545.303V544.7ZM204.219 549.416H209.763V552.305H204.219V549.416ZM209.025 550.01H204.948V551.693H209.025V550.01Z" fill="#909090"/>
<rect x="229.5" y="517.711" width="21" height="21" rx="10.5" fill="#D9D9D9"/>
<path d="M235.8 531.711V531.027H237.276V526.104H236.097V525.582C236.391 525.528 236.646 525.462 236.862 525.384C237.084 525.306 237.285 525.216 237.465 525.114H238.095V531.027H239.418V531.711H235.8ZM242.367 531.828C242.025 531.828 241.722 531.786 241.458 531.702C241.2 531.618 240.972 531.507 240.774 531.369C240.576 531.231 240.405 531.081 240.261 530.919L240.684 530.388C240.876 530.586 241.101 530.763 241.359 530.919C241.623 531.069 241.941 531.144 242.313 531.144C242.577 531.144 242.808 531.096 243.006 531C243.21 530.898 243.369 530.757 243.483 530.577C243.597 530.391 243.654 530.172 243.654 529.92C243.654 529.656 243.588 529.425 243.456 529.227C243.33 529.029 243.117 528.876 242.817 528.768C242.517 528.654 242.112 528.597 241.602 528.597V527.967C242.058 527.967 242.418 527.913 242.682 527.805C242.946 527.691 243.135 527.538 243.249 527.346C243.369 527.154 243.429 526.941 243.429 526.707C243.429 526.389 243.33 526.137 243.132 525.951C242.934 525.759 242.661 525.663 242.313 525.663C242.049 525.663 241.8 525.723 241.566 525.843C241.338 525.963 241.131 526.116 240.945 526.302L240.504 525.78C240.756 525.552 241.029 525.366 241.323 525.222C241.623 525.072 241.962 524.997 242.34 524.997C242.712 524.997 243.042 525.063 243.33 525.195C243.624 525.321 243.852 525.507 244.014 525.753C244.182 525.999 244.266 526.296 244.266 526.644C244.266 527.046 244.158 527.379 243.942 527.643C243.726 527.907 243.444 528.102 243.096 528.228V528.273C243.354 528.333 243.588 528.438 243.798 528.588C244.008 528.738 244.176 528.927 244.302 529.155C244.428 529.383 244.491 529.647 244.491 529.947C244.491 530.337 244.395 530.673 244.203 530.955C244.011 531.237 243.756 531.453 243.438 531.603C243.12 531.753 242.763 531.828 242.367 531.828Z" fill="white"/>
<path d="M237.255 548.498H242.844V549.101H237.255V548.498ZM236.31 550.784H243.69V551.396H236.31V550.784ZM239.613 548.804H240.36V551.063H239.613V548.804ZM237.255 544.934H242.763V545.546H238.011V548.723H237.255V544.934ZM237.777 546.68H242.583V547.283H237.777V546.68Z" fill="#909090"/>
</g>
<rect x="3" y="3.71143" width="276" height="590" rx="16.5" stroke="#E5E5E5" stroke-width="6"/>
<defs>
<clipPath id="clip0_649_9278">
<rect x="6" y="6.71143" width="270" height="584" rx="13.5" fill="white"/>
</clipPath>
<clipPath id="clip1_649_9278">
<rect width="22.5" height="22.5" fill="white" transform="translate(155.25 320.211)"/>
</clipPath>
</defs>
</svg>
