<?xml version="1.0" encoding="UTF-8"?>
<!DOCTYPE svg PUBLIC "-//W3C//DTD SVG 1.1//EN" "http://www.w3.org/Graphics/SVG/1.1/DTD/svg11.dtd">
<svg xmlns="http://www.w3.org/2000/svg" version="1.1" width="238px" height="96px" style="shape-rendering:geometricPrecision; text-rendering:geometricPrecision; image-rendering:optimizeQuality; fill-rule:evenodd; clip-rule:evenodd" xmlns:xlink="http://www.w3.org/1999/xlink">
<g><path style="opacity:0.968" fill="#407bff" d="M 57.5,21.5 C 63.6126,20.4104 68.7792,22.077 73,26.5C 79.3605,37.079 83.8605,48.4123 86.5,60.5C 85.8098,66.0218 82.6432,69.0218 77,69.5C 73.4059,68.0523 70.2393,66.0523 67.5,63.5C 65.4878,63.8396 63.4878,64.1729 61.5,64.5C 60.2645,71.774 55.9311,74.6073 48.5,73C 46.6667,72.5 45.5,71.3333 45,69.5C 44.0173,57.3283 45.0173,45.3283 48,33.5C 49.9198,28.4242 53.0865,24.4242 57.5,21.5 Z"/></g>
<g><path style="opacity:0.965" fill="#3e7afe" d="M 98.5,21.5 C 124.049,23.2532 132.549,36.2532 124,60.5C 116.517,69.4188 107.017,72.5854 95.5,70C 93.5,69.6667 91.5,69.3333 89.5,69C 88.8095,67.9326 88.3095,66.7659 88,65.5C 87.9749,52.7729 88.9749,40.1062 91,27.5C 92.354,23.9238 94.854,21.9238 98.5,21.5 Z M 106.5,36.5 C 110.06,38.2439 111.726,41.2439 111.5,45.5C 111.675,50.0078 109.675,53.0078 105.5,54.5C 104.669,48.4645 105.002,42.4645 106.5,36.5 Z"/></g>
<g><path style="opacity:0.958" fill="#3f7afe" d="M 132.5,24.5 C 138.925,24.1304 145.258,24.6304 151.5,26C 157.324,31.8898 156.49,36.7232 149,40.5C 148.333,46.1667 148.333,51.8333 149,57.5C 154.146,60.6066 155.479,64.9399 153,70.5C 149.443,72.9503 145.443,73.9503 141,73.5C 135.708,74.1784 131.041,72.845 127,69.5C 126.333,66.5 126.333,63.5 127,60.5C 128.264,58.393 130.097,57.393 132.5,57.5C 132.666,51.4908 132.499,45.4908 132,39.5C 127.319,36.1049 126.319,31.7716 129,26.5C 130.302,25.9152 131.469,25.2485 132.5,24.5 Z"/></g>
<g><path style="opacity:0.958" fill="#3e7afe" d="M 14.5,25.5 C 17.1873,25.3359 19.854,25.5026 22.5,26C 24.6667,26.8333 26.1667,28.3333 27,30.5C 28.3459,39.4414 28.8459,48.4414 28.5,57.5C 32.5138,57.3345 36.5138,57.5012 40.5,58C 44.2975,62.3676 44.2975,66.7009 40.5,71C 33.4837,72.9064 26.317,74.0731 19,74.5C 16.5941,74.2971 14.5941,73.2971 13,71.5C 10.2778,57.6137 9.27777,43.6137 10,29.5C 11.3968,27.9297 12.8968,26.5964 14.5,25.5 Z"/></g>
<g><path style="opacity:1" fill="#dfe6ff" d="M 60.5,35.5 C 61.8333,35.5 63.1667,35.5 64.5,35.5C 64.8333,38.5 63.5,39.8333 60.5,39.5C 60.5,38.1667 60.5,36.8333 60.5,35.5 Z"/></g>
<g><path style="opacity:1" fill="#e2eaff" d="M 67.5,36.5 C 70.1662,36.0658 71.3329,37.0658 71,39.5C 67.4034,41.0661 66.2368,40.0661 67.5,36.5 Z"/></g>
<g><path style="opacity:1" fill="#f0f4ff" d="M 54.5,38.5 C 55.5,38.5 56.5,38.5 57.5,38.5C 57.5,39.8333 57.5,41.1667 57.5,42.5C 54.0464,42.7332 53.0464,41.3999 54.5,38.5 Z"/></g>
<g><path style="opacity:1" fill="#f3f6ff" d="M 61.5,41.5 C 67.8057,40.7073 70.639,43.3739 70,49.5C 66.2189,54.2007 62.2189,54.534 58,50.5C 56.6649,46.3919 57.8316,43.3919 61.5,41.5 Z"/></g>
<g><path style="opacity:0.937" fill="#2b282a" d="M 197.5,9.5 C 200.843,10.5202 202.843,12.8536 203.5,16.5C 205.167,17.1667 206.833,17.8333 208.5,18.5C 216.212,12.7959 223.046,13.7959 229,21.5C 232.819,28.0883 232.152,34.0883 227,39.5C 226.667,45.1667 226.333,50.8333 226,56.5C 225.529,58.2464 224.862,59.913 224,61.5C 217.789,67.0434 212.289,73.21 207.5,80C 203.969,82.3567 200.303,84.5234 196.5,86.5C 193.091,82.6192 188.758,80.1192 183.5,79C 182.667,78.1667 181.833,77.3333 181,76.5C 177.064,79.314 173.397,78.9807 170,75.5C 169.954,72.3408 170.121,69.1741 170.5,66C 164.335,58.504 162.335,50.004 164.5,40.5C 157.478,32.1219 158.145,24.2886 166.5,17C 172.165,13.5787 177.499,14.0787 182.5,18.5C 186.797,16.6853 190.964,14.6853 195,12.5C 196.31,11.8699 197.144,10.8699 197.5,9.5 Z"/></g>
<g><path style="opacity:1" fill="#fbfbfb" d="M 212.5,69.5 C 200.819,73.4645 189.153,73.4645 177.5,69.5C 167.635,62.0826 163.969,52.2492 166.5,40C 158.825,30.7206 160.158,23.054 170.5,17C 174.892,16.353 178.725,17.5197 182,20.5C 187.998,18.4583 193.664,15.7917 199,12.5C 199.944,13.263 200.444,14.263 200.5,15.5C 199.957,16.8638 199.79,18.1971 200,19.5C 202.979,18.8102 205.979,19.1435 209,20.5C 217.453,14.534 224.12,16.2007 229,25.5C 230.545,31.1721 229.045,35.8388 224.5,39.5C 227.329,52.3652 223.329,62.3652 212.5,69.5 Z"/></g>
<g><path style="opacity:1" fill="#565353" d="M 180.5,45.5 C 180.639,43.663 181.306,43.3296 182.5,44.5C 182.043,45.2975 181.376,45.6309 180.5,45.5 Z"/></g>
<g><path style="opacity:1" fill="#575354" d="M 208.5,33.5 C 206.003,36.0818 203.003,37.5818 199.5,38C 202.243,35.9617 205.243,34.4617 208.5,33.5 Z"/></g>
<g><path style="opacity:1" fill="#5e5b5c" d="M 208.5,33.5 C 209.14,31.668 210.14,31.3347 211.5,32.5C 210.675,33.3857 209.675,33.719 208.5,33.5 Z"/></g>
<g><path style="opacity:1" fill="#fae1e0" d="M 180.5,45.5 C 182.531,46.5387 183.864,48.2054 184.5,50.5C 182.983,50.4894 181.816,49.8228 181,48.5C 181.128,51.0312 182.628,52.3646 185.5,52.5C 183.662,62.3367 178.496,64.6701 170,59.5C 166.015,49.1235 169.515,44.4569 180.5,45.5 Z"/></g>
<g><path style="opacity:1" fill="#f8dfde" d="M 205.5,52.5 C 207.305,51.7629 208.971,50.7629 210.5,49.5C 210.167,49.1667 209.833,48.8333 209.5,48.5C 208.482,49.1925 207.482,49.8592 206.5,50.5C 208.263,48.2059 209.263,45.8726 209.5,43.5C 211.896,45.0666 214.563,45.8999 217.5,46C 223.747,50.5135 224.08,55.5135 218.5,61C 214.372,63.1104 210.539,62.6104 207,59.5C 205.798,57.3225 205.298,54.9892 205.5,52.5 Z"/></g>
<g><path style="opacity:1" fill="#6d6868" d="M 206.5,50.5 C 207.482,49.8592 208.482,49.1925 209.5,48.5C 209.833,48.8333 210.167,49.1667 210.5,49.5C 208.971,50.7629 207.305,51.7629 205.5,52.5C 198.823,51.3309 192.157,51.3309 185.5,52.5C 182.628,52.3646 181.128,51.0312 181,48.5C 181.816,49.8228 182.983,50.4894 184.5,50.5C 187.187,50.6641 189.854,50.4974 192.5,50C 193.667,49.5 194.5,48.6667 195,47.5C 195.374,48.4162 195.874,49.2496 196.5,50C 199.817,50.4983 203.15,50.665 206.5,50.5 Z"/></g>
<g><path style="opacity:1" fill="#3b6fe3" d="M 177.5,69.5 C 176.07,70.5375 174.403,71.2041 172.5,71.5C 172.586,70.5041 172.252,69.6708 171.5,69C 173.545,68.5099 175.545,68.6765 177.5,69.5 Z"/></g>
<g><path style="opacity:1" fill="#3c74f1" d="M 179.5,75.5 C 177.598,76.5109 175.598,76.6776 173.5,76C 172.748,75.3292 172.414,74.4959 172.5,73.5C 174.746,72.5448 177.079,71.8782 179.5,71.5C 179.5,72.8333 179.5,74.1667 179.5,75.5 Z"/></g>
<g><path style="opacity:1" fill="#43465b" d="M 177.5,69.5 C 189.153,73.4645 200.819,73.4645 212.5,69.5C 212.737,70.791 212.404,71.791 211.5,72.5C 211.265,71.9033 210.765,71.5699 210,71.5C 201.103,74.9762 192.103,75.3096 183,72.5C 181.317,73.1765 181.15,74.1765 182.5,75.5C 181.5,75.5 180.5,75.5 179.5,75.5C 179.5,74.1667 179.5,72.8333 179.5,71.5C 177.079,71.8782 174.746,72.5448 172.5,73.5C 172.5,72.8333 172.5,72.1667 172.5,71.5C 174.403,71.2041 176.07,70.5375 177.5,69.5 Z"/></g>
<g><path style="opacity:1" fill="#3d75f4" d="M 211.5,72.5 C 207.95,77.6059 203.284,81.2725 197.5,83.5C 192.511,80.8352 187.511,78.1685 182.5,75.5C 181.15,74.1765 181.317,73.1765 183,72.5C 192.103,75.3096 201.103,74.9762 210,71.5C 210.765,71.5699 211.265,71.9033 211.5,72.5 Z"/></g>
</svg>
